<svg width="148" height="55" viewBox="0 0 148 55" fill="none" xmlns="http://www.w3.org/2000/svg">
<rect width="148" height="55" rx="10" fill="#F7D561"/>
<path d="M64.8508 28.6055H58.1008V33.1758H66.0227V36H54.5852V18.9375H65.9992V21.7852H58.1008V25.8516H64.8508V28.6055ZM72.1797 23.3203L72.2852 24.7852C73.1914 23.6523 74.4062 23.0859 75.9297 23.0859C77.2734 23.0859 78.2734 23.4805 78.9297 24.2695C79.5859 25.0586 79.9219 26.2383 79.9375 27.8086V36H76.5508V27.8906C76.5508 27.1719 76.3945 26.6523 76.082 26.332C75.7695 26.0039 75.25 25.8398 74.5234 25.8398C73.5703 25.8398 72.8555 26.2461 72.3789 27.0586V36H68.9922V23.3203H72.1797ZM83.1883 29.5664C83.1883 27.5898 83.6297 26.0156 84.5125 24.8438C85.4031 23.6719 86.618 23.0859 88.157 23.0859C89.3914 23.0859 90.4109 23.5469 91.2156 24.4688V18H94.6141V36H91.5555L91.3914 34.6523C90.5477 35.707 89.4617 36.2344 88.1336 36.2344C86.6414 36.2344 85.4422 35.6484 84.5359 34.4766C83.6375 33.2969 83.1883 31.6602 83.1883 29.5664ZM86.575 29.8125C86.575 31 86.782 31.9102 87.1961 32.543C87.6102 33.1758 88.2117 33.4922 89.0008 33.4922C90.0477 33.4922 90.7859 33.0508 91.2156 32.168V27.1641C90.7937 26.2812 90.0633 25.8398 89.0242 25.8398C87.3914 25.8398 86.575 27.1641 86.575 29.8125Z" fill="white"/>
</svg>
