<svg width="148" height="55" viewBox="0 0 148 55" fill="none" xmlns="http://www.w3.org/2000/svg">
<rect width="148" height="55" rx="10" fill="#F7D561"/>
<path d="M36.0641 28.6055H29.3141V33.1758H37.2359V36H25.7984V18.9375H37.2125V21.7852H29.3141V25.8516H36.0641V28.6055ZM45.1039 27.1055L47.2367 23.3203H50.8578L47.2484 29.5312L51.0102 36H47.3773L45.1156 32.0156L42.8656 36H39.2211L42.9828 29.5312L39.3852 23.3203H43.018L45.1039 27.1055ZM61.0344 36C60.8781 35.6953 60.7648 35.3164 60.6945 34.8633C59.8742 35.7773 58.8078 36.2344 57.4953 36.2344C56.2531 36.2344 55.2219 35.875 54.4016 35.1562C53.5891 34.4375 53.1828 33.5312 53.1828 32.4375C53.1828 31.0938 53.6789 30.0625 54.6711 29.3438C55.6711 28.625 57.1125 28.2617 58.9953 28.2539H60.5539V27.5273C60.5539 26.9414 60.4016 26.4727 60.0969 26.1211C59.8 25.7695 59.3273 25.5938 58.6789 25.5938C58.1086 25.5938 57.6594 25.7305 57.3313 26.0039C57.0109 26.2773 56.8508 26.6523 56.8508 27.1289H53.4641C53.4641 26.3945 53.6906 25.7148 54.1438 25.0898C54.5969 24.4648 55.2375 23.9766 56.0656 23.625C56.8938 23.2656 57.8234 23.0859 58.8547 23.0859C60.4172 23.0859 61.6555 23.4805 62.5695 24.2695C63.4914 25.0508 63.9523 26.1523 63.9523 27.5742V33.0703C63.9602 34.2734 64.1281 35.1836 64.4563 35.8008V36H61.0344ZM58.2336 33.6445C58.7336 33.6445 59.1945 33.5352 59.6164 33.3164C60.0383 33.0898 60.3508 32.7891 60.5539 32.4141V30.2344H59.2883C57.593 30.2344 56.6906 30.8203 56.5813 31.9922L56.5695 32.1914C56.5695 32.6133 56.718 32.9609 57.0148 33.2344C57.3117 33.5078 57.718 33.6445 58.2336 33.6445ZM70.9297 23.3203L71.0352 24.7383C71.9336 23.6367 73.1484 23.0859 74.6797 23.0859C76.3125 23.0859 77.4336 23.7305 78.043 25.0195C78.9336 23.7305 80.2031 23.0859 81.8516 23.0859C83.2266 23.0859 84.25 23.4883 84.9219 24.293C85.5938 25.0898 85.9297 26.293 85.9297 27.9023V36H82.5312V27.9141C82.5312 27.1953 82.3906 26.6719 82.1094 26.3438C81.8281 26.0078 81.332 25.8398 80.6211 25.8398C79.6055 25.8398 78.9023 26.3242 78.5117 27.293L78.5234 36H75.1367V27.9258C75.1367 27.1914 74.9922 26.6602 74.7031 26.332C74.4141 26.0039 73.9219 25.8398 73.2266 25.8398C72.2656 25.8398 71.5703 26.2383 71.1406 27.0352V36H67.7539V23.3203H70.9297ZM101.157 29.7773C101.157 31.7305 100.712 33.2969 99.8211 34.4766C98.9383 35.6484 97.743 36.2344 96.2352 36.2344C94.9539 36.2344 93.9188 35.7891 93.1297 34.8984V40.875H89.743V23.3203H92.8836L93.0008 24.5625C93.8211 23.5781 94.8914 23.0859 96.2117 23.0859C97.7742 23.0859 98.9891 23.6641 99.8563 24.8203C100.723 25.9766 101.157 27.5703 101.157 29.6016V29.7773ZM97.7703 29.5312C97.7703 28.3516 97.5594 27.4414 97.1375 26.8008C96.7234 26.1602 96.118 25.8398 95.3211 25.8398C94.2586 25.8398 93.5281 26.2461 93.1297 27.0586V32.25C93.5438 33.0859 94.282 33.5039 95.3445 33.5039C96.9617 33.5039 97.7703 32.1797 97.7703 29.5312ZM108.041 36H104.642V18H108.041V36ZM117.877 36.2344C116.018 36.2344 114.502 35.6641 113.33 34.5234C112.166 33.3828 111.584 31.8633 111.584 29.9648V29.6367C111.584 28.3633 111.83 27.2266 112.323 26.2266C112.815 25.2188 113.51 24.4453 114.409 23.9062C115.315 23.3594 116.346 23.0859 117.502 23.0859C119.237 23.0859 120.6 23.6328 121.592 24.7266C122.592 25.8203 123.092 27.3711 123.092 29.3789V30.7617H115.018C115.127 31.5898 115.455 32.2539 116.002 32.7539C116.557 33.2539 117.256 33.5039 118.1 33.5039C119.405 33.5039 120.424 33.0312 121.159 32.0859L122.823 33.9492C122.315 34.668 121.627 35.2305 120.76 35.6367C119.893 36.0352 118.932 36.2344 117.877 36.2344ZM117.491 25.8281C116.819 25.8281 116.272 26.0547 115.85 26.5078C115.436 26.9609 115.17 27.6094 115.053 28.4531H119.764V28.1836C119.748 27.4336 119.545 26.8555 119.155 26.4492C118.764 26.0352 118.209 25.8281 117.491 25.8281Z" fill="white"/>
</svg>
