<svg width="834" height="60" viewBox="0 0 834 60" fill="none" xmlns="http://www.w3.org/2000/svg">
<path d="M9.216 47.488C8.8 46.912 7.344 46.672 4.848 46.768L4.416 46.816C3.808 46.816 3.28 46.672 2.832 46.384C2.384 46.096 2.208 45.776 2.304 45.424C2.368 44.592 3.696 44.16 6.288 44.128L8.832 44.08L9.312 43.12C9.568 42.384 9.936 41.2 10.416 39.568C10.576 38.96 10.912 37.936 11.424 36.496C12.416 33.424 12.944 31.76 13.008 31.504C13.168 31.12 13.424 30.352 13.776 29.2C14.128 28.048 14.4 27.104 14.592 26.368C16.096 21.728 16.704 19.376 16.416 19.312C16.096 19.28 15.216 19.344 13.776 19.504C12.368 19.632 11.584 19.744 11.424 19.84C11.328 19.968 11.168 20.032 10.944 20.032C10.752 20.032 10.544 19.968 10.32 19.84C10.096 19.68 9.952 19.504 9.888 19.312C9.856 19.184 9.84 19.008 9.84 18.784C9.84 18.56 9.936 18.384 10.128 18.256C10.48 17.968 11.248 17.648 12.432 17.296C13.648 16.912 14.816 16.656 15.936 16.528C16.48 16.464 17.024 16.352 17.568 16.192C18.144 16 18.576 15.776 18.864 15.52C19.536 15.296 20.096 15.2 20.544 15.232C20.768 15.392 21.312 15.472 22.176 15.472C22.912 15.472 23.472 15.456 23.856 15.424C25.008 15.296 25.984 15.232 26.784 15.232C27.392 15.232 27.824 15.296 28.08 15.424C28.368 15.552 28.592 15.76 28.752 16.048C28.88 16.56 28.944 16.896 28.944 17.056C28.944 17.664 28.592 17.952 27.888 17.92C27.344 18.048 26.032 18.144 23.952 18.208C21.68 18.4 20.464 18.624 20.304 18.88C20.144 19.04 20.016 19.184 19.92 19.312C19.856 19.44 19.776 19.568 19.68 19.696C19.712 19.824 19.632 20.24 19.44 20.944C19.28 21.616 19.072 22.304 18.816 23.008L17.952 25.552C17.056 28.336 16.48 30.048 16.224 30.688C16 31.232 15.84 31.792 15.744 32.368C15.2 34.256 14.752 35.76 14.4 36.88C14.048 37.968 13.776 38.848 13.584 39.52C12.976 41.312 12.512 42.816 12.192 44.032L14.928 43.792C16.816 43.6 18.048 43.504 18.624 43.504C19.072 43.504 19.376 43.552 19.536 43.648C19.728 43.744 19.872 43.936 19.968 44.224C20.352 44.704 20.544 45.104 20.544 45.424C20.544 45.808 20.24 46.08 19.632 46.24C19.024 46.4 18.08 46.464 16.8 46.432C15.328 46.496 14.096 46.544 13.104 46.576C12.144 46.64 11.488 46.72 11.136 46.816C10.816 46.912 10.624 47.072 10.56 47.296C10.56 47.552 10.416 47.68 10.128 47.68C9.808 47.68 9.504 47.616 9.216 47.488ZM53.0198 46.912C52.2197 47.104 51.6757 46.752 51.3877 45.856C50.9397 44.608 50.7157 43.296 50.7157 41.92C50.7157 41.536 50.7318 41.264 50.7638 41.104L50.8597 40.096L48.9878 41.584C47.9637 42.48 46.9397 43.152 45.9158 43.6C44.9237 44.048 44.0117 44.272 43.1797 44.272C42.6357 44.176 42.1077 43.952 41.5957 43.6C41.1157 43.216 40.7637 42.768 40.5397 42.256C40.4117 42 40.3477 41.616 40.3477 41.104C40.3477 39.92 40.6677 38.528 41.3077 36.928C41.9477 35.296 42.7477 33.952 43.7077 32.896C45.0837 30.816 46.6197 29.776 48.3157 29.776C49.1157 29.776 49.9157 30.016 50.7157 30.496C51.5157 30.816 51.9798 30.976 52.1078 30.976C52.2997 30.976 52.4437 30.896 52.5398 30.736C52.6358 30.576 52.7318 30.288 52.8277 29.872C53.1797 28.4 53.5157 27.168 53.8357 26.176C54.5398 24.064 55.1478 22.368 55.6598 21.088C56.1718 19.808 56.7958 18.4 57.5318 16.864C57.8518 16.192 58.1238 15.76 58.3478 15.568C58.6038 15.344 58.8758 15.248 59.1637 15.28C59.8678 15.28 60.4118 15.76 60.7958 16.72C60.8918 16.944 60.9397 17.168 60.9397 17.392C60.9397 17.616 60.8438 17.92 60.6518 18.304C59.8198 19.744 58.7958 22.096 57.5798 25.36C56.3638 28.624 55.4198 31.456 54.7478 33.856C54.4598 34.912 54.2038 36.432 53.9798 38.416C53.7878 40.4 53.6918 42.048 53.6918 43.36C53.6918 43.936 53.7238 44.352 53.7878 44.608C53.9478 45.152 54.0278 45.632 54.0278 46.048C54.0278 46.368 53.9478 46.576 53.7878 46.672C53.6278 46.8 53.3718 46.88 53.0198 46.912ZM44.9077 41.584C45.6437 41.424 46.5397 40.944 47.5957 40.144C47.7878 40.016 48.2518 39.68 48.9878 39.136C49.7238 38.592 50.2838 38.016 50.6678 37.408C51.0518 36.8 51.3238 36.112 51.4837 35.344C51.5158 34.768 51.4518 34.304 51.2917 33.952C51.1638 33.568 50.8918 33.2 50.4757 32.848C50.1558 32.624 49.7558 32.512 49.2757 32.512C48.4117 32.512 47.6117 32.864 46.8757 33.568C46.0117 34.336 45.2437 35.328 44.5717 36.544C43.8997 37.76 43.3877 39.168 43.0357 40.768C42.9397 41.376 43.2597 41.68 43.9957 41.68C44.3797 41.68 44.6837 41.648 44.9077 41.584ZM64.9995 45.28C64.6155 45.28 64.3115 45.216 64.0875 45.088C63.8635 44.96 63.5435 44.72 63.1275 44.368C62.0715 43.248 61.5435 42.224 61.5435 41.296C61.5435 41.072 61.5595 40.912 61.5915 40.816C61.6875 40.592 61.7195 40.368 61.6875 40.144C61.6875 39.92 61.6875 39.776 61.6875 39.712C61.5595 39.584 61.4955 39.504 61.4955 39.472C61.4955 39.408 61.5275 39.36 61.5915 39.328C61.6555 39.264 61.7035 39.2 61.7355 39.136C61.9275 39.136 61.9915 38.96 61.9275 38.608C61.8635 38.352 61.9915 37.792 62.3115 36.928C62.6315 36.032 63.0315 35.216 63.5115 34.48C63.8635 33.904 64.3755 33.184 65.0475 32.32C65.7515 31.456 66.3755 30.8 66.9195 30.352C67.6875 29.68 68.3755 29.184 68.9835 28.864C69.5915 28.544 70.2635 28.304 70.9995 28.144C71.6395 27.984 72.0715 27.904 72.2955 27.904C72.5195 27.904 72.7115 27.968 72.8715 28.096C73.0635 28.192 73.3035 28.384 73.5915 28.672C74.4555 29.056 75.0475 29.552 75.3675 30.16C75.7195 30.736 75.8955 31.648 75.8955 32.896C75.8955 34.976 75.0475 37.232 73.3515 39.664C72.6155 40.72 71.9275 41.536 71.2875 42.112C70.6475 42.656 69.7995 43.248 68.7435 43.888C68.0715 44.368 67.4475 44.72 66.8715 44.944C66.3275 45.136 65.7035 45.248 64.9995 45.28ZM69.6075 40.192C70.3755 39.328 70.9835 38.512 71.4315 37.744C71.9115 36.976 72.3595 36 72.7755 34.816C72.9355 34.272 73.0155 33.616 73.0155 32.848C73.0155 31.888 72.8875 31.344 72.6315 31.216C72.3115 31.056 71.9915 30.976 71.6715 30.976C70.9675 30.976 70.2315 31.296 69.4635 31.936C68.5355 32.736 67.7035 33.728 66.9675 34.912C66.2315 36.064 65.4795 37.504 64.7115 39.232C64.3915 39.904 64.2315 40.56 64.2315 41.2C64.2315 41.68 64.3435 42.064 64.5675 42.352C64.8235 42.64 65.1595 42.784 65.5755 42.784C66.6315 42.784 67.9755 41.92 69.6075 40.192ZM95.8894 45.424C95.4094 45.424 94.9134 45.056 94.4014 44.32C93.9214 43.552 93.6814 42.8 93.6814 42.064C93.6814 41.552 93.7934 40.64 94.0174 39.328C94.2734 37.984 94.5774 36.672 94.9294 35.392C95.1214 34.816 95.2174 34.4 95.2174 34.144C95.2174 33.984 95.1534 33.904 95.0254 33.904C94.8974 33.904 94.5134 34.096 93.8734 34.48C92.8494 35.024 92.1454 35.52 91.7614 35.968C91.6014 36.096 91.3454 36.32 90.9934 36.64C90.6414 36.96 90.3214 37.216 90.0334 37.408C89.4254 37.888 88.6094 38.592 87.5854 39.52C86.5934 40.416 85.7774 41.184 85.1374 41.824C84.9454 42.176 84.6734 42.352 84.3214 42.352C84.2254 42.352 84.0814 42.32 83.8894 42.256C83.5054 42.16 83.1694 41.952 82.8814 41.632C82.5934 41.28 82.4494 40.912 82.4494 40.528C82.4494 40.048 82.7214 39.04 83.2654 37.504C83.8414 35.968 84.5454 34.288 85.3774 32.464C85.5054 32.24 85.6174 31.92 85.7134 31.504C85.8094 31.056 85.8574 30.64 85.8574 30.256C85.8574 30.032 85.9054 29.776 86.0014 29.488C86.0974 29.2 86.2094 28.992 86.3374 28.864C86.4334 28.704 86.5774 28.624 86.7694 28.624C87.1854 28.624 87.5374 28.864 87.8254 29.344C88.3374 29.824 88.5934 30.432 88.5934 31.168C88.5934 31.776 88.4174 32.56 88.0654 33.52C87.8414 33.968 87.6654 34.336 87.5374 34.624C87.4414 34.88 87.3774 35.056 87.3454 35.152C87.4414 35.152 87.8574 34.928 88.5934 34.48L89.7934 33.76L91.2334 32.656C91.9694 32.08 92.3854 31.792 92.4814 31.792C92.6094 31.792 92.7694 31.744 92.9614 31.648C93.1534 31.552 93.3134 31.44 93.4414 31.312C93.5374 31.216 93.6174 31.152 93.6814 31.12C93.7774 31.088 93.8414 31.072 93.8734 31.072C93.9054 31.072 93.9854 31.056 94.1134 31.024C94.2414 30.992 94.3534 30.928 94.4494 30.832C94.5774 30.704 94.8014 30.64 95.1214 30.64C95.5694 30.64 96.0174 30.784 96.4654 31.072C96.9134 31.36 97.1374 31.68 97.1374 32.032C97.1374 32.128 97.1694 32.224 97.2334 32.32C97.2974 32.384 97.3454 32.432 97.3774 32.464C97.5054 32.464 97.6174 32.64 97.7134 32.992C97.8094 33.312 97.8574 33.712 97.8574 34.192C97.8574 34.896 97.7774 35.488 97.6174 35.968C97.6174 36.32 97.5534 36.768 97.4254 37.312C97.2974 37.856 97.2174 38.208 97.1854 38.368L96.8974 39.616C96.4814 40.896 96.2734 41.952 96.2734 42.784C96.2734 43.424 96.4014 43.92 96.6574 44.272C96.7214 44.4 96.7534 44.528 96.7534 44.656C96.7534 44.848 96.6734 45.024 96.5134 45.184C96.3854 45.344 96.1774 45.424 95.8894 45.424ZM108.859 24.88C108.731 24.88 108.619 24.864 108.523 24.832C108.427 24.768 108.315 24.672 108.187 24.544V24.352C108.187 24.064 108.347 23.712 108.667 23.296C109.883 21.312 110.651 19.872 110.971 18.976C111.003 18.72 111.099 18.272 111.259 17.632C111.419 16.992 111.499 16.4 111.499 15.856V15.664C111.499 15.344 111.547 15.056 111.643 14.8C111.739 14.544 111.883 14.464 112.075 14.56C112.203 14.624 112.475 14.752 112.891 14.944C113.307 15.136 113.611 15.36 113.803 15.616C114.027 15.872 114.107 16.16 114.043 16.48C113.979 17.216 113.723 18.224 113.275 19.504C113.115 19.888 112.987 20.24 112.891 20.56C112.731 21.2 112.443 21.808 112.027 22.384C111.643 22.96 111.115 23.632 110.443 24.4C110.443 24.464 110.395 24.528 110.299 24.592C110.203 24.624 110.059 24.672 109.867 24.736C109.707 24.768 109.515 24.816 109.291 24.88H108.859ZM116.836 45.664C116.324 45.568 115.796 45.232 115.252 44.656C114.74 44.048 114.404 43.488 114.244 42.976C114.244 42.912 114.212 42.848 114.148 42.784C114.084 42.688 114.036 42.624 114.004 42.592C113.876 42.496 113.812 41.968 113.812 41.008C113.812 40.24 113.844 39.44 113.908 38.608C114.004 37.776 114.116 37.104 114.244 36.592L115.108 34.048L115.78 32.128L117.076 29.344L115.156 28.816C114.932 28.784 114.74 28.672 114.58 28.48C114.452 28.288 114.388 28.112 114.388 27.952C114.388 27.696 114.516 27.392 114.772 27.04C115.06 26.656 115.284 26.464 115.444 26.464C115.54 26.496 115.796 26.512 116.212 26.512C117.172 26.512 117.892 26.464 118.372 26.368C118.692 26.24 118.916 25.984 119.044 25.6C119.172 25.344 119.316 25.024 119.476 24.64C119.668 24.256 119.844 23.904 120.004 23.584C120.1 23.392 120.244 23.104 120.436 22.72C120.66 22.304 120.932 21.84 121.252 21.328C121.316 21.232 121.46 21.008 121.684 20.656C121.908 20.272 122.18 19.952 122.5 19.696C122.724 19.472 122.996 19.36 123.316 19.36C123.636 19.36 124.052 19.568 124.564 19.984C124.628 20.08 124.708 20.208 124.804 20.368C124.932 20.528 124.996 20.672 124.996 20.8C124.996 20.928 124.868 21.2 124.612 21.616C124.42 22 124.228 22.352 124.036 22.672C123.876 22.96 123.732 23.216 123.604 23.44C123.22 24.08 122.948 24.56 122.788 24.88C122.468 25.296 122.308 25.616 122.308 25.84C122.308 26.064 122.516 26.176 122.932 26.176C123.38 26.176 124.132 26.08 125.188 25.888C125.636 25.824 125.94 25.792 126.1 25.792C127.22 25.792 127.828 26.256 127.924 27.184C127.956 27.376 127.972 27.6 127.972 27.856C127.972 28.304 127.812 28.576 127.492 28.672C127.204 28.768 126.532 28.816 125.476 28.816C124.452 28.976 123.396 29.056 122.308 29.056C122.116 29.056 121.892 29.072 121.636 29.104C121.412 29.104 121.172 29.136 120.916 29.2C120.66 29.264 120.468 29.36 120.34 29.488C120.244 29.616 120.132 29.824 120.004 30.112C119.908 30.208 119.684 30.576 119.332 31.216C118.884 32.144 118.596 32.704 118.468 32.896C117.604 35.456 116.964 38.08 116.548 40.768C116.484 41.28 116.452 41.6 116.452 41.728C116.452 42.208 116.612 42.544 116.932 42.736C117.252 42.928 117.796 43.024 118.564 43.024C119.652 43.024 120.596 42.912 121.396 42.688C122.356 42.272 123.076 41.92 123.556 41.632C123.844 41.472 124.1 41.328 124.324 41.2C124.58 41.04 124.756 40.928 124.852 40.864C124.948 40.672 125.06 40.576 125.188 40.576C125.444 40.576 125.668 40.832 125.86 41.344C125.86 41.856 125.748 42.304 125.524 42.688C125.3 43.072 124.74 43.52 123.844 44.032C121.988 45.216 120.132 45.808 118.276 45.808C117.764 45.808 117.284 45.76 116.836 45.664ZM146.127 43.744C145.775 43.552 145.519 43.36 145.359 43.168C145.231 42.976 145.167 42.704 145.167 42.352C145.167 41.712 145.359 40.688 145.743 39.28C145.839 38.48 145.935 37.84 146.031 37.36C146.159 36.848 146.367 36.352 146.655 35.872C146.783 35.392 147.007 34.672 147.327 33.712C148.031 31.472 148.511 29.744 148.767 28.528C149.023 27.824 149.247 27.2 149.439 26.656C149.631 26.112 149.807 25.616 149.967 25.168C149.903 25.36 150.303 24.272 151.167 21.904C151.423 21.136 151.599 20.544 151.695 20.128C152.047 18.688 152.447 17.6 152.895 16.864C153.119 16.544 153.279 16.272 153.375 16.048C153.503 15.824 153.615 15.648 153.711 15.52C153.711 15.456 153.759 15.408 153.855 15.376C153.951 15.312 154.063 15.28 154.191 15.28C154.575 15.28 154.895 15.408 155.151 15.664C155.311 15.6 155.503 15.792 155.727 16.24C155.983 16.688 156.095 17.04 156.063 17.296C156.063 17.712 155.951 18.096 155.727 18.448C155.599 18.576 155.455 18.816 155.295 19.168C155.135 19.488 154.991 19.76 154.863 19.984C154.799 20.208 154.687 20.592 154.527 21.136C154.399 21.648 154.271 22.08 154.143 22.432C153.983 22.816 153.823 23.184 153.663 23.536C153.535 23.856 153.423 24.144 153.327 24.4C153.199 24.816 152.975 25.44 152.655 26.272C152.207 27.36 151.903 28.208 151.743 28.816C151.679 29.008 151.567 29.408 151.407 30.016C150.959 31.616 150.527 32.784 150.111 33.52C149.855 33.936 149.663 34.496 149.535 35.2C149.439 35.904 149.375 36.336 149.343 36.496C148.863 37.936 148.623 38.784 148.623 39.04C148.559 39.328 148.447 39.888 148.287 40.72C148.095 41.744 147.903 42.48 147.711 42.928C147.647 43.664 147.407 44.032 146.991 44.032C146.735 44.032 146.447 43.936 146.127 43.744ZM161.053 24.976C160.829 24.752 160.637 24.368 160.477 23.824C160.317 23.28 160.317 23.008 160.477 23.008C160.733 22.976 161.021 22.704 161.341 22.192C161.693 21.648 161.853 21.2 161.821 20.848C161.821 20.72 161.869 20.608 161.965 20.512C162.061 20.384 162.173 20.304 162.301 20.272C162.557 20.112 162.781 20.032 162.973 20.032C163.517 20.032 164.013 20.416 164.461 21.184C164.653 21.6 164.749 21.968 164.749 22.288C164.749 22.576 164.669 22.88 164.509 23.2C164.349 23.488 164.061 23.872 163.645 24.352C163.101 25.088 162.589 25.456 162.109 25.456C161.789 25.456 161.437 25.296 161.053 24.976ZM156.397 44.464C155.949 44.016 155.725 43.376 155.725 42.544C155.725 42.096 155.805 41.712 155.965 41.392C155.965 41.232 155.997 41.04 156.061 40.816C156.125 40.592 156.157 40.448 156.157 40.384C156.125 40.192 156.253 39.664 156.541 38.8C157.117 37.52 157.885 35.264 158.845 32.032C158.845 31.872 158.909 31.744 159.037 31.648C159.165 31.52 159.357 31.44 159.613 31.408C159.869 31.344 160.045 31.312 160.141 31.312C160.333 31.312 160.493 31.392 160.621 31.552C160.781 31.68 160.989 31.936 161.245 32.32C161.437 32.512 161.533 32.8 161.533 33.184C161.533 33.792 161.325 34.528 160.909 35.392C160.493 36.32 160.221 37.12 160.093 37.792C159.709 38.656 159.405 39.456 159.181 40.192C159.117 40.384 159.021 40.768 158.893 41.344C158.765 41.92 158.589 42.384 158.365 42.736C158.173 43.632 157.997 44.256 157.837 44.608C157.677 44.96 157.501 45.136 157.309 45.136C157.085 45.136 156.781 44.912 156.397 44.464ZM179.606 46.096C179.51 46.192 179.254 46.24 178.838 46.24C178.134 46.24 177.526 46.112 177.014 45.856C176.918 45.792 176.726 45.632 176.438 45.376C176.182 45.12 175.99 44.896 175.862 44.704L174.086 42.832C173.926 42.512 173.302 41.808 172.214 40.72C171.862 40.272 171.526 39.92 171.206 39.664C170.918 39.376 170.71 39.232 170.582 39.232L169.046 44.512C168.79 44.96 168.582 45.264 168.422 45.424C168.262 45.584 168.07 45.664 167.846 45.664C167.462 45.664 167.142 45.504 166.886 45.184C166.63 44.832 166.502 44.368 166.502 43.792C166.246 42.864 167.094 39.968 169.046 35.104C169.142 34.656 169.302 34.144 169.526 33.568C169.75 32.96 169.91 32.528 170.006 32.272C170.518 30.64 171.398 28.368 172.646 25.456L173.51 23.488C174.054 22.368 174.646 21.2 175.286 19.984C176.982 16.848 178.054 15.024 178.502 14.512C178.758 14.256 179.062 14.128 179.414 14.128C179.766 14.128 180.07 14.256 180.326 14.512C180.646 14.896 180.806 15.232 180.806 15.52C180.806 16.064 180.406 16.976 179.606 18.256C179.254 18.992 178.934 19.6 178.646 20.08C178.39 20.432 178.086 20.944 177.734 21.616C177.51 22.256 177.27 22.576 177.014 22.576C176.982 22.736 176.918 22.944 176.822 23.2C176.758 23.456 176.662 23.712 176.534 23.968C176.438 24.288 176.278 24.672 176.054 25.12C175.83 25.568 175.686 25.888 175.622 26.08C175.558 26.208 175.462 26.4 175.334 26.656C175.238 26.912 175.078 27.232 174.854 27.616C173.958 29.472 173.462 30.624 173.366 31.072C173.366 31.104 173.382 31.12 173.414 31.12C173.478 31.12 173.606 31.056 173.798 30.928C173.99 30.8 174.15 30.688 174.278 30.592C175.046 29.984 175.926 29.392 176.918 28.816C177.91 28.24 178.678 27.904 179.222 27.808C179.638 27.68 180.022 27.616 180.374 27.616C180.726 27.616 181.046 27.68 181.334 27.808C182.07 28.256 182.55 29.04 182.774 30.16C182.774 30.672 182.518 31.504 182.006 32.656C181.526 33.776 181.078 34.512 180.662 34.864C180.438 34.96 180.262 35.056 180.134 35.152C180.038 35.216 179.974 35.264 179.942 35.296C179.942 35.424 179.878 35.6 179.75 35.824C179.622 36.016 179.446 36.16 179.222 36.256C178.774 36.704 178.55 37.008 178.55 37.168V37.408C178.454 37.408 178.246 37.52 177.926 37.744C177.638 37.968 177.366 38.176 177.11 38.368C176.758 38.72 176.47 38.928 176.246 38.992C176.054 39.056 175.894 39.104 175.766 39.136C175.702 39.2 175.558 39.28 175.334 39.376C175.142 39.44 175.046 39.52 175.046 39.616C175.046 39.84 175.558 40.544 176.582 41.728C177.638 42.88 178.358 43.584 178.742 43.84C179.062 44 179.302 44.256 179.462 44.608C179.622 44.928 179.702 45.248 179.702 45.568C179.702 45.728 179.67 45.904 179.606 46.096ZM173.846 37.6C174.39 37.216 175.334 36.464 176.678 35.344C178.054 34.192 178.902 33.408 179.222 32.992C179.414 32.8 179.606 32.496 179.798 32.08C179.99 31.632 180.086 31.248 180.086 30.928C180.086 30.8 180.054 30.672 179.99 30.544C179.926 30.384 179.014 30.752 177.254 31.648C176.262 32.224 175.238 32.944 174.182 33.808C173.126 34.672 172.374 35.472 171.926 36.208C171.83 36.528 171.942 36.864 172.262 37.216C172.582 37.536 172.95 37.696 173.366 37.696C173.59 37.696 173.75 37.664 173.846 37.6ZM191.761 46.144C190.385 46.144 189.249 45.632 188.353 44.608C187.457 43.584 187.009 42.304 187.009 40.768C187.009 39.232 187.345 37.552 188.017 35.728C188.721 33.872 189.617 32.208 190.705 30.736C191.793 29.264 192.897 28.272 194.017 27.76C194.657 27.408 195.377 27.232 196.177 27.232C196.785 27.232 197.473 27.408 198.241 27.76C198.785 27.984 199.201 28.256 199.489 28.576C199.777 28.896 200.033 29.392 200.257 30.064C200.353 30.64 200.401 31.04 200.401 31.264C200.401 31.456 200.321 31.872 200.161 32.512C199.777 33.696 199.265 34.704 198.625 35.536C198.017 36.336 197.217 37.024 196.225 37.6C195.713 37.92 195.073 38.08 194.305 38.08C193.633 38.08 192.993 37.968 192.385 37.744C191.809 37.488 191.361 37.12 191.041 36.64L190.705 36.256L190.561 36.64C189.889 38.368 189.553 39.84 189.553 41.056C189.553 41.888 189.713 42.56 190.033 43.072C190.257 43.424 190.801 43.6 191.665 43.6C192.305 43.6 192.769 43.536 193.057 43.408C193.537 43.248 193.953 43.056 194.305 42.832C194.689 42.576 195.057 42.32 195.409 42.064L195.601 41.968H195.553C195.937 41.776 196.257 41.6 196.513 41.44C196.769 41.28 196.945 41.168 197.041 41.104C197.105 41.104 197.169 41.088 197.233 41.056C197.297 41.024 197.361 40.96 197.425 40.864C197.713 40.736 198.049 40.784 198.433 41.008C198.817 41.232 199.009 41.52 199.009 41.872C198.945 42.128 198.657 42.544 198.145 43.12C197.633 43.696 197.249 44 196.993 44.032C196.961 44.032 196.849 44.08 196.657 44.176C196.465 44.272 196.337 44.352 196.273 44.416H196.321C196.033 44.8 195.745 44.992 195.457 44.992H195.073C194.945 45.248 194.513 45.504 193.777 45.76C193.073 46.016 192.401 46.144 191.761 46.144ZM193.921 35.584C194.881 35.584 195.761 35.04 196.561 33.952C197.329 32.928 197.713 31.904 197.713 30.88C197.713 30.336 197.601 29.952 197.377 29.728C197.185 29.632 197.009 29.584 196.849 29.584C196.689 29.584 196.417 29.632 196.033 29.728C195.617 29.824 194.977 30.272 194.113 31.072C193.249 31.84 192.609 32.528 192.193 33.136L191.569 34.144C191.825 34.048 192.065 34 192.289 34C192.545 33.968 192.689 33.984 192.721 34.048C192.721 34.496 192.833 34.864 193.057 35.152C193.281 35.44 193.569 35.584 193.921 35.584ZM222.979 45.664C222.467 45.568 221.939 45.232 221.395 44.656C220.883 44.048 220.547 43.488 220.387 42.976C220.387 42.912 220.355 42.848 220.291 42.784C220.227 42.688 220.179 42.624 220.147 42.592C220.019 42.496 219.955 41.968 219.955 41.008C219.955 40.24 219.987 39.44 220.051 38.608C220.147 37.776 220.259 37.104 220.387 36.592L221.251 34.048L221.923 32.128L223.219 29.344L221.299 28.816C221.075 28.784 220.883 28.672 220.723 28.48C220.595 28.288 220.531 28.112 220.531 27.952C220.531 27.696 220.659 27.392 220.915 27.04C221.203 26.656 221.427 26.464 221.587 26.464C221.683 26.496 221.939 26.512 222.355 26.512C223.315 26.512 224.035 26.464 224.515 26.368C224.835 26.24 225.059 25.984 225.187 25.6C225.315 25.344 225.459 25.024 225.619 24.64C225.811 24.256 225.987 23.904 226.147 23.584C226.243 23.392 226.387 23.104 226.579 22.72C226.803 22.304 227.075 21.84 227.395 21.328C227.459 21.232 227.603 21.008 227.827 20.656C228.051 20.272 228.323 19.952 228.643 19.696C228.867 19.472 229.139 19.36 229.459 19.36C229.779 19.36 230.195 19.568 230.707 19.984C230.771 20.08 230.851 20.208 230.947 20.368C231.075 20.528 231.139 20.672 231.139 20.8C231.139 20.928 231.011 21.2 230.755 21.616C230.563 22 230.371 22.352 230.179 22.672C230.019 22.96 229.875 23.216 229.747 23.44C229.363 24.08 229.091 24.56 228.931 24.88C228.611 25.296 228.451 25.616 228.451 25.84C228.451 26.064 228.659 26.176 229.075 26.176C229.523 26.176 230.275 26.08 231.331 25.888C231.779 25.824 232.083 25.792 232.243 25.792C233.363 25.792 233.971 26.256 234.067 27.184C234.099 27.376 234.115 27.6 234.115 27.856C234.115 28.304 233.955 28.576 233.635 28.672C233.347 28.768 232.675 28.816 231.619 28.816C230.595 28.976 229.539 29.056 228.451 29.056C228.259 29.056 228.035 29.072 227.779 29.104C227.555 29.104 227.315 29.136 227.059 29.2C226.803 29.264 226.611 29.36 226.483 29.488C226.387 29.616 226.275 29.824 226.147 30.112C226.051 30.208 225.827 30.576 225.475 31.216C225.027 32.144 224.739 32.704 224.611 32.896C223.747 35.456 223.107 38.08 222.691 40.768C222.627 41.28 222.595 41.6 222.595 41.728C222.595 42.208 222.755 42.544 223.075 42.736C223.395 42.928 223.939 43.024 224.707 43.024C225.795 43.024 226.739 42.912 227.539 42.688C228.499 42.272 229.219 41.92 229.699 41.632C229.987 41.472 230.243 41.328 230.467 41.2C230.723 41.04 230.899 40.928 230.995 40.864C231.091 40.672 231.203 40.576 231.331 40.576C231.587 40.576 231.811 40.832 232.003 41.344C232.003 41.856 231.891 42.304 231.667 42.688C231.443 43.072 230.883 43.52 229.987 44.032C228.131 45.216 226.275 45.808 224.419 45.808C223.907 45.808 223.427 45.76 222.979 45.664ZM242.326 45.712C241.942 45.744 241.622 45.728 241.366 45.664C241.142 45.568 240.806 45.376 240.358 45.088C238.982 43.968 238.31 42.864 238.342 41.776C238.374 41.68 238.39 41.536 238.39 41.344C238.39 41.152 238.374 41.008 238.342 40.912C238.31 40.784 238.294 40.704 238.294 40.672C238.166 40.576 238.086 40.512 238.054 40.48C238.054 40.416 238.07 40.352 238.102 40.288C238.166 40.224 238.214 40.16 238.246 40.096C238.374 40.064 238.438 40 238.438 39.904C238.438 39.808 238.406 39.696 238.342 39.568C238.246 39.312 238.294 38.736 238.486 37.84C238.71 36.912 238.998 36.048 239.35 35.248C239.606 34.64 240.006 33.856 240.55 32.896C241.126 31.936 241.654 31.2 242.134 30.688C242.806 29.92 243.414 29.328 243.958 28.912C244.534 28.496 245.19 28.16 245.926 27.904C246.598 27.616 247.062 27.472 247.318 27.472C247.638 27.472 248.038 27.664 248.518 28.048C249.286 28.272 249.862 28.592 250.246 29.008C250.662 29.392 250.982 30 251.206 30.832C251.398 31.504 251.494 32.256 251.494 33.088C251.494 34.88 250.934 36.848 249.814 38.992C249.238 40.144 248.678 41.04 248.134 41.68C247.59 42.288 246.838 43.008 245.878 43.84C245.206 44.384 244.614 44.8 244.102 45.088C243.622 45.376 243.03 45.584 242.326 45.712ZM246.166 40C246.838 39.008 247.35 38.112 247.702 37.312C248.054 36.48 248.342 35.456 248.566 34.24C248.598 34.112 248.614 33.856 248.614 33.472C248.614 32.832 248.55 32.224 248.422 31.648C248.294 31.072 248.134 30.768 247.942 30.736C247.686 30.64 247.446 30.592 247.222 30.592C246.486 30.592 245.702 31.024 244.87 31.888C244.102 32.784 243.43 33.872 242.854 35.152C242.31 36.4 241.766 37.936 241.222 39.76C241.062 40.4 240.982 40.912 240.982 41.296C240.982 41.872 241.094 42.336 241.318 42.688C241.542 43.008 241.862 43.168 242.278 43.168C242.79 43.168 243.382 42.912 244.054 42.4C244.726 41.856 245.43 41.056 246.166 40ZM279.273 44.32C278.473 45.024 277.513 45.376 276.393 45.376C275.593 45.376 274.825 45.184 274.089 44.8C273.385 44.416 272.793 43.888 272.313 43.216C271.897 42.704 271.593 42.128 271.401 41.488C271.209 40.848 271.113 40.064 271.113 39.136C271.113 38.816 271.145 38.176 271.209 37.216C271.305 36.032 271.689 34.8 272.361 33.52C273.065 32.24 273.929 31.104 274.953 30.112C275.977 29.088 276.985 28.384 277.977 28C278.489 27.68 278.953 27.52 279.369 27.52C279.593 27.52 279.817 27.536 280.041 27.568C280.265 27.6 280.505 27.632 280.761 27.664C281.465 27.76 281.993 27.904 282.345 28.096C282.729 28.256 283.049 28.512 283.305 28.864C284.105 29.664 284.505 30.592 284.505 31.648C284.377 32.416 283.881 33.296 283.017 34.288C282.153 35.28 281.113 36.08 279.897 36.688C279.321 36.88 278.665 36.976 277.929 36.976C276.937 36.976 276.137 36.768 275.529 36.352C275.241 36.256 275.017 36.208 274.857 36.208C274.569 36.208 274.345 36.4 274.185 36.784C274.057 37.168 273.929 37.872 273.801 38.896C273.769 39.12 273.753 39.44 273.753 39.856C273.753 41.488 274.297 42.384 275.385 42.544C276.121 42.704 276.649 42.784 276.969 42.784C277.353 42.784 277.785 42.656 278.265 42.4L279.177 41.872C279.369 41.776 279.545 41.648 279.705 41.488C279.865 41.328 280.009 41.184 280.137 41.056C280.201 40.992 280.297 40.896 280.425 40.768C280.553 40.608 280.665 40.512 280.761 40.48C280.889 40.416 281.001 40.384 281.097 40.384C281.225 40.384 281.369 40.464 281.529 40.624C281.689 40.752 281.817 40.848 281.913 40.912C282.201 40.912 282.265 41.12 282.105 41.536C281.945 41.92 281.593 42.384 281.049 42.928C280.537 43.44 279.945 43.904 279.273 44.32ZM279.225 34.144C279.769 33.92 280.313 33.52 280.857 32.944C281.433 32.368 281.721 31.888 281.721 31.504C281.721 31.12 281.577 30.8 281.289 30.544C281.001 30.288 280.601 30.16 280.089 30.16C279.705 30.16 279.417 30.192 279.225 30.256C278.777 30.384 278.249 30.736 277.641 31.312C277.033 31.856 276.505 32.416 276.057 32.992C275.609 33.568 275.433 33.904 275.529 34C275.689 34.288 276.313 34.432 277.401 34.432C278.137 34.432 278.745 34.336 279.225 34.144ZM292.914 44.608C292.594 44.672 292.306 44.704 292.05 44.704C291.634 44.704 291.25 44.672 290.898 44.608C290.546 44.512 290.37 44.4 290.37 44.272C290.37 44.176 290.354 44.112 290.322 44.08C290.29 44.048 290.226 44.032 290.13 44.032C290.098 44 290.002 43.92 289.842 43.792C289.682 43.664 289.49 43.552 289.266 43.456C288.978 43.008 288.834 42.528 288.834 42.016C288.834 41.472 288.978 40.624 289.266 39.472C289.362 38.448 289.842 37.168 290.706 35.632C291.57 34.096 292.578 32.64 293.73 31.264C294.914 29.888 295.97 28.928 296.898 28.384C297.378 27.904 297.986 27.664 298.722 27.664C299.298 27.664 299.842 27.808 300.354 28.096C300.802 28.352 301.266 28.784 301.746 29.392C302.258 30 302.658 30.624 302.946 31.264C303.074 31.744 303.138 32.208 303.138 32.656C303.138 33.136 303.074 33.888 302.946 34.912C302.786 35.488 302.642 36.192 302.514 37.024C302.418 37.856 302.37 38.576 302.37 39.184C302.306 39.632 302.338 40 302.466 40.288C302.594 40.544 302.77 40.672 302.994 40.672C303.154 40.672 303.33 40.624 303.522 40.528C303.842 40.368 304.194 40.288 304.578 40.288C304.93 40.288 305.218 40.384 305.442 40.576C305.666 40.768 305.778 41.056 305.778 41.44C305.778 42.016 305.378 42.592 304.578 43.168C303.81 43.744 303.074 44.032 302.37 44.032C301.89 44.032 301.442 43.664 301.026 42.928C300.642 42.16 300.258 41.184 299.874 40L299.586 38.896L297.522 40.864L296.418 41.968C295.906 42.48 295.618 42.784 295.554 42.88C295.202 43.488 294.322 44.064 292.914 44.608ZM293.058 41.776C293.826 41.328 294.77 40.544 295.89 39.424C297.01 38.304 297.938 37.232 298.674 36.208C299.666 34.896 300.29 33.6 300.546 32.32C300.418 31.936 300.21 31.552 299.922 31.168C299.634 30.784 299.378 30.576 299.154 30.544C298.514 30.544 297.842 30.912 297.138 31.648C296.434 32.384 295.602 33.408 294.642 34.72L293.058 37.072C292.866 37.328 292.53 38.016 292.05 39.136C291.57 40.224 291.33 40.88 291.33 41.104C291.33 41.808 291.538 42.16 291.954 42.16C292.274 42.16 292.642 42.032 293.058 41.776ZM316.5 45.904C316.052 45.776 315.684 45.632 315.396 45.472C315.108 45.312 314.724 45.008 314.244 44.56C313.668 43.792 313.284 43.088 313.092 42.448C312.932 41.776 312.852 40.72 312.852 39.28C312.852 38.512 313.284 36.4 314.148 32.944C314.084 33.168 314.196 32.704 314.484 31.552C314.58 31.2 314.452 30.976 314.1 30.88C313.748 30.784 313.252 30.736 312.612 30.736C312.068 30.736 311.748 30.704 311.652 30.64C311.556 30.608 311.492 30.56 311.46 30.496C311.46 30.432 311.46 30.384 311.46 30.352C311.46 30.192 311.396 30 311.268 29.776C311.236 29.744 311.22 29.696 311.22 29.632C311.22 29.472 311.3 29.296 311.46 29.104C311.652 28.912 311.876 28.8 312.132 28.768C312.292 28.736 312.66 28.688 313.236 28.624C313.812 28.56 314.356 28.432 314.868 28.24C315.38 28.048 315.78 27.776 316.068 27.424C316.484 26.368 317.012 25.184 317.652 23.872C318.292 22.528 318.724 21.728 318.948 21.472C319.46 21.216 319.812 21.088 320.004 21.088C320.196 21.088 320.356 21.152 320.484 21.28C320.612 21.408 320.788 21.632 321.012 21.952C321.044 22.016 321.124 22.128 321.252 22.288C321.38 22.448 321.444 22.608 321.444 22.768C321.444 23.024 321.316 23.408 321.06 23.92C320.836 24.432 320.372 25.328 319.668 26.608L319.044 27.808C319.14 27.84 319.364 27.856 319.716 27.856C320.068 27.856 320.356 27.84 320.58 27.808C321.284 27.68 321.94 27.616 322.548 27.616C322.868 27.616 323.092 27.632 323.22 27.664C323.956 27.664 324.484 27.808 324.804 28.096C325.156 28.352 325.364 28.8 325.428 29.44C325.492 29.792 325.428 30 325.236 30.064C325.044 30.128 324.5 30.16 323.604 30.16C319.892 30.32 318.02 30.464 317.988 30.592C317.86 30.688 317.62 31.248 317.268 32.272C316.916 33.296 316.612 34.272 316.356 35.2C315.94 37.12 315.732 38.816 315.732 40.288C315.732 41.632 315.924 42.528 316.308 42.976C316.468 43.136 316.772 43.216 317.22 43.216C317.668 43.216 318.148 43.136 318.66 42.976C319.204 42.784 319.652 42.544 320.004 42.256C320.58 41.776 321.06 41.536 321.444 41.536C321.636 41.536 321.78 41.6 321.876 41.728C322.004 41.824 322.068 41.952 322.068 42.112C322.068 42.464 321.876 42.912 321.492 43.456C321.012 44.192 320.372 44.8 319.572 45.28C318.772 45.76 318.004 46 317.268 46C316.916 46 316.66 45.968 316.5 45.904ZM347.232 45.328C345.632 45.328 344.464 44.752 343.728 43.6C343.504 43.344 343.392 43.024 343.392 42.64C343.392 42.448 343.424 42.288 343.488 42.16C343.584 42 343.696 41.92 343.824 41.92C343.984 41.92 344.16 42.032 344.352 42.256C344.8 42.512 345.44 42.64 346.272 42.64C347.168 42.64 348.048 42.48 348.912 42.16C349.936 41.712 350.224 41.36 349.776 41.104H349.824C348.576 40.784 347.328 40.176 346.08 39.28C344.864 38.352 344.192 37.52 344.064 36.784C343.968 36.4 343.92 36 343.92 35.584C343.92 34.784 344.096 33.984 344.448 33.184C344.8 32.384 345.28 31.648 345.888 30.976C346.848 30.368 347.472 30.032 347.76 29.968V30.016C348.304 29.472 348.96 29.008 349.728 28.624C350.528 28.24 351.552 27.84 352.8 27.424L353.52 27.328L354.48 27.232C354.512 27.264 354.592 27.296 354.72 27.328C354.848 27.36 354.976 27.392 355.104 27.424C355.296 27.52 355.456 27.568 355.584 27.568C356.192 27.664 356.72 28.032 357.168 28.672C357.648 29.312 357.856 29.92 357.792 30.496C357.728 31.136 357.536 31.696 357.216 32.176C356.928 32.624 356.576 32.88 356.16 32.944C356.192 32.912 356.128 32.848 355.968 32.752C355.808 32.656 355.68 32.576 355.584 32.512L355.44 32.608C355.44 32.576 355.424 32.528 355.392 32.464C355.392 32.368 355.36 32.272 355.296 32.176C355.2 31.984 355.152 31.744 355.152 31.456L355.2 30.736L355.296 30.256C355.296 30.16 355.232 30.096 355.104 30.064C354.976 30 354.8 29.968 354.576 29.968L354.192 29.92C353.68 29.92 353.056 30.048 352.32 30.304C351.584 30.56 350.976 30.88 350.496 31.264C349.408 31.968 348.592 32.592 348.048 33.136C347.536 33.648 347.12 34.256 346.8 34.96C346.416 35.504 346.224 35.904 346.224 36.16C346.224 36.512 346.464 36.864 346.944 37.216C347.456 37.568 348.272 38 349.392 38.512C350.288 38.896 351.008 39.296 351.552 39.712C352.128 40.128 352.512 40.592 352.704 41.104C352.736 41.168 352.752 41.296 352.752 41.488C352.752 41.712 352.72 41.856 352.656 41.92C352.72 41.984 352.752 42.032 352.752 42.064V42.016C352.88 42.272 352.944 42.48 352.944 42.64C352.944 43.152 352.624 43.632 351.984 44.08C351.344 44.496 350.528 44.8 349.536 44.992H349.584C348.816 45.216 348.032 45.328 347.232 45.328ZM364.935 44.848C363.911 44.432 363.191 43.904 362.775 43.264C362.359 42.592 362.151 41.664 362.151 40.48C362.151 39.904 362.199 39.232 362.295 38.464L362.391 36.736C362.391 36.448 362.359 36.224 362.295 36.064C362.231 35.904 362.087 35.728 361.863 35.536C361.799 35.472 361.639 35.312 361.383 35.056C361.127 34.8 361.015 34.592 361.047 34.432L360.999 34.192C360.999 33.968 361.031 33.76 361.095 33.568C361.191 33.376 361.287 33.28 361.383 33.28C361.479 33.28 361.607 33.264 361.767 33.232C361.927 33.168 362.071 33.152 362.199 33.184C362.647 33.184 362.871 33.28 362.871 33.472C362.999 33.728 363.207 33.76 363.495 33.568C363.815 33.344 364.119 32.928 364.407 32.32C364.855 31.616 365.511 30.88 366.375 30.112C367.271 29.312 368.007 28.752 368.583 28.432C368.807 28.304 369.175 28.192 369.687 28.096C370.199 27.968 370.647 27.904 371.031 27.904C371.607 27.904 372.103 28.032 372.519 28.288C372.967 28.544 373.415 28.912 373.863 29.392C374.471 29.84 374.775 30.544 374.775 31.504C374.775 32.176 374.615 32.864 374.295 33.568C374.167 34.048 373.655 34.656 372.759 35.392C371.895 36.128 371.095 36.64 370.359 36.928C369.463 37.152 368.439 37.264 367.287 37.264C366.519 37.264 366.023 37.2 365.799 37.072C365.415 36.848 365.143 37.712 364.983 39.664C364.951 39.888 364.935 40.192 364.935 40.576C364.935 41.12 365.015 41.552 365.175 41.872C365.207 41.904 365.319 42.032 365.511 42.256C365.703 42.448 365.943 42.624 366.231 42.784C366.519 42.912 366.823 42.976 367.143 42.976C367.431 42.976 367.655 42.944 367.815 42.88C368.167 42.784 368.503 42.608 368.823 42.352C369.143 42.064 369.591 41.632 370.167 41.056C370.679 40.544 371.047 40.192 371.271 40C371.431 39.712 371.751 39.568 372.231 39.568C372.359 39.568 372.583 39.6 372.903 39.664C373.191 39.888 373.335 40.128 373.335 40.384C373.335 40.64 373.175 41.12 372.855 41.824C372.695 42.144 372.295 42.592 371.655 43.168C371.047 43.712 370.503 44.144 370.023 44.464C369.031 45.008 368.039 45.28 367.047 45.28C366.439 45.28 365.735 45.136 364.935 44.848ZM367.767 35.104C368.087 35.04 368.551 34.96 369.159 34.864C369.767 34.768 370.263 34.56 370.647 34.24C371.063 33.888 371.543 33.296 372.087 32.464C372.183 32.208 372.231 31.952 372.231 31.696C372.231 31.216 372.135 30.88 371.943 30.688C371.719 30.464 371.463 30.352 371.175 30.352C370.727 30.352 370.263 30.544 369.783 30.928C369.463 31.024 368.983 31.376 368.343 31.984C367.735 32.592 367.207 33.2 366.759 33.808C366.311 34.384 366.167 34.72 366.327 34.816C366.263 34.912 366.423 34.992 366.807 35.056C367.191 35.088 367.511 35.104 367.767 35.104ZM379.92 44.272C379.824 44.08 379.664 43.888 379.44 43.696C379.248 43.472 379.152 43.328 379.152 43.264C379.152 42.912 379.072 42.64 378.912 42.448C378.848 42.384 378.816 42.24 378.816 42.016C378.816 41.504 379.056 40.64 379.536 39.424C380.048 38.176 380.704 36.832 381.504 35.392C381.696 35.2 381.936 34.864 382.224 34.384C382.544 33.904 382.752 33.632 382.848 33.568C382.848 33.44 382.896 33.328 382.992 33.232C383.088 33.104 383.2 33.04 383.328 33.04V32.752C383.328 32.464 383.856 31.776 384.912 30.688C385.968 29.568 386.832 28.8 387.504 28.384C388.304 27.84 389.12 27.568 389.952 27.568C390.528 27.568 391.024 27.728 391.44 28.048C391.6 28.24 392.336 28.928 393.648 30.112L395.424 31.696L394.56 34.096C394.272 34.96 394.128 35.744 394.128 36.448C394.128 37.664 394.48 38.832 395.184 39.952C395.344 40.304 395.664 40.64 396.144 40.96C396.624 41.28 397.104 41.472 397.584 41.536C398.288 41.664 398.64 42.016 398.64 42.592C398.64 43.232 398.352 43.616 397.776 43.744C397.648 43.776 397.456 43.792 397.2 43.792C395.312 43.792 393.68 42.464 392.304 39.808C392.176 39.616 392 39.264 391.776 38.752C391.584 38.24 391.472 37.888 391.44 37.696C391.248 37.952 391.008 38.256 390.72 38.608C390.432 38.96 390.16 39.264 389.904 39.52C386.416 43.008 383.664 44.752 381.648 44.752C381.008 44.752 380.432 44.592 379.92 44.272ZM381.648 41.584C381.648 41.744 381.808 41.792 382.128 41.728C382.48 41.664 382.896 41.504 383.376 41.248C383.888 40.992 384.4 40.656 384.912 40.24C387.664 37.872 389.648 35.808 390.864 34.048L391.92 32.32C391.6 31.648 391.264 31.168 390.912 30.88C390.56 30.56 390.24 30.4 389.952 30.4C389.28 30.4 388.224 31.248 386.784 32.944C385.344 34.608 384.032 36.576 382.848 38.848C382.56 39.392 382.304 39.952 382.08 40.528C381.856 41.072 381.712 41.424 381.648 41.584ZM404.042 51.088C403.85 51.216 403.642 51.184 403.418 50.992C403.194 50.832 402.842 50.48 402.362 49.936C402.17 49.744 402.042 49.552 401.978 49.36C401.914 49.2 401.882 48.976 401.882 48.688L401.978 47.488C402.138 47.008 402.218 46.448 402.218 45.808C402.218 45.552 402.33 44.752 402.554 43.408C402.778 42.032 402.954 41.04 403.082 40.432L403.226 39.856C403.482 38.8 403.674 37.824 403.802 36.928C404.058 36.128 404.266 35.344 404.426 34.576C404.618 33.776 404.714 33.232 404.714 32.944C404.714 32.368 404.938 31.952 405.386 31.696C405.418 31.44 405.658 30.912 406.106 30.112C406.874 27.936 407.434 26.384 407.786 25.456C408.17 24.496 408.57 23.664 408.986 22.96C409.562 21.36 410.026 20.352 410.378 19.936C410.602 19.392 411.21 18.592 412.202 17.536C413.194 16.48 414.074 15.632 414.842 14.992C415.546 14.608 416.106 14.368 416.522 14.272C416.97 14.144 417.514 14.08 418.154 14.08C418.698 14.08 419.066 14.144 419.258 14.272C419.482 14.368 419.834 14.64 420.314 15.088C420.73 15.568 420.97 15.888 421.034 16.048C421.13 16.208 421.178 16.512 421.178 16.96C421.05 17.632 420.73 18.496 420.218 19.552C419.706 20.608 419.322 21.152 419.066 21.184C418.97 21.216 418.842 21.232 418.682 21.232C418.202 21.232 417.962 20.832 417.962 20.032C417.962 19.84 417.914 19.648 417.818 19.456C417.722 19.264 417.658 19.136 417.626 19.072C417.626 18.592 417.738 18.192 417.962 17.872C418.058 17.68 418.106 17.504 418.106 17.344C418.106 17.184 418.042 17.088 417.914 17.056C417.818 16.992 417.658 16.992 417.434 17.056C417.146 17.216 416.426 17.792 415.274 18.784C414.154 19.744 413.594 20.32 413.594 20.512C413.562 20.576 413.466 20.752 413.306 21.04C413.178 21.296 412.97 21.6 412.682 21.952C412.106 22.752 411.818 23.248 411.818 23.44C411.818 23.856 411.722 24.064 411.53 24.064C411.498 24.128 411.418 24.32 411.29 24.64C411.194 24.928 411.05 25.248 410.858 25.6C410.73 25.888 410.57 26.208 410.378 26.56C410.186 26.912 410.026 27.152 409.898 27.28H409.946C409.85 27.536 409.674 28.016 409.418 28.72C409.162 29.392 409.034 29.776 409.034 29.872C409.034 30 409.258 30.064 409.706 30.064C410.698 30.064 411.834 29.888 413.114 29.536C413.53 29.408 413.834 29.344 414.026 29.344C414.25 29.344 414.57 29.408 414.986 29.536C415.338 29.76 415.626 30.128 415.85 30.64C416.074 31.152 416.122 31.504 415.994 31.696C415.962 31.824 415.61 32 414.938 32.224C414.298 32.448 413.626 32.624 412.922 32.752C411.93 32.976 411.114 33.136 410.474 33.232C410.314 33.264 409.802 33.36 408.938 33.52C408.106 33.68 407.69 33.824 407.69 33.952C407.562 33.952 407.45 34.016 407.354 34.144C407.258 34.272 407.21 34.4 407.21 34.528C407.21 34.976 407.146 35.312 407.018 35.536C406.858 36.016 406.57 37.072 406.154 38.704C405.77 40.304 405.578 41.296 405.578 41.68C405.322 42 405.194 42.576 405.194 43.408C405.002 43.76 404.906 44.16 404.906 44.608C404.906 44.8 404.89 44.96 404.858 45.088C404.858 45.248 404.826 45.632 404.762 46.24C404.698 46.848 404.666 47.408 404.666 47.92L404.522 49.312C404.49 49.696 404.442 50.048 404.378 50.368C404.314 50.688 404.202 50.928 404.042 51.088ZM424.346 44.176C423.866 44.272 423.514 44.32 423.29 44.32C423.098 44.32 422.938 44.288 422.81 44.224C422.682 44.128 422.506 43.968 422.282 43.744C421.578 43.392 421.018 42.896 420.602 42.256C420.218 41.584 420.058 40.992 420.122 40.48C420.25 39.008 420.666 37.392 421.37 35.632C422.106 33.872 422.97 32.32 423.962 30.976C424.954 29.632 425.914 28.8 426.842 28.48C427.418 28.256 427.898 28.144 428.282 28.144C429.05 28.144 429.594 28.464 429.914 29.104C430.138 29.552 430.25 29.888 430.25 30.112C430.25 30.496 430.026 30.752 429.578 30.88C429.482 30.88 429.37 30.928 429.242 31.024C429.114 31.12 429.05 31.216 429.05 31.312C429.082 31.344 429.226 31.36 429.482 31.36C430.026 31.36 430.698 31.28 431.498 31.12C432.298 30.96 432.81 30.784 433.034 30.592C433.226 30.496 433.386 30.448 433.514 30.448L434.186 30.544C434.73 30.704 435.002 30.896 435.002 31.12C435.002 31.248 435.05 31.376 435.146 31.504C435.242 31.6 435.354 31.648 435.482 31.648C435.674 31.68 435.642 31.808 435.386 32.032C435.162 32.256 434.714 32.624 434.042 33.136C433.882 33.232 433.642 33.376 433.322 33.568C433.034 33.76 432.858 33.92 432.794 34.048C432.762 34.176 432.778 34.352 432.842 34.576C432.97 34.864 433.034 35.216 433.034 35.632C433.034 36.688 432.57 37.856 431.642 39.136C430.746 40.416 429.61 41.536 428.234 42.496C426.89 43.456 425.594 44.016 424.346 44.176ZM423.53 42.064C423.722 42.064 424.202 41.872 424.97 41.488C425.386 41.072 425.722 40.816 425.978 40.72C426.202 40.72 426.506 40.56 426.89 40.24C427.274 39.888 427.866 39.2 428.666 38.176C429.274 37.472 429.722 36.88 430.01 36.4C430.33 35.92 430.49 35.456 430.49 35.008C430.49 34.816 430.474 34.672 430.442 34.576C430.41 34.48 430.298 34.4 430.106 34.336C429.946 34.24 429.786 34.16 429.626 34.096C429.338 34.096 429.066 34.032 428.81 33.904C428.586 33.744 428.25 33.488 427.802 33.136L427.034 32.176L426.218 32.992C425.45 33.76 424.666 35.024 423.866 36.784C423.066 38.512 422.618 39.856 422.522 40.816C422.49 41.264 422.554 41.584 422.714 41.776C422.906 41.936 423.178 42.032 423.53 42.064ZM443.476 45.712C443.092 45.744 442.772 45.728 442.516 45.664C442.292 45.568 441.956 45.376 441.508 45.088C440.132 43.968 439.46 42.864 439.492 41.776C439.524 41.68 439.54 41.536 439.54 41.344C439.54 41.152 439.524 41.008 439.492 40.912C439.46 40.784 439.444 40.704 439.444 40.672C439.316 40.576 439.236 40.512 439.204 40.48C439.204 40.416 439.22 40.352 439.252 40.288C439.316 40.224 439.364 40.16 439.396 40.096C439.524 40.064 439.588 40 439.588 39.904C439.588 39.808 439.556 39.696 439.492 39.568C439.396 39.312 439.444 38.736 439.636 37.84C439.86 36.912 440.148 36.048 440.5 35.248C440.756 34.64 441.156 33.856 441.7 32.896C442.276 31.936 442.804 31.2 443.284 30.688C443.956 29.92 444.564 29.328 445.108 28.912C445.684 28.496 446.34 28.16 447.076 27.904C447.748 27.616 448.212 27.472 448.468 27.472C448.788 27.472 449.188 27.664 449.668 28.048C450.436 28.272 451.012 28.592 451.396 29.008C451.812 29.392 452.132 30 452.356 30.832C452.548 31.504 452.644 32.256 452.644 33.088C452.644 34.88 452.084 36.848 450.964 38.992C450.388 40.144 449.828 41.04 449.284 41.68C448.74 42.288 447.988 43.008 447.028 43.84C446.356 44.384 445.764 44.8 445.252 45.088C444.772 45.376 444.18 45.584 443.476 45.712ZM447.316 40C447.988 39.008 448.5 38.112 448.852 37.312C449.204 36.48 449.492 35.456 449.716 34.24C449.748 34.112 449.764 33.856 449.764 33.472C449.764 32.832 449.7 32.224 449.572 31.648C449.444 31.072 449.284 30.768 449.092 30.736C448.836 30.64 448.596 30.592 448.372 30.592C447.636 30.592 446.852 31.024 446.02 31.888C445.252 32.784 444.58 33.872 444.004 35.152C443.46 36.4 442.916 37.936 442.372 39.76C442.212 40.4 442.132 40.912 442.132 41.296C442.132 41.872 442.244 42.336 442.468 42.688C442.692 43.008 443.012 43.168 443.428 43.168C443.94 43.168 444.532 42.912 445.204 42.4C445.876 41.856 446.58 41.056 447.316 40ZM470.238 45.52C469.694 45.52 469.31 45.36 469.086 45.04C468.702 44.56 468.43 44.176 468.27 43.888C468.142 43.568 468.078 43.2 468.078 42.784C468.078 42.432 468.094 42.144 468.126 41.92L468.318 39.712C468.254 39.648 468.126 39.664 467.934 39.76C467.774 39.856 467.614 39.968 467.454 40.096C467.326 40.224 467.198 40.336 467.07 40.432L466.254 41.104C464.846 42.704 463.614 43.84 462.558 44.512C461.534 45.184 460.574 45.52 459.678 45.52L459.15 45.472C458.478 45.408 457.982 45.088 457.662 44.512C457.342 43.904 457.182 43.136 457.182 42.208C457.182 41.728 457.198 41.376 457.23 41.152C457.358 40.032 457.598 38.992 457.95 38.032C458.302 37.072 458.846 36.032 459.582 34.912C460.126 33.952 460.91 33.024 461.934 32.128C462.99 31.232 464.03 30.608 465.054 30.256C466.014 29.904 466.91 29.728 467.742 29.728C468.286 29.728 468.83 29.808 469.374 29.968C469.758 30.16 470.062 30.256 470.286 30.256C470.542 30.256 470.734 30.096 470.862 29.776C470.99 29.584 471.134 29.232 471.294 28.72C471.55 28.016 471.758 27.52 471.918 27.232L472.974 24.112L474.222 21.136L475.614 17.872C476.254 16.592 476.798 15.952 477.246 15.952C477.502 15.952 477.806 16.128 478.158 16.48C478.446 16.8 478.59 17.152 478.59 17.536C478.59 17.856 478.494 18.256 478.302 18.736C478.142 19.216 477.934 19.776 477.678 20.416C477.262 21.088 476.846 21.888 476.43 22.816L475.71 24.448C474.846 26.496 474.334 27.728 474.174 28.144L473.79 29.44C473.502 30.336 473.294 31.104 473.166 31.744C472.91 33.12 472.686 33.808 472.494 33.808C471.918 34.416 471.374 36.304 470.862 39.472C470.734 40.24 470.67 41.712 470.67 43.888C470.67 44.624 470.638 45.088 470.574 45.28C470.542 45.44 470.43 45.52 470.238 45.52ZM460.014 42.496C460.622 42.496 461.246 42.272 461.886 41.824C462.558 41.344 463.406 40.64 464.43 39.712C465.294 38.88 466.334 37.584 467.55 35.824C468.766 34.064 469.374 33.04 469.374 32.752C469.374 32.624 469.214 32.512 468.894 32.416C468.574 32.32 468.222 32.272 467.838 32.272C467.582 32.272 467.326 32.304 467.07 32.368C466.334 32.528 465.614 32.864 464.91 33.376C464.238 33.856 463.518 34.56 462.75 35.488C461.854 36.608 461.118 37.792 460.542 39.04C459.966 40.288 459.678 41.248 459.678 41.92C459.678 42.304 459.79 42.496 460.014 42.496ZM476.89 49.792C476.538 49.792 476.33 49.776 476.266 49.744C476.202 49.712 476.106 49.568 475.978 49.312C475.978 49.12 476.042 48.928 476.17 48.736C476.298 48.576 476.458 48.384 476.65 48.16C477.194 47.616 477.786 46.96 478.426 46.192C479.066 45.424 479.498 44.832 479.722 44.416C479.946 43.712 480.186 42.768 480.442 41.584C480.442 40.944 480.522 40.544 480.682 40.384C480.874 40.192 481.05 40.096 481.21 40.096C481.594 40.096 481.882 40.816 482.074 42.256C482.138 42.704 482.17 43.04 482.17 43.264C482.17 44 481.898 45.008 481.354 46.288C481.226 46.608 480.826 47.152 480.154 47.92C479.514 48.72 479.13 49.12 479.002 49.12C478.842 49.12 478.618 49.264 478.33 49.552C478.234 49.648 478.042 49.712 477.754 49.744C477.498 49.776 477.21 49.792 476.89 49.792ZM513.582 44.32C512.782 45.024 511.822 45.376 510.702 45.376C509.902 45.376 509.134 45.184 508.398 44.8C507.694 44.416 507.102 43.888 506.622 43.216C506.206 42.704 505.902 42.128 505.71 41.488C505.518 40.848 505.422 40.064 505.422 39.136C505.422 38.816 505.454 38.176 505.518 37.216C505.614 36.032 505.998 34.8 506.67 33.52C507.374 32.24 508.238 31.104 509.262 30.112C510.286 29.088 511.294 28.384 512.286 28C512.798 27.68 513.262 27.52 513.678 27.52C513.902 27.52 514.126 27.536 514.35 27.568C514.574 27.6 514.814 27.632 515.07 27.664C515.774 27.76 516.302 27.904 516.654 28.096C517.038 28.256 517.358 28.512 517.614 28.864C518.414 29.664 518.814 30.592 518.814 31.648C518.686 32.416 518.19 33.296 517.326 34.288C516.462 35.28 515.422 36.08 514.206 36.688C513.63 36.88 512.974 36.976 512.238 36.976C511.246 36.976 510.446 36.768 509.838 36.352C509.55 36.256 509.326 36.208 509.166 36.208C508.878 36.208 508.654 36.4 508.494 36.784C508.366 37.168 508.238 37.872 508.11 38.896C508.078 39.12 508.062 39.44 508.062 39.856C508.062 41.488 508.606 42.384 509.694 42.544C510.43 42.704 510.958 42.784 511.278 42.784C511.662 42.784 512.094 42.656 512.574 42.4L513.486 41.872C513.678 41.776 513.854 41.648 514.014 41.488C514.174 41.328 514.318 41.184 514.446 41.056C514.51 40.992 514.606 40.896 514.734 40.768C514.862 40.608 514.974 40.512 515.07 40.48C515.198 40.416 515.31 40.384 515.406 40.384C515.534 40.384 515.678 40.464 515.838 40.624C515.998 40.752 516.126 40.848 516.222 40.912C516.51 40.912 516.574 41.12 516.414 41.536C516.254 41.92 515.902 42.384 515.358 42.928C514.846 43.44 514.254 43.904 513.582 44.32ZM513.534 34.144C514.078 33.92 514.622 33.52 515.166 32.944C515.742 32.368 516.03 31.888 516.03 31.504C516.03 31.12 515.886 30.8 515.598 30.544C515.31 30.288 514.91 30.16 514.398 30.16C514.014 30.16 513.726 30.192 513.534 30.256C513.086 30.384 512.558 30.736 511.95 31.312C511.342 31.856 510.814 32.416 510.366 32.992C509.918 33.568 509.742 33.904 509.838 34C509.998 34.288 510.622 34.432 511.71 34.432C512.446 34.432 513.054 34.336 513.534 34.144ZM537.112 45.856C536.6 45.856 536.264 45.76 536.104 45.568C535.912 45.568 535.672 45.52 535.384 45.424C535.128 45.328 534.856 45.216 534.568 45.088C533.896 44.8 532.92 44.096 531.64 42.976C530.36 41.856 529.72 41.104 529.72 40.72C529.72 40.624 529.704 40.56 529.672 40.528C529.64 40.496 529.576 40.48 529.48 40.48C529.448 40.448 529.384 40.384 529.288 40.288C529.224 40.192 529.192 40.08 529.192 39.952C529.192 39.824 529.144 39.712 529.048 39.616C528.952 39.52 528.84 39.472 528.712 39.472C528.552 39.6 528.216 39.888 527.704 40.336C527.192 40.752 526.664 41.232 526.12 41.776C525.096 42.8 524.392 43.488 524.008 43.84C523.624 44.16 523.32 44.32 523.096 44.32C522.712 44.32 522.264 44.128 521.752 43.744C521.272 43.328 521.032 42.928 521.032 42.544C521.192 42.32 521.592 41.872 522.232 41.2C522.904 40.496 523.608 39.824 524.344 39.184L527.416 36.16L526.888 34.336C526.312 33.088 525.896 32.08 525.64 31.312C525.448 31.056 525.288 30.848 525.16 30.688C525.064 30.496 525.016 30.336 525.016 30.208C525.016 30.08 525.144 29.84 525.4 29.488C525.752 29.136 526.024 28.96 526.216 28.96C526.376 28.96 526.6 29.056 526.888 29.248C527.144 29.248 527.544 29.792 528.088 30.88C528.664 31.936 528.952 32.672 528.952 33.088C528.952 33.504 529.096 33.712 529.384 33.712C529.704 33.712 530.328 33.408 531.256 32.8C531.608 32.48 531.88 32.208 532.072 31.984C532.296 31.76 532.44 31.616 532.504 31.552C532.888 31.264 533.48 30.832 534.28 30.256C535.112 29.68 535.64 29.344 535.864 29.248C536.024 29.152 536.152 29.104 536.248 29.104C536.632 29.104 537 29.312 537.352 29.728C537.704 30.144 537.88 30.576 537.88 31.024C537.88 31.408 537.784 31.712 537.592 31.936C537.4 32.16 536.984 32.448 536.344 32.8C536.184 32.928 535.688 33.296 534.856 33.904C534.024 34.512 532.984 35.344 531.736 36.4L530.488 37.408L531.256 38.704C531.768 39.728 532.184 40.32 532.504 40.48C532.76 40.832 533.384 41.392 534.376 42.16C535.4 42.928 535.976 43.312 536.104 43.312C536.2 43.312 536.344 43.376 536.536 43.504C536.76 43.632 536.952 43.728 537.112 43.792C537.496 44.176 537.688 44.608 537.688 45.088C537.688 45.6 537.496 45.856 537.112 45.856ZM547.037 44.896C546.045 44.896 545.389 44.848 545.069 44.752C544.749 44.624 544.381 44.368 543.965 43.984C543.645 43.344 543.325 42.864 543.005 42.544C542.877 42.192 542.813 41.664 542.813 40.96C542.813 40.16 542.909 39.296 543.101 38.368C543.293 37.408 543.549 36.512 543.869 35.68C543.997 35.424 544.093 35.184 544.157 34.96C544.253 34.736 544.317 34.592 544.349 34.528C544.349 34.304 544.749 33.616 545.549 32.464C546.381 31.28 547.037 30.464 547.517 30.016C547.741 29.76 548.077 29.488 548.525 29.2C549.005 28.912 549.421 28.704 549.773 28.576C550.669 28.256 551.453 28.096 552.125 28.096C553.053 28.096 553.837 28.528 554.477 29.392C555.181 30.096 555.533 30.88 555.533 31.744C555.533 32.064 555.485 32.416 555.389 32.8C555.069 34.08 554.605 34.72 553.997 34.72C553.581 34.72 553.181 34.48 552.797 34C552.669 33.68 552.605 33.472 552.605 33.376C552.605 33.28 552.669 33.008 552.797 32.56C552.861 32.24 552.893 32.016 552.893 31.888C552.893 31.504 552.829 31.168 552.701 30.88C552.573 30.592 552.397 30.448 552.173 30.448C551.437 30.448 550.477 31.088 549.293 32.368C548.877 32.816 548.333 33.52 547.661 34.48C547.021 35.44 546.541 36.304 546.221 37.072C545.901 38.032 545.645 38.816 545.453 39.424C545.261 40.032 545.133 40.416 545.069 40.576C545.069 40.64 545.101 40.752 545.165 40.912C545.261 41.072 545.309 41.2 545.309 41.296C545.309 41.52 545.357 41.696 545.453 41.824C545.549 41.952 545.725 42.08 545.981 42.208C546.333 42.464 546.749 42.592 547.229 42.592C547.741 42.592 548.333 42.432 549.005 42.112C549.421 41.92 550.013 41.504 550.781 40.864L551.933 40C552.157 39.84 552.349 39.712 552.509 39.616C552.701 39.488 552.845 39.408 552.941 39.376C553.037 39.312 553.085 39.312 553.085 39.376C553.085 39.504 553.133 39.568 553.229 39.568C553.325 39.568 553.437 39.504 553.565 39.376C553.853 38.992 554.221 38.8 554.669 38.8C554.925 38.8 555.053 38.848 555.053 38.944L555.005 39.184C555.005 39.344 555.085 39.504 555.245 39.664C555.245 39.792 555.197 39.968 555.101 40.192C555.037 40.384 554.941 40.544 554.813 40.672C554.621 40.96 554.285 41.312 553.805 41.728C553.357 42.112 553.053 42.368 552.893 42.496H552.845C552.685 42.496 552.461 42.64 552.173 42.928C551.693 43.376 551.277 43.6 550.925 43.6C550.797 43.664 550.653 43.744 550.493 43.84C550.333 43.904 550.253 43.984 550.253 44.08C549.933 44.4 549.549 44.624 549.101 44.752C548.653 44.848 547.965 44.896 547.037 44.896ZM565.833 46.144C564.457 46.144 563.321 45.632 562.425 44.608C561.529 43.584 561.081 42.304 561.081 40.768C561.081 39.232 561.417 37.552 562.089 35.728C562.793 33.872 563.689 32.208 564.777 30.736C565.865 29.264 566.969 28.272 568.089 27.76C568.729 27.408 569.449 27.232 570.249 27.232C570.857 27.232 571.545 27.408 572.313 27.76C572.857 27.984 573.273 28.256 573.561 28.576C573.849 28.896 574.105 29.392 574.329 30.064C574.425 30.64 574.473 31.04 574.473 31.264C574.473 31.456 574.393 31.872 574.233 32.512C573.849 33.696 573.337 34.704 572.697 35.536C572.089 36.336 571.289 37.024 570.297 37.6C569.785 37.92 569.145 38.08 568.377 38.08C567.705 38.08 567.065 37.968 566.457 37.744C565.881 37.488 565.433 37.12 565.113 36.64L564.777 36.256L564.633 36.64C563.961 38.368 563.625 39.84 563.625 41.056C563.625 41.888 563.785 42.56 564.105 43.072C564.329 43.424 564.873 43.6 565.737 43.6C566.377 43.6 566.841 43.536 567.129 43.408C567.609 43.248 568.025 43.056 568.377 42.832C568.761 42.576 569.129 42.32 569.481 42.064L569.673 41.968H569.625C570.009 41.776 570.329 41.6 570.585 41.44C570.841 41.28 571.017 41.168 571.113 41.104C571.177 41.104 571.241 41.088 571.305 41.056C571.369 41.024 571.433 40.96 571.497 40.864C571.785 40.736 572.121 40.784 572.505 41.008C572.889 41.232 573.081 41.52 573.081 41.872C573.017 42.128 572.729 42.544 572.217 43.12C571.705 43.696 571.321 44 571.065 44.032C571.033 44.032 570.921 44.08 570.729 44.176C570.537 44.272 570.409 44.352 570.345 44.416H570.393C570.105 44.8 569.817 44.992 569.529 44.992H569.145C569.017 45.248 568.585 45.504 567.849 45.76C567.145 46.016 566.473 46.144 565.833 46.144ZM567.993 35.584C568.953 35.584 569.833 35.04 570.633 33.952C571.401 32.928 571.785 31.904 571.785 30.88C571.785 30.336 571.673 29.952 571.449 29.728C571.257 29.632 571.081 29.584 570.921 29.584C570.761 29.584 570.489 29.632 570.105 29.728C569.689 29.824 569.049 30.272 568.185 31.072C567.321 31.84 566.681 32.528 566.265 33.136L565.641 34.144C565.897 34.048 566.137 34 566.361 34C566.617 33.968 566.761 33.984 566.793 34.048C566.793 34.496 566.905 34.864 567.129 35.152C567.353 35.44 567.641 35.584 567.993 35.584ZM577.122 56.704C576.77 56.576 576.418 56.288 576.066 55.84C575.714 55.424 575.538 55.072 575.538 54.784C575.538 54.304 575.858 52.72 576.498 50.032C577.138 47.376 577.762 45.216 578.37 43.552C578.402 43.424 578.61 42.896 578.994 41.968C579.378 41.04 579.746 39.92 580.098 38.608C580.354 37.68 581.026 35.872 582.114 33.184L583.506 29.728L584.61 26.704C584.706 26.448 584.866 26.224 585.09 26.032C585.346 25.808 585.57 25.664 585.762 25.6C585.826 25.568 585.938 25.552 586.098 25.552C586.546 25.552 586.93 25.808 587.25 26.32C587.346 26.512 587.394 26.704 587.394 26.896C587.394 27.216 587.202 27.84 586.818 28.768L586.482 29.728L588.21 29.344C588.658 29.344 589.026 29.36 589.314 29.392C590.466 29.392 591.186 29.424 591.474 29.488C592.178 29.52 592.674 29.648 592.962 29.872C593.282 30.096 593.586 30.448 593.874 30.928C594.45 31.472 594.77 31.952 594.834 32.368C594.898 32.752 594.93 33.056 594.93 33.28C594.93 34.304 594.626 35.36 594.018 36.448C593.41 37.504 592.69 38.304 591.858 38.848C591.538 38.976 591.266 39.104 591.042 39.232C590.818 39.36 590.674 39.44 590.61 39.472C590.546 39.728 589.81 40.144 588.402 40.72C587.026 41.264 585.89 41.6 584.994 41.728C584.674 41.792 584.306 41.824 583.89 41.824C583.538 41.824 583.266 41.776 583.074 41.68C582.69 41.616 582.434 41.584 582.306 41.584C582.21 41.584 582.162 41.648 582.162 41.776C581.362 44.144 580.706 46.304 580.194 48.256C579.074 51.648 578.322 53.856 577.938 54.88C577.554 55.936 577.282 56.544 577.122 56.704ZM583.122 38.992C583.154 39.12 583.33 39.184 583.65 39.184C584.322 39.184 585.346 38.88 586.722 38.272C588.13 37.632 589.234 36.976 590.034 36.304C590.706 35.504 591.218 34.848 591.57 34.336C591.954 33.792 592.146 33.376 592.146 33.088C592.146 32.96 592.082 32.832 591.954 32.704C591.634 32.224 591.058 31.984 590.226 31.984C589.17 31.984 587.906 32.384 586.434 33.184C585.794 33.408 585.33 33.712 585.042 34.096C584.786 34.448 584.546 34.896 584.322 35.44C584.098 35.984 583.922 36.4 583.794 36.688C583.282 37.904 583.058 38.672 583.122 38.992ZM603.567 45.664C603.055 45.568 602.527 45.232 601.983 44.656C601.471 44.048 601.135 43.488 600.975 42.976C600.975 42.912 600.943 42.848 600.879 42.784C600.815 42.688 600.767 42.624 600.735 42.592C600.607 42.496 600.543 41.968 600.543 41.008C600.543 40.24 600.575 39.44 600.639 38.608C600.735 37.776 600.847 37.104 600.975 36.592L601.839 34.048L602.511 32.128L603.807 29.344L601.887 28.816C601.663 28.784 601.471 28.672 601.311 28.48C601.183 28.288 601.119 28.112 601.119 27.952C601.119 27.696 601.247 27.392 601.503 27.04C601.791 26.656 602.015 26.464 602.175 26.464C602.271 26.496 602.527 26.512 602.943 26.512C603.903 26.512 604.623 26.464 605.103 26.368C605.423 26.24 605.647 25.984 605.775 25.6C605.903 25.344 606.047 25.024 606.207 24.64C606.399 24.256 606.575 23.904 606.735 23.584C606.831 23.392 606.975 23.104 607.167 22.72C607.391 22.304 607.663 21.84 607.983 21.328C608.047 21.232 608.191 21.008 608.415 20.656C608.639 20.272 608.911 19.952 609.231 19.696C609.455 19.472 609.727 19.36 610.047 19.36C610.367 19.36 610.783 19.568 611.295 19.984C611.359 20.08 611.439 20.208 611.535 20.368C611.663 20.528 611.727 20.672 611.727 20.8C611.727 20.928 611.599 21.2 611.343 21.616C611.151 22 610.959 22.352 610.767 22.672C610.607 22.96 610.463 23.216 610.335 23.44C609.951 24.08 609.679 24.56 609.519 24.88C609.199 25.296 609.039 25.616 609.039 25.84C609.039 26.064 609.247 26.176 609.663 26.176C610.111 26.176 610.863 26.08 611.919 25.888C612.367 25.824 612.671 25.792 612.831 25.792C613.951 25.792 614.559 26.256 614.655 27.184C614.687 27.376 614.703 27.6 614.703 27.856C614.703 28.304 614.543 28.576 614.223 28.672C613.935 28.768 613.263 28.816 612.207 28.816C611.183 28.976 610.127 29.056 609.039 29.056C608.847 29.056 608.623 29.072 608.367 29.104C608.143 29.104 607.903 29.136 607.647 29.2C607.391 29.264 607.199 29.36 607.071 29.488C606.975 29.616 606.863 29.824 606.735 30.112C606.639 30.208 606.415 30.576 606.063 31.216C605.615 32.144 605.327 32.704 605.199 32.896C604.335 35.456 603.695 38.08 603.279 40.768C603.215 41.28 603.183 41.6 603.183 41.728C603.183 42.208 603.343 42.544 603.663 42.736C603.983 42.928 604.527 43.024 605.295 43.024C606.383 43.024 607.327 42.912 608.127 42.688C609.087 42.272 609.807 41.92 610.287 41.632C610.575 41.472 610.831 41.328 611.055 41.2C611.311 41.04 611.487 40.928 611.583 40.864C611.679 40.672 611.791 40.576 611.919 40.576C612.175 40.576 612.399 40.832 612.591 41.344C612.591 41.856 612.479 42.304 612.255 42.688C612.031 43.072 611.471 43.52 610.575 44.032C608.719 45.216 606.863 45.808 605.007 45.808C604.495 45.808 604.015 45.76 603.567 45.664ZM830.985 43.504C830.377 43.728 829.913 43.84 829.593 43.84C829.145 43.84 828.665 43.648 828.153 43.264C827.705 42.816 827.481 42.368 827.481 41.92C827.481 41.216 828.025 40.496 829.113 39.76C829.753 39.376 830.217 39.184 830.505 39.184C830.665 39.184 831.049 39.296 831.657 39.52C832.521 40.032 832.953 40.624 832.953 41.296C832.953 41.68 832.777 42.064 832.425 42.448C832.105 42.832 831.625 43.184 830.985 43.504Z" fill="black"/>
<path d="M627.291 50.8H823.632V53.2H627.291V50.8Z" fill="black"/>
<g filter="url(#filter0_d)">
<path d="M672 39.6C671.36 39.6 670.693 39.4667 670 39.2C669.333 38.9333 668.76 38.6133 668.28 38.24C667.827 37.84 667.6 37.48 667.6 37.16C667.6 36.84 667.747 36.64 668.04 36.56L668.24 36.4C668.293 36.3733 668.4 36.36 668.56 36.36C668.667 36.3333 668.8 36.3467 668.96 36.4C669.12 36.4267 669.253 36.44 669.36 36.44C669.547 36.4933 669.827 36.5467 670.2 36.6L671.24 36.72C671.773 36.72 672.267 36.6667 672.72 36.56C673.2 36.4533 673.44 36.3333 673.44 36.2C673.44 36.12 673.333 35.9867 673.12 35.8C672.907 35.6133 672.68 35.52 672.44 35.52C672.44 35.4133 672.027 35.0533 671.2 34.44C670.747 34.0933 670.307 33.7467 669.88 33.4C669.48 33.0533 669.28 32.8 669.28 32.64L669.32 32.56V32.36C669.133 32.36 668.96 32.1067 668.8 31.6C668.64 31.0933 668.56 30.6 668.56 30.12C668.56 29.2133 668.96 28.2133 669.76 27.12C670.56 26.0267 671.547 25.04 672.72 24.16C673.92 23.28 675.053 22.68 676.12 22.36C676.52 22.1733 677.107 22.08 677.88 22.08C678.387 22.08 678.733 22.1333 678.92 22.24L679.24 22.16C679.56 22.16 679.973 22.4267 680.48 22.96C680.987 23.4933 681.307 23.92 681.44 24.24C681.44 25.12 681.413 25.8267 681.36 26.36C681.307 26.8933 681.173 27.16 680.96 27.16C680.933 27.16 680.893 27.1733 680.84 27.2C680.787 27.2267 680.76 27.2933 680.76 27.4C680.76 27.7733 680.427 28.1867 679.76 28.64C679.12 29.0933 678.533 29.32 678 29.32L677.84 29.28C677.68 29.2533 677.44 29.0933 677.12 28.8C676.827 28.5067 676.68 28.2133 676.68 27.92C676.68 27.84 676.84 27.6267 677.16 27.28C677.48 26.9333 677.747 26.6 677.96 26.28C678.2 25.9333 678.32 25.5733 678.32 25.2C678.32 25.0667 678.267 24.9867 678.16 24.96C678.08 24.9067 677.907 24.88 677.64 24.88C676.173 25.5467 675.12 26.1733 674.48 26.76C674.4 26.92 674.32 27.04 674.24 27.12C674.187 27.2 674.107 27.24 674 27.24C674 27.2133 673.987 27.2 673.96 27.2C673.907 27.2 673.733 27.36 673.44 27.68C673.147 27.9733 672.867 28.32 672.6 28.72C672.36 29.12 672.213 29.4933 672.16 29.84L672.08 29.96V30.16C672.053 30.2133 672.04 30.32 672.04 30.48C672.04 30.72 672.147 30.9733 672.36 31.24C672.573 31.48 673 31.8267 673.64 32.28C674.84 33.1867 675.653 33.8667 676.08 34.32C676.533 34.7467 676.813 35.1333 676.92 35.48C677.16 35.96 677.28 36.3867 677.28 36.76C677.28 37.6667 676.8 38.3733 675.84 38.88C674.907 39.36 673.627 39.6 672 39.6ZM696.824 38.36C696.238 38.6267 695.731 38.76 695.304 38.76C694.531 38.76 693.904 38.4533 693.424 37.84C692.944 37.2267 692.704 36.3333 692.704 35.16C692.704 33.9867 692.931 32.72 693.384 31.36C693.464 31.1733 693.571 30.9467 693.704 30.68C693.838 30.4133 693.864 30.28 693.784 30.28C693.651 30.28 693.411 30.4533 693.064 30.8C691.758 31.9733 690.664 33.2 689.784 34.48C688.931 35.7333 688.504 36.7067 688.504 37.4C688.504 37.6933 688.384 37.92 688.144 38.08C687.931 38.24 687.678 38.32 687.384 38.32C687.198 38.32 687.024 38.28 686.864 38.2C686.278 37.8533 685.798 37.3733 685.424 36.76C685.051 36.12 684.904 35.3467 684.984 34.44C685.091 32.6 685.278 30.9867 685.544 29.6C685.838 28.1867 686.384 26.1867 687.184 23.6C687.211 23.52 687.464 22.84 687.944 21.56C688.771 19.2133 689.238 17.9333 689.344 17.72C689.531 17.5333 689.798 16.96 690.144 16C690.518 15.0133 690.704 14.4133 690.704 14.2C690.704 13.9867 690.758 13.7867 690.864 13.6C690.998 13.3867 691.078 13.2533 691.104 13.2C691.398 12.5333 691.651 12.2 691.864 12.2C692.104 12.2 692.478 12.36 692.984 12.68C693.518 12.9733 693.824 13.2533 693.904 13.52C694.118 13.9467 694.224 14.3467 694.224 14.72C694.224 15.12 694.118 15.6 693.904 16.16C693.691 16.6933 693.331 17.44 692.824 18.4C692.051 19.9467 691.331 21.72 690.664 23.72C690.344 24.5733 689.958 25.7867 689.504 27.36C689.051 28.9333 688.824 29.8667 688.824 30.16C688.824 30.3467 688.918 30.44 689.104 30.44C689.318 30.44 689.544 30.28 689.784 29.96C689.864 29.8 690.038 29.6 690.304 29.36C690.571 29.12 690.784 28.9067 690.944 28.72C691.504 28.0267 692.144 27.3333 692.864 26.64C693.584 25.9467 694.131 25.6 694.504 25.6C695.464 25.6 696.184 26.2 696.664 27.4C696.771 27.5067 696.851 27.6133 696.904 27.72C696.958 27.8267 697.011 27.9067 697.064 27.96C697.198 28.0933 697.264 28.4267 697.264 28.96C697.264 29.8667 697.051 30.96 696.624 32.24C696.331 33.4133 696.184 34.2133 696.184 34.64C696.184 34.9867 696.278 35.16 696.464 35.16C696.544 35.1067 696.704 35.0133 696.944 34.88C697.184 34.7467 697.464 34.5867 697.784 34.4C698.371 34.0533 698.838 33.88 699.184 33.88C699.451 33.88 699.651 33.96 699.784 34.12C699.918 34.2533 699.984 34.4267 699.984 34.64C699.984 34.8267 699.891 35.1067 699.704 35.48C699.544 35.8533 699.464 36.0667 699.464 36.12V36.32C699.464 36.4267 699.104 36.7733 698.384 37.36C697.664 37.9467 697.144 38.28 696.824 38.36ZM705.7 38.4C705.513 38.4 705.26 38.2667 704.94 38C704.647 37.7333 704.473 37.4933 704.42 37.28C704.393 37.2267 704.38 37.1067 704.38 36.92C704.38 36.5733 704.54 35.8933 704.86 34.88L705.14 33.6C705.407 32.4267 705.647 31.44 705.86 30.64C705.94 30.48 706.1 30.0267 706.34 29.28C706.5 28.6933 706.713 28.12 706.98 27.56C707.3 26.36 707.807 25.1733 708.5 24C708.58 23.8667 708.713 23.7067 708.9 23.52C709.087 23.3333 709.22 23.24 709.3 23.24C709.46 23.08 709.687 23 709.98 23C710.407 23 710.793 23.1467 711.14 23.44C711.487 23.84 711.66 24.2667 711.66 24.72C711.66 25.2267 711.473 25.8533 711.1 26.6C710.887 27.1867 710.54 27.9333 710.06 28.84C709.687 29.5067 709.46 29.9467 709.38 30.16C709.7 29.7333 710.393 28.9333 711.46 27.76C711.78 27.4133 712.087 27.1333 712.38 26.92C712.673 26.68 713.113 26.3733 713.7 26C714.287 25.5733 714.753 25.28 715.1 25.12C715.447 24.9333 715.847 24.84 716.3 24.84C716.513 24.84 716.673 24.8533 716.78 24.88C717.127 24.8533 717.487 25.08 717.86 25.56C718.26 26.04 718.46 26.5867 718.46 27.2C718.46 27.44 718.42 27.68 718.34 27.92C718.02 27.8667 717.793 27.84 717.66 27.84C717.127 27.84 716.647 27.9467 716.22 28.16C715.82 28.3733 715.487 28.5867 715.22 28.8C714.953 28.9867 714.78 29.1067 714.7 29.16C713.767 29.7733 712.66 30.6 711.38 31.64C710.74 32.1733 710.26 32.64 709.94 33.04C709.62 33.44 709.367 33.8667 709.18 34.32C709.127 34.48 708.873 35.1067 708.42 36.2C707.967 37.2667 707.62 37.8933 707.38 38.08C707.247 38.3733 706.9 38.52 706.34 38.52C706.047 38.52 705.833 38.48 705.7 38.4ZM725.354 22.28C725.087 22.0933 724.874 21.8533 724.714 21.56C724.554 21.2667 724.461 20.9867 724.434 20.72C724.407 20.4533 724.434 20.2933 724.514 20.24C724.674 20.0533 724.834 19.8 724.994 19.48C725.154 19.16 725.274 18.9333 725.354 18.8C725.567 18.32 725.741 17.9733 725.874 17.76C726.061 17.3867 726.234 17.1867 726.394 17.16C726.607 17.0533 726.781 17 726.914 17C727.261 17 727.634 17.12 728.034 17.36C728.461 17.6 728.781 17.88 728.994 18.2C729.181 18.6267 729.274 19 729.274 19.32C729.274 19.96 728.967 20.6667 728.354 21.44C728.087 21.7867 727.767 22.0533 727.394 22.24C727.021 22.4267 726.647 22.52 726.274 22.52C725.901 22.52 725.594 22.44 725.354 22.28ZM721.034 38.32C720.661 37.9467 720.474 37.28 720.474 36.32C720.474 35.8133 720.541 35.4267 720.674 35.16C720.674 35.0267 720.701 34.8667 720.754 34.68C720.807 34.4933 720.834 34.3733 720.834 34.32C720.807 34.16 720.914 33.72 721.154 33C721.474 32.28 721.874 31.1733 722.354 29.68C722.861 28.1867 723.207 27.12 723.394 26.48C723.394 26.3467 723.447 26.24 723.554 26.16C723.661 26.0533 723.821 25.9867 724.034 25.96C724.327 25.8533 724.701 25.9867 725.154 26.36C725.607 26.7067 725.981 27.1067 726.274 27.56C726.434 27.72 726.514 27.9333 726.514 28.2C726.514 28.6 726.341 29.16 725.994 29.88C725.861 30.1733 725.727 30.5333 725.594 30.96C725.487 31.3867 725.394 31.7867 725.314 32.16C724.994 32.88 724.741 33.5467 724.554 34.16C724.474 34.5067 724.421 34.7733 724.394 34.96C724.207 35.9467 724.034 36.5867 723.874 36.88C723.714 37.5467 723.487 38.0533 723.194 38.4C722.901 38.72 722.567 38.88 722.194 38.88C721.741 38.88 721.354 38.6933 721.034 38.32ZM749.926 38.08C749.579 38.08 749.312 38.0267 749.126 37.92C748.912 37.84 748.632 37.6533 748.286 37.36C747.966 37.04 747.672 36.6 747.406 36.04C747.166 35.4533 747.046 34.76 747.046 33.96C747.046 33.4533 747.072 33.0133 747.126 32.64C747.206 32.24 747.246 31.9867 747.246 31.88C747.246 31.7467 747.206 31.68 747.126 31.68C746.432 31.68 744.926 32.9467 742.606 35.48C742.526 35.5333 742.459 35.6 742.406 35.68C742.086 35.92 741.792 36.1733 741.526 36.44C741.126 36.8133 740.792 37.0933 740.526 37.28C740.286 37.44 740.019 37.5333 739.726 37.56C739.539 37.56 739.339 37.48 739.126 37.32L738.686 36.96C738.552 36.88 738.432 36.7333 738.326 36.52C738.219 36.3067 738.166 36.1067 738.166 35.92V35.8V35.72L739.086 33.04C739.752 31.5733 740.086 30.7067 740.086 30.44C740.086 30.3867 740.072 30.36 740.046 30.36C739.806 30.3333 739.446 30.5467 738.966 31C738.512 31.4267 737.859 32.1067 737.006 33.04L735.206 34.92C734.992 35.1333 734.419 35.7733 733.486 36.84C732.899 37.56 732.592 37.92 732.566 37.92C731.979 37.92 731.446 37.6933 730.966 37.24C730.512 36.7867 730.286 36.24 730.286 35.6C730.286 35.28 730.339 34.8533 730.446 34.32C730.552 33.7867 730.672 33.2267 730.806 32.64C730.859 32.4267 730.912 32.1867 730.966 31.92C731.046 31.6533 731.126 31.3467 731.206 31C731.259 30.7333 731.312 30.44 731.366 30.12C731.446 29.8 731.592 29.3867 731.806 28.88C732.019 28.3467 732.326 27.6133 732.726 26.68C732.832 26.3333 732.886 25.9733 732.886 25.6C732.886 25.4133 732.872 25.24 732.846 25.08C732.819 24.8933 732.806 24.7733 732.806 24.72C732.806 24.32 732.992 23.9867 733.366 23.72C733.766 23.4267 734.206 23.28 734.686 23.28C735.379 23.28 735.899 23.5333 736.246 24.04C736.592 24.52 736.766 25.0267 736.766 25.56C736.766 26.0133 736.659 26.4533 736.446 26.88L736.006 27.96C735.899 28.2 735.699 28.64 735.406 29.28C735.139 29.8933 735.006 30.2667 735.006 30.4C735.006 30.48 735.032 30.52 735.086 30.52H735.126C735.259 30.52 735.472 30.3733 735.766 30.08C736.619 29.28 737.646 28.4533 738.846 27.6C740.072 26.72 740.952 26.2 741.486 26.04C741.699 26.04 741.979 26.1467 742.326 26.36C742.672 26.5733 742.979 26.8667 743.246 27.24C743.512 27.5867 743.646 27.9733 743.646 28.4L743.606 28.72C743.579 28.8267 743.459 29.28 743.246 30.08C743.059 30.88 742.912 31.3467 742.806 31.48C743.312 30.8933 744.192 30.1733 745.446 29.32C746.699 28.44 747.619 27.9867 748.206 27.96C749.086 27.96 749.659 28.32 749.926 29.04C750.192 29.76 750.379 30.8133 750.486 32.2C750.592 33.5067 750.739 34.3867 750.926 34.84C750.979 35 751.166 35.1333 751.486 35.24C751.806 35.3467 752.059 35.48 752.246 35.64C752.459 35.7733 752.566 36.0533 752.566 36.48C752.566 37.0667 752.299 37.48 751.766 37.72C751.259 37.96 750.646 38.08 749.926 38.08ZM754.859 46.44C754.406 46.44 753.979 46.2 753.579 45.72C753.206 45.24 753.019 44.6933 753.019 44.08C753.019 43.84 753.059 43.6 753.139 43.36C753.166 43.2533 753.232 43 753.339 42.6C753.472 42.2267 753.552 41.9067 753.579 41.64C753.632 41.3467 753.792 40.8133 754.059 40.04C754.326 39.2667 754.539 38.7467 754.699 38.48C754.832 38.24 754.939 37.96 755.019 37.64C755.099 37.2933 755.139 37 755.139 36.76C755.326 36.1733 755.499 35.7733 755.659 35.56C755.846 34.9733 756.046 34.52 756.259 34.2C756.286 34.12 756.312 33.9333 756.339 33.64C756.392 33.32 756.486 33.1333 756.619 33.08C756.699 32.7067 756.766 32.4533 756.819 32.32C757.006 31.4933 757.352 30.4533 757.859 29.2C758.259 28.0533 758.459 27.28 758.459 26.88C758.459 26.4533 758.312 26.1867 758.019 26.08C757.726 25.9733 757.579 25.6 757.579 24.96C757.579 24.6133 757.632 24.2933 757.739 24C757.846 23.7067 757.992 23.52 758.179 23.44C758.579 23.28 759.099 23.2 759.739 23.2C760.166 23.2 760.379 23.24 760.379 23.32C760.379 23.4 760.392 23.4667 760.419 23.52C760.446 23.5467 760.499 23.56 760.579 23.56C760.659 23.4533 760.859 23.7333 761.179 24.4C761.499 25.04 761.659 25.4667 761.659 25.68C761.606 25.76 761.579 25.8133 761.579 25.84C761.606 25.8667 761.659 25.88 761.739 25.88C761.926 25.8 762.272 25.6267 762.779 25.36C763.312 25.0667 763.646 24.84 763.779 24.68C763.832 24.6533 763.926 24.6133 764.059 24.56C764.192 24.48 764.299 24.4 764.379 24.32C764.672 24.2133 765.006 24.16 765.379 24.16C765.806 24.16 766.219 24.2267 766.619 24.36C767.019 24.4933 767.352 24.68 767.619 24.92C768.019 25.4267 768.352 26.0133 768.619 26.68C768.886 27.3467 769.019 28 769.019 28.64C769.019 29.1733 768.912 29.72 768.699 30.28C768.646 30.44 768.472 30.76 768.179 31.24C767.912 31.6933 767.726 32 767.619 32.16C766.552 33.8133 765.086 35.1733 763.219 36.24C762.872 36.48 762.366 36.7067 761.699 36.92C761.059 37.1067 760.592 37.2 760.299 37.2C760.139 37.2 759.966 37.0667 759.779 36.8C759.619 36.5067 759.472 36.1733 759.339 35.8C758.992 36.6267 758.792 37.1867 758.739 37.48C758.739 37.56 758.712 37.6933 758.659 37.88C758.632 38.04 758.566 38.16 758.459 38.24C758.459 38.2667 758.432 38.3333 758.379 38.44C758.352 38.5467 758.272 38.6933 758.139 38.88L757.459 40.84C757.139 41.6133 756.939 42.2267 756.859 42.68C756.779 43.6133 756.566 44.4667 756.219 45.24C755.872 46.04 755.419 46.44 754.859 46.44ZM761.139 33.4C761.539 33.2133 762.099 32.92 762.819 32.52C763.566 32.12 764.059 31.7733 764.299 31.48C764.486 31.2667 764.606 31.04 764.659 30.8C764.739 30.56 764.806 30.3467 764.859 30.16C765.126 29.4933 765.312 29 765.419 28.68C765.499 28.52 765.539 28.3333 765.539 28.12C765.539 27.8267 765.459 27.6 765.299 27.44C764.979 27.4133 764.459 27.5733 763.739 27.92C763.046 28.24 762.392 28.8 761.779 29.6C760.899 30.7467 760.459 31.72 760.459 32.52C760.459 32.7867 760.512 33 760.619 33.16C760.752 33.32 760.926 33.4 761.139 33.4Z" fill="white" fill-opacity="0.8" shape-rendering="crispEdges"/>
</g>
<defs>
<filter id="filter0_d" x="663.6" y="12.2" width="109.419" height="42.24" filterUnits="userSpaceOnUse" color-interpolation-filters="sRGB">
<feFlood flood-opacity="0" result="BackgroundImageFix"/>
<feColorMatrix in="SourceAlpha" type="matrix" values="0 0 0 0 0 0 0 0 0 0 0 0 0 0 0 0 0 0 127 0" result="hardAlpha"/>
<feOffset dy="4"/>
<feGaussianBlur stdDeviation="2"/>
<feComposite in2="hardAlpha" operator="out"/>
<feColorMatrix type="matrix" values="0 0 0 0 0 0 0 0 0 0 0 0 0 0 0 0 0 0 0.25 0"/>
<feBlend mode="normal" in2="BackgroundImageFix" result="effect1_dropShadow"/>
<feBlend mode="normal" in="SourceGraphic" in2="effect1_dropShadow" result="shape"/>
</filter>
</defs>
</svg>
