<svg width="1008" height="119" viewBox="0 0 1008 119" fill="none" xmlns="http://www.w3.org/2000/svg">
<g opacity="0.6">
<mask id="path-1-outside-1" maskUnits="userSpaceOnUse" x="4.07031" y="14" width="1004" height="59" fill="black">
<rect fill="white" x="4.07031" y="14" width="1004" height="59"/>
<path d="M47.8008 52.9492C47.4023 58.457 45.3633 62.793 41.6836 65.957C38.0273 69.1211 33.1992 70.7031 27.1992 70.7031C20.6367 70.7031 15.4688 68.5 11.6953 64.0938C7.94531 59.6641 6.07031 53.5938 6.07031 45.8828V42.7539C6.07031 37.832 6.9375 33.4961 8.67188 29.7461C10.4062 25.9961 12.8789 23.125 16.0898 21.1328C19.3242 19.1172 23.0742 18.1094 27.3398 18.1094C33.2461 18.1094 38.0039 19.6914 41.6133 22.8555C45.2227 26.0195 47.3086 30.4609 47.8711 36.1797H37.3242C37.0664 32.875 36.1406 30.4844 34.5469 29.0078C32.9766 27.5078 30.5742 26.7578 27.3398 26.7578C23.8242 26.7578 21.1875 28.0234 19.4297 30.5547C17.6953 33.0625 16.8047 36.9648 16.7578 42.2617V46.1289C16.7578 51.6602 17.5898 55.7031 19.2539 58.2578C20.9414 60.8125 23.5898 62.0898 27.1992 62.0898C30.457 62.0898 32.8828 61.3516 34.4766 59.875C36.0938 58.375 37.0195 56.0664 37.2539 52.9492H47.8008Z"/>
<path d="M52.4766 50.6289C52.4766 46.8555 53.2031 43.4922 54.6562 40.5391C56.1094 37.5859 58.1953 35.3008 60.9141 33.6836C63.6562 32.0664 66.832 31.2578 70.4414 31.2578C75.5742 31.2578 79.7578 32.8281 82.9922 35.9688C86.25 39.1094 88.0664 43.375 88.4414 48.7656L88.5117 51.3672C88.5117 57.2031 86.8828 61.8906 83.625 65.4297C80.3672 68.9453 75.9961 70.7031 70.5117 70.7031C65.0273 70.7031 60.6445 68.9453 57.3633 65.4297C54.1055 61.9141 52.4766 57.1328 52.4766 51.0859V50.6289ZM62.6367 51.3672C62.6367 54.9766 63.3164 57.7422 64.6758 59.6641C66.0352 61.5625 67.9805 62.5117 70.5117 62.5117C72.9727 62.5117 74.8945 61.5742 76.2773 59.6992C77.6602 57.8008 78.3516 54.7773 78.3516 50.6289C78.3516 47.0898 77.6602 44.3477 76.2773 42.4023C74.8945 40.457 72.9492 39.4844 70.4414 39.4844C67.957 39.4844 66.0352 40.457 64.6758 42.4023C63.3164 44.3242 62.6367 47.3125 62.6367 51.3672Z"/>
<path d="M104.121 31.9609L104.438 36.3555C107.156 32.957 110.801 31.2578 115.371 31.2578C119.402 31.2578 122.402 32.4414 124.371 34.8086C126.34 37.1758 127.348 40.7148 127.395 45.4258V70H117.234V45.6719C117.234 43.5156 116.766 41.957 115.828 40.9961C114.891 40.0117 113.332 39.5195 111.152 39.5195C108.293 39.5195 106.148 40.7383 104.719 43.1758V70H94.5586V31.9609H104.121Z"/>
<path d="M149.367 57.5898L156.434 31.9609H167.051L154.219 70H144.516L131.684 31.9609H142.301L149.367 57.5898Z"/>
<path d="M169.406 50.6289C169.406 46.8555 170.133 43.4922 171.586 40.5391C173.039 37.5859 175.125 35.3008 177.844 33.6836C180.586 32.0664 183.762 31.2578 187.371 31.2578C192.504 31.2578 196.688 32.8281 199.922 35.9688C203.18 39.1094 204.996 43.375 205.371 48.7656L205.441 51.3672C205.441 57.2031 203.812 61.8906 200.555 65.4297C197.297 68.9453 192.926 70.7031 187.441 70.7031C181.957 70.7031 177.574 68.9453 174.293 65.4297C171.035 61.9141 169.406 57.1328 169.406 51.0859V50.6289ZM179.566 51.3672C179.566 54.9766 180.246 57.7422 181.605 59.6641C182.965 61.5625 184.91 62.5117 187.441 62.5117C189.902 62.5117 191.824 61.5742 193.207 59.6992C194.59 57.8008 195.281 54.7773 195.281 50.6289C195.281 47.0898 194.59 44.3477 193.207 42.4023C191.824 40.457 189.879 39.4844 187.371 39.4844C184.887 39.4844 182.965 40.457 181.605 42.4023C180.246 44.3242 179.566 47.3125 179.566 51.3672Z"/>
<path d="M222.422 70H212.227V16H222.422V70Z"/>
<path d="M253.605 66.1328C251.098 69.1797 247.629 70.7031 243.199 70.7031C239.121 70.7031 236.004 69.5312 233.848 67.1875C231.715 64.8438 230.625 61.4102 230.578 56.8867V31.9609H240.738V56.5352C240.738 60.4961 242.543 62.4766 246.152 62.4766C249.598 62.4766 251.965 61.2812 253.254 58.8906V31.9609H263.449V70H253.887L253.605 66.1328Z"/>
<path d="M283.277 22.6094V31.9609H289.781V39.4141H283.277V58.3984C283.277 59.8047 283.547 60.8125 284.086 61.4219C284.625 62.0312 285.656 62.3359 287.18 62.3359C288.305 62.3359 289.301 62.2539 290.168 62.0898V69.7891C288.176 70.3984 286.125 70.7031 284.016 70.7031C276.891 70.7031 273.258 67.1055 273.117 59.9102V39.4141H267.562V31.9609H273.117V22.6094H283.277Z"/>
<path d="M306.164 70H295.969V31.9609H306.164V70ZM295.371 22.1172C295.371 20.5938 295.875 19.3398 296.883 18.3555C297.914 17.3711 299.309 16.8789 301.066 16.8789C302.801 16.8789 304.184 17.3711 305.215 18.3555C306.246 19.3398 306.762 20.5938 306.762 22.1172C306.762 23.6641 306.234 24.9297 305.18 25.9141C304.148 26.8984 302.777 27.3906 301.066 27.3906C299.355 27.3906 297.973 26.8984 296.918 25.9141C295.887 24.9297 295.371 23.6641 295.371 22.1172Z"/>
<path d="M312.984 50.6289C312.984 46.8555 313.711 43.4922 315.164 40.5391C316.617 37.5859 318.703 35.3008 321.422 33.6836C324.164 32.0664 327.34 31.2578 330.949 31.2578C336.082 31.2578 340.266 32.8281 343.5 35.9688C346.758 39.1094 348.574 43.375 348.949 48.7656L349.02 51.3672C349.02 57.2031 347.391 61.8906 344.133 65.4297C340.875 68.9453 336.504 70.7031 331.02 70.7031C325.535 70.7031 321.152 68.9453 317.871 65.4297C314.613 61.9141 312.984 57.1328 312.984 51.0859V50.6289ZM323.145 51.3672C323.145 54.9766 323.824 57.7422 325.184 59.6641C326.543 61.5625 328.488 62.5117 331.02 62.5117C333.48 62.5117 335.402 61.5742 336.785 59.6992C338.168 57.8008 338.859 54.7773 338.859 50.6289C338.859 47.0898 338.168 44.3477 336.785 42.4023C335.402 40.457 333.457 39.4844 330.949 39.4844C328.465 39.4844 326.543 40.457 325.184 42.4023C323.824 44.3242 323.145 47.3125 323.145 51.3672Z"/>
<path d="M364.629 31.9609L364.945 36.3555C367.664 32.957 371.309 31.2578 375.879 31.2578C379.91 31.2578 382.91 32.4414 384.879 34.8086C386.848 37.1758 387.855 40.7148 387.902 45.4258V70H377.742V45.6719C377.742 43.5156 377.273 41.957 376.336 40.9961C375.398 40.0117 373.84 39.5195 371.66 39.5195C368.801 39.5195 366.656 40.7383 365.227 43.1758V70H355.066V31.9609H364.629Z"/>
<path d="M417.68 70C417.211 69.0859 416.871 67.9492 416.66 66.5898C414.199 69.332 411 70.7031 407.062 70.7031C403.336 70.7031 400.242 69.625 397.781 67.4688C395.344 65.3125 394.125 62.5938 394.125 59.3125C394.125 55.2812 395.613 52.1875 398.59 50.0312C401.59 47.875 405.914 46.7852 411.562 46.7617H416.238V44.582C416.238 42.8242 415.781 41.418 414.867 40.3633C413.977 39.3086 412.559 38.7812 410.613 38.7812C408.902 38.7812 407.555 39.1914 406.57 40.0117C405.609 40.832 405.129 41.957 405.129 43.3867H394.969C394.969 41.1836 395.648 39.1445 397.008 37.2695C398.367 35.3945 400.289 33.9297 402.773 32.875C405.258 31.7969 408.047 31.2578 411.141 31.2578C415.828 31.2578 419.543 32.4414 422.285 34.8086C425.051 37.1523 426.434 40.457 426.434 44.7227V61.2109C426.457 64.8203 426.961 67.5508 427.945 69.4023V70H417.68ZM409.277 62.9336C410.777 62.9336 412.16 62.6055 413.426 61.9492C414.691 61.2695 415.629 60.3672 416.238 59.2422V52.7031H412.441C407.355 52.7031 404.648 54.4609 404.32 57.9766L404.285 58.5742C404.285 59.8398 404.73 60.8828 405.621 61.7031C406.512 62.5234 407.73 62.9336 409.277 62.9336Z"/>
<path d="M444.961 70H434.766V16H444.961V70Z"/>
<path d="M513.586 70H503.039L482.508 36.3203V70H471.961V18.8125H482.508L503.074 52.5625V18.8125H513.586V70Z"/>
<path d="M539.637 70.7031C534.059 70.7031 529.512 68.9922 525.996 65.5703C522.504 62.1484 520.758 57.5898 520.758 51.8945V50.9102C520.758 47.0898 521.496 43.6797 522.973 40.6797C524.449 37.6562 526.535 35.3359 529.23 33.7188C531.949 32.0781 535.043 31.2578 538.512 31.2578C543.715 31.2578 547.805 32.8984 550.781 36.1797C553.781 39.4609 555.281 44.1133 555.281 50.1367V54.2852H531.059C531.387 56.7695 532.371 58.7617 534.012 60.2617C535.676 61.7617 537.773 62.5117 540.305 62.5117C544.219 62.5117 547.277 61.0938 549.48 58.2578L554.473 63.8477C552.949 66.0039 550.887 67.6914 548.285 68.9102C545.684 70.1055 542.801 70.7031 539.637 70.7031ZM538.477 39.4844C536.461 39.4844 534.82 40.1641 533.555 41.5234C532.312 42.8828 531.516 44.8281 531.164 47.3594H545.297V46.5508C545.25 44.3008 544.641 42.5664 543.469 41.3477C542.297 40.1055 540.633 39.4844 538.477 39.4844Z"/>
<path d="M583.863 66.1328C581.355 69.1797 577.887 70.7031 573.457 70.7031C569.379 70.7031 566.262 69.5312 564.105 67.1875C561.973 64.8438 560.883 61.4102 560.836 56.8867V31.9609H570.996V56.5352C570.996 60.4961 572.801 62.4766 576.41 62.4766C579.855 62.4766 582.223 61.2812 583.512 58.8906V31.9609H593.707V70H584.145L583.863 66.1328Z"/>
<path d="M622.746 41.4883C621.363 41.3008 620.145 41.207 619.09 41.207C615.246 41.207 612.727 42.5078 611.531 45.1094V70H601.371V31.9609H610.969L611.25 36.4961C613.289 33.0039 616.113 31.2578 619.723 31.2578C620.848 31.2578 621.902 31.4102 622.887 31.7148L622.746 41.4883Z"/>
<path d="M648.656 70C648.188 69.0859 647.848 67.9492 647.637 66.5898C645.176 69.332 641.977 70.7031 638.039 70.7031C634.312 70.7031 631.219 69.625 628.758 67.4688C626.32 65.3125 625.102 62.5938 625.102 59.3125C625.102 55.2812 626.59 52.1875 629.566 50.0312C632.566 47.875 636.891 46.7852 642.539 46.7617H647.215V44.582C647.215 42.8242 646.758 41.418 645.844 40.3633C644.953 39.3086 643.535 38.7812 641.59 38.7812C639.879 38.7812 638.531 39.1914 637.547 40.0117C636.586 40.832 636.105 41.957 636.105 43.3867H625.945C625.945 41.1836 626.625 39.1445 627.984 37.2695C629.344 35.3945 631.266 33.9297 633.75 32.875C636.234 31.7969 639.023 31.2578 642.117 31.2578C646.805 31.2578 650.52 32.4414 653.262 34.8086C656.027 37.1523 657.41 40.457 657.41 44.7227V61.2109C657.434 64.8203 657.938 67.5508 658.922 69.4023V70H648.656ZM640.254 62.9336C641.754 62.9336 643.137 62.6055 644.402 61.9492C645.668 61.2695 646.605 60.3672 647.215 59.2422V52.7031H643.418C638.332 52.7031 635.625 54.4609 635.297 57.9766L635.262 58.5742C635.262 59.8398 635.707 60.8828 636.598 61.7031C637.488 62.5234 638.707 62.9336 640.254 62.9336Z"/>
<path d="M675.938 70H665.742V16H675.938V70Z"/>
<path d="M744.562 70H734.016L713.484 36.3203V70H702.938V18.8125H713.484L734.051 52.5625V18.8125H744.562V70Z"/>
<path d="M770.613 70.7031C765.035 70.7031 760.488 68.9922 756.973 65.5703C753.48 62.1484 751.734 57.5898 751.734 51.8945V50.9102C751.734 47.0898 752.473 43.6797 753.949 40.6797C755.426 37.6562 757.512 35.3359 760.207 33.7188C762.926 32.0781 766.02 31.2578 769.488 31.2578C774.691 31.2578 778.781 32.8984 781.758 36.1797C784.758 39.4609 786.258 44.1133 786.258 50.1367V54.2852H762.035C762.363 56.7695 763.348 58.7617 764.988 60.2617C766.652 61.7617 768.75 62.5117 771.281 62.5117C775.195 62.5117 778.254 61.0938 780.457 58.2578L785.449 63.8477C783.926 66.0039 781.863 67.6914 779.262 68.9102C776.66 70.1055 773.777 70.7031 770.613 70.7031ZM769.453 39.4844C767.438 39.4844 765.797 40.1641 764.531 41.5234C763.289 42.8828 762.492 44.8281 762.141 47.3594H776.273V46.5508C776.227 44.3008 775.617 42.5664 774.445 41.3477C773.273 40.1055 771.609 39.4844 769.453 39.4844Z"/>
<path d="M804.223 22.6094V31.9609H810.727V39.4141H804.223V58.3984C804.223 59.8047 804.492 60.8125 805.031 61.4219C805.57 62.0312 806.602 62.3359 808.125 62.3359C809.25 62.3359 810.246 62.2539 811.113 62.0898V69.7891C809.121 70.3984 807.07 70.7031 804.961 70.7031C797.836 70.7031 794.203 67.1055 794.062 59.9102V39.4141H788.508V31.9609H794.062V22.6094H804.223Z"/>
<path d="M849.469 56.1836L854.461 31.9609H864.27L854.566 70H846.059L838.852 46.0586L831.645 70H823.172L813.469 31.9609H823.277L828.234 56.1484L835.195 31.9609H842.543L849.469 56.1836Z"/>
<path d="M867.75 50.6289C867.75 46.8555 868.477 43.4922 869.93 40.5391C871.383 37.5859 873.469 35.3008 876.188 33.6836C878.93 32.0664 882.105 31.2578 885.715 31.2578C890.848 31.2578 895.031 32.8281 898.266 35.9688C901.523 39.1094 903.34 43.375 903.715 48.7656L903.785 51.3672C903.785 57.2031 902.156 61.8906 898.898 65.4297C895.641 68.9453 891.27 70.7031 885.785 70.7031C880.301 70.7031 875.918 68.9453 872.637 65.4297C869.379 61.9141 867.75 57.1328 867.75 51.0859V50.6289ZM877.91 51.3672C877.91 54.9766 878.59 57.7422 879.949 59.6641C881.309 61.5625 883.254 62.5117 885.785 62.5117C888.246 62.5117 890.168 61.5742 891.551 59.6992C892.934 57.8008 893.625 54.7773 893.625 50.6289C893.625 47.0898 892.934 44.3477 891.551 42.4023C890.168 40.457 888.223 39.4844 885.715 39.4844C883.23 39.4844 881.309 40.457 879.949 42.4023C878.59 44.3242 877.91 47.3125 877.91 51.3672Z"/>
<path d="M931.418 41.4883C930.035 41.3008 928.816 41.207 927.762 41.207C923.918 41.207 921.398 42.5078 920.203 45.1094V70H910.043V31.9609H919.641L919.922 36.4961C921.961 33.0039 924.785 31.2578 928.395 31.2578C929.52 31.2578 930.574 31.4102 931.559 31.7148L931.418 41.4883Z"/>
<path d="M950.156 54.7422L946.5 58.3984V70H936.34V16H946.5V45.918L948.469 43.3867L958.207 31.9609H970.406L956.66 47.8164L971.602 70H959.93L950.156 54.7422Z"/>
<path d="M995.402 59.4883C995.402 58.2461 994.781 57.2734 993.539 56.5703C992.32 55.8438 990.352 55.1992 987.633 54.6367C978.586 52.7383 974.062 48.8945 974.062 43.1055C974.062 39.7305 975.457 36.918 978.246 34.668C981.059 32.3945 984.727 31.2578 989.25 31.2578C994.078 31.2578 997.934 32.3945 1000.82 34.668C1003.72 36.9414 1005.18 39.8945 1005.18 43.5273H995.016C995.016 42.0742 994.547 40.8789 993.609 39.9414C992.672 38.9805 991.207 38.5 989.215 38.5C987.504 38.5 986.18 38.8867 985.242 39.6602C984.305 40.4336 983.836 41.418 983.836 42.6133C983.836 43.7383 984.363 44.6523 985.418 45.3555C986.496 46.0352 988.301 46.6328 990.832 47.1484C993.363 47.6406 995.496 48.2031 997.23 48.8359C1002.6 50.8047 1005.28 54.2148 1005.28 59.0664C1005.28 62.5352 1003.79 65.3477 1000.82 67.5039C997.84 69.6367 993.996 70.7031 989.285 70.7031C986.098 70.7031 983.262 70.1406 980.777 69.0156C978.316 67.8672 976.383 66.3086 974.977 64.3398C973.57 62.3477 972.867 60.2031 972.867 57.9062H982.5C982.594 59.7109 983.262 61.0938 984.504 62.0547C985.746 63.0156 987.41 63.4961 989.496 63.4961C991.441 63.4961 992.906 63.1328 993.891 62.4062C994.898 61.6562 995.402 60.6836 995.402 59.4883Z"/>
</mask>
<path d="M47.8008 52.9492C47.4023 58.457 45.3633 62.793 41.6836 65.957C38.0273 69.1211 33.1992 70.7031 27.1992 70.7031C20.6367 70.7031 15.4688 68.5 11.6953 64.0938C7.94531 59.6641 6.07031 53.5938 6.07031 45.8828V42.7539C6.07031 37.832 6.9375 33.4961 8.67188 29.7461C10.4062 25.9961 12.8789 23.125 16.0898 21.1328C19.3242 19.1172 23.0742 18.1094 27.3398 18.1094C33.2461 18.1094 38.0039 19.6914 41.6133 22.8555C45.2227 26.0195 47.3086 30.4609 47.8711 36.1797H37.3242C37.0664 32.875 36.1406 30.4844 34.5469 29.0078C32.9766 27.5078 30.5742 26.7578 27.3398 26.7578C23.8242 26.7578 21.1875 28.0234 19.4297 30.5547C17.6953 33.0625 16.8047 36.9648 16.7578 42.2617V46.1289C16.7578 51.6602 17.5898 55.7031 19.2539 58.2578C20.9414 60.8125 23.5898 62.0898 27.1992 62.0898C30.457 62.0898 32.8828 61.3516 34.4766 59.875C36.0938 58.375 37.0195 56.0664 37.2539 52.9492H47.8008Z" stroke="#62B9AB" stroke-width="4" mask="url(#path-1-outside-1)"/>
<path d="M52.4766 50.6289C52.4766 46.8555 53.2031 43.4922 54.6562 40.5391C56.1094 37.5859 58.1953 35.3008 60.9141 33.6836C63.6562 32.0664 66.832 31.2578 70.4414 31.2578C75.5742 31.2578 79.7578 32.8281 82.9922 35.9688C86.25 39.1094 88.0664 43.375 88.4414 48.7656L88.5117 51.3672C88.5117 57.2031 86.8828 61.8906 83.625 65.4297C80.3672 68.9453 75.9961 70.7031 70.5117 70.7031C65.0273 70.7031 60.6445 68.9453 57.3633 65.4297C54.1055 61.9141 52.4766 57.1328 52.4766 51.0859V50.6289ZM62.6367 51.3672C62.6367 54.9766 63.3164 57.7422 64.6758 59.6641C66.0352 61.5625 67.9805 62.5117 70.5117 62.5117C72.9727 62.5117 74.8945 61.5742 76.2773 59.6992C77.6602 57.8008 78.3516 54.7773 78.3516 50.6289C78.3516 47.0898 77.6602 44.3477 76.2773 42.4023C74.8945 40.457 72.9492 39.4844 70.4414 39.4844C67.957 39.4844 66.0352 40.457 64.6758 42.4023C63.3164 44.3242 62.6367 47.3125 62.6367 51.3672Z" stroke="#62B9AB" stroke-width="4" mask="url(#path-1-outside-1)"/>
<path d="M104.121 31.9609L104.438 36.3555C107.156 32.957 110.801 31.2578 115.371 31.2578C119.402 31.2578 122.402 32.4414 124.371 34.8086C126.34 37.1758 127.348 40.7148 127.395 45.4258V70H117.234V45.6719C117.234 43.5156 116.766 41.957 115.828 40.9961C114.891 40.0117 113.332 39.5195 111.152 39.5195C108.293 39.5195 106.148 40.7383 104.719 43.1758V70H94.5586V31.9609H104.121Z" stroke="#62B9AB" stroke-width="4" mask="url(#path-1-outside-1)"/>
<path d="M149.367 57.5898L156.434 31.9609H167.051L154.219 70H144.516L131.684 31.9609H142.301L149.367 57.5898Z" stroke="#62B9AB" stroke-width="4" mask="url(#path-1-outside-1)"/>
<path d="M169.406 50.6289C169.406 46.8555 170.133 43.4922 171.586 40.5391C173.039 37.5859 175.125 35.3008 177.844 33.6836C180.586 32.0664 183.762 31.2578 187.371 31.2578C192.504 31.2578 196.688 32.8281 199.922 35.9688C203.18 39.1094 204.996 43.375 205.371 48.7656L205.441 51.3672C205.441 57.2031 203.812 61.8906 200.555 65.4297C197.297 68.9453 192.926 70.7031 187.441 70.7031C181.957 70.7031 177.574 68.9453 174.293 65.4297C171.035 61.9141 169.406 57.1328 169.406 51.0859V50.6289ZM179.566 51.3672C179.566 54.9766 180.246 57.7422 181.605 59.6641C182.965 61.5625 184.91 62.5117 187.441 62.5117C189.902 62.5117 191.824 61.5742 193.207 59.6992C194.59 57.8008 195.281 54.7773 195.281 50.6289C195.281 47.0898 194.59 44.3477 193.207 42.4023C191.824 40.457 189.879 39.4844 187.371 39.4844C184.887 39.4844 182.965 40.457 181.605 42.4023C180.246 44.3242 179.566 47.3125 179.566 51.3672Z" stroke="#62B9AB" stroke-width="4" mask="url(#path-1-outside-1)"/>
<path d="M222.422 70H212.227V16H222.422V70Z" stroke="#62B9AB" stroke-width="4" mask="url(#path-1-outside-1)"/>
<path d="M253.605 66.1328C251.098 69.1797 247.629 70.7031 243.199 70.7031C239.121 70.7031 236.004 69.5312 233.848 67.1875C231.715 64.8438 230.625 61.4102 230.578 56.8867V31.9609H240.738V56.5352C240.738 60.4961 242.543 62.4766 246.152 62.4766C249.598 62.4766 251.965 61.2812 253.254 58.8906V31.9609H263.449V70H253.887L253.605 66.1328Z" stroke="#62B9AB" stroke-width="4" mask="url(#path-1-outside-1)"/>
<path d="M283.277 22.6094V31.9609H289.781V39.4141H283.277V58.3984C283.277 59.8047 283.547 60.8125 284.086 61.4219C284.625 62.0312 285.656 62.3359 287.18 62.3359C288.305 62.3359 289.301 62.2539 290.168 62.0898V69.7891C288.176 70.3984 286.125 70.7031 284.016 70.7031C276.891 70.7031 273.258 67.1055 273.117 59.9102V39.4141H267.562V31.9609H273.117V22.6094H283.277Z" stroke="#62B9AB" stroke-width="4" mask="url(#path-1-outside-1)"/>
<path d="M306.164 70H295.969V31.9609H306.164V70ZM295.371 22.1172C295.371 20.5938 295.875 19.3398 296.883 18.3555C297.914 17.3711 299.309 16.8789 301.066 16.8789C302.801 16.8789 304.184 17.3711 305.215 18.3555C306.246 19.3398 306.762 20.5938 306.762 22.1172C306.762 23.6641 306.234 24.9297 305.18 25.9141C304.148 26.8984 302.777 27.3906 301.066 27.3906C299.355 27.3906 297.973 26.8984 296.918 25.9141C295.887 24.9297 295.371 23.6641 295.371 22.1172Z" stroke="#62B9AB" stroke-width="4" mask="url(#path-1-outside-1)"/>
<path d="M312.984 50.6289C312.984 46.8555 313.711 43.4922 315.164 40.5391C316.617 37.5859 318.703 35.3008 321.422 33.6836C324.164 32.0664 327.34 31.2578 330.949 31.2578C336.082 31.2578 340.266 32.8281 343.5 35.9688C346.758 39.1094 348.574 43.375 348.949 48.7656L349.02 51.3672C349.02 57.2031 347.391 61.8906 344.133 65.4297C340.875 68.9453 336.504 70.7031 331.02 70.7031C325.535 70.7031 321.152 68.9453 317.871 65.4297C314.613 61.9141 312.984 57.1328 312.984 51.0859V50.6289ZM323.145 51.3672C323.145 54.9766 323.824 57.7422 325.184 59.6641C326.543 61.5625 328.488 62.5117 331.02 62.5117C333.48 62.5117 335.402 61.5742 336.785 59.6992C338.168 57.8008 338.859 54.7773 338.859 50.6289C338.859 47.0898 338.168 44.3477 336.785 42.4023C335.402 40.457 333.457 39.4844 330.949 39.4844C328.465 39.4844 326.543 40.457 325.184 42.4023C323.824 44.3242 323.145 47.3125 323.145 51.3672Z" stroke="#62B9AB" stroke-width="4" mask="url(#path-1-outside-1)"/>
<path d="M364.629 31.9609L364.945 36.3555C367.664 32.957 371.309 31.2578 375.879 31.2578C379.91 31.2578 382.91 32.4414 384.879 34.8086C386.848 37.1758 387.855 40.7148 387.902 45.4258V70H377.742V45.6719C377.742 43.5156 377.273 41.957 376.336 40.9961C375.398 40.0117 373.84 39.5195 371.66 39.5195C368.801 39.5195 366.656 40.7383 365.227 43.1758V70H355.066V31.9609H364.629Z" stroke="#62B9AB" stroke-width="4" mask="url(#path-1-outside-1)"/>
<path d="M417.68 70C417.211 69.0859 416.871 67.9492 416.66 66.5898C414.199 69.332 411 70.7031 407.062 70.7031C403.336 70.7031 400.242 69.625 397.781 67.4688C395.344 65.3125 394.125 62.5938 394.125 59.3125C394.125 55.2812 395.613 52.1875 398.59 50.0312C401.59 47.875 405.914 46.7852 411.562 46.7617H416.238V44.582C416.238 42.8242 415.781 41.418 414.867 40.3633C413.977 39.3086 412.559 38.7812 410.613 38.7812C408.902 38.7812 407.555 39.1914 406.57 40.0117C405.609 40.832 405.129 41.957 405.129 43.3867H394.969C394.969 41.1836 395.648 39.1445 397.008 37.2695C398.367 35.3945 400.289 33.9297 402.773 32.875C405.258 31.7969 408.047 31.2578 411.141 31.2578C415.828 31.2578 419.543 32.4414 422.285 34.8086C425.051 37.1523 426.434 40.457 426.434 44.7227V61.2109C426.457 64.8203 426.961 67.5508 427.945 69.4023V70H417.68ZM409.277 62.9336C410.777 62.9336 412.16 62.6055 413.426 61.9492C414.691 61.2695 415.629 60.3672 416.238 59.2422V52.7031H412.441C407.355 52.7031 404.648 54.4609 404.32 57.9766L404.285 58.5742C404.285 59.8398 404.73 60.8828 405.621 61.7031C406.512 62.5234 407.73 62.9336 409.277 62.9336Z" stroke="#62B9AB" stroke-width="4" mask="url(#path-1-outside-1)"/>
<path d="M444.961 70H434.766V16H444.961V70Z" stroke="#62B9AB" stroke-width="4" mask="url(#path-1-outside-1)"/>
<path d="M513.586 70H503.039L482.508 36.3203V70H471.961V18.8125H482.508L503.074 52.5625V18.8125H513.586V70Z" stroke="#62B9AB" stroke-width="4" mask="url(#path-1-outside-1)"/>
<path d="M539.637 70.7031C534.059 70.7031 529.512 68.9922 525.996 65.5703C522.504 62.1484 520.758 57.5898 520.758 51.8945V50.9102C520.758 47.0898 521.496 43.6797 522.973 40.6797C524.449 37.6562 526.535 35.3359 529.23 33.7188C531.949 32.0781 535.043 31.2578 538.512 31.2578C543.715 31.2578 547.805 32.8984 550.781 36.1797C553.781 39.4609 555.281 44.1133 555.281 50.1367V54.2852H531.059C531.387 56.7695 532.371 58.7617 534.012 60.2617C535.676 61.7617 537.773 62.5117 540.305 62.5117C544.219 62.5117 547.277 61.0938 549.48 58.2578L554.473 63.8477C552.949 66.0039 550.887 67.6914 548.285 68.9102C545.684 70.1055 542.801 70.7031 539.637 70.7031ZM538.477 39.4844C536.461 39.4844 534.82 40.1641 533.555 41.5234C532.312 42.8828 531.516 44.8281 531.164 47.3594H545.297V46.5508C545.25 44.3008 544.641 42.5664 543.469 41.3477C542.297 40.1055 540.633 39.4844 538.477 39.4844Z" stroke="#62B9AB" stroke-width="4" mask="url(#path-1-outside-1)"/>
<path d="M583.863 66.1328C581.355 69.1797 577.887 70.7031 573.457 70.7031C569.379 70.7031 566.262 69.5312 564.105 67.1875C561.973 64.8438 560.883 61.4102 560.836 56.8867V31.9609H570.996V56.5352C570.996 60.4961 572.801 62.4766 576.41 62.4766C579.855 62.4766 582.223 61.2812 583.512 58.8906V31.9609H593.707V70H584.145L583.863 66.1328Z" stroke="#62B9AB" stroke-width="4" mask="url(#path-1-outside-1)"/>
<path d="M622.746 41.4883C621.363 41.3008 620.145 41.207 619.09 41.207C615.246 41.207 612.727 42.5078 611.531 45.1094V70H601.371V31.9609H610.969L611.25 36.4961C613.289 33.0039 616.113 31.2578 619.723 31.2578C620.848 31.2578 621.902 31.4102 622.887 31.7148L622.746 41.4883Z" stroke="#62B9AB" stroke-width="4" mask="url(#path-1-outside-1)"/>
<path d="M648.656 70C648.188 69.0859 647.848 67.9492 647.637 66.5898C645.176 69.332 641.977 70.7031 638.039 70.7031C634.312 70.7031 631.219 69.625 628.758 67.4688C626.32 65.3125 625.102 62.5938 625.102 59.3125C625.102 55.2812 626.59 52.1875 629.566 50.0312C632.566 47.875 636.891 46.7852 642.539 46.7617H647.215V44.582C647.215 42.8242 646.758 41.418 645.844 40.3633C644.953 39.3086 643.535 38.7812 641.59 38.7812C639.879 38.7812 638.531 39.1914 637.547 40.0117C636.586 40.832 636.105 41.957 636.105 43.3867H625.945C625.945 41.1836 626.625 39.1445 627.984 37.2695C629.344 35.3945 631.266 33.9297 633.75 32.875C636.234 31.7969 639.023 31.2578 642.117 31.2578C646.805 31.2578 650.52 32.4414 653.262 34.8086C656.027 37.1523 657.41 40.457 657.41 44.7227V61.2109C657.434 64.8203 657.938 67.5508 658.922 69.4023V70H648.656ZM640.254 62.9336C641.754 62.9336 643.137 62.6055 644.402 61.9492C645.668 61.2695 646.605 60.3672 647.215 59.2422V52.7031H643.418C638.332 52.7031 635.625 54.4609 635.297 57.9766L635.262 58.5742C635.262 59.8398 635.707 60.8828 636.598 61.7031C637.488 62.5234 638.707 62.9336 640.254 62.9336Z" stroke="#62B9AB" stroke-width="4" mask="url(#path-1-outside-1)"/>
<path d="M675.938 70H665.742V16H675.938V70Z" stroke="#62B9AB" stroke-width="4" mask="url(#path-1-outside-1)"/>
<path d="M744.562 70H734.016L713.484 36.3203V70H702.938V18.8125H713.484L734.051 52.5625V18.8125H744.562V70Z" stroke="#62B9AB" stroke-width="4" mask="url(#path-1-outside-1)"/>
<path d="M770.613 70.7031C765.035 70.7031 760.488 68.9922 756.973 65.5703C753.48 62.1484 751.734 57.5898 751.734 51.8945V50.9102C751.734 47.0898 752.473 43.6797 753.949 40.6797C755.426 37.6562 757.512 35.3359 760.207 33.7188C762.926 32.0781 766.02 31.2578 769.488 31.2578C774.691 31.2578 778.781 32.8984 781.758 36.1797C784.758 39.4609 786.258 44.1133 786.258 50.1367V54.2852H762.035C762.363 56.7695 763.348 58.7617 764.988 60.2617C766.652 61.7617 768.75 62.5117 771.281 62.5117C775.195 62.5117 778.254 61.0938 780.457 58.2578L785.449 63.8477C783.926 66.0039 781.863 67.6914 779.262 68.9102C776.66 70.1055 773.777 70.7031 770.613 70.7031ZM769.453 39.4844C767.438 39.4844 765.797 40.1641 764.531 41.5234C763.289 42.8828 762.492 44.8281 762.141 47.3594H776.273V46.5508C776.227 44.3008 775.617 42.5664 774.445 41.3477C773.273 40.1055 771.609 39.4844 769.453 39.4844Z" stroke="#62B9AB" stroke-width="4" mask="url(#path-1-outside-1)"/>
<path d="M804.223 22.6094V31.9609H810.727V39.4141H804.223V58.3984C804.223 59.8047 804.492 60.8125 805.031 61.4219C805.57 62.0312 806.602 62.3359 808.125 62.3359C809.25 62.3359 810.246 62.2539 811.113 62.0898V69.7891C809.121 70.3984 807.07 70.7031 804.961 70.7031C797.836 70.7031 794.203 67.1055 794.062 59.9102V39.4141H788.508V31.9609H794.062V22.6094H804.223Z" stroke="#62B9AB" stroke-width="4" mask="url(#path-1-outside-1)"/>
<path d="M849.469 56.1836L854.461 31.9609H864.27L854.566 70H846.059L838.852 46.0586L831.645 70H823.172L813.469 31.9609H823.277L828.234 56.1484L835.195 31.9609H842.543L849.469 56.1836Z" stroke="#62B9AB" stroke-width="4" mask="url(#path-1-outside-1)"/>
<path d="M867.75 50.6289C867.75 46.8555 868.477 43.4922 869.93 40.5391C871.383 37.5859 873.469 35.3008 876.188 33.6836C878.93 32.0664 882.105 31.2578 885.715 31.2578C890.848 31.2578 895.031 32.8281 898.266 35.9688C901.523 39.1094 903.34 43.375 903.715 48.7656L903.785 51.3672C903.785 57.2031 902.156 61.8906 898.898 65.4297C895.641 68.9453 891.27 70.7031 885.785 70.7031C880.301 70.7031 875.918 68.9453 872.637 65.4297C869.379 61.9141 867.75 57.1328 867.75 51.0859V50.6289ZM877.91 51.3672C877.91 54.9766 878.59 57.7422 879.949 59.6641C881.309 61.5625 883.254 62.5117 885.785 62.5117C888.246 62.5117 890.168 61.5742 891.551 59.6992C892.934 57.8008 893.625 54.7773 893.625 50.6289C893.625 47.0898 892.934 44.3477 891.551 42.4023C890.168 40.457 888.223 39.4844 885.715 39.4844C883.23 39.4844 881.309 40.457 879.949 42.4023C878.59 44.3242 877.91 47.3125 877.91 51.3672Z" stroke="#62B9AB" stroke-width="4" mask="url(#path-1-outside-1)"/>
<path d="M931.418 41.4883C930.035 41.3008 928.816 41.207 927.762 41.207C923.918 41.207 921.398 42.5078 920.203 45.1094V70H910.043V31.9609H919.641L919.922 36.4961C921.961 33.0039 924.785 31.2578 928.395 31.2578C929.52 31.2578 930.574 31.4102 931.559 31.7148L931.418 41.4883Z" stroke="#62B9AB" stroke-width="4" mask="url(#path-1-outside-1)"/>
<path d="M950.156 54.7422L946.5 58.3984V70H936.34V16H946.5V45.918L948.469 43.3867L958.207 31.9609H970.406L956.66 47.8164L971.602 70H959.93L950.156 54.7422Z" stroke="#62B9AB" stroke-width="4" mask="url(#path-1-outside-1)"/>
<path d="M995.402 59.4883C995.402 58.2461 994.781 57.2734 993.539 56.5703C992.32 55.8438 990.352 55.1992 987.633 54.6367C978.586 52.7383 974.062 48.8945 974.062 43.1055C974.062 39.7305 975.457 36.918 978.246 34.668C981.059 32.3945 984.727 31.2578 989.25 31.2578C994.078 31.2578 997.934 32.3945 1000.82 34.668C1003.72 36.9414 1005.18 39.8945 1005.18 43.5273H995.016C995.016 42.0742 994.547 40.8789 993.609 39.9414C992.672 38.9805 991.207 38.5 989.215 38.5C987.504 38.5 986.18 38.8867 985.242 39.6602C984.305 40.4336 983.836 41.418 983.836 42.6133C983.836 43.7383 984.363 44.6523 985.418 45.3555C986.496 46.0352 988.301 46.6328 990.832 47.1484C993.363 47.6406 995.496 48.2031 997.23 48.8359C1002.6 50.8047 1005.28 54.2148 1005.28 59.0664C1005.28 62.5352 1003.79 65.3477 1000.82 67.5039C997.84 69.6367 993.996 70.7031 989.285 70.7031C986.098 70.7031 983.262 70.1406 980.777 69.0156C978.316 67.8672 976.383 66.3086 974.977 64.3398C973.57 62.3477 972.867 60.2031 972.867 57.9062H982.5C982.594 59.7109 983.262 61.0938 984.504 62.0547C985.746 63.0156 987.41 63.4961 989.496 63.4961C991.441 63.4961 992.906 63.1328 993.891 62.4062C994.898 61.6562 995.402 60.6836 995.402 59.4883Z" stroke="#62B9AB" stroke-width="4" mask="url(#path-1-outside-1)"/>
</g>
<path d="M44.8008 49.9492C44.4023 55.457 42.3633 59.793 38.6836 62.957C35.0273 66.1211 30.1992 67.7031 24.1992 67.7031C17.6367 67.7031 12.4688 65.5 8.69531 61.0938C4.94531 56.6641 3.07031 50.5938 3.07031 42.8828V39.7539C3.07031 34.832 3.9375 30.4961 5.67188 26.7461C7.40625 22.9961 9.87891 20.125 13.0898 18.1328C16.3242 16.1172 20.0742 15.1094 24.3398 15.1094C30.2461 15.1094 35.0039 16.6914 38.6133 19.8555C42.2227 23.0195 44.3086 27.4609 44.8711 33.1797H34.3242C34.0664 29.875 33.1406 27.4844 31.5469 26.0078C29.9766 24.5078 27.5742 23.7578 24.3398 23.7578C20.8242 23.7578 18.1875 25.0234 16.4297 27.5547C14.6953 30.0625 13.8047 33.9648 13.7578 39.2617V43.1289C13.7578 48.6602 14.5898 52.7031 16.2539 55.2578C17.9414 57.8125 20.5898 59.0898 24.1992 59.0898C27.457 59.0898 29.8828 58.3516 31.4766 56.875C33.0938 55.375 34.0195 53.0664 34.2539 49.9492H44.8008ZM510.586 67H500.039L479.508 33.3203V67H468.961V15.8125H479.508L500.074 49.5625V15.8125H510.586V67ZM741.562 67H731.016L710.484 33.3203V67H699.938V15.8125H710.484L731.051 49.5625V15.8125H741.562V67Z" fill="#FFB75A"/>
<path d="M49.4766 47.6289C49.4766 43.8555 50.2031 40.4922 51.6562 37.5391C53.1094 34.5859 55.1953 32.3008 57.9141 30.6836C60.6562 29.0664 63.832 28.2578 67.4414 28.2578C72.5742 28.2578 76.7578 29.8281 79.9922 32.9688C83.25 36.1094 85.0664 40.375 85.4414 45.7656L85.5117 48.3672C85.5117 54.2031 83.8828 58.8906 80.625 62.4297C77.3672 65.9453 72.9961 67.7031 67.5117 67.7031C62.0273 67.7031 57.6445 65.9453 54.3633 62.4297C51.1055 58.9141 49.4766 54.1328 49.4766 48.0859V47.6289ZM59.6367 48.3672C59.6367 51.9766 60.3164 54.7422 61.6758 56.6641C63.0352 58.5625 64.9805 59.5117 67.5117 59.5117C69.9727 59.5117 71.8945 58.5742 73.2773 56.6992C74.6602 54.8008 75.3516 51.7773 75.3516 47.6289C75.3516 44.0898 74.6602 41.3477 73.2773 39.4023C71.8945 37.457 69.9492 36.4844 67.4414 36.4844C64.957 36.4844 63.0352 37.457 61.6758 39.4023C60.3164 41.3242 59.6367 44.3125 59.6367 48.3672ZM101.121 28.9609L101.438 33.3555C104.156 29.957 107.801 28.2578 112.371 28.2578C116.402 28.2578 119.402 29.4414 121.371 31.8086C123.34 34.1758 124.348 37.7148 124.395 42.4258V67H114.234V42.6719C114.234 40.5156 113.766 38.957 112.828 37.9961C111.891 37.0117 110.332 36.5195 108.152 36.5195C105.293 36.5195 103.148 37.7383 101.719 40.1758V67H91.5586V28.9609H101.121ZM146.367 54.5898L153.434 28.9609H164.051L151.219 67H141.516L128.684 28.9609H139.301L146.367 54.5898ZM166.406 47.6289C166.406 43.8555 167.133 40.4922 168.586 37.5391C170.039 34.5859 172.125 32.3008 174.844 30.6836C177.586 29.0664 180.762 28.2578 184.371 28.2578C189.504 28.2578 193.688 29.8281 196.922 32.9688C200.18 36.1094 201.996 40.375 202.371 45.7656L202.441 48.3672C202.441 54.2031 200.812 58.8906 197.555 62.4297C194.297 65.9453 189.926 67.7031 184.441 67.7031C178.957 67.7031 174.574 65.9453 171.293 62.4297C168.035 58.9141 166.406 54.1328 166.406 48.0859V47.6289ZM176.566 48.3672C176.566 51.9766 177.246 54.7422 178.605 56.6641C179.965 58.5625 181.91 59.5117 184.441 59.5117C186.902 59.5117 188.824 58.5742 190.207 56.6992C191.59 54.8008 192.281 51.7773 192.281 47.6289C192.281 44.0898 191.59 41.3477 190.207 39.4023C188.824 37.457 186.879 36.4844 184.371 36.4844C181.887 36.4844 179.965 37.457 178.605 39.4023C177.246 41.3242 176.566 44.3125 176.566 48.3672ZM219.422 67H209.227V13H219.422V67ZM250.605 63.1328C248.098 66.1797 244.629 67.7031 240.199 67.7031C236.121 67.7031 233.004 66.5312 230.848 64.1875C228.715 61.8438 227.625 58.4102 227.578 53.8867V28.9609H237.738V53.5352C237.738 57.4961 239.543 59.4766 243.152 59.4766C246.598 59.4766 248.965 58.2812 250.254 55.8906V28.9609H260.449V67H250.887L250.605 63.1328ZM280.277 19.6094V28.9609H286.781V36.4141H280.277V55.3984C280.277 56.8047 280.547 57.8125 281.086 58.4219C281.625 59.0312 282.656 59.3359 284.18 59.3359C285.305 59.3359 286.301 59.2539 287.168 59.0898V66.7891C285.176 67.3984 283.125 67.7031 281.016 67.7031C273.891 67.7031 270.258 64.1055 270.117 56.9102V36.4141H264.562V28.9609H270.117V19.6094H280.277ZM303.164 67H292.969V28.9609H303.164V67ZM292.371 19.1172C292.371 17.5938 292.875 16.3398 293.883 15.3555C294.914 14.3711 296.309 13.8789 298.066 13.8789C299.801 13.8789 301.184 14.3711 302.215 15.3555C303.246 16.3398 303.762 17.5938 303.762 19.1172C303.762 20.6641 303.234 21.9297 302.18 22.9141C301.148 23.8984 299.777 24.3906 298.066 24.3906C296.355 24.3906 294.973 23.8984 293.918 22.9141C292.887 21.9297 292.371 20.6641 292.371 19.1172ZM309.984 47.6289C309.984 43.8555 310.711 40.4922 312.164 37.5391C313.617 34.5859 315.703 32.3008 318.422 30.6836C321.164 29.0664 324.34 28.2578 327.949 28.2578C333.082 28.2578 337.266 29.8281 340.5 32.9688C343.758 36.1094 345.574 40.375 345.949 45.7656L346.02 48.3672C346.02 54.2031 344.391 58.8906 341.133 62.4297C337.875 65.9453 333.504 67.7031 328.02 67.7031C322.535 67.7031 318.152 65.9453 314.871 62.4297C311.613 58.9141 309.984 54.1328 309.984 48.0859V47.6289ZM320.145 48.3672C320.145 51.9766 320.824 54.7422 322.184 56.6641C323.543 58.5625 325.488 59.5117 328.02 59.5117C330.48 59.5117 332.402 58.5742 333.785 56.6992C335.168 54.8008 335.859 51.7773 335.859 47.6289C335.859 44.0898 335.168 41.3477 333.785 39.4023C332.402 37.457 330.457 36.4844 327.949 36.4844C325.465 36.4844 323.543 37.457 322.184 39.4023C320.824 41.3242 320.145 44.3125 320.145 48.3672ZM361.629 28.9609L361.945 33.3555C364.664 29.957 368.309 28.2578 372.879 28.2578C376.91 28.2578 379.91 29.4414 381.879 31.8086C383.848 34.1758 384.855 37.7148 384.902 42.4258V67H374.742V42.6719C374.742 40.5156 374.273 38.957 373.336 37.9961C372.398 37.0117 370.84 36.5195 368.66 36.5195C365.801 36.5195 363.656 37.7383 362.227 40.1758V67H352.066V28.9609H361.629ZM414.68 67C414.211 66.0859 413.871 64.9492 413.66 63.5898C411.199 66.332 408 67.7031 404.062 67.7031C400.336 67.7031 397.242 66.625 394.781 64.4688C392.344 62.3125 391.125 59.5938 391.125 56.3125C391.125 52.2812 392.613 49.1875 395.59 47.0312C398.59 44.875 402.914 43.7852 408.562 43.7617H413.238V41.582C413.238 39.8242 412.781 38.418 411.867 37.3633C410.977 36.3086 409.559 35.7812 407.613 35.7812C405.902 35.7812 404.555 36.1914 403.57 37.0117C402.609 37.832 402.129 38.957 402.129 40.3867H391.969C391.969 38.1836 392.648 36.1445 394.008 34.2695C395.367 32.3945 397.289 30.9297 399.773 29.875C402.258 28.7969 405.047 28.2578 408.141 28.2578C412.828 28.2578 416.543 29.4414 419.285 31.8086C422.051 34.1523 423.434 37.457 423.434 41.7227V58.2109C423.457 61.8203 423.961 64.5508 424.945 66.4023V67H414.68ZM406.277 59.9336C407.777 59.9336 409.16 59.6055 410.426 58.9492C411.691 58.2695 412.629 57.3672 413.238 56.2422V49.7031H409.441C404.355 49.7031 401.648 51.4609 401.32 54.9766L401.285 55.5742C401.285 56.8398 401.73 57.8828 402.621 58.7031C403.512 59.5234 404.73 59.9336 406.277 59.9336ZM441.961 67H431.766V13H441.961V67ZM536.637 67.7031C531.059 67.7031 526.512 65.9922 522.996 62.5703C519.504 59.1484 517.758 54.5898 517.758 48.8945V47.9102C517.758 44.0898 518.496 40.6797 519.973 37.6797C521.449 34.6562 523.535 32.3359 526.23 30.7188C528.949 29.0781 532.043 28.2578 535.512 28.2578C540.715 28.2578 544.805 29.8984 547.781 33.1797C550.781 36.4609 552.281 41.1133 552.281 47.1367V51.2852H528.059C528.387 53.7695 529.371 55.7617 531.012 57.2617C532.676 58.7617 534.773 59.5117 537.305 59.5117C541.219 59.5117 544.277 58.0938 546.48 55.2578L551.473 60.8477C549.949 63.0039 547.887 64.6914 545.285 65.9102C542.684 67.1055 539.801 67.7031 536.637 67.7031ZM535.477 36.4844C533.461 36.4844 531.82 37.1641 530.555 38.5234C529.312 39.8828 528.516 41.8281 528.164 44.3594H542.297V43.5508C542.25 41.3008 541.641 39.5664 540.469 38.3477C539.297 37.1055 537.633 36.4844 535.477 36.4844ZM580.863 63.1328C578.355 66.1797 574.887 67.7031 570.457 67.7031C566.379 67.7031 563.262 66.5312 561.105 64.1875C558.973 61.8438 557.883 58.4102 557.836 53.8867V28.9609H567.996V53.5352C567.996 57.4961 569.801 59.4766 573.41 59.4766C576.855 59.4766 579.223 58.2812 580.512 55.8906V28.9609H590.707V67H581.145L580.863 63.1328ZM619.746 38.4883C618.363 38.3008 617.145 38.207 616.09 38.207C612.246 38.207 609.727 39.5078 608.531 42.1094V67H598.371V28.9609H607.969L608.25 33.4961C610.289 30.0039 613.113 28.2578 616.723 28.2578C617.848 28.2578 618.902 28.4102 619.887 28.7148L619.746 38.4883ZM645.656 67C645.188 66.0859 644.848 64.9492 644.637 63.5898C642.176 66.332 638.977 67.7031 635.039 67.7031C631.312 67.7031 628.219 66.625 625.758 64.4688C623.32 62.3125 622.102 59.5938 622.102 56.3125C622.102 52.2812 623.59 49.1875 626.566 47.0312C629.566 44.875 633.891 43.7852 639.539 43.7617H644.215V41.582C644.215 39.8242 643.758 38.418 642.844 37.3633C641.953 36.3086 640.535 35.7812 638.59 35.7812C636.879 35.7812 635.531 36.1914 634.547 37.0117C633.586 37.832 633.105 38.957 633.105 40.3867H622.945C622.945 38.1836 623.625 36.1445 624.984 34.2695C626.344 32.3945 628.266 30.9297 630.75 29.875C633.234 28.7969 636.023 28.2578 639.117 28.2578C643.805 28.2578 647.52 29.4414 650.262 31.8086C653.027 34.1523 654.41 37.457 654.41 41.7227V58.2109C654.434 61.8203 654.938 64.5508 655.922 66.4023V67H645.656ZM637.254 59.9336C638.754 59.9336 640.137 59.6055 641.402 58.9492C642.668 58.2695 643.605 57.3672 644.215 56.2422V49.7031H640.418C635.332 49.7031 632.625 51.4609 632.297 54.9766L632.262 55.5742C632.262 56.8398 632.707 57.8828 633.598 58.7031C634.488 59.5234 635.707 59.9336 637.254 59.9336ZM672.938 67H662.742V13H672.938V67ZM767.613 67.7031C762.035 67.7031 757.488 65.9922 753.973 62.5703C750.48 59.1484 748.734 54.5898 748.734 48.8945V47.9102C748.734 44.0898 749.473 40.6797 750.949 37.6797C752.426 34.6562 754.512 32.3359 757.207 30.7188C759.926 29.0781 763.02 28.2578 766.488 28.2578C771.691 28.2578 775.781 29.8984 778.758 33.1797C781.758 36.4609 783.258 41.1133 783.258 47.1367V51.2852H759.035C759.363 53.7695 760.348 55.7617 761.988 57.2617C763.652 58.7617 765.75 59.5117 768.281 59.5117C772.195 59.5117 775.254 58.0938 777.457 55.2578L782.449 60.8477C780.926 63.0039 778.863 64.6914 776.262 65.9102C773.66 67.1055 770.777 67.7031 767.613 67.7031ZM766.453 36.4844C764.438 36.4844 762.797 37.1641 761.531 38.5234C760.289 39.8828 759.492 41.8281 759.141 44.3594H773.273V43.5508C773.227 41.3008 772.617 39.5664 771.445 38.3477C770.273 37.1055 768.609 36.4844 766.453 36.4844ZM801.223 19.6094V28.9609H807.727V36.4141H801.223V55.3984C801.223 56.8047 801.492 57.8125 802.031 58.4219C802.57 59.0312 803.602 59.3359 805.125 59.3359C806.25 59.3359 807.246 59.2539 808.113 59.0898V66.7891C806.121 67.3984 804.07 67.7031 801.961 67.7031C794.836 67.7031 791.203 64.1055 791.062 56.9102V36.4141H785.508V28.9609H791.062V19.6094H801.223ZM846.469 53.1836L851.461 28.9609H861.27L851.566 67H843.059L835.852 43.0586L828.645 67H820.172L810.469 28.9609H820.277L825.234 53.1484L832.195 28.9609H839.543L846.469 53.1836ZM864.75 47.6289C864.75 43.8555 865.477 40.4922 866.93 37.5391C868.383 34.5859 870.469 32.3008 873.188 30.6836C875.93 29.0664 879.105 28.2578 882.715 28.2578C887.848 28.2578 892.031 29.8281 895.266 32.9688C898.523 36.1094 900.34 40.375 900.715 45.7656L900.785 48.3672C900.785 54.2031 899.156 58.8906 895.898 62.4297C892.641 65.9453 888.27 67.7031 882.785 67.7031C877.301 67.7031 872.918 65.9453 869.637 62.4297C866.379 58.9141 864.75 54.1328 864.75 48.0859V47.6289ZM874.91 48.3672C874.91 51.9766 875.59 54.7422 876.949 56.6641C878.309 58.5625 880.254 59.5117 882.785 59.5117C885.246 59.5117 887.168 58.5742 888.551 56.6992C889.934 54.8008 890.625 51.7773 890.625 47.6289C890.625 44.0898 889.934 41.3477 888.551 39.4023C887.168 37.457 885.223 36.4844 882.715 36.4844C880.23 36.4844 878.309 37.457 876.949 39.4023C875.59 41.3242 874.91 44.3125 874.91 48.3672ZM928.418 38.4883C927.035 38.3008 925.816 38.207 924.762 38.207C920.918 38.207 918.398 39.5078 917.203 42.1094V67H907.043V28.9609H916.641L916.922 33.4961C918.961 30.0039 921.785 28.2578 925.395 28.2578C926.52 28.2578 927.574 28.4102 928.559 28.7148L928.418 38.4883ZM947.156 51.7422L943.5 55.3984V67H933.34V13H943.5V42.918L945.469 40.3867L955.207 28.9609H967.406L953.66 44.8164L968.602 67H956.93L947.156 51.7422ZM992.402 56.4883C992.402 55.2461 991.781 54.2734 990.539 53.5703C989.32 52.8438 987.352 52.1992 984.633 51.6367C975.586 49.7383 971.062 45.8945 971.062 40.1055C971.062 36.7305 972.457 33.918 975.246 31.668C978.059 29.3945 981.727 28.2578 986.25 28.2578C991.078 28.2578 994.934 29.3945 997.816 31.668C1000.72 33.9414 1002.18 36.8945 1002.18 40.5273H992.016C992.016 39.0742 991.547 37.8789 990.609 36.9414C989.672 35.9805 988.207 35.5 986.215 35.5C984.504 35.5 983.18 35.8867 982.242 36.6602C981.305 37.4336 980.836 38.418 980.836 39.6133C980.836 40.7383 981.363 41.6523 982.418 42.3555C983.496 43.0352 985.301 43.6328 987.832 44.1484C990.363 44.6406 992.496 45.2031 994.23 45.8359C999.598 47.8047 1002.28 51.2148 1002.28 56.0664C1002.28 59.5352 1000.79 62.3477 997.816 64.5039C994.84 66.6367 990.996 67.7031 986.285 67.7031C983.098 67.7031 980.262 67.1406 977.777 66.0156C975.316 64.8672 973.383 63.3086 971.977 61.3398C970.57 59.3477 969.867 57.2031 969.867 54.9062H979.5C979.594 56.7109 980.262 58.0938 981.504 59.0547C982.746 60.0156 984.41 60.4961 986.496 60.4961C988.441 60.4961 989.906 60.1328 990.891 59.4062C991.898 58.6562 992.402 57.6836 992.402 56.4883Z" fill="#62B9AB"/>
<path d="M581.67 112H577.275V90.6719H581.67V112ZM609.062 107.62C609.062 107.103 608.804 106.697 608.286 106.404C607.778 106.102 606.958 105.833 605.825 105.599C602.056 104.808 600.171 103.206 600.171 100.794C600.171 99.3877 600.752 98.2158 601.914 97.2783C603.086 96.3311 604.614 95.8574 606.499 95.8574C608.511 95.8574 610.117 96.3311 611.318 97.2783C612.529 98.2256 613.135 99.4561 613.135 100.97H608.901C608.901 100.364 608.706 99.8662 608.315 99.4756C607.925 99.0752 607.314 98.875 606.484 98.875C605.771 98.875 605.22 99.0361 604.829 99.3584C604.438 99.6807 604.243 100.091 604.243 100.589C604.243 101.058 604.463 101.438 604.902 101.731C605.352 102.015 606.104 102.264 607.158 102.479C608.213 102.684 609.102 102.918 609.824 103.182C612.061 104.002 613.179 105.423 613.179 107.444C613.179 108.89 612.559 110.062 611.318 110.96C610.078 111.849 608.477 112.293 606.514 112.293C605.186 112.293 604.004 112.059 602.969 111.59C601.943 111.111 601.138 110.462 600.552 109.642C599.966 108.812 599.673 107.918 599.673 106.961H603.687C603.726 107.713 604.004 108.289 604.521 108.689C605.039 109.09 605.732 109.29 606.602 109.29C607.412 109.29 608.022 109.139 608.433 108.836C608.853 108.523 609.062 108.118 609.062 107.62ZM630.259 103.929C630.259 102.356 630.562 100.955 631.167 99.7246C631.772 98.4941 632.642 97.542 633.774 96.8682C634.917 96.1943 636.24 95.8574 637.744 95.8574C639.883 95.8574 641.626 96.5117 642.974 97.8203C644.331 99.1289 645.088 100.906 645.244 103.152L645.273 104.236C645.273 106.668 644.595 108.621 643.237 110.096C641.88 111.561 640.059 112.293 637.773 112.293C635.488 112.293 633.662 111.561 632.295 110.096C630.938 108.631 630.259 106.639 630.259 104.119V103.929ZM634.492 104.236C634.492 105.74 634.775 106.893 635.342 107.693C635.908 108.484 636.719 108.88 637.773 108.88C638.799 108.88 639.6 108.489 640.176 107.708C640.752 106.917 641.04 105.657 641.04 103.929C641.04 102.454 640.752 101.312 640.176 100.501C639.6 99.6904 638.789 99.2852 637.744 99.2852C636.709 99.2852 635.908 99.6904 635.342 100.501C634.775 101.302 634.492 102.547 634.492 104.236ZM670.176 112.293C667.852 112.293 665.957 111.58 664.492 110.154C663.037 108.729 662.31 106.829 662.31 104.456V104.046C662.31 102.454 662.617 101.033 663.232 99.7832C663.848 98.5234 664.717 97.5566 665.84 96.8828C666.973 96.1992 668.262 95.8574 669.707 95.8574C671.875 95.8574 673.579 96.541 674.819 97.9082C676.069 99.2754 676.694 101.214 676.694 103.724V105.452H666.602C666.738 106.487 667.148 107.317 667.832 107.942C668.525 108.567 669.399 108.88 670.454 108.88C672.085 108.88 673.359 108.289 674.277 107.107L676.357 109.437C675.723 110.335 674.863 111.038 673.779 111.546C672.695 112.044 671.494 112.293 670.176 112.293ZM669.692 99.2852C668.853 99.2852 668.169 99.5684 667.642 100.135C667.124 100.701 666.792 101.512 666.646 102.566H672.534V102.229C672.515 101.292 672.261 100.569 671.772 100.062C671.284 99.5439 670.591 99.2852 669.692 99.2852ZM698.579 112H694.331V89.5H698.579V112ZM724.375 112.293C722.051 112.293 720.156 111.58 718.691 110.154C717.236 108.729 716.509 106.829 716.509 104.456V104.046C716.509 102.454 716.816 101.033 717.432 99.7832C718.047 98.5234 718.916 97.5566 720.039 96.8828C721.172 96.1992 722.461 95.8574 723.906 95.8574C726.074 95.8574 727.778 96.541 729.019 97.9082C730.269 99.2754 730.894 101.214 730.894 103.724V105.452H720.801C720.938 106.487 721.348 107.317 722.031 107.942C722.725 108.567 723.599 108.88 724.653 108.88C726.284 108.88 727.559 108.289 728.477 107.107L730.557 109.437C729.922 110.335 729.062 111.038 727.979 111.546C726.895 112.044 725.693 112.293 724.375 112.293ZM723.892 99.2852C723.052 99.2852 722.368 99.5684 721.841 100.135C721.323 100.701 720.991 101.512 720.845 102.566H726.733V102.229C726.714 101.292 726.46 100.569 725.972 100.062C725.483 99.5439 724.79 99.2852 723.892 99.2852ZM753.379 92.2539V96.1504H756.089V99.2559H753.379V107.166C753.379 107.752 753.491 108.172 753.716 108.426C753.94 108.68 754.37 108.807 755.005 108.807C755.474 108.807 755.889 108.772 756.25 108.704V111.912C755.42 112.166 754.565 112.293 753.687 112.293C750.718 112.293 749.204 110.794 749.146 107.796V99.2559H746.831V96.1504H749.146V92.2539H753.379ZM782.354 100.12C781.777 100.042 781.27 100.003 780.83 100.003C779.229 100.003 778.179 100.545 777.681 101.629V112H773.447V96.1504H777.446L777.563 98.04C778.413 96.585 779.59 95.8574 781.094 95.8574C781.562 95.8574 782.002 95.9209 782.412 96.0479L782.354 100.12ZM803.872 112H799.624V96.1504H803.872V112ZM799.375 92.0488C799.375 91.4141 799.585 90.8916 800.005 90.4814C800.435 90.0713 801.016 89.8662 801.748 89.8662C802.471 89.8662 803.047 90.0713 803.477 90.4814C803.906 90.8916 804.121 91.4141 804.121 92.0488C804.121 92.6934 803.901 93.2207 803.462 93.6309C803.032 94.041 802.461 94.2461 801.748 94.2461C801.035 94.2461 800.459 94.041 800.02 93.6309C799.59 93.2207 799.375 92.6934 799.375 92.0488ZM828.965 108.88C829.746 108.88 830.381 108.665 830.869 108.235C831.357 107.806 831.611 107.234 831.631 106.521H835.601C835.591 107.596 835.298 108.582 834.722 109.48C834.146 110.369 833.354 111.062 832.349 111.561C831.353 112.049 830.249 112.293 829.038 112.293C826.772 112.293 824.985 111.575 823.677 110.14C822.368 108.694 821.714 106.702 821.714 104.163V103.885C821.714 101.443 822.363 99.4951 823.662 98.04C824.961 96.585 826.743 95.8574 829.009 95.8574C830.991 95.8574 832.578 96.4238 833.77 97.5566C834.971 98.6797 835.581 100.179 835.601 102.054H831.631C831.611 101.233 831.357 100.569 830.869 100.062C830.381 99.5439 829.736 99.2852 828.936 99.2852C827.949 99.2852 827.202 99.6465 826.694 100.369C826.196 101.082 825.947 102.244 825.947 103.855V104.295C825.947 105.926 826.196 107.098 826.694 107.811C827.192 108.523 827.949 108.88 828.965 108.88ZM880.161 104.485V112H875.767V90.6719H884.087C885.688 90.6719 887.095 90.9648 888.306 91.5508C889.526 92.1367 890.464 92.9717 891.118 94.0557C891.772 95.1299 892.1 96.3555 892.1 97.7324C892.1 99.8223 891.382 101.473 889.946 102.684C888.521 103.885 886.543 104.485 884.014 104.485H880.161ZM880.161 100.926H884.087C885.249 100.926 886.133 100.652 886.738 100.105C887.354 99.5586 887.661 98.7773 887.661 97.7617C887.661 96.7168 887.354 95.8721 886.738 95.2275C886.123 94.583 885.273 94.251 884.189 94.2314H880.161V100.926ZM908.989 103.929C908.989 102.356 909.292 100.955 909.897 99.7246C910.503 98.4941 911.372 97.542 912.505 96.8682C913.647 96.1943 914.971 95.8574 916.475 95.8574C918.613 95.8574 920.356 96.5117 921.704 97.8203C923.062 99.1289 923.818 100.906 923.975 103.152L924.004 104.236C924.004 106.668 923.325 108.621 921.968 110.096C920.61 111.561 918.789 112.293 916.504 112.293C914.219 112.293 912.393 111.561 911.025 110.096C909.668 108.631 908.989 106.639 908.989 104.119V103.929ZM913.223 104.236C913.223 105.74 913.506 106.893 914.072 107.693C914.639 108.484 915.449 108.88 916.504 108.88C917.529 108.88 918.33 108.489 918.906 107.708C919.482 106.917 919.771 105.657 919.771 103.929C919.771 102.454 919.482 101.312 918.906 100.501C918.33 99.6904 917.52 99.2852 916.475 99.2852C915.439 99.2852 914.639 99.6904 914.072 100.501C913.506 101.302 913.223 102.547 913.223 104.236ZM946.079 112H941.831V96.1504H946.079V112ZM941.582 92.0488C941.582 91.4141 941.792 90.8916 942.212 90.4814C942.642 90.0713 943.223 89.8662 943.955 89.8662C944.678 89.8662 945.254 90.0713 945.684 90.4814C946.113 90.8916 946.328 91.4141 946.328 92.0488C946.328 92.6934 946.108 93.2207 945.669 93.6309C945.239 94.041 944.668 94.2461 943.955 94.2461C943.242 94.2461 942.666 94.041 942.227 93.6309C941.797 93.2207 941.582 92.6934 941.582 92.0488ZM968.477 96.1504L968.608 97.9814C969.741 96.5654 971.26 95.8574 973.164 95.8574C974.844 95.8574 976.094 96.3506 976.914 97.3369C977.734 98.3232 978.154 99.7979 978.174 101.761V112H973.94V101.863C973.94 100.965 973.745 100.315 973.354 99.915C972.964 99.5049 972.314 99.2998 971.406 99.2998C970.215 99.2998 969.321 99.8076 968.726 100.823V112H964.492V96.1504H968.477ZM1001.46 92.2539V96.1504H1004.17V99.2559H1001.46V107.166C1001.46 107.752 1001.58 108.172 1001.8 108.426C1002.03 108.68 1002.46 108.807 1003.09 108.807C1003.56 108.807 1003.97 108.772 1004.34 108.704V111.912C1003.51 112.166 1002.65 112.293 1001.77 112.293C998.804 112.293 997.29 110.794 997.231 107.796V99.2559H994.917V96.1504H997.231V92.2539H1001.46Z" fill="#62B9AB"/>
</svg>
