<svg width="779" height="119" viewBox="0 0 779 119" fill="none" xmlns="http://www.w3.org/2000/svg">
<path d="M46.4438 67H35.8969V45.0625H15.3305V67H4.7836V15.8125H15.3305V36.5547H35.8969V15.8125H46.4438V67ZM69.3445 67H59.1492V28.9609H69.3445V67ZM58.5516 19.1172C58.5516 17.5938 59.0555 16.3398 60.0633 15.3555C61.0945 14.3711 62.4891 13.8789 64.2469 13.8789C65.9813 13.8789 67.3641 14.3711 68.3953 15.3555C69.4266 16.3398 69.9422 17.5938 69.9422 19.1172C69.9422 20.6641 69.4148 21.9297 68.3602 22.9141C67.3289 23.8984 65.9578 24.3906 64.2469 24.3906C62.5359 24.3906 61.1531 23.8984 60.0984 22.9141C59.0672 21.9297 58.5516 20.6641 58.5516 19.1172ZM79.7648 47.6992C79.7648 41.7695 81.0891 37.0469 83.7375 33.5312C86.4094 30.0156 90.0539 28.2578 94.6711 28.2578C98.3742 28.2578 101.433 29.6406 103.847 32.4062V13H114.042V67H104.866L104.374 62.957C101.843 66.1211 98.5852 67.7031 94.6008 67.7031C90.1242 67.7031 86.5266 65.9453 83.8078 62.4297C81.1125 58.8906 79.7648 53.9805 79.7648 47.6992ZM89.925 48.4375C89.925 52 90.5461 54.7305 91.7883 56.6289C93.0305 58.5273 94.8352 59.4766 97.2023 59.4766C100.343 59.4766 102.558 58.1523 103.847 55.5039V40.4922C102.581 37.8438 100.39 36.5195 97.2727 36.5195C92.3742 36.5195 89.925 40.4922 89.925 48.4375ZM123.935 47.6992C123.935 41.7695 125.259 37.0469 127.908 33.5312C130.58 30.0156 134.224 28.2578 138.841 28.2578C142.545 28.2578 145.603 29.6406 148.017 32.4062V13H158.213V67H149.037L148.545 62.957C146.013 66.1211 142.755 67.7031 138.771 67.7031C134.295 67.7031 130.697 65.9453 127.978 62.4297C125.283 58.8906 123.935 53.9805 123.935 47.6992ZM134.095 48.4375C134.095 52 134.716 54.7305 135.959 56.6289C137.201 58.5273 139.005 59.4766 141.373 59.4766C144.513 59.4766 146.728 58.1523 148.017 55.5039V40.4922C146.752 37.8438 144.56 36.5195 141.443 36.5195C136.545 36.5195 134.095 40.4922 134.095 48.4375ZM187.195 67.7031C181.617 67.7031 177.07 65.9922 173.555 62.5703C170.062 59.1484 168.316 54.5898 168.316 48.8945V47.9102C168.316 44.0898 169.055 40.6797 170.531 37.6797C172.008 34.6562 174.094 32.3359 176.789 30.7188C179.508 29.0781 182.602 28.2578 186.07 28.2578C191.273 28.2578 195.363 29.8984 198.34 33.1797C201.34 36.4609 202.84 41.1133 202.84 47.1367V51.2852H178.617C178.945 53.7695 179.93 55.7617 181.57 57.2617C183.234 58.7617 185.332 59.5117 187.863 59.5117C191.777 59.5117 194.836 58.0938 197.039 55.2578L202.031 60.8477C200.508 63.0039 198.445 64.6914 195.844 65.9102C193.242 67.1055 190.359 67.7031 187.195 67.7031ZM186.035 36.4844C184.02 36.4844 182.379 37.1641 181.113 38.5234C179.871 39.8828 179.074 41.8281 178.723 44.3594H192.855V43.5508C192.809 41.3008 192.199 39.5664 191.027 38.3477C189.855 37.1055 188.191 36.4844 186.035 36.4844ZM221.592 28.9609L221.909 33.3555C224.627 29.957 228.272 28.2578 232.842 28.2578C236.873 28.2578 239.873 29.4414 241.842 31.8086C243.811 34.1758 244.819 37.7148 244.866 42.4258V67H234.705V42.6719C234.705 40.5156 234.237 38.957 233.299 37.9961C232.362 37.0117 230.803 36.5195 228.623 36.5195C225.764 36.5195 223.62 37.7383 222.19 40.1758V67H212.03V28.9609H221.592ZM292.179 15.8125L305.327 52.9375L318.405 15.8125H332.257V67H321.675V53.0078L322.73 28.8555L308.913 67H301.671L287.89 28.8906L288.945 53.0078V67H278.398V15.8125H292.179ZM366.443 67C365.974 66.0859 365.634 64.9492 365.423 63.5898C362.962 66.332 359.763 67.7031 355.826 67.7031C352.099 67.7031 349.005 66.625 346.545 64.4688C344.107 62.3125 342.888 59.5938 342.888 56.3125C342.888 52.2812 344.377 49.1875 347.353 47.0312C350.353 44.875 354.677 43.7852 360.326 43.7617H365.002V41.582C365.002 39.8242 364.545 38.418 363.63 37.3633C362.74 36.3086 361.322 35.7812 359.377 35.7812C357.666 35.7812 356.318 36.1914 355.334 37.0117C354.373 37.832 353.892 38.957 353.892 40.3867H343.732C343.732 38.1836 344.412 36.1445 345.771 34.2695C347.13 32.3945 349.052 30.9297 351.537 29.875C354.021 28.7969 356.81 28.2578 359.904 28.2578C364.591 28.2578 368.306 29.4414 371.048 31.8086C373.814 34.1523 375.197 37.457 375.197 41.7227V58.2109C375.22 61.8203 375.724 64.5508 376.709 66.4023V67H366.443ZM358.041 59.9336C359.541 59.9336 360.923 59.6055 362.189 58.9492C363.455 58.2695 364.392 57.3672 365.002 56.2422V49.7031H361.205C356.119 49.7031 353.412 51.4609 353.084 54.9766L353.048 55.5742C353.048 56.8398 353.494 57.8828 354.384 58.7031C355.275 59.5234 356.494 59.9336 358.041 59.9336ZM407.977 38.4883C406.594 38.3008 405.375 38.207 404.32 38.207C400.477 38.207 397.957 39.5078 396.762 42.1094V67H386.602V28.9609H396.199L396.48 33.4961C398.52 30.0039 401.344 28.2578 404.953 28.2578C406.078 28.2578 407.133 28.4102 408.117 28.7148L407.977 38.4883ZM430.315 51.7422L426.659 55.3984V67H416.498V13H426.659V42.918L428.627 40.3867L438.366 28.9609H450.565L436.819 44.8164L451.76 67H440.088L430.315 51.7422ZM456.977 47.6289C456.977 43.8555 457.704 40.4922 459.157 37.5391C460.61 34.5859 462.696 32.3008 465.415 30.6836C468.157 29.0664 471.333 28.2578 474.942 28.2578C480.075 28.2578 484.259 29.8281 487.493 32.9688C490.751 36.1094 492.567 40.375 492.942 45.7656L493.013 48.3672C493.013 54.2031 491.384 58.8906 488.126 62.4297C484.868 65.9453 480.497 67.7031 475.013 67.7031C469.528 67.7031 465.145 65.9453 461.864 62.4297C458.606 58.9141 456.977 54.1328 456.977 48.0859V47.6289ZM467.138 48.3672C467.138 51.9766 467.817 54.7422 469.177 56.6641C470.536 58.5625 472.481 59.5117 475.013 59.5117C477.473 59.5117 479.395 58.5742 480.778 56.6992C482.161 54.8008 482.852 51.7773 482.852 47.6289C482.852 44.0898 482.161 41.3477 480.778 39.4023C479.395 37.457 477.45 36.4844 474.942 36.4844C472.458 36.4844 470.536 37.457 469.177 39.4023C467.817 41.3242 467.138 44.3125 467.138 48.3672ZM516.546 54.5898L523.613 28.9609H534.23L521.398 67H511.695L498.863 28.9609H509.48L516.546 54.5898ZM578.309 15.8125L591.457 52.9375L604.535 15.8125H618.387V67H607.805V53.0078L608.859 28.8555L595.043 67H587.801L574.02 28.8906L575.074 53.0078V67H564.527V15.8125H578.309ZM628.948 47.6289C628.948 43.8555 629.674 40.4922 631.127 37.5391C632.58 34.5859 634.666 32.3008 637.385 30.6836C640.127 29.0664 643.303 28.2578 646.912 28.2578C652.045 28.2578 656.229 29.8281 659.463 32.9688C662.721 36.1094 664.537 40.375 664.912 45.7656L664.983 48.3672C664.983 54.2031 663.354 58.8906 660.096 62.4297C656.838 65.9453 652.467 67.7031 646.983 67.7031C641.498 67.7031 637.116 65.9453 633.834 62.4297C630.577 58.9141 628.948 54.1328 628.948 48.0859V47.6289ZM639.108 48.3672C639.108 51.9766 639.787 54.7422 641.147 56.6641C642.506 58.5625 644.452 59.5117 646.983 59.5117C649.444 59.5117 651.366 58.5742 652.748 56.6992C654.131 54.8008 654.823 51.7773 654.823 47.6289C654.823 44.0898 654.131 41.3477 652.748 39.4023C651.366 37.457 649.42 36.4844 646.912 36.4844C644.428 36.4844 642.506 37.457 641.147 39.4023C639.787 41.3242 639.108 44.3125 639.108 48.3672ZM673.259 47.6992C673.259 41.7695 674.583 37.0469 677.231 33.5312C679.903 30.0156 683.548 28.2578 688.165 28.2578C691.868 28.2578 694.927 29.6406 697.341 32.4062V13H707.536V67H698.36L697.868 62.957C695.337 66.1211 692.079 67.7031 688.094 67.7031C683.618 67.7031 680.02 65.9453 677.302 62.4297C674.606 58.8906 673.259 53.9805 673.259 47.6992ZM683.419 48.4375C683.419 52 684.04 54.7305 685.282 56.6289C686.524 58.5273 688.329 59.4766 690.696 59.4766C693.837 59.4766 696.052 58.1523 697.341 55.5039V40.4922C696.075 37.8438 693.884 36.5195 690.766 36.5195C685.868 36.5195 683.419 40.4922 683.419 48.4375ZM736.519 67.7031C730.941 67.7031 726.394 65.9922 722.878 62.5703C719.386 59.1484 717.64 54.5898 717.64 48.8945V47.9102C717.64 44.0898 718.378 40.6797 719.855 37.6797C721.331 34.6562 723.417 32.3359 726.113 30.7188C728.831 29.0781 731.925 28.2578 735.394 28.2578C740.597 28.2578 744.687 29.8984 747.663 33.1797C750.663 36.4609 752.163 41.1133 752.163 47.1367V51.2852H727.941C728.269 53.7695 729.253 55.7617 730.894 57.2617C732.558 58.7617 734.656 59.5117 737.187 59.5117C741.101 59.5117 744.159 58.0938 746.363 55.2578L751.355 60.8477C749.831 63.0039 747.769 64.6914 745.167 65.9102C742.566 67.1055 739.683 67.7031 736.519 67.7031ZM735.359 36.4844C733.343 36.4844 731.702 37.1641 730.437 38.5234C729.195 39.8828 728.398 41.8281 728.046 44.3594H742.179V43.5508C742.132 41.3008 741.523 39.5664 740.351 38.3477C739.179 37.1055 737.515 36.4844 735.359 36.4844ZM772.287 67H762.091V13H772.287V67Z" fill="#FFC700"/>
<mask id="path-2-outside-1" maskUnits="userSpaceOnUse" x="6.78357" y="13" width="772" height="59" fill="black">
<rect fill="white" x="6.78357" y="13" width="772" height="59"/>
<path d="M50.4437 69H39.8969V47.0625H19.3304V69H8.78357V17.8125H19.3304V38.5547H39.8969V17.8125H50.4437V69Z"/>
<path d="M73.3445 69H63.1492V30.9609H73.3445V69ZM62.5515 21.1172C62.5515 19.5938 63.0554 18.3398 64.0633 17.3555C65.0945 16.3711 66.489 15.8789 68.2468 15.8789C69.9812 15.8789 71.364 16.3711 72.3953 17.3555C73.4265 18.3398 73.9422 19.5938 73.9422 21.1172C73.9422 22.6641 73.4148 23.9297 72.3601 24.9141C71.3289 25.8984 69.9578 26.3906 68.2468 26.3906C66.5359 26.3906 65.1531 25.8984 64.0984 24.9141C63.0672 23.9297 62.5515 22.6641 62.5515 21.1172Z"/>
<path d="M83.7648 49.6992C83.7648 43.7695 85.089 39.0469 87.7375 35.5312C90.4093 32.0156 94.0539 30.2578 98.6711 30.2578C102.374 30.2578 105.433 31.6406 107.847 34.4062V15H118.042V69H108.866L108.374 64.957C105.843 68.1211 102.585 69.7031 98.6008 69.7031C94.1242 69.7031 90.5265 67.9453 87.8078 64.4297C85.1125 60.8906 83.7648 55.9805 83.7648 49.6992ZM93.925 50.4375C93.925 54 94.5461 56.7305 95.7883 58.6289C97.0304 60.5273 98.8351 61.4766 101.202 61.4766C104.343 61.4766 106.558 60.1523 107.847 57.5039V42.4922C106.581 39.8438 104.39 38.5195 101.273 38.5195C96.3742 38.5195 93.925 42.4922 93.925 50.4375Z"/>
<path d="M127.935 49.6992C127.935 43.7695 129.259 39.0469 131.908 35.5312C134.58 32.0156 138.224 30.2578 142.841 30.2578C146.545 30.2578 149.603 31.6406 152.017 34.4062V15H162.212V69H153.037L152.545 64.957C150.013 68.1211 146.755 69.7031 142.771 69.7031C138.295 69.7031 134.697 67.9453 131.978 64.4297C129.283 60.8906 127.935 55.9805 127.935 49.6992ZM138.095 50.4375C138.095 54 138.716 56.7305 139.959 58.6289C141.201 60.5273 143.005 61.4766 145.373 61.4766C148.513 61.4766 150.728 60.1523 152.017 57.5039V42.4922C150.752 39.8438 148.56 38.5195 145.443 38.5195C140.545 38.5195 138.095 42.4922 138.095 50.4375Z"/>
<path d="M191.195 69.7031C185.617 69.7031 181.07 67.9922 177.555 64.5703C174.062 61.1484 172.316 56.5898 172.316 50.8945V49.9102C172.316 46.0898 173.055 42.6797 174.531 39.6797C176.008 36.6562 178.094 34.3359 180.789 32.7188C183.508 31.0781 186.602 30.2578 190.07 30.2578C195.273 30.2578 199.363 31.8984 202.34 35.1797C205.34 38.4609 206.84 43.1133 206.84 49.1367V53.2852H182.617C182.945 55.7695 183.93 57.7617 185.57 59.2617C187.234 60.7617 189.332 61.5117 191.863 61.5117C195.777 61.5117 198.836 60.0938 201.039 57.2578L206.031 62.8477C204.508 65.0039 202.445 66.6914 199.844 67.9102C197.242 69.1055 194.359 69.7031 191.195 69.7031ZM190.035 38.4844C188.02 38.4844 186.379 39.1641 185.113 40.5234C183.871 41.8828 183.074 43.8281 182.723 46.3594H196.855V45.5508C196.809 43.3008 196.199 41.5664 195.027 40.3477C193.855 39.1055 192.191 38.4844 190.035 38.4844Z"/>
<path d="M225.592 30.9609L225.909 35.3555C228.627 31.957 232.272 30.2578 236.842 30.2578C240.873 30.2578 243.873 31.4414 245.842 33.8086C247.811 36.1758 248.819 39.7148 248.866 44.4258V69H238.705V44.6719C238.705 42.5156 238.237 40.957 237.299 39.9961C236.362 39.0117 234.803 38.5195 232.623 38.5195C229.764 38.5195 227.62 39.7383 226.19 42.1758V69H216.03V30.9609H225.592Z"/>
<path d="M296.179 17.8125L309.327 54.9375L322.405 17.8125H336.257V69H325.675V55.0078L326.73 30.8555L312.913 69H305.671L291.89 30.8906L292.945 55.0078V69H282.398V17.8125H296.179Z"/>
<path d="M370.443 69C369.974 68.0859 369.634 66.9492 369.423 65.5898C366.962 68.332 363.763 69.7031 359.826 69.7031C356.099 69.7031 353.005 68.625 350.544 66.4688C348.107 64.3125 346.888 61.5938 346.888 58.3125C346.888 54.2812 348.377 51.1875 351.353 49.0312C354.353 46.875 358.677 45.7852 364.326 45.7617H369.002V43.582C369.002 41.8242 368.544 40.418 367.63 39.3633C366.74 38.3086 365.322 37.7812 363.377 37.7812C361.666 37.7812 360.318 38.1914 359.334 39.0117C358.373 39.832 357.892 40.957 357.892 42.3867H347.732C347.732 40.1836 348.412 38.1445 349.771 36.2695C351.13 34.3945 353.052 32.9297 355.537 31.875C358.021 30.7969 360.81 30.2578 363.904 30.2578C368.591 30.2578 372.306 31.4414 375.048 33.8086C377.814 36.1523 379.197 39.457 379.197 43.7227V60.2109C379.22 63.8203 379.724 66.5508 380.709 68.4023V69H370.443ZM362.041 61.9336C363.541 61.9336 364.923 61.6055 366.189 60.9492C367.455 60.2695 368.392 59.3672 369.002 58.2422V51.7031H365.205C360.119 51.7031 357.412 53.4609 357.084 56.9766L357.048 57.5742C357.048 58.8398 357.494 59.8828 358.384 60.7031C359.275 61.5234 360.494 61.9336 362.041 61.9336Z"/>
<path d="M411.977 40.4883C410.594 40.3008 409.375 40.207 408.32 40.207C404.477 40.207 401.957 41.5078 400.762 44.1094V69H390.602V30.9609H400.199L400.48 35.4961C402.52 32.0039 405.344 30.2578 408.953 30.2578C410.078 30.2578 411.133 30.4102 412.117 30.7148L411.977 40.4883Z"/>
<path d="M434.315 53.7422L430.659 57.3984V69H420.498V15H430.659V44.918L432.627 42.3867L442.366 30.9609H454.565L440.819 46.8164L455.76 69H444.088L434.315 53.7422Z"/>
<path d="M460.977 49.6289C460.977 45.8555 461.704 42.4922 463.157 39.5391C464.61 36.5859 466.696 34.3008 469.415 32.6836C472.157 31.0664 475.333 30.2578 478.942 30.2578C484.075 30.2578 488.259 31.8281 491.493 34.9688C494.751 38.1094 496.567 42.375 496.942 47.7656L497.012 50.3672C497.012 56.2031 495.384 60.8906 492.126 64.4297C488.868 67.9453 484.497 69.7031 479.012 69.7031C473.528 69.7031 469.145 67.9453 465.864 64.4297C462.606 60.9141 460.977 56.1328 460.977 50.0859V49.6289ZM471.137 50.3672C471.137 53.9766 471.817 56.7422 473.177 58.6641C474.536 60.5625 476.481 61.5117 479.012 61.5117C481.473 61.5117 483.395 60.5742 484.778 58.6992C486.161 56.8008 486.852 53.7773 486.852 49.6289C486.852 46.0898 486.161 43.3477 484.778 41.4023C483.395 39.457 481.45 38.4844 478.942 38.4844C476.458 38.4844 474.536 39.457 473.177 41.4023C471.817 43.3242 471.137 46.3125 471.137 50.3672Z"/>
<path d="M520.546 56.5898L527.613 30.9609H538.23L525.398 69H515.695L502.862 30.9609H513.48L520.546 56.5898Z"/>
<path d="M582.309 17.8125L595.457 54.9375L608.535 17.8125H622.387V69H611.805V55.0078L612.859 30.8555L599.043 69H591.801L578.02 30.8906L579.074 55.0078V69H568.527V17.8125H582.309Z"/>
<path d="M632.948 49.6289C632.948 45.8555 633.674 42.4922 635.127 39.5391C636.58 36.5859 638.666 34.3008 641.385 32.6836C644.127 31.0664 647.303 30.2578 650.912 30.2578C656.045 30.2578 660.229 31.8281 663.463 34.9688C666.721 38.1094 668.537 42.375 668.912 47.7656L668.983 50.3672C668.983 56.2031 667.354 60.8906 664.096 64.4297C660.838 67.9453 656.467 69.7031 650.983 69.7031C645.498 69.7031 641.116 67.9453 637.834 64.4297C634.577 60.9141 632.948 56.1328 632.948 50.0859V49.6289ZM643.108 50.3672C643.108 53.9766 643.787 56.7422 645.147 58.6641C646.506 60.5625 648.452 61.5117 650.983 61.5117C653.444 61.5117 655.366 60.5742 656.748 58.6992C658.131 56.8008 658.823 53.7773 658.823 49.6289C658.823 46.0898 658.131 43.3477 656.748 41.4023C655.366 39.457 653.42 38.4844 650.912 38.4844C648.428 38.4844 646.506 39.457 645.147 41.4023C643.787 43.3242 643.108 46.3125 643.108 50.3672Z"/>
<path d="M677.259 49.6992C677.259 43.7695 678.583 39.0469 681.231 35.5312C683.903 32.0156 687.548 30.2578 692.165 30.2578C695.868 30.2578 698.927 31.6406 701.341 34.4062V15H711.536V69H702.36L701.868 64.957C699.337 68.1211 696.079 69.7031 692.094 69.7031C687.618 69.7031 684.02 67.9453 681.302 64.4297C678.606 60.8906 677.259 55.9805 677.259 49.6992ZM687.419 50.4375C687.419 54 688.04 56.7305 689.282 58.6289C690.524 60.5273 692.329 61.4766 694.696 61.4766C697.837 61.4766 700.052 60.1523 701.341 57.5039V42.4922C700.075 39.8438 697.884 38.5195 694.766 38.5195C689.868 38.5195 687.419 42.4922 687.419 50.4375Z"/>
<path d="M740.519 69.7031C734.941 69.7031 730.394 67.9922 726.878 64.5703C723.386 61.1484 721.64 56.5898 721.64 50.8945V49.9102C721.64 46.0898 722.378 42.6797 723.855 39.6797C725.331 36.6562 727.417 34.3359 730.113 32.7188C732.831 31.0781 735.925 30.2578 739.394 30.2578C744.597 30.2578 748.687 31.8984 751.663 35.1797C754.663 38.4609 756.163 43.1133 756.163 49.1367V53.2852H731.941C732.269 55.7695 733.253 57.7617 734.894 59.2617C736.558 60.7617 738.656 61.5117 741.187 61.5117C745.101 61.5117 748.159 60.0938 750.363 57.2578L755.355 62.8477C753.831 65.0039 751.769 66.6914 749.167 67.9102C746.566 69.1055 743.683 69.7031 740.519 69.7031ZM739.359 38.4844C737.343 38.4844 735.702 39.1641 734.437 40.5234C733.195 41.8828 732.398 43.8281 732.046 46.3594H746.179V45.5508C746.132 43.3008 745.523 41.5664 744.351 40.3477C743.179 39.1055 741.515 38.4844 739.359 38.4844Z"/>
<path d="M776.287 69H766.091V15H776.287V69Z"/>
</mask>
<path d="M50.4437 69H39.8969V47.0625H19.3304V69H8.78357V17.8125H19.3304V38.5547H39.8969V17.8125H50.4437V69Z" stroke="#FFC700" stroke-width="4" mask="url(#path-2-outside-1)"/>
<path d="M73.3445 69H63.1492V30.9609H73.3445V69ZM62.5515 21.1172C62.5515 19.5938 63.0554 18.3398 64.0633 17.3555C65.0945 16.3711 66.489 15.8789 68.2468 15.8789C69.9812 15.8789 71.364 16.3711 72.3953 17.3555C73.4265 18.3398 73.9422 19.5938 73.9422 21.1172C73.9422 22.6641 73.4148 23.9297 72.3601 24.9141C71.3289 25.8984 69.9578 26.3906 68.2468 26.3906C66.5359 26.3906 65.1531 25.8984 64.0984 24.9141C63.0672 23.9297 62.5515 22.6641 62.5515 21.1172Z" stroke="#FFC700" stroke-width="4" mask="url(#path-2-outside-1)"/>
<path d="M83.7648 49.6992C83.7648 43.7695 85.089 39.0469 87.7375 35.5312C90.4093 32.0156 94.0539 30.2578 98.6711 30.2578C102.374 30.2578 105.433 31.6406 107.847 34.4062V15H118.042V69H108.866L108.374 64.957C105.843 68.1211 102.585 69.7031 98.6008 69.7031C94.1242 69.7031 90.5265 67.9453 87.8078 64.4297C85.1125 60.8906 83.7648 55.9805 83.7648 49.6992ZM93.925 50.4375C93.925 54 94.5461 56.7305 95.7883 58.6289C97.0304 60.5273 98.8351 61.4766 101.202 61.4766C104.343 61.4766 106.558 60.1523 107.847 57.5039V42.4922C106.581 39.8438 104.39 38.5195 101.273 38.5195C96.3742 38.5195 93.925 42.4922 93.925 50.4375Z" stroke="#FFC700" stroke-width="4" mask="url(#path-2-outside-1)"/>
<path d="M127.935 49.6992C127.935 43.7695 129.259 39.0469 131.908 35.5312C134.58 32.0156 138.224 30.2578 142.841 30.2578C146.545 30.2578 149.603 31.6406 152.017 34.4062V15H162.212V69H153.037L152.545 64.957C150.013 68.1211 146.755 69.7031 142.771 69.7031C138.295 69.7031 134.697 67.9453 131.978 64.4297C129.283 60.8906 127.935 55.9805 127.935 49.6992ZM138.095 50.4375C138.095 54 138.716 56.7305 139.959 58.6289C141.201 60.5273 143.005 61.4766 145.373 61.4766C148.513 61.4766 150.728 60.1523 152.017 57.5039V42.4922C150.752 39.8438 148.56 38.5195 145.443 38.5195C140.545 38.5195 138.095 42.4922 138.095 50.4375Z" stroke="#FFC700" stroke-width="4" mask="url(#path-2-outside-1)"/>
<path d="M191.195 69.7031C185.617 69.7031 181.07 67.9922 177.555 64.5703C174.062 61.1484 172.316 56.5898 172.316 50.8945V49.9102C172.316 46.0898 173.055 42.6797 174.531 39.6797C176.008 36.6562 178.094 34.3359 180.789 32.7188C183.508 31.0781 186.602 30.2578 190.07 30.2578C195.273 30.2578 199.363 31.8984 202.34 35.1797C205.34 38.4609 206.84 43.1133 206.84 49.1367V53.2852H182.617C182.945 55.7695 183.93 57.7617 185.57 59.2617C187.234 60.7617 189.332 61.5117 191.863 61.5117C195.777 61.5117 198.836 60.0938 201.039 57.2578L206.031 62.8477C204.508 65.0039 202.445 66.6914 199.844 67.9102C197.242 69.1055 194.359 69.7031 191.195 69.7031ZM190.035 38.4844C188.02 38.4844 186.379 39.1641 185.113 40.5234C183.871 41.8828 183.074 43.8281 182.723 46.3594H196.855V45.5508C196.809 43.3008 196.199 41.5664 195.027 40.3477C193.855 39.1055 192.191 38.4844 190.035 38.4844Z" stroke="#FFC700" stroke-width="4" mask="url(#path-2-outside-1)"/>
<path d="M225.592 30.9609L225.909 35.3555C228.627 31.957 232.272 30.2578 236.842 30.2578C240.873 30.2578 243.873 31.4414 245.842 33.8086C247.811 36.1758 248.819 39.7148 248.866 44.4258V69H238.705V44.6719C238.705 42.5156 238.237 40.957 237.299 39.9961C236.362 39.0117 234.803 38.5195 232.623 38.5195C229.764 38.5195 227.62 39.7383 226.19 42.1758V69H216.03V30.9609H225.592Z" stroke="#FFC700" stroke-width="4" mask="url(#path-2-outside-1)"/>
<path d="M296.179 17.8125L309.327 54.9375L322.405 17.8125H336.257V69H325.675V55.0078L326.73 30.8555L312.913 69H305.671L291.89 30.8906L292.945 55.0078V69H282.398V17.8125H296.179Z" stroke="#FFC700" stroke-width="4" mask="url(#path-2-outside-1)"/>
<path d="M370.443 69C369.974 68.0859 369.634 66.9492 369.423 65.5898C366.962 68.332 363.763 69.7031 359.826 69.7031C356.099 69.7031 353.005 68.625 350.544 66.4688C348.107 64.3125 346.888 61.5938 346.888 58.3125C346.888 54.2812 348.377 51.1875 351.353 49.0312C354.353 46.875 358.677 45.7852 364.326 45.7617H369.002V43.582C369.002 41.8242 368.544 40.418 367.63 39.3633C366.74 38.3086 365.322 37.7812 363.377 37.7812C361.666 37.7812 360.318 38.1914 359.334 39.0117C358.373 39.832 357.892 40.957 357.892 42.3867H347.732C347.732 40.1836 348.412 38.1445 349.771 36.2695C351.13 34.3945 353.052 32.9297 355.537 31.875C358.021 30.7969 360.81 30.2578 363.904 30.2578C368.591 30.2578 372.306 31.4414 375.048 33.8086C377.814 36.1523 379.197 39.457 379.197 43.7227V60.2109C379.22 63.8203 379.724 66.5508 380.709 68.4023V69H370.443ZM362.041 61.9336C363.541 61.9336 364.923 61.6055 366.189 60.9492C367.455 60.2695 368.392 59.3672 369.002 58.2422V51.7031H365.205C360.119 51.7031 357.412 53.4609 357.084 56.9766L357.048 57.5742C357.048 58.8398 357.494 59.8828 358.384 60.7031C359.275 61.5234 360.494 61.9336 362.041 61.9336Z" stroke="#FFC700" stroke-width="4" mask="url(#path-2-outside-1)"/>
<path d="M411.977 40.4883C410.594 40.3008 409.375 40.207 408.32 40.207C404.477 40.207 401.957 41.5078 400.762 44.1094V69H390.602V30.9609H400.199L400.48 35.4961C402.52 32.0039 405.344 30.2578 408.953 30.2578C410.078 30.2578 411.133 30.4102 412.117 30.7148L411.977 40.4883Z" stroke="#FFC700" stroke-width="4" mask="url(#path-2-outside-1)"/>
<path d="M434.315 53.7422L430.659 57.3984V69H420.498V15H430.659V44.918L432.627 42.3867L442.366 30.9609H454.565L440.819 46.8164L455.76 69H444.088L434.315 53.7422Z" stroke="#FFC700" stroke-width="4" mask="url(#path-2-outside-1)"/>
<path d="M460.977 49.6289C460.977 45.8555 461.704 42.4922 463.157 39.5391C464.61 36.5859 466.696 34.3008 469.415 32.6836C472.157 31.0664 475.333 30.2578 478.942 30.2578C484.075 30.2578 488.259 31.8281 491.493 34.9688C494.751 38.1094 496.567 42.375 496.942 47.7656L497.012 50.3672C497.012 56.2031 495.384 60.8906 492.126 64.4297C488.868 67.9453 484.497 69.7031 479.012 69.7031C473.528 69.7031 469.145 67.9453 465.864 64.4297C462.606 60.9141 460.977 56.1328 460.977 50.0859V49.6289ZM471.137 50.3672C471.137 53.9766 471.817 56.7422 473.177 58.6641C474.536 60.5625 476.481 61.5117 479.012 61.5117C481.473 61.5117 483.395 60.5742 484.778 58.6992C486.161 56.8008 486.852 53.7773 486.852 49.6289C486.852 46.0898 486.161 43.3477 484.778 41.4023C483.395 39.457 481.45 38.4844 478.942 38.4844C476.458 38.4844 474.536 39.457 473.177 41.4023C471.817 43.3242 471.137 46.3125 471.137 50.3672Z" stroke="#FFC700" stroke-width="4" mask="url(#path-2-outside-1)"/>
<path d="M520.546 56.5898L527.613 30.9609H538.23L525.398 69H515.695L502.862 30.9609H513.48L520.546 56.5898Z" stroke="#FFC700" stroke-width="4" mask="url(#path-2-outside-1)"/>
<path d="M582.309 17.8125L595.457 54.9375L608.535 17.8125H622.387V69H611.805V55.0078L612.859 30.8555L599.043 69H591.801L578.02 30.8906L579.074 55.0078V69H568.527V17.8125H582.309Z" stroke="#FFC700" stroke-width="4" mask="url(#path-2-outside-1)"/>
<path d="M632.948 49.6289C632.948 45.8555 633.674 42.4922 635.127 39.5391C636.58 36.5859 638.666 34.3008 641.385 32.6836C644.127 31.0664 647.303 30.2578 650.912 30.2578C656.045 30.2578 660.229 31.8281 663.463 34.9688C666.721 38.1094 668.537 42.375 668.912 47.7656L668.983 50.3672C668.983 56.2031 667.354 60.8906 664.096 64.4297C660.838 67.9453 656.467 69.7031 650.983 69.7031C645.498 69.7031 641.116 67.9453 637.834 64.4297C634.577 60.9141 632.948 56.1328 632.948 50.0859V49.6289ZM643.108 50.3672C643.108 53.9766 643.787 56.7422 645.147 58.6641C646.506 60.5625 648.452 61.5117 650.983 61.5117C653.444 61.5117 655.366 60.5742 656.748 58.6992C658.131 56.8008 658.823 53.7773 658.823 49.6289C658.823 46.0898 658.131 43.3477 656.748 41.4023C655.366 39.457 653.42 38.4844 650.912 38.4844C648.428 38.4844 646.506 39.457 645.147 41.4023C643.787 43.3242 643.108 46.3125 643.108 50.3672Z" stroke="#FFC700" stroke-width="4" mask="url(#path-2-outside-1)"/>
<path d="M677.259 49.6992C677.259 43.7695 678.583 39.0469 681.231 35.5312C683.903 32.0156 687.548 30.2578 692.165 30.2578C695.868 30.2578 698.927 31.6406 701.341 34.4062V15H711.536V69H702.36L701.868 64.957C699.337 68.1211 696.079 69.7031 692.094 69.7031C687.618 69.7031 684.02 67.9453 681.302 64.4297C678.606 60.8906 677.259 55.9805 677.259 49.6992ZM687.419 50.4375C687.419 54 688.04 56.7305 689.282 58.6289C690.524 60.5273 692.329 61.4766 694.696 61.4766C697.837 61.4766 700.052 60.1523 701.341 57.5039V42.4922C700.075 39.8438 697.884 38.5195 694.766 38.5195C689.868 38.5195 687.419 42.4922 687.419 50.4375Z" stroke="#FFC700" stroke-width="4" mask="url(#path-2-outside-1)"/>
<path d="M740.519 69.7031C734.941 69.7031 730.394 67.9922 726.878 64.5703C723.386 61.1484 721.64 56.5898 721.64 50.8945V49.9102C721.64 46.0898 722.378 42.6797 723.855 39.6797C725.331 36.6562 727.417 34.3359 730.113 32.7188C732.831 31.0781 735.925 30.2578 739.394 30.2578C744.597 30.2578 748.687 31.8984 751.663 35.1797C754.663 38.4609 756.163 43.1133 756.163 49.1367V53.2852H731.941C732.269 55.7695 733.253 57.7617 734.894 59.2617C736.558 60.7617 738.656 61.5117 741.187 61.5117C745.101 61.5117 748.159 60.0938 750.363 57.2578L755.355 62.8477C753.831 65.0039 751.769 66.6914 749.167 67.9102C746.566 69.1055 743.683 69.7031 740.519 69.7031ZM739.359 38.4844C737.343 38.4844 735.702 39.1641 734.437 40.5234C733.195 41.8828 732.398 43.8281 732.046 46.3594H746.179V45.5508C746.132 43.3008 745.523 41.5664 744.351 40.3477C743.179 39.1055 741.515 38.4844 739.359 38.4844Z" stroke="#FFC700" stroke-width="4" mask="url(#path-2-outside-1)"/>
<path d="M776.287 69H766.091V15H776.287V69Z" stroke="#FFC700" stroke-width="4" mask="url(#path-2-outside-1)"/>
<path d="M242.139 106.404C242.139 105.574 241.846 104.939 241.26 104.5C240.674 104.051 239.619 103.582 238.096 103.094C236.572 102.596 235.366 102.107 234.478 101.629C232.056 100.32 230.845 98.5576 230.845 96.3408C230.845 95.1885 231.167 94.1631 231.812 93.2646C232.466 92.3564 233.398 91.6484 234.609 91.1406C235.83 90.6328 237.197 90.3789 238.711 90.3789C240.234 90.3789 241.592 90.6572 242.783 91.2139C243.975 91.7607 244.897 92.5371 245.552 93.543C246.216 94.5488 246.548 95.6914 246.548 96.9707H242.153C242.153 95.9941 241.846 95.2373 241.23 94.7002C240.615 94.1533 239.751 93.8799 238.638 93.8799C237.563 93.8799 236.729 94.1094 236.133 94.5684C235.537 95.0176 235.239 95.6133 235.239 96.3555C235.239 97.0488 235.586 97.6299 236.279 98.0986C236.982 98.5674 238.013 99.0068 239.37 99.417C241.87 100.169 243.691 101.102 244.834 102.215C245.977 103.328 246.548 104.715 246.548 106.375C246.548 108.221 245.85 109.671 244.453 110.726C243.057 111.771 241.177 112.293 238.813 112.293C237.173 112.293 235.679 111.995 234.331 111.399C232.983 110.794 231.953 109.969 231.24 108.924C230.537 107.879 230.186 106.668 230.186 105.291H234.595C234.595 107.645 236.001 108.821 238.813 108.821C239.858 108.821 240.674 108.611 241.26 108.191C241.846 107.762 242.139 107.166 242.139 106.404ZM271.553 112.293C269.229 112.293 267.334 111.58 265.869 110.154C264.414 108.729 263.687 106.829 263.687 104.456V104.046C263.687 102.454 263.994 101.033 264.609 99.7832C265.225 98.5234 266.094 97.5566 267.217 96.8828C268.35 96.1992 269.639 95.8574 271.084 95.8574C273.252 95.8574 274.956 96.541 276.196 97.9082C277.446 99.2754 278.071 101.214 278.071 103.724V105.452H267.979C268.115 106.487 268.525 107.317 269.209 107.942C269.902 108.567 270.776 108.88 271.831 108.88C273.462 108.88 274.736 108.289 275.654 107.107L277.734 109.437C277.1 110.335 276.24 111.038 275.156 111.546C274.072 112.044 272.871 112.293 271.553 112.293ZM271.069 99.2852C270.229 99.2852 269.546 99.5684 269.019 100.135C268.501 100.701 268.169 101.512 268.022 102.566H273.911V102.229C273.892 101.292 273.638 100.569 273.149 100.062C272.661 99.5439 271.968 99.2852 271.069 99.2852ZM302.08 108.88C302.861 108.88 303.496 108.665 303.984 108.235C304.473 107.806 304.727 107.234 304.746 106.521H308.716C308.706 107.596 308.413 108.582 307.837 109.48C307.261 110.369 306.47 111.062 305.464 111.561C304.468 112.049 303.364 112.293 302.153 112.293C299.888 112.293 298.101 111.575 296.792 110.14C295.483 108.694 294.829 106.702 294.829 104.163V103.885C294.829 101.443 295.479 99.4951 296.777 98.04C298.076 96.585 299.858 95.8574 302.124 95.8574C304.106 95.8574 305.693 96.4238 306.885 97.5566C308.086 98.6797 308.696 100.179 308.716 102.054H304.746C304.727 101.233 304.473 100.569 303.984 100.062C303.496 99.5439 302.852 99.2852 302.051 99.2852C301.064 99.2852 300.317 99.6465 299.81 100.369C299.312 101.082 299.062 102.244 299.062 103.855V104.295C299.062 105.926 299.312 107.098 299.81 107.811C300.308 108.523 301.064 108.88 302.08 108.88ZM325.474 103.929C325.474 102.356 325.776 100.955 326.382 99.7246C326.987 98.4941 327.856 97.542 328.989 96.8682C330.132 96.1943 331.455 95.8574 332.959 95.8574C335.098 95.8574 336.841 96.5117 338.188 97.8203C339.546 99.1289 340.303 100.906 340.459 103.152L340.488 104.236C340.488 106.668 339.81 108.621 338.452 110.096C337.095 111.561 335.273 112.293 332.988 112.293C330.703 112.293 328.877 111.561 327.51 110.096C326.152 108.631 325.474 106.639 325.474 104.119V103.929ZM329.707 104.236C329.707 105.74 329.99 106.893 330.557 107.693C331.123 108.484 331.934 108.88 332.988 108.88C334.014 108.88 334.814 108.489 335.391 107.708C335.967 106.917 336.255 105.657 336.255 103.929C336.255 102.454 335.967 101.312 335.391 100.501C334.814 99.6904 334.004 99.2852 332.959 99.2852C331.924 99.2852 331.123 99.6904 330.557 100.501C329.99 101.302 329.707 102.547 329.707 104.236ZM361.992 96.1504L362.124 97.9814C363.257 96.5654 364.775 95.8574 366.68 95.8574C368.359 95.8574 369.609 96.3506 370.43 97.3369C371.25 98.3232 371.67 99.7979 371.689 101.761V112H367.456V101.863C367.456 100.965 367.261 100.315 366.87 99.915C366.479 99.5049 365.83 99.2998 364.922 99.2998C363.73 99.2998 362.837 99.8076 362.241 100.823V112H358.008V96.1504H361.992ZM389.253 103.958C389.253 101.487 389.805 99.5195 390.908 98.0547C392.021 96.5898 393.54 95.8574 395.464 95.8574C397.007 95.8574 398.281 96.4336 399.287 97.5859V89.5H403.535V112H399.712L399.507 110.315C398.452 111.634 397.095 112.293 395.435 112.293C393.569 112.293 392.07 111.561 390.938 110.096C389.814 108.621 389.253 106.575 389.253 103.958ZM393.486 104.266C393.486 105.75 393.745 106.888 394.263 107.679C394.78 108.47 395.532 108.865 396.519 108.865C397.827 108.865 398.75 108.313 399.287 107.21V100.955C398.76 99.8516 397.847 99.2998 396.548 99.2998C394.507 99.2998 393.486 100.955 393.486 104.266ZM431.001 112C430.806 111.619 430.664 111.146 430.576 110.579C429.551 111.722 428.218 112.293 426.577 112.293C425.024 112.293 423.735 111.844 422.71 110.945C421.694 110.047 421.187 108.914 421.187 107.547C421.187 105.867 421.807 104.578 423.047 103.68C424.297 102.781 426.099 102.327 428.452 102.317H430.4V101.409C430.4 100.677 430.21 100.091 429.829 99.6514C429.458 99.2119 428.867 98.9922 428.057 98.9922C427.344 98.9922 426.782 99.1631 426.372 99.5049C425.972 99.8467 425.771 100.315 425.771 100.911H421.538C421.538 99.9932 421.821 99.1436 422.388 98.3623C422.954 97.5811 423.755 96.9707 424.79 96.5312C425.825 96.082 426.987 95.8574 428.276 95.8574C430.229 95.8574 431.777 96.3506 432.92 97.3369C434.072 98.3135 434.648 99.6904 434.648 101.468V108.338C434.658 109.842 434.868 110.979 435.278 111.751V112H431.001ZM427.5 109.056C428.125 109.056 428.701 108.919 429.229 108.646C429.756 108.362 430.146 107.986 430.4 107.518V104.793H428.818C426.699 104.793 425.571 105.525 425.435 106.99L425.42 107.239C425.42 107.767 425.605 108.201 425.977 108.543C426.348 108.885 426.855 109.056 427.5 109.056ZM461.807 100.12C461.23 100.042 460.723 100.003 460.283 100.003C458.682 100.003 457.632 100.545 457.134 101.629V112H452.9V96.1504H456.899L457.017 98.04C457.866 96.585 459.043 95.8574 460.547 95.8574C461.016 95.8574 461.455 95.9209 461.865 96.0479L461.807 100.12ZM485.039 106.009L487.969 96.1504H492.51L486.138 114.461L485.786 115.296C484.839 117.366 483.276 118.401 481.099 118.401C480.483 118.401 479.858 118.309 479.224 118.123V114.915L479.868 114.93C480.669 114.93 481.265 114.808 481.655 114.563C482.056 114.319 482.368 113.914 482.593 113.348L483.091 112.044L477.539 96.1504H482.095L485.039 106.009ZM542.988 106.404C542.988 105.574 542.695 104.939 542.109 104.5C541.523 104.051 540.469 103.582 538.945 103.094C537.422 102.596 536.216 102.107 535.327 101.629C532.905 100.32 531.694 98.5576 531.694 96.3408C531.694 95.1885 532.017 94.1631 532.661 93.2646C533.315 92.3564 534.248 91.6484 535.459 91.1406C536.68 90.6328 538.047 90.3789 539.561 90.3789C541.084 90.3789 542.441 90.6572 543.633 91.2139C544.824 91.7607 545.747 92.5371 546.401 93.543C547.065 94.5488 547.397 95.6914 547.397 96.9707H543.003C543.003 95.9941 542.695 95.2373 542.08 94.7002C541.465 94.1533 540.601 93.8799 539.487 93.8799C538.413 93.8799 537.578 94.1094 536.982 94.5684C536.387 95.0176 536.089 95.6133 536.089 96.3555C536.089 97.0488 536.436 97.6299 537.129 98.0986C537.832 98.5674 538.862 99.0068 540.22 99.417C542.72 100.169 544.541 101.102 545.684 102.215C546.826 103.328 547.397 104.715 547.397 106.375C547.397 108.221 546.699 109.671 545.303 110.726C543.906 111.771 542.026 112.293 539.663 112.293C538.022 112.293 536.528 111.995 535.181 111.399C533.833 110.794 532.803 109.969 532.09 108.924C531.387 107.879 531.035 106.668 531.035 105.291H535.444C535.444 107.645 536.851 108.821 539.663 108.821C540.708 108.821 541.523 108.611 542.109 108.191C542.695 107.762 542.988 107.166 542.988 106.404ZM570.176 92.2539V96.1504H572.886V99.2559H570.176V107.166C570.176 107.752 570.288 108.172 570.513 108.426C570.737 108.68 571.167 108.807 571.802 108.807C572.271 108.807 572.686 108.772 573.047 108.704V111.912C572.217 112.166 571.362 112.293 570.483 112.293C567.515 112.293 566.001 110.794 565.942 107.796V99.2559H563.628V96.1504H565.942V92.2539H570.176ZM599.15 100.12C598.574 100.042 598.066 100.003 597.627 100.003C596.025 100.003 594.976 100.545 594.478 101.629V112H590.244V96.1504H594.243L594.36 98.04C595.21 96.585 596.387 95.8574 597.891 95.8574C598.359 95.8574 598.799 95.9209 599.209 96.0479L599.15 100.12ZM625.693 110.389C624.648 111.658 623.203 112.293 621.357 112.293C619.658 112.293 618.359 111.805 617.461 110.828C616.572 109.852 616.118 108.421 616.099 106.536V96.1504H620.332V106.39C620.332 108.04 621.084 108.865 622.588 108.865C624.023 108.865 625.01 108.367 625.547 107.371V96.1504H629.795V112H625.811L625.693 110.389ZM654.58 108.88C655.361 108.88 655.996 108.665 656.484 108.235C656.973 107.806 657.227 107.234 657.246 106.521H661.216C661.206 107.596 660.913 108.582 660.337 109.48C659.761 110.369 658.97 111.062 657.964 111.561C656.968 112.049 655.864 112.293 654.653 112.293C652.388 112.293 650.601 111.575 649.292 110.14C647.983 108.694 647.329 106.702 647.329 104.163V103.885C647.329 101.443 647.979 99.4951 649.277 98.04C650.576 96.585 652.358 95.8574 654.624 95.8574C656.606 95.8574 658.193 96.4238 659.385 97.5566C660.586 98.6797 661.196 100.179 661.216 102.054H657.246C657.227 101.233 656.973 100.569 656.484 100.062C655.996 99.5439 655.352 99.2852 654.551 99.2852C653.564 99.2852 652.817 99.6465 652.31 100.369C651.812 101.082 651.562 102.244 651.562 103.855V104.295C651.562 105.926 651.812 107.098 652.31 107.811C652.808 108.523 653.564 108.88 654.58 108.88ZM683.701 92.2539V96.1504H686.411V99.2559H683.701V107.166C683.701 107.752 683.813 108.172 684.038 108.426C684.263 108.68 684.692 108.807 685.327 108.807C685.796 108.807 686.211 108.772 686.572 108.704V111.912C685.742 112.166 684.888 112.293 684.009 112.293C681.04 112.293 679.526 110.794 679.468 107.796V99.2559H677.153V96.1504H679.468V92.2539H683.701ZM713.262 110.389C712.217 111.658 710.771 112.293 708.926 112.293C707.227 112.293 705.928 111.805 705.029 110.828C704.141 109.852 703.687 108.421 703.667 106.536V96.1504H707.9V106.39C707.9 108.04 708.652 108.865 710.156 108.865C711.592 108.865 712.578 108.367 713.115 107.371V96.1504H717.363V112H713.379L713.262 110.389ZM744.463 100.12C743.887 100.042 743.379 100.003 742.939 100.003C741.338 100.003 740.288 100.545 739.79 101.629V112H735.557V96.1504H739.556L739.673 98.04C740.522 96.585 741.699 95.8574 743.203 95.8574C743.672 95.8574 744.111 95.9209 744.521 96.0479L744.463 100.12ZM768.516 112.293C766.191 112.293 764.297 111.58 762.832 110.154C761.377 108.729 760.649 106.829 760.649 104.456V104.046C760.649 102.454 760.957 101.033 761.572 99.7832C762.188 98.5234 763.057 97.5566 764.18 96.8828C765.312 96.1992 766.602 95.8574 768.047 95.8574C770.215 95.8574 771.919 96.541 773.159 97.9082C774.409 99.2754 775.034 101.214 775.034 103.724V105.452H764.941C765.078 106.487 765.488 107.317 766.172 107.942C766.865 108.567 767.739 108.88 768.794 108.88C770.425 108.88 771.699 108.289 772.617 107.107L774.697 109.437C774.062 110.335 773.203 111.038 772.119 111.546C771.035 112.044 769.834 112.293 768.516 112.293ZM768.032 99.2852C767.192 99.2852 766.509 99.5684 765.981 100.135C765.464 100.701 765.132 101.512 764.985 102.566H770.874V102.229C770.854 101.292 770.601 100.569 770.112 100.062C769.624 99.5439 768.931 99.2852 768.032 99.2852Z" fill="#FFC700"/>
</svg>
