<svg width="831" height="43" viewBox="0 0 831 43" fill="none" xmlns="http://www.w3.org/2000/svg">
<path d="M7.216 33.488C6.8 32.912 5.344 32.672 2.848 32.768L2.416 32.816C1.808 32.816 1.28 32.672 0.832 32.384C0.384 32.096 0.208 31.776 0.304 31.424C0.368 30.592 1.696 30.16 4.288 30.128L6.832 30.08L7.312 29.12C7.568 28.384 7.936 27.2 8.416 25.568C8.576 24.96 8.912 23.936 9.424 22.496C10.416 19.424 10.944 17.76 11.008 17.504C11.168 17.12 11.424 16.352 11.776 15.2C12.128 14.048 12.4 13.104 12.592 12.368C14.096 7.728 14.704 5.376 14.416 5.312C14.096 5.28 13.216 5.344 11.776 5.504C10.368 5.632 9.584 5.744 9.424 5.84C9.328 5.968 9.168 6.032 8.944 6.032C8.752 6.032 8.544 5.968 8.32 5.84C8.096 5.68 7.952 5.504 7.888 5.312C7.856 5.184 7.84 5.008 7.84 4.784C7.84 4.56 7.936 4.384 8.128 4.256C8.48 3.968 9.248 3.648 10.432 3.296C11.648 2.912 12.816 2.656 13.936 2.528C14.48 2.464 15.024 2.352 15.568 2.192C16.144 2 16.576 1.776 16.864 1.52C17.536 1.296 18.096 1.2 18.544 1.232C18.768 1.392 19.312 1.472 20.176 1.472C20.912 1.472 21.472 1.456 21.856 1.424C23.008 1.296 23.984 1.232 24.784 1.232C25.392 1.232 25.824 1.296 26.08 1.424C26.368 1.552 26.592 1.76 26.752 2.048C26.88 2.56 26.944 2.896 26.944 3.056C26.944 3.664 26.592 3.952 25.888 3.92C25.344 4.048 24.032 4.144 21.952 4.208C19.68 4.4 18.464 4.624 18.304 4.88C18.144 5.04 18.016 5.184 17.92 5.312C17.856 5.44 17.776 5.568 17.68 5.696C17.712 5.824 17.632 6.24 17.44 6.944C17.28 7.616 17.072 8.304 16.816 9.008L15.952 11.552C15.056 14.336 14.48 16.048 14.224 16.688C14 17.232 13.84 17.792 13.744 18.368C13.2 20.256 12.752 21.76 12.4 22.88C12.048 23.968 11.776 24.848 11.584 25.52C10.976 27.312 10.512 28.816 10.192 30.032L12.928 29.792C14.816 29.6 16.048 29.504 16.624 29.504C17.072 29.504 17.376 29.552 17.536 29.648C17.728 29.744 17.872 29.936 17.968 30.224C18.352 30.704 18.544 31.104 18.544 31.424C18.544 31.808 18.24 32.08 17.632 32.24C17.024 32.4 16.08 32.464 14.8 32.432C13.328 32.496 12.096 32.544 11.104 32.576C10.144 32.64 9.488 32.72 9.136 32.816C8.816 32.912 8.624 33.072 8.56 33.296C8.56 33.552 8.416 33.68 8.128 33.68C7.808 33.68 7.504 33.616 7.216 33.488ZM51.0198 32.912C50.2197 33.104 49.6757 32.752 49.3877 31.856C48.9397 30.608 48.7157 29.296 48.7157 27.92C48.7157 27.536 48.7318 27.264 48.7638 27.104L48.8597 26.096L46.9878 27.584C45.9637 28.48 44.9397 29.152 43.9158 29.6C42.9237 30.048 42.0117 30.272 41.1797 30.272C40.6357 30.176 40.1077 29.952 39.5957 29.6C39.1157 29.216 38.7637 28.768 38.5397 28.256C38.4117 28 38.3477 27.616 38.3477 27.104C38.3477 25.92 38.6677 24.528 39.3077 22.928C39.9477 21.296 40.7477 19.952 41.7077 18.896C43.0837 16.816 44.6197 15.776 46.3157 15.776C47.1157 15.776 47.9157 16.016 48.7157 16.496C49.5157 16.816 49.9798 16.976 50.1078 16.976C50.2997 16.976 50.4437 16.896 50.5398 16.736C50.6358 16.576 50.7318 16.288 50.8277 15.872C51.1797 14.4 51.5157 13.168 51.8357 12.176C52.5398 10.064 53.1478 8.368 53.6598 7.088C54.1718 5.808 54.7958 4.4 55.5318 2.864C55.8518 2.192 56.1238 1.76 56.3478 1.568C56.6038 1.344 56.8758 1.248 57.1637 1.28C57.8678 1.28 58.4118 1.76 58.7958 2.72C58.8918 2.944 58.9397 3.168 58.9397 3.392C58.9397 3.616 58.8438 3.92 58.6518 4.304C57.8198 5.744 56.7958 8.096 55.5798 11.36C54.3638 14.624 53.4198 17.456 52.7478 19.856C52.4598 20.912 52.2038 22.432 51.9798 24.416C51.7878 26.4 51.6918 28.048 51.6918 29.36C51.6918 29.936 51.7238 30.352 51.7878 30.608C51.9478 31.152 52.0278 31.632 52.0278 32.048C52.0278 32.368 51.9478 32.576 51.7878 32.672C51.6278 32.8 51.3718 32.88 51.0198 32.912ZM42.9077 27.584C43.6437 27.424 44.5397 26.944 45.5957 26.144C45.7878 26.016 46.2518 25.68 46.9878 25.136C47.7238 24.592 48.2838 24.016 48.6678 23.408C49.0518 22.8 49.3238 22.112 49.4837 21.344C49.5158 20.768 49.4518 20.304 49.2917 19.952C49.1638 19.568 48.8918 19.2 48.4757 18.848C48.1558 18.624 47.7558 18.512 47.2757 18.512C46.4117 18.512 45.6117 18.864 44.8757 19.568C44.0117 20.336 43.2437 21.328 42.5717 22.544C41.8997 23.76 41.3877 25.168 41.0357 26.768C40.9397 27.376 41.2597 27.68 41.9957 27.68C42.3797 27.68 42.6837 27.648 42.9077 27.584ZM62.9995 31.28C62.6155 31.28 62.3115 31.216 62.0875 31.088C61.8635 30.96 61.5435 30.72 61.1275 30.368C60.0715 29.248 59.5435 28.224 59.5435 27.296C59.5435 27.072 59.5595 26.912 59.5915 26.816C59.6875 26.592 59.7195 26.368 59.6875 26.144C59.6875 25.92 59.6875 25.776 59.6875 25.712C59.5595 25.584 59.4955 25.504 59.4955 25.472C59.4955 25.408 59.5275 25.36 59.5915 25.328C59.6555 25.264 59.7035 25.2 59.7355 25.136C59.9275 25.136 59.9915 24.96 59.9275 24.608C59.8635 24.352 59.9915 23.792 60.3115 22.928C60.6315 22.032 61.0315 21.216 61.5115 20.48C61.8635 19.904 62.3755 19.184 63.0475 18.32C63.7515 17.456 64.3755 16.8 64.9195 16.352C65.6875 15.68 66.3755 15.184 66.9835 14.864C67.5915 14.544 68.2635 14.304 68.9995 14.144C69.6395 13.984 70.0715 13.904 70.2955 13.904C70.5195 13.904 70.7115 13.968 70.8715 14.096C71.0635 14.192 71.3035 14.384 71.5915 14.672C72.4555 15.056 73.0475 15.552 73.3675 16.16C73.7195 16.736 73.8955 17.648 73.8955 18.896C73.8955 20.976 73.0475 23.232 71.3515 25.664C70.6155 26.72 69.9275 27.536 69.2875 28.112C68.6475 28.656 67.7995 29.248 66.7435 29.888C66.0715 30.368 65.4475 30.72 64.8715 30.944C64.3275 31.136 63.7035 31.248 62.9995 31.28ZM67.6075 26.192C68.3755 25.328 68.9835 24.512 69.4315 23.744C69.9115 22.976 70.3595 22 70.7755 20.816C70.9355 20.272 71.0155 19.616 71.0155 18.848C71.0155 17.888 70.8875 17.344 70.6315 17.216C70.3115 17.056 69.9915 16.976 69.6715 16.976C68.9675 16.976 68.2315 17.296 67.4635 17.936C66.5355 18.736 65.7035 19.728 64.9675 20.912C64.2315 22.064 63.4795 23.504 62.7115 25.232C62.3915 25.904 62.2315 26.56 62.2315 27.2C62.2315 27.68 62.3435 28.064 62.5675 28.352C62.8235 28.64 63.1595 28.784 63.5755 28.784C64.6315 28.784 65.9755 27.92 67.6075 26.192ZM93.8894 31.424C93.4094 31.424 92.9134 31.056 92.4014 30.32C91.9214 29.552 91.6814 28.8 91.6814 28.064C91.6814 27.552 91.7934 26.64 92.0174 25.328C92.2734 23.984 92.5774 22.672 92.9294 21.392C93.1214 20.816 93.2174 20.4 93.2174 20.144C93.2174 19.984 93.1534 19.904 93.0254 19.904C92.8974 19.904 92.5134 20.096 91.8734 20.48C90.8494 21.024 90.1454 21.52 89.7614 21.968C89.6014 22.096 89.3454 22.32 88.9934 22.64C88.6414 22.96 88.3214 23.216 88.0334 23.408C87.4254 23.888 86.6094 24.592 85.5854 25.52C84.5934 26.416 83.7774 27.184 83.1374 27.824C82.9454 28.176 82.6734 28.352 82.3214 28.352C82.2254 28.352 82.0814 28.32 81.8894 28.256C81.5054 28.16 81.1694 27.952 80.8814 27.632C80.5934 27.28 80.4494 26.912 80.4494 26.528C80.4494 26.048 80.7214 25.04 81.2654 23.504C81.8414 21.968 82.5454 20.288 83.3774 18.464C83.5054 18.24 83.6174 17.92 83.7134 17.504C83.8094 17.056 83.8574 16.64 83.8574 16.256C83.8574 16.032 83.9054 15.776 84.0014 15.488C84.0974 15.2 84.2094 14.992 84.3374 14.864C84.4334 14.704 84.5774 14.624 84.7694 14.624C85.1854 14.624 85.5374 14.864 85.8254 15.344C86.3374 15.824 86.5934 16.432 86.5934 17.168C86.5934 17.776 86.4174 18.56 86.0654 19.52C85.8414 19.968 85.6654 20.336 85.5374 20.624C85.4414 20.88 85.3774 21.056 85.3454 21.152C85.4414 21.152 85.8574 20.928 86.5934 20.48L87.7934 19.76L89.2334 18.656C89.9694 18.08 90.3854 17.792 90.4814 17.792C90.6094 17.792 90.7694 17.744 90.9614 17.648C91.1534 17.552 91.3134 17.44 91.4414 17.312C91.5374 17.216 91.6174 17.152 91.6814 17.12C91.7774 17.088 91.8414 17.072 91.8734 17.072C91.9054 17.072 91.9854 17.056 92.1134 17.024C92.2414 16.992 92.3534 16.928 92.4494 16.832C92.5774 16.704 92.8014 16.64 93.1214 16.64C93.5694 16.64 94.0174 16.784 94.4654 17.072C94.9134 17.36 95.1374 17.68 95.1374 18.032C95.1374 18.128 95.1694 18.224 95.2334 18.32C95.2974 18.384 95.3454 18.432 95.3774 18.464C95.5054 18.464 95.6174 18.64 95.7134 18.992C95.8094 19.312 95.8574 19.712 95.8574 20.192C95.8574 20.896 95.7774 21.488 95.6174 21.968C95.6174 22.32 95.5534 22.768 95.4254 23.312C95.2974 23.856 95.2174 24.208 95.1854 24.368L94.8974 25.616C94.4814 26.896 94.2734 27.952 94.2734 28.784C94.2734 29.424 94.4014 29.92 94.6574 30.272C94.7214 30.4 94.7534 30.528 94.7534 30.656C94.7534 30.848 94.6734 31.024 94.5134 31.184C94.3854 31.344 94.1774 31.424 93.8894 31.424ZM106.859 10.88C106.731 10.88 106.619 10.864 106.523 10.832C106.427 10.768 106.315 10.672 106.187 10.544V10.352C106.187 10.064 106.347 9.712 106.667 9.296C107.883 7.312 108.651 5.872 108.971 4.976C109.003 4.72 109.099 4.272 109.259 3.632C109.419 2.992 109.499 2.4 109.499 1.856V1.664C109.499 1.344 109.547 1.056 109.643 0.799998C109.739 0.543998 109.883 0.463998 110.075 0.559999C110.203 0.623998 110.475 0.751998 110.891 0.943999C111.307 1.136 111.611 1.36 111.803 1.616C112.027 1.872 112.107 2.16 112.043 2.48C111.979 3.216 111.723 4.224 111.275 5.504C111.115 5.888 110.987 6.24 110.891 6.56C110.731 7.2 110.443 7.808 110.027 8.384C109.643 8.96 109.115 9.632 108.443 10.4C108.443 10.464 108.395 10.528 108.299 10.592C108.203 10.624 108.059 10.672 107.867 10.736C107.707 10.768 107.515 10.816 107.291 10.88H106.859ZM114.836 31.664C114.324 31.568 113.796 31.232 113.252 30.656C112.74 30.048 112.404 29.488 112.244 28.976C112.244 28.912 112.212 28.848 112.148 28.784C112.084 28.688 112.036 28.624 112.004 28.592C111.876 28.496 111.812 27.968 111.812 27.008C111.812 26.24 111.844 25.44 111.908 24.608C112.004 23.776 112.116 23.104 112.244 22.592L113.108 20.048L113.78 18.128L115.076 15.344L113.156 14.816C112.932 14.784 112.74 14.672 112.58 14.48C112.452 14.288 112.388 14.112 112.388 13.952C112.388 13.696 112.516 13.392 112.772 13.04C113.06 12.656 113.284 12.464 113.444 12.464C113.54 12.496 113.796 12.512 114.212 12.512C115.172 12.512 115.892 12.464 116.372 12.368C116.692 12.24 116.916 11.984 117.044 11.6C117.172 11.344 117.316 11.024 117.476 10.64C117.668 10.256 117.844 9.904 118.004 9.584C118.1 9.392 118.244 9.104 118.436 8.72C118.66 8.304 118.932 7.84 119.252 7.328C119.316 7.232 119.46 7.008 119.684 6.656C119.908 6.272 120.18 5.952 120.5 5.696C120.724 5.472 120.996 5.36 121.316 5.36C121.636 5.36 122.052 5.568 122.564 5.984C122.628 6.08 122.708 6.208 122.804 6.368C122.932 6.528 122.996 6.672 122.996 6.8C122.996 6.928 122.868 7.2 122.612 7.616C122.42 8 122.228 8.352 122.036 8.672C121.876 8.96 121.732 9.216 121.604 9.44C121.22 10.08 120.948 10.56 120.788 10.88C120.468 11.296 120.308 11.616 120.308 11.84C120.308 12.064 120.516 12.176 120.932 12.176C121.38 12.176 122.132 12.08 123.188 11.888C123.636 11.824 123.94 11.792 124.1 11.792C125.22 11.792 125.828 12.256 125.924 13.184C125.956 13.376 125.972 13.6 125.972 13.856C125.972 14.304 125.812 14.576 125.492 14.672C125.204 14.768 124.532 14.816 123.476 14.816C122.452 14.976 121.396 15.056 120.308 15.056C120.116 15.056 119.892 15.072 119.636 15.104C119.412 15.104 119.172 15.136 118.916 15.2C118.66 15.264 118.468 15.36 118.34 15.488C118.244 15.616 118.132 15.824 118.004 16.112C117.908 16.208 117.684 16.576 117.332 17.216C116.884 18.144 116.596 18.704 116.468 18.896C115.604 21.456 114.964 24.08 114.548 26.768C114.484 27.28 114.452 27.6 114.452 27.728C114.452 28.208 114.612 28.544 114.932 28.736C115.252 28.928 115.796 29.024 116.564 29.024C117.652 29.024 118.596 28.912 119.396 28.688C120.356 28.272 121.076 27.92 121.556 27.632C121.844 27.472 122.1 27.328 122.324 27.2C122.58 27.04 122.756 26.928 122.852 26.864C122.948 26.672 123.06 26.576 123.188 26.576C123.444 26.576 123.668 26.832 123.86 27.344C123.86 27.856 123.748 28.304 123.524 28.688C123.3 29.072 122.74 29.52 121.844 30.032C119.988 31.216 118.132 31.808 116.276 31.808C115.764 31.808 115.284 31.76 114.836 31.664ZM144.127 29.744C143.775 29.552 143.519 29.36 143.359 29.168C143.231 28.976 143.167 28.704 143.167 28.352C143.167 27.712 143.359 26.688 143.743 25.28C143.839 24.48 143.935 23.84 144.031 23.36C144.159 22.848 144.367 22.352 144.655 21.872C144.783 21.392 145.007 20.672 145.327 19.712C146.031 17.472 146.511 15.744 146.767 14.528C147.023 13.824 147.247 13.2 147.439 12.656C147.631 12.112 147.807 11.616 147.967 11.168C147.903 11.36 148.303 10.272 149.167 7.904C149.423 7.136 149.599 6.544 149.695 6.128C150.047 4.688 150.447 3.6 150.895 2.864C151.119 2.544 151.279 2.272 151.375 2.048C151.503 1.824 151.615 1.648 151.711 1.52C151.711 1.456 151.759 1.408 151.855 1.376C151.951 1.312 152.063 1.28 152.191 1.28C152.575 1.28 152.895 1.408 153.151 1.664C153.311 1.6 153.503 1.792 153.727 2.24C153.983 2.688 154.095 3.04 154.063 3.296C154.063 3.712 153.951 4.096 153.727 4.448C153.599 4.576 153.455 4.816 153.295 5.168C153.135 5.488 152.991 5.76 152.863 5.984C152.799 6.208 152.687 6.592 152.527 7.136C152.399 7.648 152.271 8.08 152.143 8.432C151.983 8.816 151.823 9.184 151.663 9.536C151.535 9.856 151.423 10.144 151.327 10.4C151.199 10.816 150.975 11.44 150.655 12.272C150.207 13.36 149.903 14.208 149.743 14.816C149.679 15.008 149.567 15.408 149.407 16.016C148.959 17.616 148.527 18.784 148.111 19.52C147.855 19.936 147.663 20.496 147.535 21.2C147.439 21.904 147.375 22.336 147.343 22.496C146.863 23.936 146.623 24.784 146.623 25.04C146.559 25.328 146.447 25.888 146.287 26.72C146.095 27.744 145.903 28.48 145.711 28.928C145.647 29.664 145.407 30.032 144.991 30.032C144.735 30.032 144.447 29.936 144.127 29.744ZM159.053 10.976C158.829 10.752 158.637 10.368 158.477 9.824C158.317 9.28 158.317 9.008 158.477 9.008C158.733 8.976 159.021 8.704 159.341 8.192C159.693 7.648 159.853 7.2 159.821 6.848C159.821 6.72 159.869 6.608 159.965 6.512C160.061 6.384 160.173 6.304 160.301 6.272C160.557 6.112 160.781 6.032 160.973 6.032C161.517 6.032 162.013 6.416 162.461 7.184C162.653 7.6 162.749 7.968 162.749 8.288C162.749 8.576 162.669 8.88 162.509 9.2C162.349 9.488 162.061 9.872 161.645 10.352C161.101 11.088 160.589 11.456 160.109 11.456C159.789 11.456 159.437 11.296 159.053 10.976ZM154.397 30.464C153.949 30.016 153.725 29.376 153.725 28.544C153.725 28.096 153.805 27.712 153.965 27.392C153.965 27.232 153.997 27.04 154.061 26.816C154.125 26.592 154.157 26.448 154.157 26.384C154.125 26.192 154.253 25.664 154.541 24.8C155.117 23.52 155.885 21.264 156.845 18.032C156.845 17.872 156.909 17.744 157.037 17.648C157.165 17.52 157.357 17.44 157.613 17.408C157.869 17.344 158.045 17.312 158.141 17.312C158.333 17.312 158.493 17.392 158.621 17.552C158.781 17.68 158.989 17.936 159.245 18.32C159.437 18.512 159.533 18.8 159.533 19.184C159.533 19.792 159.325 20.528 158.909 21.392C158.493 22.32 158.221 23.12 158.093 23.792C157.709 24.656 157.405 25.456 157.181 26.192C157.117 26.384 157.021 26.768 156.893 27.344C156.765 27.92 156.589 28.384 156.365 28.736C156.173 29.632 155.997 30.256 155.837 30.608C155.677 30.96 155.501 31.136 155.309 31.136C155.085 31.136 154.781 30.912 154.397 30.464ZM177.606 32.096C177.51 32.192 177.254 32.24 176.838 32.24C176.134 32.24 175.526 32.112 175.014 31.856C174.918 31.792 174.726 31.632 174.438 31.376C174.182 31.12 173.99 30.896 173.862 30.704L172.086 28.832C171.926 28.512 171.302 27.808 170.214 26.72C169.862 26.272 169.526 25.92 169.206 25.664C168.918 25.376 168.71 25.232 168.582 25.232L167.046 30.512C166.79 30.96 166.582 31.264 166.422 31.424C166.262 31.584 166.07 31.664 165.846 31.664C165.462 31.664 165.142 31.504 164.886 31.184C164.63 30.832 164.502 30.368 164.502 29.792C164.246 28.864 165.094 25.968 167.046 21.104C167.142 20.656 167.302 20.144 167.526 19.568C167.75 18.96 167.91 18.528 168.006 18.272C168.518 16.64 169.398 14.368 170.646 11.456L171.51 9.488C172.054 8.368 172.646 7.2 173.286 5.984C174.982 2.848 176.054 1.024 176.502 0.511999C176.758 0.255999 177.062 0.127998 177.414 0.127998C177.766 0.127998 178.07 0.255999 178.326 0.511999C178.646 0.895998 178.806 1.232 178.806 1.52C178.806 2.064 178.406 2.976 177.606 4.256C177.254 4.992 176.934 5.6 176.646 6.08C176.39 6.432 176.086 6.944 175.734 7.616C175.51 8.256 175.27 8.576 175.014 8.576C174.982 8.736 174.918 8.944 174.822 9.2C174.758 9.456 174.662 9.712 174.534 9.968C174.438 10.288 174.278 10.672 174.054 11.12C173.83 11.568 173.686 11.888 173.622 12.08C173.558 12.208 173.462 12.4 173.334 12.656C173.238 12.912 173.078 13.232 172.854 13.616C171.958 15.472 171.462 16.624 171.366 17.072C171.366 17.104 171.382 17.12 171.414 17.12C171.478 17.12 171.606 17.056 171.798 16.928C171.99 16.8 172.15 16.688 172.278 16.592C173.046 15.984 173.926 15.392 174.918 14.816C175.91 14.24 176.678 13.904 177.222 13.808C177.638 13.68 178.022 13.616 178.374 13.616C178.726 13.616 179.046 13.68 179.334 13.808C180.07 14.256 180.55 15.04 180.774 16.16C180.774 16.672 180.518 17.504 180.006 18.656C179.526 19.776 179.078 20.512 178.662 20.864C178.438 20.96 178.262 21.056 178.134 21.152C178.038 21.216 177.974 21.264 177.942 21.296C177.942 21.424 177.878 21.6 177.75 21.824C177.622 22.016 177.446 22.16 177.222 22.256C176.774 22.704 176.55 23.008 176.55 23.168V23.408C176.454 23.408 176.246 23.52 175.926 23.744C175.638 23.968 175.366 24.176 175.11 24.368C174.758 24.72 174.47 24.928 174.246 24.992C174.054 25.056 173.894 25.104 173.766 25.136C173.702 25.2 173.558 25.28 173.334 25.376C173.142 25.44 173.046 25.52 173.046 25.616C173.046 25.84 173.558 26.544 174.582 27.728C175.638 28.88 176.358 29.584 176.742 29.84C177.062 30 177.302 30.256 177.462 30.608C177.622 30.928 177.702 31.248 177.702 31.568C177.702 31.728 177.67 31.904 177.606 32.096ZM171.846 23.6C172.39 23.216 173.334 22.464 174.678 21.344C176.054 20.192 176.902 19.408 177.222 18.992C177.414 18.8 177.606 18.496 177.798 18.08C177.99 17.632 178.086 17.248 178.086 16.928C178.086 16.8 178.054 16.672 177.99 16.544C177.926 16.384 177.014 16.752 175.254 17.648C174.262 18.224 173.238 18.944 172.182 19.808C171.126 20.672 170.374 21.472 169.926 22.208C169.83 22.528 169.942 22.864 170.262 23.216C170.582 23.536 170.95 23.696 171.366 23.696C171.59 23.696 171.75 23.664 171.846 23.6ZM189.761 32.144C188.385 32.144 187.249 31.632 186.353 30.608C185.457 29.584 185.009 28.304 185.009 26.768C185.009 25.232 185.345 23.552 186.017 21.728C186.721 19.872 187.617 18.208 188.705 16.736C189.793 15.264 190.897 14.272 192.017 13.76C192.657 13.408 193.377 13.232 194.177 13.232C194.785 13.232 195.473 13.408 196.241 13.76C196.785 13.984 197.201 14.256 197.489 14.576C197.777 14.896 198.033 15.392 198.257 16.064C198.353 16.64 198.401 17.04 198.401 17.264C198.401 17.456 198.321 17.872 198.161 18.512C197.777 19.696 197.265 20.704 196.625 21.536C196.017 22.336 195.217 23.024 194.225 23.6C193.713 23.92 193.073 24.08 192.305 24.08C191.633 24.08 190.993 23.968 190.385 23.744C189.809 23.488 189.361 23.12 189.041 22.64L188.705 22.256L188.561 22.64C187.889 24.368 187.553 25.84 187.553 27.056C187.553 27.888 187.713 28.56 188.033 29.072C188.257 29.424 188.801 29.6 189.665 29.6C190.305 29.6 190.769 29.536 191.057 29.408C191.537 29.248 191.953 29.056 192.305 28.832C192.689 28.576 193.057 28.32 193.409 28.064L193.601 27.968H193.553C193.937 27.776 194.257 27.6 194.513 27.44C194.769 27.28 194.945 27.168 195.041 27.104C195.105 27.104 195.169 27.088 195.233 27.056C195.297 27.024 195.361 26.96 195.425 26.864C195.713 26.736 196.049 26.784 196.433 27.008C196.817 27.232 197.009 27.52 197.009 27.872C196.945 28.128 196.657 28.544 196.145 29.12C195.633 29.696 195.249 30 194.993 30.032C194.961 30.032 194.849 30.08 194.657 30.176C194.465 30.272 194.337 30.352 194.273 30.416H194.321C194.033 30.8 193.745 30.992 193.457 30.992H193.073C192.945 31.248 192.513 31.504 191.777 31.76C191.073 32.016 190.401 32.144 189.761 32.144ZM191.921 21.584C192.881 21.584 193.761 21.04 194.561 19.952C195.329 18.928 195.713 17.904 195.713 16.88C195.713 16.336 195.601 15.952 195.377 15.728C195.185 15.632 195.009 15.584 194.849 15.584C194.689 15.584 194.417 15.632 194.033 15.728C193.617 15.824 192.977 16.272 192.113 17.072C191.249 17.84 190.609 18.528 190.193 19.136L189.569 20.144C189.825 20.048 190.065 20 190.289 20C190.545 19.968 190.689 19.984 190.721 20.048C190.721 20.496 190.833 20.864 191.057 21.152C191.281 21.44 191.569 21.584 191.921 21.584ZM220.979 31.664C220.467 31.568 219.939 31.232 219.395 30.656C218.883 30.048 218.547 29.488 218.387 28.976C218.387 28.912 218.355 28.848 218.291 28.784C218.227 28.688 218.179 28.624 218.147 28.592C218.019 28.496 217.955 27.968 217.955 27.008C217.955 26.24 217.987 25.44 218.051 24.608C218.147 23.776 218.259 23.104 218.387 22.592L219.251 20.048L219.923 18.128L221.219 15.344L219.299 14.816C219.075 14.784 218.883 14.672 218.723 14.48C218.595 14.288 218.531 14.112 218.531 13.952C218.531 13.696 218.659 13.392 218.915 13.04C219.203 12.656 219.427 12.464 219.587 12.464C219.683 12.496 219.939 12.512 220.355 12.512C221.315 12.512 222.035 12.464 222.515 12.368C222.835 12.24 223.059 11.984 223.187 11.6C223.315 11.344 223.459 11.024 223.619 10.64C223.811 10.256 223.987 9.904 224.147 9.584C224.243 9.392 224.387 9.104 224.579 8.72C224.803 8.304 225.075 7.84 225.395 7.328C225.459 7.232 225.603 7.008 225.827 6.656C226.051 6.272 226.323 5.952 226.643 5.696C226.867 5.472 227.139 5.36 227.459 5.36C227.779 5.36 228.195 5.568 228.707 5.984C228.771 6.08 228.851 6.208 228.947 6.368C229.075 6.528 229.139 6.672 229.139 6.8C229.139 6.928 229.011 7.2 228.755 7.616C228.563 8 228.371 8.352 228.179 8.672C228.019 8.96 227.875 9.216 227.747 9.44C227.363 10.08 227.091 10.56 226.931 10.88C226.611 11.296 226.451 11.616 226.451 11.84C226.451 12.064 226.659 12.176 227.075 12.176C227.523 12.176 228.275 12.08 229.331 11.888C229.779 11.824 230.083 11.792 230.243 11.792C231.363 11.792 231.971 12.256 232.067 13.184C232.099 13.376 232.115 13.6 232.115 13.856C232.115 14.304 231.955 14.576 231.635 14.672C231.347 14.768 230.675 14.816 229.619 14.816C228.595 14.976 227.539 15.056 226.451 15.056C226.259 15.056 226.035 15.072 225.779 15.104C225.555 15.104 225.315 15.136 225.059 15.2C224.803 15.264 224.611 15.36 224.483 15.488C224.387 15.616 224.275 15.824 224.147 16.112C224.051 16.208 223.827 16.576 223.475 17.216C223.027 18.144 222.739 18.704 222.611 18.896C221.747 21.456 221.107 24.08 220.691 26.768C220.627 27.28 220.595 27.6 220.595 27.728C220.595 28.208 220.755 28.544 221.075 28.736C221.395 28.928 221.939 29.024 222.707 29.024C223.795 29.024 224.739 28.912 225.539 28.688C226.499 28.272 227.219 27.92 227.699 27.632C227.987 27.472 228.243 27.328 228.467 27.2C228.723 27.04 228.899 26.928 228.995 26.864C229.091 26.672 229.203 26.576 229.331 26.576C229.587 26.576 229.811 26.832 230.003 27.344C230.003 27.856 229.891 28.304 229.667 28.688C229.443 29.072 228.883 29.52 227.987 30.032C226.131 31.216 224.275 31.808 222.419 31.808C221.907 31.808 221.427 31.76 220.979 31.664ZM240.326 31.712C239.942 31.744 239.622 31.728 239.366 31.664C239.142 31.568 238.806 31.376 238.358 31.088C236.982 29.968 236.31 28.864 236.342 27.776C236.374 27.68 236.39 27.536 236.39 27.344C236.39 27.152 236.374 27.008 236.342 26.912C236.31 26.784 236.294 26.704 236.294 26.672C236.166 26.576 236.086 26.512 236.054 26.48C236.054 26.416 236.07 26.352 236.102 26.288C236.166 26.224 236.214 26.16 236.246 26.096C236.374 26.064 236.438 26 236.438 25.904C236.438 25.808 236.406 25.696 236.342 25.568C236.246 25.312 236.294 24.736 236.486 23.84C236.71 22.912 236.998 22.048 237.35 21.248C237.606 20.64 238.006 19.856 238.55 18.896C239.126 17.936 239.654 17.2 240.134 16.688C240.806 15.92 241.414 15.328 241.958 14.912C242.534 14.496 243.19 14.16 243.926 13.904C244.598 13.616 245.062 13.472 245.318 13.472C245.638 13.472 246.038 13.664 246.518 14.048C247.286 14.272 247.862 14.592 248.246 15.008C248.662 15.392 248.982 16 249.206 16.832C249.398 17.504 249.494 18.256 249.494 19.088C249.494 20.88 248.934 22.848 247.814 24.992C247.238 26.144 246.678 27.04 246.134 27.68C245.59 28.288 244.838 29.008 243.878 29.84C243.206 30.384 242.614 30.8 242.102 31.088C241.622 31.376 241.03 31.584 240.326 31.712ZM244.166 26C244.838 25.008 245.35 24.112 245.702 23.312C246.054 22.48 246.342 21.456 246.566 20.24C246.598 20.112 246.614 19.856 246.614 19.472C246.614 18.832 246.55 18.224 246.422 17.648C246.294 17.072 246.134 16.768 245.942 16.736C245.686 16.64 245.446 16.592 245.222 16.592C244.486 16.592 243.702 17.024 242.87 17.888C242.102 18.784 241.43 19.872 240.854 21.152C240.31 22.4 239.766 23.936 239.222 25.76C239.062 26.4 238.982 26.912 238.982 27.296C238.982 27.872 239.094 28.336 239.318 28.688C239.542 29.008 239.862 29.168 240.278 29.168C240.79 29.168 241.382 28.912 242.054 28.4C242.726 27.856 243.43 27.056 244.166 26ZM277.273 30.32C276.473 31.024 275.513 31.376 274.393 31.376C273.593 31.376 272.825 31.184 272.089 30.8C271.385 30.416 270.793 29.888 270.313 29.216C269.897 28.704 269.593 28.128 269.401 27.488C269.209 26.848 269.113 26.064 269.113 25.136C269.113 24.816 269.145 24.176 269.209 23.216C269.305 22.032 269.689 20.8 270.361 19.52C271.065 18.24 271.929 17.104 272.953 16.112C273.977 15.088 274.985 14.384 275.977 14C276.489 13.68 276.953 13.52 277.369 13.52C277.593 13.52 277.817 13.536 278.041 13.568C278.265 13.6 278.505 13.632 278.761 13.664C279.465 13.76 279.993 13.904 280.345 14.096C280.729 14.256 281.049 14.512 281.305 14.864C282.105 15.664 282.505 16.592 282.505 17.648C282.377 18.416 281.881 19.296 281.017 20.288C280.153 21.28 279.113 22.08 277.897 22.688C277.321 22.88 276.665 22.976 275.929 22.976C274.937 22.976 274.137 22.768 273.529 22.352C273.241 22.256 273.017 22.208 272.857 22.208C272.569 22.208 272.345 22.4 272.185 22.784C272.057 23.168 271.929 23.872 271.801 24.896C271.769 25.12 271.753 25.44 271.753 25.856C271.753 27.488 272.297 28.384 273.385 28.544C274.121 28.704 274.649 28.784 274.969 28.784C275.353 28.784 275.785 28.656 276.265 28.4L277.177 27.872C277.369 27.776 277.545 27.648 277.705 27.488C277.865 27.328 278.009 27.184 278.137 27.056C278.201 26.992 278.297 26.896 278.425 26.768C278.553 26.608 278.665 26.512 278.761 26.48C278.889 26.416 279.001 26.384 279.097 26.384C279.225 26.384 279.369 26.464 279.529 26.624C279.689 26.752 279.817 26.848 279.913 26.912C280.201 26.912 280.265 27.12 280.105 27.536C279.945 27.92 279.593 28.384 279.049 28.928C278.537 29.44 277.945 29.904 277.273 30.32ZM277.225 20.144C277.769 19.92 278.313 19.52 278.857 18.944C279.433 18.368 279.721 17.888 279.721 17.504C279.721 17.12 279.577 16.8 279.289 16.544C279.001 16.288 278.601 16.16 278.089 16.16C277.705 16.16 277.417 16.192 277.225 16.256C276.777 16.384 276.249 16.736 275.641 17.312C275.033 17.856 274.505 18.416 274.057 18.992C273.609 19.568 273.433 19.904 273.529 20C273.689 20.288 274.313 20.432 275.401 20.432C276.137 20.432 276.745 20.336 277.225 20.144ZM290.914 30.608C290.594 30.672 290.306 30.704 290.05 30.704C289.634 30.704 289.25 30.672 288.898 30.608C288.546 30.512 288.37 30.4 288.37 30.272C288.37 30.176 288.354 30.112 288.322 30.08C288.29 30.048 288.226 30.032 288.13 30.032C288.098 30 288.002 29.92 287.842 29.792C287.682 29.664 287.49 29.552 287.266 29.456C286.978 29.008 286.834 28.528 286.834 28.016C286.834 27.472 286.978 26.624 287.266 25.472C287.362 24.448 287.842 23.168 288.706 21.632C289.57 20.096 290.578 18.64 291.73 17.264C292.914 15.888 293.97 14.928 294.898 14.384C295.378 13.904 295.986 13.664 296.722 13.664C297.298 13.664 297.842 13.808 298.354 14.096C298.802 14.352 299.266 14.784 299.746 15.392C300.258 16 300.658 16.624 300.946 17.264C301.074 17.744 301.138 18.208 301.138 18.656C301.138 19.136 301.074 19.888 300.946 20.912C300.786 21.488 300.642 22.192 300.514 23.024C300.418 23.856 300.37 24.576 300.37 25.184C300.306 25.632 300.338 26 300.466 26.288C300.594 26.544 300.77 26.672 300.994 26.672C301.154 26.672 301.33 26.624 301.522 26.528C301.842 26.368 302.194 26.288 302.578 26.288C302.93 26.288 303.218 26.384 303.442 26.576C303.666 26.768 303.778 27.056 303.778 27.44C303.778 28.016 303.378 28.592 302.578 29.168C301.81 29.744 301.074 30.032 300.37 30.032C299.89 30.032 299.442 29.664 299.026 28.928C298.642 28.16 298.258 27.184 297.874 26L297.586 24.896L295.522 26.864L294.418 27.968C293.906 28.48 293.618 28.784 293.554 28.88C293.202 29.488 292.322 30.064 290.914 30.608ZM291.058 27.776C291.826 27.328 292.77 26.544 293.89 25.424C295.01 24.304 295.938 23.232 296.674 22.208C297.666 20.896 298.29 19.6 298.546 18.32C298.418 17.936 298.21 17.552 297.922 17.168C297.634 16.784 297.378 16.576 297.154 16.544C296.514 16.544 295.842 16.912 295.138 17.648C294.434 18.384 293.602 19.408 292.642 20.72L291.058 23.072C290.866 23.328 290.53 24.016 290.05 25.136C289.57 26.224 289.33 26.88 289.33 27.104C289.33 27.808 289.538 28.16 289.954 28.16C290.274 28.16 290.642 28.032 291.058 27.776ZM314.5 31.904C314.052 31.776 313.684 31.632 313.396 31.472C313.108 31.312 312.724 31.008 312.244 30.56C311.668 29.792 311.284 29.088 311.092 28.448C310.932 27.776 310.852 26.72 310.852 25.28C310.852 24.512 311.284 22.4 312.148 18.944C312.084 19.168 312.196 18.704 312.484 17.552C312.58 17.2 312.452 16.976 312.1 16.88C311.748 16.784 311.252 16.736 310.612 16.736C310.068 16.736 309.748 16.704 309.652 16.64C309.556 16.608 309.492 16.56 309.46 16.496C309.46 16.432 309.46 16.384 309.46 16.352C309.46 16.192 309.396 16 309.268 15.776C309.236 15.744 309.22 15.696 309.22 15.632C309.22 15.472 309.3 15.296 309.46 15.104C309.652 14.912 309.876 14.8 310.132 14.768C310.292 14.736 310.66 14.688 311.236 14.624C311.812 14.56 312.356 14.432 312.868 14.24C313.38 14.048 313.78 13.776 314.068 13.424C314.484 12.368 315.012 11.184 315.652 9.872C316.292 8.528 316.724 7.728 316.948 7.472C317.46 7.216 317.812 7.088 318.004 7.088C318.196 7.088 318.356 7.152 318.484 7.28C318.612 7.408 318.788 7.632 319.012 7.952C319.044 8.016 319.124 8.128 319.252 8.288C319.38 8.448 319.444 8.608 319.444 8.768C319.444 9.024 319.316 9.408 319.06 9.92C318.836 10.432 318.372 11.328 317.668 12.608L317.044 13.808C317.14 13.84 317.364 13.856 317.716 13.856C318.068 13.856 318.356 13.84 318.58 13.808C319.284 13.68 319.94 13.616 320.548 13.616C320.868 13.616 321.092 13.632 321.22 13.664C321.956 13.664 322.484 13.808 322.804 14.096C323.156 14.352 323.364 14.8 323.428 15.44C323.492 15.792 323.428 16 323.236 16.064C323.044 16.128 322.5 16.16 321.604 16.16C317.892 16.32 316.02 16.464 315.988 16.592C315.86 16.688 315.62 17.248 315.268 18.272C314.916 19.296 314.612 20.272 314.356 21.2C313.94 23.12 313.732 24.816 313.732 26.288C313.732 27.632 313.924 28.528 314.308 28.976C314.468 29.136 314.772 29.216 315.22 29.216C315.668 29.216 316.148 29.136 316.66 28.976C317.204 28.784 317.652 28.544 318.004 28.256C318.58 27.776 319.06 27.536 319.444 27.536C319.636 27.536 319.78 27.6 319.876 27.728C320.004 27.824 320.068 27.952 320.068 28.112C320.068 28.464 319.876 28.912 319.492 29.456C319.012 30.192 318.372 30.8 317.572 31.28C316.772 31.76 316.004 32 315.268 32C314.916 32 314.66 31.968 314.5 31.904ZM345.232 31.328C343.632 31.328 342.464 30.752 341.728 29.6C341.504 29.344 341.392 29.024 341.392 28.64C341.392 28.448 341.424 28.288 341.488 28.16C341.584 28 341.696 27.92 341.824 27.92C341.984 27.92 342.16 28.032 342.352 28.256C342.8 28.512 343.44 28.64 344.272 28.64C345.168 28.64 346.048 28.48 346.912 28.16C347.936 27.712 348.224 27.36 347.776 27.104H347.824C346.576 26.784 345.328 26.176 344.08 25.28C342.864 24.352 342.192 23.52 342.064 22.784C341.968 22.4 341.92 22 341.92 21.584C341.92 20.784 342.096 19.984 342.448 19.184C342.8 18.384 343.28 17.648 343.888 16.976C344.848 16.368 345.472 16.032 345.76 15.968V16.016C346.304 15.472 346.96 15.008 347.728 14.624C348.528 14.24 349.552 13.84 350.8 13.424L351.52 13.328L352.48 13.232C352.512 13.264 352.592 13.296 352.72 13.328C352.848 13.36 352.976 13.392 353.104 13.424C353.296 13.52 353.456 13.568 353.584 13.568C354.192 13.664 354.72 14.032 355.168 14.672C355.648 15.312 355.856 15.92 355.792 16.496C355.728 17.136 355.536 17.696 355.216 18.176C354.928 18.624 354.576 18.88 354.16 18.944C354.192 18.912 354.128 18.848 353.968 18.752C353.808 18.656 353.68 18.576 353.584 18.512L353.44 18.608C353.44 18.576 353.424 18.528 353.392 18.464C353.392 18.368 353.36 18.272 353.296 18.176C353.2 17.984 353.152 17.744 353.152 17.456L353.2 16.736L353.296 16.256C353.296 16.16 353.232 16.096 353.104 16.064C352.976 16 352.8 15.968 352.576 15.968L352.192 15.92C351.68 15.92 351.056 16.048 350.32 16.304C349.584 16.56 348.976 16.88 348.496 17.264C347.408 17.968 346.592 18.592 346.048 19.136C345.536 19.648 345.12 20.256 344.8 20.96C344.416 21.504 344.224 21.904 344.224 22.16C344.224 22.512 344.464 22.864 344.944 23.216C345.456 23.568 346.272 24 347.392 24.512C348.288 24.896 349.008 25.296 349.552 25.712C350.128 26.128 350.512 26.592 350.704 27.104C350.736 27.168 350.752 27.296 350.752 27.488C350.752 27.712 350.72 27.856 350.656 27.92C350.72 27.984 350.752 28.032 350.752 28.064V28.016C350.88 28.272 350.944 28.48 350.944 28.64C350.944 29.152 350.624 29.632 349.984 30.08C349.344 30.496 348.528 30.8 347.536 30.992H347.584C346.816 31.216 346.032 31.328 345.232 31.328ZM362.935 30.848C361.911 30.432 361.191 29.904 360.775 29.264C360.359 28.592 360.151 27.664 360.151 26.48C360.151 25.904 360.199 25.232 360.295 24.464L360.391 22.736C360.391 22.448 360.359 22.224 360.295 22.064C360.231 21.904 360.087 21.728 359.863 21.536C359.799 21.472 359.639 21.312 359.383 21.056C359.127 20.8 359.015 20.592 359.047 20.432L358.999 20.192C358.999 19.968 359.031 19.76 359.095 19.568C359.191 19.376 359.287 19.28 359.383 19.28C359.479 19.28 359.607 19.264 359.767 19.232C359.927 19.168 360.071 19.152 360.199 19.184C360.647 19.184 360.871 19.28 360.871 19.472C360.999 19.728 361.207 19.76 361.495 19.568C361.815 19.344 362.119 18.928 362.407 18.32C362.855 17.616 363.511 16.88 364.375 16.112C365.271 15.312 366.007 14.752 366.583 14.432C366.807 14.304 367.175 14.192 367.687 14.096C368.199 13.968 368.647 13.904 369.031 13.904C369.607 13.904 370.103 14.032 370.519 14.288C370.967 14.544 371.415 14.912 371.863 15.392C372.471 15.84 372.775 16.544 372.775 17.504C372.775 18.176 372.615 18.864 372.295 19.568C372.167 20.048 371.655 20.656 370.759 21.392C369.895 22.128 369.095 22.64 368.359 22.928C367.463 23.152 366.439 23.264 365.287 23.264C364.519 23.264 364.023 23.2 363.799 23.072C363.415 22.848 363.143 23.712 362.983 25.664C362.951 25.888 362.935 26.192 362.935 26.576C362.935 27.12 363.015 27.552 363.175 27.872C363.207 27.904 363.319 28.032 363.511 28.256C363.703 28.448 363.943 28.624 364.231 28.784C364.519 28.912 364.823 28.976 365.143 28.976C365.431 28.976 365.655 28.944 365.815 28.88C366.167 28.784 366.503 28.608 366.823 28.352C367.143 28.064 367.591 27.632 368.167 27.056C368.679 26.544 369.047 26.192 369.271 26C369.431 25.712 369.751 25.568 370.231 25.568C370.359 25.568 370.583 25.6 370.903 25.664C371.191 25.888 371.335 26.128 371.335 26.384C371.335 26.64 371.175 27.12 370.855 27.824C370.695 28.144 370.295 28.592 369.655 29.168C369.047 29.712 368.503 30.144 368.023 30.464C367.031 31.008 366.039 31.28 365.047 31.28C364.439 31.28 363.735 31.136 362.935 30.848ZM365.767 21.104C366.087 21.04 366.551 20.96 367.159 20.864C367.767 20.768 368.263 20.56 368.647 20.24C369.063 19.888 369.543 19.296 370.087 18.464C370.183 18.208 370.231 17.952 370.231 17.696C370.231 17.216 370.135 16.88 369.943 16.688C369.719 16.464 369.463 16.352 369.175 16.352C368.727 16.352 368.263 16.544 367.783 16.928C367.463 17.024 366.983 17.376 366.343 17.984C365.735 18.592 365.207 19.2 364.759 19.808C364.311 20.384 364.167 20.72 364.327 20.816C364.263 20.912 364.423 20.992 364.807 21.056C365.191 21.088 365.511 21.104 365.767 21.104ZM377.92 30.272C377.824 30.08 377.664 29.888 377.44 29.696C377.248 29.472 377.152 29.328 377.152 29.264C377.152 28.912 377.072 28.64 376.912 28.448C376.848 28.384 376.816 28.24 376.816 28.016C376.816 27.504 377.056 26.64 377.536 25.424C378.048 24.176 378.704 22.832 379.504 21.392C379.696 21.2 379.936 20.864 380.224 20.384C380.544 19.904 380.752 19.632 380.848 19.568C380.848 19.44 380.896 19.328 380.992 19.232C381.088 19.104 381.2 19.04 381.328 19.04V18.752C381.328 18.464 381.856 17.776 382.912 16.688C383.968 15.568 384.832 14.8 385.504 14.384C386.304 13.84 387.12 13.568 387.952 13.568C388.528 13.568 389.024 13.728 389.44 14.048C389.6 14.24 390.336 14.928 391.648 16.112L393.424 17.696L392.56 20.096C392.272 20.96 392.128 21.744 392.128 22.448C392.128 23.664 392.48 24.832 393.184 25.952C393.344 26.304 393.664 26.64 394.144 26.96C394.624 27.28 395.104 27.472 395.584 27.536C396.288 27.664 396.64 28.016 396.64 28.592C396.64 29.232 396.352 29.616 395.776 29.744C395.648 29.776 395.456 29.792 395.2 29.792C393.312 29.792 391.68 28.464 390.304 25.808C390.176 25.616 390 25.264 389.776 24.752C389.584 24.24 389.472 23.888 389.44 23.696C389.248 23.952 389.008 24.256 388.72 24.608C388.432 24.96 388.16 25.264 387.904 25.52C384.416 29.008 381.664 30.752 379.648 30.752C379.008 30.752 378.432 30.592 377.92 30.272ZM379.648 27.584C379.648 27.744 379.808 27.792 380.128 27.728C380.48 27.664 380.896 27.504 381.376 27.248C381.888 26.992 382.4 26.656 382.912 26.24C385.664 23.872 387.648 21.808 388.864 20.048L389.92 18.32C389.6 17.648 389.264 17.168 388.912 16.88C388.56 16.56 388.24 16.4 387.952 16.4C387.28 16.4 386.224 17.248 384.784 18.944C383.344 20.608 382.032 22.576 380.848 24.848C380.56 25.392 380.304 25.952 380.08 26.528C379.856 27.072 379.712 27.424 379.648 27.584ZM402.042 37.088C401.85 37.216 401.642 37.184 401.418 36.992C401.194 36.832 400.842 36.48 400.362 35.936C400.17 35.744 400.042 35.552 399.978 35.36C399.914 35.2 399.882 34.976 399.882 34.688L399.978 33.488C400.138 33.008 400.218 32.448 400.218 31.808C400.218 31.552 400.33 30.752 400.554 29.408C400.778 28.032 400.954 27.04 401.082 26.432L401.226 25.856C401.482 24.8 401.674 23.824 401.802 22.928C402.058 22.128 402.266 21.344 402.426 20.576C402.618 19.776 402.714 19.232 402.714 18.944C402.714 18.368 402.938 17.952 403.386 17.696C403.418 17.44 403.658 16.912 404.106 16.112C404.874 13.936 405.434 12.384 405.786 11.456C406.17 10.496 406.57 9.664 406.986 8.96C407.562 7.36 408.026 6.352 408.378 5.936C408.602 5.392 409.21 4.592 410.202 3.536C411.194 2.48 412.074 1.632 412.842 0.991999C413.546 0.607998 414.106 0.367998 414.522 0.271999C414.97 0.143999 415.514 0.079999 416.154 0.079999C416.698 0.079999 417.066 0.143999 417.258 0.271999C417.482 0.367998 417.834 0.639997 418.314 1.088C418.73 1.568 418.97 1.888 419.034 2.048C419.13 2.208 419.178 2.512 419.178 2.96C419.05 3.632 418.73 4.496 418.218 5.552C417.706 6.608 417.322 7.152 417.066 7.184C416.97 7.216 416.842 7.232 416.682 7.232C416.202 7.232 415.962 6.832 415.962 6.032C415.962 5.84 415.914 5.648 415.818 5.456C415.722 5.264 415.658 5.136 415.626 5.072C415.626 4.592 415.738 4.192 415.962 3.872C416.058 3.68 416.106 3.504 416.106 3.344C416.106 3.184 416.042 3.088 415.914 3.056C415.818 2.992 415.658 2.992 415.434 3.056C415.146 3.216 414.426 3.792 413.274 4.784C412.154 5.744 411.594 6.32 411.594 6.512C411.562 6.576 411.466 6.752 411.306 7.04C411.178 7.296 410.97 7.6 410.682 7.952C410.106 8.752 409.818 9.248 409.818 9.44C409.818 9.856 409.722 10.064 409.53 10.064C409.498 10.128 409.418 10.32 409.29 10.64C409.194 10.928 409.05 11.248 408.858 11.6C408.73 11.888 408.57 12.208 408.378 12.56C408.186 12.912 408.026 13.152 407.898 13.28H407.946C407.85 13.536 407.674 14.016 407.418 14.72C407.162 15.392 407.034 15.776 407.034 15.872C407.034 16 407.258 16.064 407.706 16.064C408.698 16.064 409.834 15.888 411.114 15.536C411.53 15.408 411.834 15.344 412.026 15.344C412.25 15.344 412.57 15.408 412.986 15.536C413.338 15.76 413.626 16.128 413.85 16.64C414.074 17.152 414.122 17.504 413.994 17.696C413.962 17.824 413.61 18 412.938 18.224C412.298 18.448 411.626 18.624 410.922 18.752C409.93 18.976 409.114 19.136 408.474 19.232C408.314 19.264 407.802 19.36 406.938 19.52C406.106 19.68 405.69 19.824 405.69 19.952C405.562 19.952 405.45 20.016 405.354 20.144C405.258 20.272 405.21 20.4 405.21 20.528C405.21 20.976 405.146 21.312 405.018 21.536C404.858 22.016 404.57 23.072 404.154 24.704C403.77 26.304 403.578 27.296 403.578 27.68C403.322 28 403.194 28.576 403.194 29.408C403.002 29.76 402.906 30.16 402.906 30.608C402.906 30.8 402.89 30.96 402.858 31.088C402.858 31.248 402.826 31.632 402.762 32.24C402.698 32.848 402.666 33.408 402.666 33.92L402.522 35.312C402.49 35.696 402.442 36.048 402.378 36.368C402.314 36.688 402.202 36.928 402.042 37.088ZM422.346 30.176C421.866 30.272 421.514 30.32 421.29 30.32C421.098 30.32 420.938 30.288 420.81 30.224C420.682 30.128 420.506 29.968 420.282 29.744C419.578 29.392 419.018 28.896 418.602 28.256C418.218 27.584 418.058 26.992 418.122 26.48C418.25 25.008 418.666 23.392 419.37 21.632C420.106 19.872 420.97 18.32 421.962 16.976C422.954 15.632 423.914 14.8 424.842 14.48C425.418 14.256 425.898 14.144 426.282 14.144C427.05 14.144 427.594 14.464 427.914 15.104C428.138 15.552 428.25 15.888 428.25 16.112C428.25 16.496 428.026 16.752 427.578 16.88C427.482 16.88 427.37 16.928 427.242 17.024C427.114 17.12 427.05 17.216 427.05 17.312C427.082 17.344 427.226 17.36 427.482 17.36C428.026 17.36 428.698 17.28 429.498 17.12C430.298 16.96 430.81 16.784 431.034 16.592C431.226 16.496 431.386 16.448 431.514 16.448L432.186 16.544C432.73 16.704 433.002 16.896 433.002 17.12C433.002 17.248 433.05 17.376 433.146 17.504C433.242 17.6 433.354 17.648 433.482 17.648C433.674 17.68 433.642 17.808 433.386 18.032C433.162 18.256 432.714 18.624 432.042 19.136C431.882 19.232 431.642 19.376 431.322 19.568C431.034 19.76 430.858 19.92 430.794 20.048C430.762 20.176 430.778 20.352 430.842 20.576C430.97 20.864 431.034 21.216 431.034 21.632C431.034 22.688 430.57 23.856 429.642 25.136C428.746 26.416 427.61 27.536 426.234 28.496C424.89 29.456 423.594 30.016 422.346 30.176ZM421.53 28.064C421.722 28.064 422.202 27.872 422.97 27.488C423.386 27.072 423.722 26.816 423.978 26.72C424.202 26.72 424.506 26.56 424.89 26.24C425.274 25.888 425.866 25.2 426.666 24.176C427.274 23.472 427.722 22.88 428.01 22.4C428.33 21.92 428.49 21.456 428.49 21.008C428.49 20.816 428.474 20.672 428.442 20.576C428.41 20.48 428.298 20.4 428.106 20.336C427.946 20.24 427.786 20.16 427.626 20.096C427.338 20.096 427.066 20.032 426.81 19.904C426.586 19.744 426.25 19.488 425.802 19.136L425.034 18.176L424.218 18.992C423.45 19.76 422.666 21.024 421.866 22.784C421.066 24.512 420.618 25.856 420.522 26.816C420.49 27.264 420.554 27.584 420.714 27.776C420.906 27.936 421.178 28.032 421.53 28.064ZM441.476 31.712C441.092 31.744 440.772 31.728 440.516 31.664C440.292 31.568 439.956 31.376 439.508 31.088C438.132 29.968 437.46 28.864 437.492 27.776C437.524 27.68 437.54 27.536 437.54 27.344C437.54 27.152 437.524 27.008 437.492 26.912C437.46 26.784 437.444 26.704 437.444 26.672C437.316 26.576 437.236 26.512 437.204 26.48C437.204 26.416 437.22 26.352 437.252 26.288C437.316 26.224 437.364 26.16 437.396 26.096C437.524 26.064 437.588 26 437.588 25.904C437.588 25.808 437.556 25.696 437.492 25.568C437.396 25.312 437.444 24.736 437.636 23.84C437.86 22.912 438.148 22.048 438.5 21.248C438.756 20.64 439.156 19.856 439.7 18.896C440.276 17.936 440.804 17.2 441.284 16.688C441.956 15.92 442.564 15.328 443.108 14.912C443.684 14.496 444.34 14.16 445.076 13.904C445.748 13.616 446.212 13.472 446.468 13.472C446.788 13.472 447.188 13.664 447.668 14.048C448.436 14.272 449.012 14.592 449.396 15.008C449.812 15.392 450.132 16 450.356 16.832C450.548 17.504 450.644 18.256 450.644 19.088C450.644 20.88 450.084 22.848 448.964 24.992C448.388 26.144 447.828 27.04 447.284 27.68C446.74 28.288 445.988 29.008 445.028 29.84C444.356 30.384 443.764 30.8 443.252 31.088C442.772 31.376 442.18 31.584 441.476 31.712ZM445.316 26C445.988 25.008 446.5 24.112 446.852 23.312C447.204 22.48 447.492 21.456 447.716 20.24C447.748 20.112 447.764 19.856 447.764 19.472C447.764 18.832 447.7 18.224 447.572 17.648C447.444 17.072 447.284 16.768 447.092 16.736C446.836 16.64 446.596 16.592 446.372 16.592C445.636 16.592 444.852 17.024 444.02 17.888C443.252 18.784 442.58 19.872 442.004 21.152C441.46 22.4 440.916 23.936 440.372 25.76C440.212 26.4 440.132 26.912 440.132 27.296C440.132 27.872 440.244 28.336 440.468 28.688C440.692 29.008 441.012 29.168 441.428 29.168C441.94 29.168 442.532 28.912 443.204 28.4C443.876 27.856 444.58 27.056 445.316 26ZM468.238 31.52C467.694 31.52 467.31 31.36 467.086 31.04C466.702 30.56 466.43 30.176 466.27 29.888C466.142 29.568 466.078 29.2 466.078 28.784C466.078 28.432 466.094 28.144 466.126 27.92L466.318 25.712C466.254 25.648 466.126 25.664 465.934 25.76C465.774 25.856 465.614 25.968 465.454 26.096C465.326 26.224 465.198 26.336 465.07 26.432L464.254 27.104C462.846 28.704 461.614 29.84 460.558 30.512C459.534 31.184 458.574 31.52 457.678 31.52L457.15 31.472C456.478 31.408 455.982 31.088 455.662 30.512C455.342 29.904 455.182 29.136 455.182 28.208C455.182 27.728 455.198 27.376 455.23 27.152C455.358 26.032 455.598 24.992 455.95 24.032C456.302 23.072 456.846 22.032 457.582 20.912C458.126 19.952 458.91 19.024 459.934 18.128C460.99 17.232 462.03 16.608 463.054 16.256C464.014 15.904 464.91 15.728 465.742 15.728C466.286 15.728 466.83 15.808 467.374 15.968C467.758 16.16 468.062 16.256 468.286 16.256C468.542 16.256 468.734 16.096 468.862 15.776C468.99 15.584 469.134 15.232 469.294 14.72C469.55 14.016 469.758 13.52 469.918 13.232L470.974 10.112L472.222 7.136L473.614 3.872C474.254 2.592 474.798 1.952 475.246 1.952C475.502 1.952 475.806 2.128 476.158 2.48C476.446 2.8 476.59 3.152 476.59 3.536C476.59 3.856 476.494 4.256 476.302 4.736C476.142 5.216 475.934 5.776 475.678 6.416C475.262 7.088 474.846 7.888 474.43 8.816L473.71 10.448C472.846 12.496 472.334 13.728 472.174 14.144L471.79 15.44C471.502 16.336 471.294 17.104 471.166 17.744C470.91 19.12 470.686 19.808 470.494 19.808C469.918 20.416 469.374 22.304 468.862 25.472C468.734 26.24 468.67 27.712 468.67 29.888C468.67 30.624 468.638 31.088 468.574 31.28C468.542 31.44 468.43 31.52 468.238 31.52ZM458.014 28.496C458.622 28.496 459.246 28.272 459.886 27.824C460.558 27.344 461.406 26.64 462.43 25.712C463.294 24.88 464.334 23.584 465.55 21.824C466.766 20.064 467.374 19.04 467.374 18.752C467.374 18.624 467.214 18.512 466.894 18.416C466.574 18.32 466.222 18.272 465.838 18.272C465.582 18.272 465.326 18.304 465.07 18.368C464.334 18.528 463.614 18.864 462.91 19.376C462.238 19.856 461.518 20.56 460.75 21.488C459.854 22.608 459.118 23.792 458.542 25.04C457.966 26.288 457.678 27.248 457.678 27.92C457.678 28.304 457.79 28.496 458.014 28.496ZM474.89 35.792C474.538 35.792 474.33 35.776 474.266 35.744C474.202 35.712 474.106 35.568 473.978 35.312C473.978 35.12 474.042 34.928 474.17 34.736C474.298 34.576 474.458 34.384 474.65 34.16C475.194 33.616 475.786 32.96 476.426 32.192C477.066 31.424 477.498 30.832 477.722 30.416C477.946 29.712 478.186 28.768 478.442 27.584C478.442 26.944 478.522 26.544 478.682 26.384C478.874 26.192 479.05 26.096 479.21 26.096C479.594 26.096 479.882 26.816 480.074 28.256C480.138 28.704 480.17 29.04 480.17 29.264C480.17 30 479.898 31.008 479.354 32.288C479.226 32.608 478.826 33.152 478.154 33.92C477.514 34.72 477.13 35.12 477.002 35.12C476.842 35.12 476.618 35.264 476.33 35.552C476.234 35.648 476.042 35.712 475.754 35.744C475.498 35.776 475.21 35.792 474.89 35.792ZM511.582 30.32C510.782 31.024 509.822 31.376 508.702 31.376C507.902 31.376 507.134 31.184 506.398 30.8C505.694 30.416 505.102 29.888 504.622 29.216C504.206 28.704 503.902 28.128 503.71 27.488C503.518 26.848 503.422 26.064 503.422 25.136C503.422 24.816 503.454 24.176 503.518 23.216C503.614 22.032 503.998 20.8 504.67 19.52C505.374 18.24 506.238 17.104 507.262 16.112C508.286 15.088 509.294 14.384 510.286 14C510.798 13.68 511.262 13.52 511.678 13.52C511.902 13.52 512.126 13.536 512.35 13.568C512.574 13.6 512.814 13.632 513.07 13.664C513.774 13.76 514.302 13.904 514.654 14.096C515.038 14.256 515.358 14.512 515.614 14.864C516.414 15.664 516.814 16.592 516.814 17.648C516.686 18.416 516.19 19.296 515.326 20.288C514.462 21.28 513.422 22.08 512.206 22.688C511.63 22.88 510.974 22.976 510.238 22.976C509.246 22.976 508.446 22.768 507.838 22.352C507.55 22.256 507.326 22.208 507.166 22.208C506.878 22.208 506.654 22.4 506.494 22.784C506.366 23.168 506.238 23.872 506.11 24.896C506.078 25.12 506.062 25.44 506.062 25.856C506.062 27.488 506.606 28.384 507.694 28.544C508.43 28.704 508.958 28.784 509.278 28.784C509.662 28.784 510.094 28.656 510.574 28.4L511.486 27.872C511.678 27.776 511.854 27.648 512.014 27.488C512.174 27.328 512.318 27.184 512.446 27.056C512.51 26.992 512.606 26.896 512.734 26.768C512.862 26.608 512.974 26.512 513.07 26.48C513.198 26.416 513.31 26.384 513.406 26.384C513.534 26.384 513.678 26.464 513.838 26.624C513.998 26.752 514.126 26.848 514.222 26.912C514.51 26.912 514.574 27.12 514.414 27.536C514.254 27.92 513.902 28.384 513.358 28.928C512.846 29.44 512.254 29.904 511.582 30.32ZM511.534 20.144C512.078 19.92 512.622 19.52 513.166 18.944C513.742 18.368 514.03 17.888 514.03 17.504C514.03 17.12 513.886 16.8 513.598 16.544C513.31 16.288 512.91 16.16 512.398 16.16C512.014 16.16 511.726 16.192 511.534 16.256C511.086 16.384 510.558 16.736 509.95 17.312C509.342 17.856 508.814 18.416 508.366 18.992C507.918 19.568 507.742 19.904 507.838 20C507.998 20.288 508.622 20.432 509.71 20.432C510.446 20.432 511.054 20.336 511.534 20.144ZM535.112 31.856C534.6 31.856 534.264 31.76 534.104 31.568C533.912 31.568 533.672 31.52 533.384 31.424C533.128 31.328 532.856 31.216 532.568 31.088C531.896 30.8 530.92 30.096 529.64 28.976C528.36 27.856 527.72 27.104 527.72 26.72C527.72 26.624 527.704 26.56 527.672 26.528C527.64 26.496 527.576 26.48 527.48 26.48C527.448 26.448 527.384 26.384 527.288 26.288C527.224 26.192 527.192 26.08 527.192 25.952C527.192 25.824 527.144 25.712 527.048 25.616C526.952 25.52 526.84 25.472 526.712 25.472C526.552 25.6 526.216 25.888 525.704 26.336C525.192 26.752 524.664 27.232 524.12 27.776C523.096 28.8 522.392 29.488 522.008 29.84C521.624 30.16 521.32 30.32 521.096 30.32C520.712 30.32 520.264 30.128 519.752 29.744C519.272 29.328 519.032 28.928 519.032 28.544C519.192 28.32 519.592 27.872 520.232 27.2C520.904 26.496 521.608 25.824 522.344 25.184L525.416 22.16L524.888 20.336C524.312 19.088 523.896 18.08 523.64 17.312C523.448 17.056 523.288 16.848 523.16 16.688C523.064 16.496 523.016 16.336 523.016 16.208C523.016 16.08 523.144 15.84 523.4 15.488C523.752 15.136 524.024 14.96 524.216 14.96C524.376 14.96 524.6 15.056 524.888 15.248C525.144 15.248 525.544 15.792 526.088 16.88C526.664 17.936 526.952 18.672 526.952 19.088C526.952 19.504 527.096 19.712 527.384 19.712C527.704 19.712 528.328 19.408 529.256 18.8C529.608 18.48 529.88 18.208 530.072 17.984C530.296 17.76 530.44 17.616 530.504 17.552C530.888 17.264 531.48 16.832 532.28 16.256C533.112 15.68 533.64 15.344 533.864 15.248C534.024 15.152 534.152 15.104 534.248 15.104C534.632 15.104 535 15.312 535.352 15.728C535.704 16.144 535.88 16.576 535.88 17.024C535.88 17.408 535.784 17.712 535.592 17.936C535.4 18.16 534.984 18.448 534.344 18.8C534.184 18.928 533.688 19.296 532.856 19.904C532.024 20.512 530.984 21.344 529.736 22.4L528.488 23.408L529.256 24.704C529.768 25.728 530.184 26.32 530.504 26.48C530.76 26.832 531.384 27.392 532.376 28.16C533.4 28.928 533.976 29.312 534.104 29.312C534.2 29.312 534.344 29.376 534.536 29.504C534.76 29.632 534.952 29.728 535.112 29.792C535.496 30.176 535.688 30.608 535.688 31.088C535.688 31.6 535.496 31.856 535.112 31.856ZM545.037 30.896C544.045 30.896 543.389 30.848 543.069 30.752C542.749 30.624 542.381 30.368 541.965 29.984C541.645 29.344 541.325 28.864 541.005 28.544C540.877 28.192 540.813 27.664 540.813 26.96C540.813 26.16 540.909 25.296 541.101 24.368C541.293 23.408 541.549 22.512 541.869 21.68C541.997 21.424 542.093 21.184 542.157 20.96C542.253 20.736 542.317 20.592 542.349 20.528C542.349 20.304 542.749 19.616 543.549 18.464C544.381 17.28 545.037 16.464 545.517 16.016C545.741 15.76 546.077 15.488 546.525 15.2C547.005 14.912 547.421 14.704 547.773 14.576C548.669 14.256 549.453 14.096 550.125 14.096C551.053 14.096 551.837 14.528 552.477 15.392C553.181 16.096 553.533 16.88 553.533 17.744C553.533 18.064 553.485 18.416 553.389 18.8C553.069 20.08 552.605 20.72 551.997 20.72C551.581 20.72 551.181 20.48 550.797 20C550.669 19.68 550.605 19.472 550.605 19.376C550.605 19.28 550.669 19.008 550.797 18.56C550.861 18.24 550.893 18.016 550.893 17.888C550.893 17.504 550.829 17.168 550.701 16.88C550.573 16.592 550.397 16.448 550.173 16.448C549.437 16.448 548.477 17.088 547.293 18.368C546.877 18.816 546.333 19.52 545.661 20.48C545.021 21.44 544.541 22.304 544.221 23.072C543.901 24.032 543.645 24.816 543.453 25.424C543.261 26.032 543.133 26.416 543.069 26.576C543.069 26.64 543.101 26.752 543.165 26.912C543.261 27.072 543.309 27.2 543.309 27.296C543.309 27.52 543.357 27.696 543.453 27.824C543.549 27.952 543.725 28.08 543.981 28.208C544.333 28.464 544.749 28.592 545.229 28.592C545.741 28.592 546.333 28.432 547.005 28.112C547.421 27.92 548.013 27.504 548.781 26.864L549.933 26C550.157 25.84 550.349 25.712 550.509 25.616C550.701 25.488 550.845 25.408 550.941 25.376C551.037 25.312 551.085 25.312 551.085 25.376C551.085 25.504 551.133 25.568 551.229 25.568C551.325 25.568 551.437 25.504 551.565 25.376C551.853 24.992 552.221 24.8 552.669 24.8C552.925 24.8 553.053 24.848 553.053 24.944L553.005 25.184C553.005 25.344 553.085 25.504 553.245 25.664C553.245 25.792 553.197 25.968 553.101 26.192C553.037 26.384 552.941 26.544 552.813 26.672C552.621 26.96 552.285 27.312 551.805 27.728C551.357 28.112 551.053 28.368 550.893 28.496H550.845C550.685 28.496 550.461 28.64 550.173 28.928C549.693 29.376 549.277 29.6 548.925 29.6C548.797 29.664 548.653 29.744 548.493 29.84C548.333 29.904 548.253 29.984 548.253 30.08C547.933 30.4 547.549 30.624 547.101 30.752C546.653 30.848 545.965 30.896 545.037 30.896ZM563.833 32.144C562.457 32.144 561.321 31.632 560.425 30.608C559.529 29.584 559.081 28.304 559.081 26.768C559.081 25.232 559.417 23.552 560.089 21.728C560.793 19.872 561.689 18.208 562.777 16.736C563.865 15.264 564.969 14.272 566.089 13.76C566.729 13.408 567.449 13.232 568.249 13.232C568.857 13.232 569.545 13.408 570.313 13.76C570.857 13.984 571.273 14.256 571.561 14.576C571.849 14.896 572.105 15.392 572.329 16.064C572.425 16.64 572.473 17.04 572.473 17.264C572.473 17.456 572.393 17.872 572.233 18.512C571.849 19.696 571.337 20.704 570.697 21.536C570.089 22.336 569.289 23.024 568.297 23.6C567.785 23.92 567.145 24.08 566.377 24.08C565.705 24.08 565.065 23.968 564.457 23.744C563.881 23.488 563.433 23.12 563.113 22.64L562.777 22.256L562.633 22.64C561.961 24.368 561.625 25.84 561.625 27.056C561.625 27.888 561.785 28.56 562.105 29.072C562.329 29.424 562.873 29.6 563.737 29.6C564.377 29.6 564.841 29.536 565.129 29.408C565.609 29.248 566.025 29.056 566.377 28.832C566.761 28.576 567.129 28.32 567.481 28.064L567.673 27.968H567.625C568.009 27.776 568.329 27.6 568.585 27.44C568.841 27.28 569.017 27.168 569.113 27.104C569.177 27.104 569.241 27.088 569.305 27.056C569.369 27.024 569.433 26.96 569.497 26.864C569.785 26.736 570.121 26.784 570.505 27.008C570.889 27.232 571.081 27.52 571.081 27.872C571.017 28.128 570.729 28.544 570.217 29.12C569.705 29.696 569.321 30 569.065 30.032C569.033 30.032 568.921 30.08 568.729 30.176C568.537 30.272 568.409 30.352 568.345 30.416H568.393C568.105 30.8 567.817 30.992 567.529 30.992H567.145C567.017 31.248 566.585 31.504 565.849 31.76C565.145 32.016 564.473 32.144 563.833 32.144ZM565.993 21.584C566.953 21.584 567.833 21.04 568.633 19.952C569.401 18.928 569.785 17.904 569.785 16.88C569.785 16.336 569.673 15.952 569.449 15.728C569.257 15.632 569.081 15.584 568.921 15.584C568.761 15.584 568.489 15.632 568.105 15.728C567.689 15.824 567.049 16.272 566.185 17.072C565.321 17.84 564.681 18.528 564.265 19.136L563.641 20.144C563.897 20.048 564.137 20 564.361 20C564.617 19.968 564.761 19.984 564.793 20.048C564.793 20.496 564.905 20.864 565.129 21.152C565.353 21.44 565.641 21.584 565.993 21.584ZM575.122 42.704C574.77 42.576 574.418 42.288 574.066 41.84C573.714 41.424 573.538 41.072 573.538 40.784C573.538 40.304 573.858 38.72 574.498 36.032C575.138 33.376 575.762 31.216 576.37 29.552C576.402 29.424 576.61 28.896 576.994 27.968C577.378 27.04 577.746 25.92 578.098 24.608C578.354 23.68 579.026 21.872 580.114 19.184L581.506 15.728L582.61 12.704C582.706 12.448 582.866 12.224 583.09 12.032C583.346 11.808 583.57 11.664 583.762 11.6C583.826 11.568 583.938 11.552 584.098 11.552C584.546 11.552 584.93 11.808 585.25 12.32C585.346 12.512 585.394 12.704 585.394 12.896C585.394 13.216 585.202 13.84 584.818 14.768L584.482 15.728L586.21 15.344C586.658 15.344 587.026 15.36 587.314 15.392C588.466 15.392 589.186 15.424 589.474 15.488C590.178 15.52 590.674 15.648 590.962 15.872C591.282 16.096 591.586 16.448 591.874 16.928C592.45 17.472 592.77 17.952 592.834 18.368C592.898 18.752 592.93 19.056 592.93 19.28C592.93 20.304 592.626 21.36 592.018 22.448C591.41 23.504 590.69 24.304 589.858 24.848C589.538 24.976 589.266 25.104 589.042 25.232C588.818 25.36 588.674 25.44 588.61 25.472C588.546 25.728 587.81 26.144 586.402 26.72C585.026 27.264 583.89 27.6 582.994 27.728C582.674 27.792 582.306 27.824 581.89 27.824C581.538 27.824 581.266 27.776 581.074 27.68C580.69 27.616 580.434 27.584 580.306 27.584C580.21 27.584 580.162 27.648 580.162 27.776C579.362 30.144 578.706 32.304 578.194 34.256C577.074 37.648 576.322 39.856 575.938 40.88C575.554 41.936 575.282 42.544 575.122 42.704ZM581.122 24.992C581.154 25.12 581.33 25.184 581.65 25.184C582.322 25.184 583.346 24.88 584.722 24.272C586.13 23.632 587.234 22.976 588.034 22.304C588.706 21.504 589.218 20.848 589.57 20.336C589.954 19.792 590.146 19.376 590.146 19.088C590.146 18.96 590.082 18.832 589.954 18.704C589.634 18.224 589.058 17.984 588.226 17.984C587.17 17.984 585.906 18.384 584.434 19.184C583.794 19.408 583.33 19.712 583.042 20.096C582.786 20.448 582.546 20.896 582.322 21.44C582.098 21.984 581.922 22.4 581.794 22.688C581.282 23.904 581.058 24.672 581.122 24.992ZM601.567 31.664C601.055 31.568 600.527 31.232 599.983 30.656C599.471 30.048 599.135 29.488 598.975 28.976C598.975 28.912 598.943 28.848 598.879 28.784C598.815 28.688 598.767 28.624 598.735 28.592C598.607 28.496 598.543 27.968 598.543 27.008C598.543 26.24 598.575 25.44 598.639 24.608C598.735 23.776 598.847 23.104 598.975 22.592L599.839 20.048L600.511 18.128L601.807 15.344L599.887 14.816C599.663 14.784 599.471 14.672 599.311 14.48C599.183 14.288 599.119 14.112 599.119 13.952C599.119 13.696 599.247 13.392 599.503 13.04C599.791 12.656 600.015 12.464 600.175 12.464C600.271 12.496 600.527 12.512 600.943 12.512C601.903 12.512 602.623 12.464 603.103 12.368C603.423 12.24 603.647 11.984 603.775 11.6C603.903 11.344 604.047 11.024 604.207 10.64C604.399 10.256 604.575 9.904 604.735 9.584C604.831 9.392 604.975 9.104 605.167 8.72C605.391 8.304 605.663 7.84 605.983 7.328C606.047 7.232 606.191 7.008 606.415 6.656C606.639 6.272 606.911 5.952 607.231 5.696C607.455 5.472 607.727 5.36 608.047 5.36C608.367 5.36 608.783 5.568 609.295 5.984C609.359 6.08 609.439 6.208 609.535 6.368C609.663 6.528 609.727 6.672 609.727 6.8C609.727 6.928 609.599 7.2 609.343 7.616C609.151 8 608.959 8.352 608.767 8.672C608.607 8.96 608.463 9.216 608.335 9.44C607.951 10.08 607.679 10.56 607.519 10.88C607.199 11.296 607.039 11.616 607.039 11.84C607.039 12.064 607.247 12.176 607.663 12.176C608.111 12.176 608.863 12.08 609.919 11.888C610.367 11.824 610.671 11.792 610.831 11.792C611.951 11.792 612.559 12.256 612.655 13.184C612.687 13.376 612.703 13.6 612.703 13.856C612.703 14.304 612.543 14.576 612.223 14.672C611.935 14.768 611.263 14.816 610.207 14.816C609.183 14.976 608.127 15.056 607.039 15.056C606.847 15.056 606.623 15.072 606.367 15.104C606.143 15.104 605.903 15.136 605.647 15.2C605.391 15.264 605.199 15.36 605.071 15.488C604.975 15.616 604.863 15.824 604.735 16.112C604.639 16.208 604.415 16.576 604.063 17.216C603.615 18.144 603.327 18.704 603.199 18.896C602.335 21.456 601.695 24.08 601.279 26.768C601.215 27.28 601.183 27.6 601.183 27.728C601.183 28.208 601.343 28.544 601.663 28.736C601.983 28.928 602.527 29.024 603.295 29.024C604.383 29.024 605.327 28.912 606.127 28.688C607.087 28.272 607.807 27.92 608.287 27.632C608.575 27.472 608.831 27.328 609.055 27.2C609.311 27.04 609.487 26.928 609.583 26.864C609.679 26.672 609.791 26.576 609.919 26.576C610.175 26.576 610.399 26.832 610.591 27.344C610.591 27.856 610.479 28.304 610.255 28.688C610.031 29.072 609.471 29.52 608.575 30.032C606.719 31.216 604.863 31.808 603.007 31.808C602.495 31.808 602.015 31.76 601.567 31.664ZM828.985 29.504C828.377 29.728 827.913 29.84 827.593 29.84C827.145 29.84 826.665 29.648 826.153 29.264C825.705 28.816 825.481 28.368 825.481 27.92C825.481 27.216 826.025 26.496 827.113 25.76C827.753 25.376 828.217 25.184 828.505 25.184C828.665 25.184 829.049 25.296 829.657 25.52C830.521 26.032 830.953 26.624 830.953 27.296C830.953 27.68 830.777 28.064 830.425 28.448C830.105 28.832 829.625 29.184 828.985 29.504Z" fill="black"/>
<path d="M625.291 36.8H821.632V39.2H625.291V36.8Z" fill="black"/>
</svg>
