<svg width="437" height="40" viewBox="0 0 437 40" fill="none" xmlns="http://www.w3.org/2000/svg">
<path d="M7.216 33.488C6.8 32.912 5.344 32.672 2.848 32.768L2.416 32.816C1.808 32.816 1.28 32.672 0.832 32.384C0.384 32.096 0.208 31.776 0.304 31.424C0.368 30.592 1.696 30.16 4.288 30.128L6.832 30.08L7.312 29.12C7.568 28.384 7.936 27.2 8.416 25.568C8.576 24.96 8.912 23.936 9.424 22.496C10.416 19.424 10.944 17.76 11.008 17.504C11.168 17.12 11.424 16.352 11.776 15.2C12.128 14.048 12.4 13.104 12.592 12.368C14.096 7.728 14.704 5.376 14.416 5.312C14.096 5.28 13.216 5.344 11.776 5.504C10.368 5.632 9.584 5.744 9.424 5.84C9.328 5.968 9.168 6.032 8.944 6.032C8.752 6.032 8.544 5.968 8.32 5.84C8.096 5.68 7.952 5.504 7.888 5.312C7.856 5.184 7.84 5.008 7.84 4.784C7.84 4.56 7.936 4.384 8.128 4.256C8.48 3.968 9.248 3.648 10.432 3.296C11.648 2.912 12.816 2.656 13.936 2.528C14.48 2.464 15.024 2.352 15.568 2.192C16.144 2 16.576 1.776 16.864 1.52C17.536 1.296 18.096 1.2 18.544 1.232C18.768 1.392 19.312 1.472 20.176 1.472C20.912 1.472 21.472 1.456 21.856 1.424C23.008 1.296 23.984 1.232 24.784 1.232C25.392 1.232 25.824 1.296 26.08 1.424C26.368 1.552 26.592 1.76 26.752 2.048C26.88 2.56 26.944 2.896 26.944 3.056C26.944 3.664 26.592 3.952 25.888 3.92C25.344 4.048 24.032 4.144 21.952 4.208C19.68 4.4 18.464 4.624 18.304 4.88C18.144 5.04 18.016 5.184 17.92 5.312C17.856 5.44 17.776 5.568 17.68 5.696C17.712 5.824 17.632 6.24 17.44 6.944C17.28 7.616 17.072 8.304 16.816 9.008L15.952 11.552C15.056 14.336 14.48 16.048 14.224 16.688C14 17.232 13.84 17.792 13.744 18.368C13.2 20.256 12.752 21.76 12.4 22.88C12.048 23.968 11.776 24.848 11.584 25.52C10.976 27.312 10.512 28.816 10.192 30.032L12.928 29.792C14.816 29.6 16.048 29.504 16.624 29.504C17.072 29.504 17.376 29.552 17.536 29.648C17.728 29.744 17.872 29.936 17.968 30.224C18.352 30.704 18.544 31.104 18.544 31.424C18.544 31.808 18.24 32.08 17.632 32.24C17.024 32.4 16.08 32.464 14.8 32.432C13.328 32.496 12.096 32.544 11.104 32.576C10.144 32.64 9.488 32.72 9.136 32.816C8.816 32.912 8.624 33.072 8.56 33.296C8.56 33.552 8.416 33.68 8.128 33.68C7.808 33.68 7.504 33.616 7.216 33.488ZM39.8837 32C39.7877 32.032 39.6277 32.048 39.4037 32.048C38.8917 32.048 38.4917 31.792 38.2037 31.28C37.9157 30.768 37.7717 30.064 37.7717 29.168C37.7717 28.432 37.8677 27.584 38.0597 26.624C38.4117 25.696 38.5877 25.024 38.5877 24.608C38.6837 24 39.0037 22.912 39.5477 21.344C40.1237 19.744 40.4917 18.784 40.6517 18.464C40.7797 18.464 40.8917 18.368 40.9877 18.176C41.0837 17.952 41.1317 17.712 41.1317 17.456C41.1317 17.168 41.1797 16.88 41.2757 16.592C41.4037 16.272 41.5317 16.048 41.6597 15.92C41.6597 15.824 41.6917 15.648 41.7557 15.392C41.8517 15.136 41.8997 14.96 41.8997 14.864C41.8997 14.8 41.9317 14.688 41.9957 14.528C42.0917 14.336 42.1397 14.192 42.1397 14.096C42.6517 13.104 43.5477 10.88 44.8277 7.424C46.1077 3.936 46.7477 2 46.7477 1.616C46.7477 1.104 47.0037 0.847998 47.5157 0.847998C47.6757 0.687998 47.9317 0.607998 48.2837 0.607998L49.0517 1.376C49.2757 1.6 49.4197 1.84 49.4837 2.096C49.5477 2.32 49.5798 2.672 49.5798 3.152C49.5798 3.632 49.5157 4.048 49.3877 4.4C49.2597 4.752 48.9397 5.472 48.4278 6.56C48.3317 6.784 48.2037 7.056 48.0437 7.376C47.8837 7.664 47.7077 8.032 47.5157 8.48C47.4517 8.64 47.1957 9.216 46.7477 10.208C46.4277 10.848 46.2677 11.216 46.2677 11.312C46.2677 11.408 46.2037 11.616 46.0757 11.936C45.9478 12.224 45.8358 12.528 45.7397 12.848C45.4837 13.36 45.0677 14.272 44.4917 15.584C43.9477 16.864 43.6757 17.568 43.6757 17.696C43.6757 18.048 43.5957 18.304 43.4357 18.464C43.3397 18.464 43.2757 18.544 43.2437 18.704C43.2117 18.832 43.1957 18.928 43.1957 18.992C43.1957 19.312 42.9397 20.16 42.4277 21.536L41.9957 22.928C41.3877 25.008 40.9557 26.528 40.6997 27.488C40.4757 28.448 40.3637 29.264 40.3637 29.936C40.3637 30.736 40.3317 31.248 40.2677 31.472C40.2357 31.696 40.1077 31.872 39.8837 32ZM54.1371 10.976C53.9131 10.752 53.7211 10.368 53.5611 9.824C53.4011 9.28 53.4011 9.008 53.5611 9.008C53.8171 8.976 54.1051 8.704 54.4251 8.192C54.7771 7.648 54.9371 7.2 54.9051 6.848C54.9051 6.72 54.9531 6.608 55.0491 6.512C55.1451 6.384 55.2571 6.304 55.3851 6.272C55.6411 6.112 55.8651 6.032 56.0571 6.032C56.6011 6.032 57.0971 6.416 57.5451 7.184C57.7371 7.6 57.8331 7.968 57.8331 8.288C57.8331 8.576 57.7531 8.88 57.5931 9.2C57.4331 9.488 57.1451 9.872 56.7291 10.352C56.1851 11.088 55.6731 11.456 55.1931 11.456C54.8731 11.456 54.5211 11.296 54.1371 10.976ZM49.4811 30.464C49.0331 30.016 48.8091 29.376 48.8091 28.544C48.8091 28.096 48.8891 27.712 49.0491 27.392C49.0491 27.232 49.0811 27.04 49.1451 26.816C49.2091 26.592 49.2411 26.448 49.2411 26.384C49.2091 26.192 49.3371 25.664 49.6251 24.8C50.2011 23.52 50.9691 21.264 51.9291 18.032C51.9291 17.872 51.9931 17.744 52.1211 17.648C52.2491 17.52 52.4411 17.44 52.6971 17.408C52.9531 17.344 53.1291 17.312 53.2251 17.312C53.4171 17.312 53.5771 17.392 53.7051 17.552C53.8651 17.68 54.0731 17.936 54.3291 18.32C54.5211 18.512 54.6171 18.8 54.6171 19.184C54.6171 19.792 54.4091 20.528 53.9931 21.392C53.5771 22.32 53.3051 23.12 53.1771 23.792C52.7931 24.656 52.4891 25.456 52.2651 26.192C52.2011 26.384 52.1051 26.768 51.9771 27.344C51.8491 27.92 51.6731 28.384 51.4491 28.736C51.2571 29.632 51.0811 30.256 50.9211 30.608C50.7611 30.96 50.5851 31.136 50.3931 31.136C50.1691 31.136 49.8651 30.912 49.4811 30.464ZM71.2022 19.52C70.3382 20.032 69.6342 20.544 69.0902 21.056C68.8982 21.216 68.6102 21.472 68.2262 21.824C67.8422 22.144 67.5062 22.384 67.2182 22.544C67.4742 22.992 67.6822 23.296 67.8422 23.456L68.6582 24.704C69.7462 26.4 70.5462 27.52 71.0582 28.064C71.5702 28.608 72.3542 29.2 73.4102 29.84C73.6982 30.064 73.8262 30.352 73.7942 30.704C73.6662 31.056 73.5222 31.28 73.3622 31.376C73.2342 31.44 72.8182 31.552 72.1142 31.712C71.6342 31.68 71.2662 31.6 71.0102 31.472C70.7862 31.344 70.2902 30.992 69.5222 30.416C69.0102 29.936 68.2582 29.088 67.2662 27.872C66.3062 26.624 65.4262 25.44 64.6262 24.32C64.4662 24.256 64.3382 24.096 64.2422 23.84C63.6662 25.216 63.3782 26.048 63.3782 26.336C63.1862 26.88 63.0422 27.44 62.9462 28.016C62.7222 29.008 62.4822 29.744 62.2262 30.224C62.1622 30.928 61.9222 31.28 61.5062 31.28C61.2822 31.28 60.9942 31.168 60.6422 30.944C60.3222 30.752 60.0822 30.56 59.9222 30.368C59.7942 30.176 59.7302 29.936 59.7302 29.648C59.7302 29.2 59.8102 28.688 59.9702 28.112C60.1302 27.536 60.3062 26.976 60.4982 26.432C60.6262 25.664 60.7542 25.04 60.8822 24.56C61.0422 24.048 61.2822 23.552 61.6022 23.072C61.8582 22.304 62.1142 21.6 62.3702 20.96C63.2342 18.496 63.7942 16.8 64.0502 15.872C64.4342 15.04 64.8022 14.16 65.1542 13.232C65.5382 12.432 66.0982 11.136 66.8342 9.344L67.4102 7.664C67.8582 6.224 68.3222 5.152 68.8022 4.448C68.8982 4.32 69.1862 3.872 69.6662 3.104C69.6982 2.976 69.8262 2.912 70.0502 2.912C70.2742 2.912 70.4822 2.96 70.6742 3.056C70.8662 3.12 71.0102 3.216 71.1062 3.344C71.2662 3.312 71.4422 3.52 71.6342 3.968C71.8582 4.416 71.9542 4.768 71.9222 5.024C71.9222 5.376 71.7942 5.76 71.5382 6.176C71.4422 6.272 71.3142 6.464 71.1542 6.752C70.9942 7.04 70.8022 7.344 70.5782 7.664C70.4822 7.952 70.3542 8.352 70.1942 8.864C70.0662 9.376 69.9222 9.776 69.7622 10.064C69.6342 10.352 69.4582 10.704 69.2342 11.12C69.0422 11.504 68.9142 11.792 68.8502 11.984C68.6902 12.4 68.4182 13.024 68.0342 13.856C67.4902 15.072 67.1542 15.888 67.0262 16.304C66.9622 16.528 66.7862 17.072 66.4982 17.936C66.2102 18.768 65.8902 19.536 65.5382 20.24C65.6662 20.08 65.7782 19.968 65.8742 19.904C65.9702 19.808 66.0502 19.712 66.1142 19.616C66.1462 19.488 66.3222 19.296 66.6422 19.04C66.9942 18.784 67.2342 18.592 67.3622 18.464C68.2582 17.92 69.4102 17.104 70.8182 16.016C72.2582 14.896 73.1062 14.208 73.3622 13.952C73.5542 13.76 73.7462 13.664 73.9382 13.664C74.0982 13.664 74.2742 13.712 74.4662 13.808C74.8502 13.904 75.1062 14.064 75.2342 14.288C75.3622 14.48 75.4262 14.864 75.4262 15.44C75.5222 15.792 75.3942 16.16 75.0422 16.544C74.6902 16.928 74.1302 17.376 73.3622 17.888C72.5302 18.432 71.8102 18.976 71.2022 19.52ZM84.8455 32.144C83.4695 32.144 82.3335 31.632 81.4375 30.608C80.5415 29.584 80.0935 28.304 80.0935 26.768C80.0935 25.232 80.4295 23.552 81.1015 21.728C81.8055 19.872 82.7015 18.208 83.7895 16.736C84.8775 15.264 85.9815 14.272 87.1015 13.76C87.7415 13.408 88.4615 13.232 89.2615 13.232C89.8695 13.232 90.5575 13.408 91.3255 13.76C91.8695 13.984 92.2855 14.256 92.5735 14.576C92.8615 14.896 93.1175 15.392 93.3415 16.064C93.4375 16.64 93.4855 17.04 93.4855 17.264C93.4855 17.456 93.4055 17.872 93.2455 18.512C92.8615 19.696 92.3495 20.704 91.7095 21.536C91.1015 22.336 90.3015 23.024 89.3095 23.6C88.7975 23.92 88.1575 24.08 87.3895 24.08C86.7175 24.08 86.0775 23.968 85.4695 23.744C84.8935 23.488 84.4455 23.12 84.1255 22.64L83.7895 22.256L83.6455 22.64C82.9735 24.368 82.6375 25.84 82.6375 27.056C82.6375 27.888 82.7975 28.56 83.1175 29.072C83.3415 29.424 83.8855 29.6 84.7495 29.6C85.3895 29.6 85.8535 29.536 86.1415 29.408C86.6215 29.248 87.0375 29.056 87.3895 28.832C87.7735 28.576 88.1415 28.32 88.4935 28.064L88.6855 27.968H88.6375C89.0215 27.776 89.3415 27.6 89.5975 27.44C89.8535 27.28 90.0295 27.168 90.1255 27.104C90.1895 27.104 90.2535 27.088 90.3175 27.056C90.3815 27.024 90.4455 26.96 90.5095 26.864C90.7975 26.736 91.1335 26.784 91.5175 27.008C91.9015 27.232 92.0935 27.52 92.0935 27.872C92.0295 28.128 91.7415 28.544 91.2295 29.12C90.7175 29.696 90.3335 30 90.0775 30.032C90.0455 30.032 89.9335 30.08 89.7415 30.176C89.5495 30.272 89.4215 30.352 89.3575 30.416H89.4055C89.1175 30.8 88.8295 30.992 88.5415 30.992H88.1575C88.0295 31.248 87.5975 31.504 86.8615 31.76C86.1575 32.016 85.4855 32.144 84.8455 32.144ZM87.0055 21.584C87.9655 21.584 88.8455 21.04 89.6455 19.952C90.4135 18.928 90.7975 17.904 90.7975 16.88C90.7975 16.336 90.6855 15.952 90.4615 15.728C90.2695 15.632 90.0935 15.584 89.9335 15.584C89.7735 15.584 89.5015 15.632 89.1175 15.728C88.7015 15.824 88.0615 16.272 87.1975 17.072C86.3335 17.84 85.6935 18.528 85.2775 19.136L84.6535 20.144C84.9095 20.048 85.1495 20 85.3735 20C85.6295 19.968 85.7735 19.984 85.8055 20.048C85.8055 20.496 85.9175 20.864 86.1415 21.152C86.3655 21.44 86.6535 21.584 87.0055 21.584ZM116.592 34.4C115.728 34.24 115.088 33.936 114.672 33.488C114.288 33.072 114.096 32.432 114.096 31.568C114.096 31.344 114.128 30.944 114.192 30.368C114.32 29.92 114.416 29.472 114.48 29.024C114.64 28.32 114.8 27.904 114.96 27.776C114.992 27.744 115.024 27.68 115.056 27.584C115.088 27.488 115.056 27.408 114.96 27.344C114.96 26.928 115.104 26.352 115.392 25.616C115.456 25.392 115.536 25.168 115.632 24.944C115.728 24.72 115.792 24.576 115.824 24.512C115.76 24.448 115.728 24.352 115.728 24.224C115.728 24.064 115.808 23.904 115.968 23.744C116.16 23.584 116.288 23.44 116.352 23.312C116.448 23.184 116.448 23.056 116.352 22.928C116.288 22.768 116.592 22.048 117.264 20.768C117.68 19.936 117.904 19.472 117.936 19.376C117.904 19.28 118.128 18.688 118.608 17.6C119.12 16.512 119.52 15.696 119.808 15.152C120.096 14.992 119.984 14.88 119.472 14.816C118.96 14.752 118.336 14.736 117.6 14.768C116.544 14.736 115.728 14.688 115.152 14.624C114.576 14.528 114.112 14.384 113.76 14.192C113.472 13.84 113.328 13.568 113.328 13.376C113.328 13.056 113.712 12.88 114.48 12.848C115.312 12.816 116.592 12.704 118.32 12.512L120.768 12.32L120.912 11.504C121.36 10.736 121.68 10.144 121.872 9.728C122.064 9.28 122.208 8.784 122.304 8.24C122.4 8.112 122.56 7.792 122.784 7.28C123.04 6.768 123.2 6.272 123.264 5.792C123.616 5.184 123.936 4.608 124.224 4.064C124.544 3.488 124.736 3.152 124.8 3.056C125.152 2.768 125.392 2.624 125.52 2.624C125.712 2.624 126.032 2.784 126.48 3.104C127.28 3.648 127.68 4.112 127.68 4.496C127.68 4.688 127.584 4.88 127.392 5.072C127.264 5.328 127.072 5.84 126.816 6.608C126.592 6.896 126.352 7.296 126.096 7.808C125.84 8.288 125.664 8.752 125.568 9.2C125.312 9.744 125.056 10.24 124.8 10.688C124.576 11.104 124.416 11.312 124.32 11.312C124.352 11.504 124.416 11.632 124.512 11.696C124.608 11.76 124.768 11.792 124.992 11.792C125.152 11.792 125.344 11.776 125.568 11.744C125.824 11.712 126.128 11.696 126.48 11.696C126.8 11.664 127.072 11.616 127.296 11.552C127.552 11.488 127.792 11.456 128.016 11.456C128.176 11.456 128.368 11.504 128.592 11.6C128.912 12.016 129.072 12.448 129.072 12.896C129.072 13.248 128.928 13.504 128.64 13.664C128.48 13.696 128.128 13.792 127.584 13.952C127.04 14.112 126.448 14.208 125.808 14.24L123.264 14.48L122.448 16.112C122.224 16.496 122.032 16.864 121.872 17.216C121.712 17.568 121.6 17.776 121.536 17.84C121.536 18 121.408 18.32 121.152 18.8C120.896 19.28 120.704 19.664 120.576 19.952C120.416 20.4 120.224 20.848 120 21.296C119.776 21.712 119.632 21.984 119.568 22.112C119.472 22.112 119.408 22.144 119.376 22.208C119.376 22.24 119.376 22.304 119.376 22.4L119.472 22.784C119.472 22.944 119.392 23.104 119.232 23.264C119.104 23.328 118.976 23.44 118.848 23.6C118.752 23.76 118.688 23.872 118.656 23.936C118.72 24 118.752 24.08 118.752 24.176C118.752 24.4 118.64 24.688 118.416 25.04C118.416 25.584 118.192 26.4 117.744 27.488C117.776 28.064 117.808 28.432 117.84 28.592C117.872 28.752 117.952 28.816 118.08 28.784H118.272L118.896 28.736C119.344 28.544 119.104 29.664 118.176 32.096L117.408 33.392C117.376 33.456 117.264 33.632 117.072 33.92C116.88 34.24 116.72 34.4 116.592 34.4ZM135.41 31.712C135.026 31.744 134.706 31.728 134.45 31.664C134.226 31.568 133.89 31.376 133.442 31.088C132.066 29.968 131.394 28.864 131.426 27.776C131.458 27.68 131.474 27.536 131.474 27.344C131.474 27.152 131.458 27.008 131.426 26.912C131.394 26.784 131.378 26.704 131.378 26.672C131.25 26.576 131.17 26.512 131.138 26.48C131.138 26.416 131.154 26.352 131.186 26.288C131.25 26.224 131.298 26.16 131.33 26.096C131.458 26.064 131.522 26 131.522 25.904C131.522 25.808 131.49 25.696 131.426 25.568C131.33 25.312 131.378 24.736 131.57 23.84C131.794 22.912 132.082 22.048 132.434 21.248C132.69 20.64 133.09 19.856 133.634 18.896C134.21 17.936 134.738 17.2 135.218 16.688C135.89 15.92 136.498 15.328 137.042 14.912C137.618 14.496 138.274 14.16 139.01 13.904C139.682 13.616 140.146 13.472 140.402 13.472C140.722 13.472 141.122 13.664 141.602 14.048C142.37 14.272 142.946 14.592 143.33 15.008C143.746 15.392 144.066 16 144.29 16.832C144.482 17.504 144.578 18.256 144.578 19.088C144.578 20.88 144.018 22.848 142.898 24.992C142.322 26.144 141.762 27.04 141.218 27.68C140.674 28.288 139.922 29.008 138.962 29.84C138.29 30.384 137.698 30.8 137.186 31.088C136.706 31.376 136.114 31.584 135.41 31.712ZM139.25 26C139.922 25.008 140.434 24.112 140.786 23.312C141.138 22.48 141.426 21.456 141.65 20.24C141.682 20.112 141.698 19.856 141.698 19.472C141.698 18.832 141.634 18.224 141.506 17.648C141.378 17.072 141.218 16.768 141.026 16.736C140.77 16.64 140.53 16.592 140.306 16.592C139.57 16.592 138.786 17.024 137.954 17.888C137.186 18.784 136.514 19.872 135.938 21.152C135.394 22.4 134.85 23.936 134.306 25.76C134.146 26.4 134.066 26.912 134.066 27.296C134.066 27.872 134.178 28.336 134.402 28.688C134.626 29.008 134.946 29.168 135.362 29.168C135.874 29.168 136.466 28.912 137.138 28.4C137.81 27.856 138.514 27.056 139.25 26ZM172.357 30.32C171.557 31.024 170.597 31.376 169.477 31.376C168.677 31.376 167.909 31.184 167.173 30.8C166.469 30.416 165.877 29.888 165.397 29.216C164.981 28.704 164.677 28.128 164.485 27.488C164.293 26.848 164.197 26.064 164.197 25.136C164.197 24.816 164.229 24.176 164.293 23.216C164.389 22.032 164.773 20.8 165.445 19.52C166.149 18.24 167.013 17.104 168.037 16.112C169.061 15.088 170.069 14.384 171.061 14C171.573 13.68 172.037 13.52 172.453 13.52C172.677 13.52 172.901 13.536 173.125 13.568C173.349 13.6 173.589 13.632 173.845 13.664C174.549 13.76 175.077 13.904 175.429 14.096C175.813 14.256 176.133 14.512 176.389 14.864C177.189 15.664 177.589 16.592 177.589 17.648C177.461 18.416 176.965 19.296 176.101 20.288C175.237 21.28 174.197 22.08 172.981 22.688C172.405 22.88 171.749 22.976 171.013 22.976C170.021 22.976 169.221 22.768 168.613 22.352C168.325 22.256 168.101 22.208 167.941 22.208C167.653 22.208 167.429 22.4 167.269 22.784C167.141 23.168 167.013 23.872 166.885 24.896C166.853 25.12 166.837 25.44 166.837 25.856C166.837 27.488 167.381 28.384 168.469 28.544C169.205 28.704 169.733 28.784 170.053 28.784C170.437 28.784 170.869 28.656 171.349 28.4L172.261 27.872C172.453 27.776 172.629 27.648 172.789 27.488C172.949 27.328 173.093 27.184 173.221 27.056C173.285 26.992 173.381 26.896 173.509 26.768C173.637 26.608 173.749 26.512 173.845 26.48C173.973 26.416 174.085 26.384 174.181 26.384C174.309 26.384 174.453 26.464 174.613 26.624C174.773 26.752 174.901 26.848 174.997 26.912C175.285 26.912 175.349 27.12 175.189 27.536C175.029 27.92 174.677 28.384 174.133 28.928C173.621 29.44 173.029 29.904 172.357 30.32ZM172.309 20.144C172.853 19.92 173.397 19.52 173.941 18.944C174.517 18.368 174.805 17.888 174.805 17.504C174.805 17.12 174.661 16.8 174.373 16.544C174.085 16.288 173.685 16.16 173.173 16.16C172.789 16.16 172.501 16.192 172.309 16.256C171.861 16.384 171.333 16.736 170.725 17.312C170.117 17.856 169.589 18.416 169.141 18.992C168.693 19.568 168.517 19.904 168.613 20C168.773 20.288 169.397 20.432 170.485 20.432C171.221 20.432 171.829 20.336 172.309 20.144ZM185.999 30.608C185.679 30.672 185.391 30.704 185.135 30.704C184.719 30.704 184.335 30.672 183.983 30.608C183.631 30.512 183.455 30.4 183.455 30.272C183.455 30.176 183.439 30.112 183.407 30.08C183.375 30.048 183.311 30.032 183.215 30.032C183.183 30 183.087 29.92 182.927 29.792C182.767 29.664 182.575 29.552 182.351 29.456C182.063 29.008 181.919 28.528 181.919 28.016C181.919 27.472 182.063 26.624 182.351 25.472C182.447 24.448 182.927 23.168 183.791 21.632C184.655 20.096 185.663 18.64 186.815 17.264C187.999 15.888 189.055 14.928 189.983 14.384C190.463 13.904 191.071 13.664 191.807 13.664C192.383 13.664 192.927 13.808 193.439 14.096C193.887 14.352 194.351 14.784 194.831 15.392C195.343 16 195.743 16.624 196.031 17.264C196.159 17.744 196.223 18.208 196.223 18.656C196.223 19.136 196.159 19.888 196.031 20.912C195.871 21.488 195.727 22.192 195.599 23.024C195.503 23.856 195.455 24.576 195.455 25.184C195.391 25.632 195.423 26 195.551 26.288C195.679 26.544 195.855 26.672 196.079 26.672C196.239 26.672 196.415 26.624 196.607 26.528C196.927 26.368 197.279 26.288 197.663 26.288C198.015 26.288 198.303 26.384 198.527 26.576C198.751 26.768 198.863 27.056 198.863 27.44C198.863 28.016 198.463 28.592 197.663 29.168C196.895 29.744 196.159 30.032 195.455 30.032C194.975 30.032 194.527 29.664 194.111 28.928C193.727 28.16 193.343 27.184 192.959 26L192.671 24.896L190.607 26.864L189.503 27.968C188.991 28.48 188.703 28.784 188.639 28.88C188.287 29.488 187.407 30.064 185.999 30.608ZM186.143 27.776C186.911 27.328 187.855 26.544 188.975 25.424C190.095 24.304 191.023 23.232 191.759 22.208C192.751 20.896 193.375 19.6 193.631 18.32C193.503 17.936 193.295 17.552 193.007 17.168C192.719 16.784 192.463 16.576 192.239 16.544C191.599 16.544 190.927 16.912 190.223 17.648C189.519 18.384 188.687 19.408 187.727 20.72L186.143 23.072C185.951 23.328 185.615 24.016 185.135 25.136C184.655 26.224 184.415 26.88 184.415 27.104C184.415 27.808 184.623 28.16 185.039 28.16C185.359 28.16 185.727 28.032 186.143 27.776ZM207.376 31.664C206.864 31.568 206.336 31.232 205.792 30.656C205.28 30.048 204.944 29.488 204.784 28.976C204.784 28.912 204.752 28.848 204.688 28.784C204.624 28.688 204.576 28.624 204.544 28.592C204.416 28.496 204.352 27.968 204.352 27.008C204.352 26.24 204.384 25.44 204.448 24.608C204.544 23.776 204.656 23.104 204.784 22.592L205.648 20.048L206.32 18.128L207.616 15.344L205.696 14.816C205.472 14.784 205.28 14.672 205.12 14.48C204.992 14.288 204.928 14.112 204.928 13.952C204.928 13.696 205.056 13.392 205.312 13.04C205.6 12.656 205.824 12.464 205.984 12.464C206.08 12.496 206.336 12.512 206.752 12.512C207.712 12.512 208.432 12.464 208.912 12.368C209.232 12.24 209.456 11.984 209.584 11.6C209.712 11.344 209.856 11.024 210.016 10.64C210.208 10.256 210.384 9.904 210.544 9.584C210.64 9.392 210.784 9.104 210.976 8.72C211.2 8.304 211.472 7.84 211.792 7.328C211.856 7.232 212 7.008 212.224 6.656C212.448 6.272 212.72 5.952 213.04 5.696C213.264 5.472 213.536 5.36 213.856 5.36C214.176 5.36 214.592 5.568 215.104 5.984C215.168 6.08 215.248 6.208 215.344 6.368C215.472 6.528 215.536 6.672 215.536 6.8C215.536 6.928 215.408 7.2 215.152 7.616C214.96 8 214.768 8.352 214.576 8.672C214.416 8.96 214.272 9.216 214.144 9.44C213.76 10.08 213.488 10.56 213.328 10.88C213.008 11.296 212.848 11.616 212.848 11.84C212.848 12.064 213.056 12.176 213.472 12.176C213.92 12.176 214.672 12.08 215.728 11.888C216.176 11.824 216.48 11.792 216.64 11.792C217.76 11.792 218.368 12.256 218.464 13.184C218.496 13.376 218.512 13.6 218.512 13.856C218.512 14.304 218.352 14.576 218.032 14.672C217.744 14.768 217.072 14.816 216.016 14.816C214.992 14.976 213.936 15.056 212.848 15.056C212.656 15.056 212.432 15.072 212.176 15.104C211.952 15.104 211.712 15.136 211.456 15.2C211.2 15.264 211.008 15.36 210.88 15.488C210.784 15.616 210.672 15.824 210.544 16.112C210.448 16.208 210.224 16.576 209.872 17.216C209.424 18.144 209.136 18.704 209.008 18.896C208.144 21.456 207.504 24.08 207.088 26.768C207.024 27.28 206.992 27.6 206.992 27.728C206.992 28.208 207.152 28.544 207.472 28.736C207.792 28.928 208.336 29.024 209.104 29.024C210.192 29.024 211.136 28.912 211.936 28.688C212.896 28.272 213.616 27.92 214.096 27.632C214.384 27.472 214.64 27.328 214.864 27.2C215.12 27.04 215.296 26.928 215.392 26.864C215.488 26.672 215.6 26.576 215.728 26.576C215.984 26.576 216.208 26.832 216.4 27.344C216.4 27.856 216.288 28.304 216.064 28.688C215.84 29.072 215.28 29.52 214.384 30.032C212.528 31.216 210.672 31.808 208.816 31.808C208.304 31.808 207.824 31.76 207.376 31.664ZM434.794 29.504C434.186 29.728 433.722 29.84 433.402 29.84C432.954 29.84 432.474 29.648 431.962 29.264C431.514 28.816 431.29 28.368 431.29 27.92C431.29 27.216 431.834 26.496 432.922 25.76C433.562 25.376 434.026 25.184 434.314 25.184C434.474 25.184 434.858 25.296 435.466 25.52C436.33 26.032 436.762 26.624 436.762 27.296C436.762 27.68 436.586 28.064 436.234 28.448C435.914 28.832 435.434 29.184 434.794 29.504Z" fill="black"/>
<path d="M231.1 36.8H427.441V39.2H231.1V36.8Z" fill="black"/>
</svg>
