<svg width="121" height="36" viewBox="0 0 121 36" fill="none" xmlns="http://www.w3.org/2000/svg">
<path d="M28.0578 23.6328C27.7922 27.3047 26.4328 30.1953 23.9797 32.3047C21.5422 34.4141 18.3234 35.4688 14.3234 35.4688C9.94844 35.4688 6.50312 34 3.9875 31.0625C1.4875 28.1094 0.237499 24.0625 0.237499 18.9219V16.8359C0.237499 13.5547 0.815624 10.6641 1.97187 8.16406C3.12812 5.66406 4.77656 3.75 6.91719 2.42188C9.07344 1.07813 11.5734 0.40625 14.4172 0.40625C18.3547 0.40625 21.5266 1.46094 23.9328 3.57031C26.3391 5.67969 27.7297 8.64062 28.1047 12.4531H21.0734C20.9016 10.25 20.2844 8.65625 19.2219 7.67188C18.175 6.67187 16.5734 6.17188 14.4172 6.17188C12.0734 6.17188 10.3156 7.01562 9.14375 8.70312C7.9875 10.375 7.39375 12.9766 7.3625 16.5078V19.0859C7.3625 22.7734 7.91719 25.4688 9.02656 27.1719C10.1516 28.875 11.9172 29.7266 14.3234 29.7266C16.4953 29.7266 18.1125 29.2344 19.175 28.25C20.2531 27.25 20.8703 25.7109 21.0266 23.6328H28.0578ZM35.975 22.0859C35.975 19.5703 36.4594 17.3281 37.4281 15.3594C38.3969 13.3906 39.7875 11.8672 41.6 10.7891C43.4281 9.71094 45.5453 9.17188 47.9516 9.17188C51.3734 9.17188 54.1625 10.2188 56.3187 12.3125C58.4906 14.4062 59.7016 17.25 59.9516 20.8438L59.9984 22.5781C59.9984 26.4688 58.9125 29.5938 56.7406 31.9531C54.5687 34.2969 51.6547 35.4688 47.9984 35.4688C44.3422 35.4688 41.4203 34.2969 39.2328 31.9531C37.0609 29.6094 35.975 26.4219 35.975 22.3906V22.0859ZM42.7484 22.5781C42.7484 24.9844 43.2016 26.8281 44.1078 28.1094C45.0141 29.375 46.3109 30.0078 47.9984 30.0078C49.6391 30.0078 50.9203 29.3828 51.8422 28.1328C52.7641 26.8672 53.225 24.8516 53.225 22.0859C53.225 19.7266 52.7641 17.8984 51.8422 16.6016C50.9203 15.3047 49.6234 14.6562 47.9516 14.6562C46.2953 14.6562 45.0141 15.3047 44.1078 16.6016C43.2016 17.8828 42.7484 19.875 42.7484 22.5781ZM75.2047 9.64062L75.4156 12.5703C77.2281 10.3047 79.6578 9.17188 82.7047 9.17188C85.3922 9.17188 87.3922 9.96094 88.7047 11.5391C90.0172 13.1172 90.6891 15.4766 90.7203 18.6172V35H83.9469V18.7812C83.9469 17.3438 83.6344 16.3047 83.0094 15.6641C82.3844 15.0078 81.3453 14.6797 79.8922 14.6797C77.9859 14.6797 76.5562 15.4922 75.6031 17.1172V35H68.8297V9.64062H75.2047ZM114.411 27.9922C114.411 27.1641 113.997 26.5156 113.169 26.0469C112.356 25.5625 111.044 25.1328 109.231 24.7578C103.2 23.4922 100.184 20.9297 100.184 17.0703C100.184 14.8203 101.114 12.9453 102.973 11.4453C104.848 9.92969 107.294 9.17188 110.309 9.17188C113.528 9.17188 116.098 9.92969 118.02 11.4453C119.958 12.9609 120.927 14.9297 120.927 17.3516H114.153C114.153 16.3828 113.841 15.5859 113.216 14.9609C112.591 14.3203 111.614 14 110.286 14C109.145 14 108.262 14.2578 107.637 14.7734C107.012 15.2891 106.7 15.9453 106.7 16.7422C106.7 17.4922 107.052 18.1016 107.755 18.5703C108.473 19.0234 109.677 19.4219 111.364 19.7656C113.052 20.0938 114.473 20.4688 115.63 20.8906C119.208 22.2031 120.997 24.4766 120.997 27.7109C120.997 30.0234 120.005 31.8984 118.02 33.3359C116.036 34.7578 113.473 35.4688 110.333 35.4688C108.208 35.4688 106.317 35.0938 104.661 34.3438C103.02 33.5781 101.731 32.5391 100.794 31.2266C99.8562 29.8984 99.3875 28.4688 99.3875 26.9375H105.809C105.872 28.1406 106.317 29.0625 107.145 29.7031C107.973 30.3438 109.083 30.6641 110.473 30.6641C111.77 30.6641 112.747 30.4219 113.403 29.9375C114.075 29.4375 114.411 28.7891 114.411 27.9922Z" fill="#EF4444"/>
</svg>
