<svg width="110" height="36" viewBox="0 0 110 36" fill="none" xmlns="http://www.w3.org/2000/svg">
<path d="M7.12031 22.9766V35H0.0890617V0.875H13.4016C15.9641 0.875 18.2141 1.34375 20.1516 2.28125C22.1047 3.21875 23.6047 4.55469 24.6516 6.28906C25.6984 8.00781 26.2219 9.96875 26.2219 12.1719C26.2219 15.5156 25.0734 18.1562 22.7766 20.0938C20.4953 22.0156 17.3312 22.9766 13.2844 22.9766H7.12031ZM7.12031 17.2812H13.4016C15.2609 17.2812 16.675 16.8438 17.6437 15.9688C18.6281 15.0938 19.1203 13.8438 19.1203 12.2188C19.1203 10.5469 18.6281 9.19531 17.6437 8.16406C16.6594 7.13281 15.3 6.60156 13.5656 6.57031H7.12031V17.2812ZM49.6781 15.9922C48.7562 15.8672 47.9437 15.8047 47.2406 15.8047C44.6781 15.8047 42.9984 16.6719 42.2016 18.4062V35H35.4281V9.64062H41.8266L42.0141 12.6641C43.3734 10.3359 45.2562 9.17188 47.6625 9.17188C48.4125 9.17188 49.1156 9.27344 49.7719 9.47656L49.6781 15.9922ZM55.8609 22.0859C55.8609 19.5703 56.3453 17.3281 57.3141 15.3594C58.2828 13.3906 59.6734 11.8672 61.4859 10.7891C63.3141 9.71094 65.4312 9.17188 67.8375 9.17188C71.2594 9.17188 74.0484 10.2188 76.2047 12.3125C78.3766 14.4062 79.5875 17.25 79.8375 20.8438L79.8844 22.5781C79.8844 26.4688 78.7984 29.5938 76.6266 31.9531C74.4547 34.2969 71.5406 35.4688 67.8844 35.4688C64.2281 35.4688 61.3062 34.2969 59.1187 31.9531C56.9469 29.6094 55.8609 26.4219 55.8609 22.3906V22.0859ZM62.6344 22.5781C62.6344 24.9844 63.0875 26.8281 63.9937 28.1094C64.9 29.375 66.1969 30.0078 67.8844 30.0078C69.525 30.0078 70.8062 29.3828 71.7281 28.1328C72.65 26.8672 73.1109 24.8516 73.1109 22.0859C73.1109 19.7266 72.65 17.8984 71.7281 16.6016C70.8062 15.3047 69.5094 14.6562 67.8375 14.6562C66.1812 14.6562 64.9 15.3047 63.9937 16.6016C63.0875 17.8828 62.6344 19.875 62.6344 22.5781ZM102.591 27.9922C102.591 27.1641 102.177 26.5156 101.348 26.0469C100.536 25.5625 99.2234 25.1328 97.4109 24.7578C91.3797 23.4922 88.3641 20.9297 88.3641 17.0703C88.3641 14.8203 89.2937 12.9453 91.1531 11.4453C93.0281 9.92969 95.4734 9.17188 98.4891 9.17188C101.708 9.17188 104.278 9.92969 106.2 11.4453C108.137 12.9609 109.106 14.9297 109.106 17.3516H102.333C102.333 16.3828 102.02 15.5859 101.395 14.9609C100.77 14.3203 99.7937 14 98.4656 14C97.325 14 96.4422 14.2578 95.8172 14.7734C95.1922 15.2891 94.8797 15.9453 94.8797 16.7422C94.8797 17.4922 95.2312 18.1016 95.9344 18.5703C96.6531 19.0234 97.8562 19.4219 99.5437 19.7656C101.231 20.0938 102.653 20.4688 103.809 20.8906C107.387 22.2031 109.177 24.4766 109.177 27.7109C109.177 30.0234 108.184 31.8984 106.2 33.3359C104.216 34.7578 101.653 35.4688 98.5125 35.4688C96.3875 35.4688 94.4969 35.0938 92.8406 34.3438C91.2 33.5781 89.9109 32.5391 88.9734 31.2266C88.0359 29.8984 87.5672 28.4688 87.5672 26.9375H93.9891C94.0516 28.1406 94.4969 29.0625 95.325 29.7031C96.1531 30.3438 97.2625 30.6641 98.6531 30.6641C99.95 30.6641 100.927 30.4219 101.583 29.9375C102.255 29.4375 102.591 28.7891 102.591 27.9922Z" fill="#63C4B4"/>
</svg>
