<svg width="954" height="119" viewBox="0 0 954 119" fill="none" xmlns="http://www.w3.org/2000/svg">
<path d="M20.7031 46.4688L15.2188 52.375V67H4.67188V15.8125H15.2188V39.0156L19.8594 32.6523L32.9023 15.8125H45.875L27.6992 38.5586L46.4023 67H33.8516L20.7031 46.4688ZM109.93 67H99.3828L78.8516 33.3203V67H68.3047V15.8125H78.8516L99.418 49.5625V15.8125H109.93V67ZM135.98 67.7031C130.402 67.7031 125.855 65.9922 122.34 62.5703C118.848 59.1484 117.102 54.5898 117.102 48.8945V47.9102C117.102 44.0898 117.84 40.6797 119.316 37.6797C120.793 34.6562 122.879 32.3359 125.574 30.7188C128.293 29.0781 131.387 28.2578 134.855 28.2578C140.059 28.2578 144.148 29.8984 147.125 33.1797C150.125 36.4609 151.625 41.1133 151.625 47.1367V51.2852H127.402C127.73 53.7695 128.715 55.7617 130.355 57.2617C132.02 58.7617 134.117 59.5117 136.648 59.5117C140.562 59.5117 143.621 58.0938 145.824 55.2578L150.816 60.8477C149.293 63.0039 147.23 64.6914 144.629 65.9102C142.027 67.1055 139.145 67.7031 135.98 67.7031ZM134.82 36.4844C132.805 36.4844 131.164 37.1641 129.898 38.5234C128.656 39.8828 127.859 41.8281 127.508 44.3594H141.641V43.5508C141.594 41.3008 140.984 39.5664 139.812 38.3477C138.641 37.1055 136.977 36.4844 134.82 36.4844ZM179.469 67C179 66.0859 178.66 64.9492 178.449 63.5898C175.988 66.332 172.789 67.7031 168.852 67.7031C165.125 67.7031 162.031 66.625 159.57 64.4688C157.133 62.3125 155.914 59.5938 155.914 56.3125C155.914 52.2812 157.402 49.1875 160.379 47.0312C163.379 44.875 167.703 43.7852 173.352 43.7617H178.027V41.582C178.027 39.8242 177.57 38.418 176.656 37.3633C175.766 36.3086 174.348 35.7812 172.402 35.7812C170.691 35.7812 169.344 36.1914 168.359 37.0117C167.398 37.832 166.918 38.957 166.918 40.3867H156.758C156.758 38.1836 157.438 36.1445 158.797 34.2695C160.156 32.3945 162.078 30.9297 164.562 29.875C167.047 28.7969 169.836 28.2578 172.93 28.2578C177.617 28.2578 181.332 29.4414 184.074 31.8086C186.84 34.1523 188.223 37.457 188.223 41.7227V58.2109C188.246 61.8203 188.75 64.5508 189.734 66.4023V67H179.469ZM171.066 59.9336C172.566 59.9336 173.949 59.6055 175.215 58.9492C176.48 58.2695 177.418 57.3672 178.027 56.2422V49.7031H174.23C169.145 49.7031 166.438 51.4609 166.109 54.9766L166.074 55.5742C166.074 56.8398 166.52 57.8828 167.41 58.7031C168.301 59.5234 169.52 59.9336 171.066 59.9336ZM217.402 38.4883C216.02 38.3008 214.801 38.207 213.746 38.207C209.902 38.207 207.383 39.5078 206.188 42.1094V67H196.027V28.9609H205.625L205.906 33.4961C207.945 30.0039 210.77 28.2578 214.379 28.2578C215.504 28.2578 216.559 28.4102 217.543 28.7148L217.402 38.4883ZM239.129 67.7031C233.551 67.7031 229.004 65.9922 225.488 62.5703C221.996 59.1484 220.25 54.5898 220.25 48.8945V47.9102C220.25 44.0898 220.988 40.6797 222.465 37.6797C223.941 34.6562 226.027 32.3359 228.723 30.7188C231.441 29.0781 234.535 28.2578 238.004 28.2578C243.207 28.2578 247.297 29.8984 250.273 33.1797C253.273 36.4609 254.773 41.1133 254.773 47.1367V51.2852H230.551C230.879 53.7695 231.863 55.7617 233.504 57.2617C235.168 58.7617 237.266 59.5117 239.797 59.5117C243.711 59.5117 246.77 58.0938 248.973 55.2578L253.965 60.8477C252.441 63.0039 250.379 64.6914 247.777 65.9102C245.176 67.1055 242.293 67.7031 239.129 67.7031ZM237.969 36.4844C235.953 36.4844 234.312 37.1641 233.047 38.5234C231.805 39.8828 231.008 41.8281 230.656 44.3594H244.789V43.5508C244.742 41.3008 244.133 39.5664 242.961 38.3477C241.789 37.1055 240.125 36.4844 237.969 36.4844ZM281.176 56.4883C281.176 55.2461 280.555 54.2734 279.312 53.5703C278.094 52.8438 276.125 52.1992 273.406 51.6367C264.359 49.7383 259.836 45.8945 259.836 40.1055C259.836 36.7305 261.23 33.918 264.02 31.668C266.832 29.3945 270.5 28.2578 275.023 28.2578C279.852 28.2578 283.707 29.3945 286.59 31.668C289.496 33.9414 290.949 36.8945 290.949 40.5273H280.789C280.789 39.0742 280.32 37.8789 279.383 36.9414C278.445 35.9805 276.98 35.5 274.988 35.5C273.277 35.5 271.953 35.8867 271.016 36.6602C270.078 37.4336 269.609 38.418 269.609 39.6133C269.609 40.7383 270.137 41.6523 271.191 42.3555C272.27 43.0352 274.074 43.6328 276.605 44.1484C279.137 44.6406 281.27 45.2031 283.004 45.8359C288.371 47.8047 291.055 51.2148 291.055 56.0664C291.055 59.5352 289.566 62.3477 286.59 64.5039C283.613 66.6367 279.77 67.7031 275.059 67.7031C271.871 67.7031 269.035 67.1406 266.551 66.0156C264.09 64.8672 262.156 63.3086 260.75 61.3398C259.344 59.3477 258.641 57.2031 258.641 54.9062H268.273C268.367 56.7109 269.035 58.0938 270.277 59.0547C271.52 60.0156 273.184 60.4961 275.27 60.4961C277.215 60.4961 278.68 60.1328 279.664 59.4062C280.672 58.6562 281.176 57.6836 281.176 56.4883ZM309.793 19.6094V28.9609H316.297V36.4141H309.793V55.3984C309.793 56.8047 310.062 57.8125 310.602 58.4219C311.141 59.0312 312.172 59.3359 313.695 59.3359C314.82 59.3359 315.816 59.2539 316.684 59.0898V66.7891C314.691 67.3984 312.641 67.7031 310.531 67.7031C303.406 67.7031 299.773 64.1055 299.633 56.9102V36.4141H294.078V28.9609H299.633V19.6094H309.793ZM382.18 67H371.633L351.102 33.3203V67H340.555V15.8125H351.102L371.668 49.5625V15.8125H382.18V67ZM408.23 67.7031C402.652 67.7031 398.105 65.9922 394.59 62.5703C391.098 59.1484 389.352 54.5898 389.352 48.8945V47.9102C389.352 44.0898 390.09 40.6797 391.566 37.6797C393.043 34.6562 395.129 32.3359 397.824 30.7188C400.543 29.0781 403.637 28.2578 407.105 28.2578C412.309 28.2578 416.398 29.8984 419.375 33.1797C422.375 36.4609 423.875 41.1133 423.875 47.1367V51.2852H399.652C399.98 53.7695 400.965 55.7617 402.605 57.2617C404.27 58.7617 406.367 59.5117 408.898 59.5117C412.812 59.5117 415.871 58.0938 418.074 55.2578L423.066 60.8477C421.543 63.0039 419.48 64.6914 416.879 65.9102C414.277 67.1055 411.395 67.7031 408.23 67.7031ZM407.07 36.4844C405.055 36.4844 403.414 37.1641 402.148 38.5234C400.906 39.8828 400.109 41.8281 399.758 44.3594H413.891V43.5508C413.844 41.3008 413.234 39.5664 412.062 38.3477C410.891 37.1055 409.227 36.4844 407.07 36.4844ZM440.398 67H430.203V28.9609H440.398V67ZM429.605 19.1172C429.605 17.5938 430.109 16.3398 431.117 15.3555C432.148 14.3711 433.543 13.8789 435.301 13.8789C437.035 13.8789 438.418 14.3711 439.449 15.3555C440.48 16.3398 440.996 17.5938 440.996 19.1172C440.996 20.6641 440.469 21.9297 439.414 22.9141C438.383 23.8984 437.012 24.3906 435.301 24.3906C433.59 24.3906 432.207 23.8984 431.152 22.9141C430.121 21.9297 429.605 20.6641 429.605 19.1172ZM447.324 47.6992C447.324 41.8633 448.707 37.1641 451.473 33.6016C454.262 30.0391 458.012 28.2578 462.723 28.2578C466.895 28.2578 470.141 29.6875 472.461 32.5469L472.883 28.9609H482.094V65.7344C482.094 69.0625 481.332 71.957 479.809 74.418C478.309 76.8789 476.188 78.7539 473.445 80.043C470.703 81.332 467.492 81.9766 463.812 81.9766C461.023 81.9766 458.305 81.4141 455.656 80.2891C453.008 79.1875 451.004 77.7578 449.645 76L454.145 69.8125C456.676 72.6484 459.746 74.0664 463.355 74.0664C466.051 74.0664 468.148 73.3398 469.648 71.8867C471.148 70.457 471.898 68.418 471.898 65.7695V63.7305C469.555 66.3789 466.473 67.7031 462.652 67.7031C458.082 67.7031 454.379 65.9219 451.543 62.3594C448.73 58.7734 447.324 54.0273 447.324 48.1211V47.6992ZM457.484 48.4375C457.484 51.8828 458.176 54.5898 459.559 56.5586C460.941 58.5039 462.84 59.4766 465.254 59.4766C468.348 59.4766 470.562 58.3164 471.898 55.9961V40C470.539 37.6797 468.348 36.5195 465.324 36.5195C462.887 36.5195 460.965 37.5156 459.559 39.5078C458.176 41.5 457.484 44.4766 457.484 48.4375ZM499.848 33.1094C502.543 29.875 505.93 28.2578 510.008 28.2578C518.258 28.2578 522.441 33.0508 522.559 42.6367V67H512.398V42.918C512.398 40.7383 511.93 39.1328 510.992 38.1016C510.055 37.0469 508.496 36.5195 506.316 36.5195C503.34 36.5195 501.184 37.668 499.848 39.9648V67H489.688V13H499.848V33.1094ZM564.5 48.332C564.5 54.4258 563.199 59.1836 560.598 62.6055C557.996 66.0039 554.363 67.7031 549.699 67.7031C545.574 67.7031 542.281 66.1211 539.82 62.957L539.363 67H530.223V13H540.383V32.3711C542.727 29.6289 545.809 28.2578 549.629 28.2578C554.27 28.2578 557.902 29.9688 560.527 33.3906C563.176 36.7891 564.5 41.582 564.5 47.7695V48.332ZM554.34 47.5938C554.34 43.75 553.73 40.9492 552.512 39.1914C551.293 37.4102 549.477 36.5195 547.062 36.5195C543.828 36.5195 541.602 37.8438 540.383 40.4922V55.5039C541.625 58.1758 543.875 59.5117 547.133 59.5117C550.414 59.5117 552.57 57.8945 553.602 54.6602C554.094 53.1133 554.34 50.7578 554.34 47.5938ZM569.211 47.6289C569.211 43.8555 569.938 40.4922 571.391 37.5391C572.844 34.5859 574.93 32.3008 577.648 30.6836C580.391 29.0664 583.566 28.2578 587.176 28.2578C592.309 28.2578 596.492 29.8281 599.727 32.9688C602.984 36.1094 604.801 40.375 605.176 45.7656L605.246 48.3672C605.246 54.2031 603.617 58.8906 600.359 62.4297C597.102 65.9453 592.73 67.7031 587.246 67.7031C581.762 67.7031 577.379 65.9453 574.098 62.4297C570.84 58.9141 569.211 54.1328 569.211 48.0859V47.6289ZM579.371 48.3672C579.371 51.9766 580.051 54.7422 581.41 56.6641C582.77 58.5625 584.715 59.5117 587.246 59.5117C589.707 59.5117 591.629 58.5742 593.012 56.6992C594.395 54.8008 595.086 51.7773 595.086 47.6289C595.086 44.0898 594.395 41.3477 593.012 39.4023C591.629 37.457 589.684 36.4844 587.176 36.4844C584.691 36.4844 582.77 37.457 581.41 39.4023C580.051 41.3242 579.371 44.3125 579.371 48.3672ZM632.879 38.4883C631.496 38.3008 630.277 38.207 629.223 38.207C625.379 38.207 622.859 39.5078 621.664 42.1094V67H611.504V28.9609H621.102L621.383 33.4961C623.422 30.0039 626.246 28.2578 629.855 28.2578C630.98 28.2578 632.035 28.4102 633.02 28.7148L632.879 38.4883Z" fill="#FF9E45"/>
<mask id="path-2-outside-1" maskUnits="userSpaceOnUse" x="5.67188" y="14" width="633" height="73" fill="black">
<rect fill="white" x="5.67188" y="14" width="633" height="73"/>
<path d="M23.7031 49.4688L18.2188 55.375V70H7.67188V18.8125H18.2188V42.0156L22.8594 35.6523L35.9023 18.8125H48.875L30.6992 41.5586L49.4023 70H36.8516L23.7031 49.4688Z"/>
<path d="M112.93 70H102.383L81.8516 36.3203V70H71.3047V18.8125H81.8516L102.418 52.5625V18.8125H112.93V70Z"/>
<path d="M138.98 70.7031C133.402 70.7031 128.855 68.9922 125.34 65.5703C121.848 62.1484 120.102 57.5898 120.102 51.8945V50.9102C120.102 47.0898 120.84 43.6797 122.316 40.6797C123.793 37.6562 125.879 35.3359 128.574 33.7188C131.293 32.0781 134.387 31.2578 137.855 31.2578C143.059 31.2578 147.148 32.8984 150.125 36.1797C153.125 39.4609 154.625 44.1133 154.625 50.1367V54.2852H130.402C130.73 56.7695 131.715 58.7617 133.355 60.2617C135.02 61.7617 137.117 62.5117 139.648 62.5117C143.562 62.5117 146.621 61.0938 148.824 58.2578L153.816 63.8477C152.293 66.0039 150.23 67.6914 147.629 68.9102C145.027 70.1055 142.145 70.7031 138.98 70.7031ZM137.82 39.4844C135.805 39.4844 134.164 40.1641 132.898 41.5234C131.656 42.8828 130.859 44.8281 130.508 47.3594H144.641V46.5508C144.594 44.3008 143.984 42.5664 142.812 41.3477C141.641 40.1055 139.977 39.4844 137.82 39.4844Z"/>
<path d="M182.469 70C182 69.0859 181.66 67.9492 181.449 66.5898C178.988 69.332 175.789 70.7031 171.852 70.7031C168.125 70.7031 165.031 69.625 162.57 67.4688C160.133 65.3125 158.914 62.5938 158.914 59.3125C158.914 55.2812 160.402 52.1875 163.379 50.0312C166.379 47.875 170.703 46.7852 176.352 46.7617H181.027V44.582C181.027 42.8242 180.57 41.418 179.656 40.3633C178.766 39.3086 177.348 38.7812 175.402 38.7812C173.691 38.7812 172.344 39.1914 171.359 40.0117C170.398 40.832 169.918 41.957 169.918 43.3867H159.758C159.758 41.1836 160.438 39.1445 161.797 37.2695C163.156 35.3945 165.078 33.9297 167.562 32.875C170.047 31.7969 172.836 31.2578 175.93 31.2578C180.617 31.2578 184.332 32.4414 187.074 34.8086C189.84 37.1523 191.223 40.457 191.223 44.7227V61.2109C191.246 64.8203 191.75 67.5508 192.734 69.4023V70H182.469ZM174.066 62.9336C175.566 62.9336 176.949 62.6055 178.215 61.9492C179.48 61.2695 180.418 60.3672 181.027 59.2422V52.7031H177.23C172.145 52.7031 169.438 54.4609 169.109 57.9766L169.074 58.5742C169.074 59.8398 169.52 60.8828 170.41 61.7031C171.301 62.5234 172.52 62.9336 174.066 62.9336Z"/>
<path d="M220.402 41.4883C219.02 41.3008 217.801 41.207 216.746 41.207C212.902 41.207 210.383 42.5078 209.188 45.1094V70H199.027V31.9609H208.625L208.906 36.4961C210.945 33.0039 213.77 31.2578 217.379 31.2578C218.504 31.2578 219.559 31.4102 220.543 31.7148L220.402 41.4883Z"/>
<path d="M242.129 70.7031C236.551 70.7031 232.004 68.9922 228.488 65.5703C224.996 62.1484 223.25 57.5898 223.25 51.8945V50.9102C223.25 47.0898 223.988 43.6797 225.465 40.6797C226.941 37.6562 229.027 35.3359 231.723 33.7188C234.441 32.0781 237.535 31.2578 241.004 31.2578C246.207 31.2578 250.297 32.8984 253.273 36.1797C256.273 39.4609 257.773 44.1133 257.773 50.1367V54.2852H233.551C233.879 56.7695 234.863 58.7617 236.504 60.2617C238.168 61.7617 240.266 62.5117 242.797 62.5117C246.711 62.5117 249.77 61.0938 251.973 58.2578L256.965 63.8477C255.441 66.0039 253.379 67.6914 250.777 68.9102C248.176 70.1055 245.293 70.7031 242.129 70.7031ZM240.969 39.4844C238.953 39.4844 237.312 40.1641 236.047 41.5234C234.805 42.8828 234.008 44.8281 233.656 47.3594H247.789V46.5508C247.742 44.3008 247.133 42.5664 245.961 41.3477C244.789 40.1055 243.125 39.4844 240.969 39.4844Z"/>
<path d="M284.176 59.4883C284.176 58.2461 283.555 57.2734 282.312 56.5703C281.094 55.8438 279.125 55.1992 276.406 54.6367C267.359 52.7383 262.836 48.8945 262.836 43.1055C262.836 39.7305 264.23 36.918 267.02 34.668C269.832 32.3945 273.5 31.2578 278.023 31.2578C282.852 31.2578 286.707 32.3945 289.59 34.668C292.496 36.9414 293.949 39.8945 293.949 43.5273H283.789C283.789 42.0742 283.32 40.8789 282.383 39.9414C281.445 38.9805 279.98 38.5 277.988 38.5C276.277 38.5 274.953 38.8867 274.016 39.6602C273.078 40.4336 272.609 41.418 272.609 42.6133C272.609 43.7383 273.137 44.6523 274.191 45.3555C275.27 46.0352 277.074 46.6328 279.605 47.1484C282.137 47.6406 284.27 48.2031 286.004 48.8359C291.371 50.8047 294.055 54.2148 294.055 59.0664C294.055 62.5352 292.566 65.3477 289.59 67.5039C286.613 69.6367 282.77 70.7031 278.059 70.7031C274.871 70.7031 272.035 70.1406 269.551 69.0156C267.09 67.8672 265.156 66.3086 263.75 64.3398C262.344 62.3477 261.641 60.2031 261.641 57.9062H271.273C271.367 59.7109 272.035 61.0938 273.277 62.0547C274.52 63.0156 276.184 63.4961 278.27 63.4961C280.215 63.4961 281.68 63.1328 282.664 62.4062C283.672 61.6562 284.176 60.6836 284.176 59.4883Z"/>
<path d="M312.793 22.6094V31.9609H319.297V39.4141H312.793V58.3984C312.793 59.8047 313.062 60.8125 313.602 61.4219C314.141 62.0312 315.172 62.3359 316.695 62.3359C317.82 62.3359 318.816 62.2539 319.684 62.0898V69.7891C317.691 70.3984 315.641 70.7031 313.531 70.7031C306.406 70.7031 302.773 67.1055 302.633 59.9102V39.4141H297.078V31.9609H302.633V22.6094H312.793Z"/>
<path d="M385.18 70H374.633L354.102 36.3203V70H343.555V18.8125H354.102L374.668 52.5625V18.8125H385.18V70Z"/>
<path d="M411.23 70.7031C405.652 70.7031 401.105 68.9922 397.59 65.5703C394.098 62.1484 392.352 57.5898 392.352 51.8945V50.9102C392.352 47.0898 393.09 43.6797 394.566 40.6797C396.043 37.6562 398.129 35.3359 400.824 33.7188C403.543 32.0781 406.637 31.2578 410.105 31.2578C415.309 31.2578 419.398 32.8984 422.375 36.1797C425.375 39.4609 426.875 44.1133 426.875 50.1367V54.2852H402.652C402.98 56.7695 403.965 58.7617 405.605 60.2617C407.27 61.7617 409.367 62.5117 411.898 62.5117C415.812 62.5117 418.871 61.0938 421.074 58.2578L426.066 63.8477C424.543 66.0039 422.48 67.6914 419.879 68.9102C417.277 70.1055 414.395 70.7031 411.23 70.7031ZM410.07 39.4844C408.055 39.4844 406.414 40.1641 405.148 41.5234C403.906 42.8828 403.109 44.8281 402.758 47.3594H416.891V46.5508C416.844 44.3008 416.234 42.5664 415.062 41.3477C413.891 40.1055 412.227 39.4844 410.07 39.4844Z"/>
<path d="M443.398 70H433.203V31.9609H443.398V70ZM432.605 22.1172C432.605 20.5938 433.109 19.3398 434.117 18.3555C435.148 17.3711 436.543 16.8789 438.301 16.8789C440.035 16.8789 441.418 17.3711 442.449 18.3555C443.48 19.3398 443.996 20.5938 443.996 22.1172C443.996 23.6641 443.469 24.9297 442.414 25.9141C441.383 26.8984 440.012 27.3906 438.301 27.3906C436.59 27.3906 435.207 26.8984 434.152 25.9141C433.121 24.9297 432.605 23.6641 432.605 22.1172Z"/>
<path d="M450.324 50.6992C450.324 44.8633 451.707 40.1641 454.473 36.6016C457.262 33.0391 461.012 31.2578 465.723 31.2578C469.895 31.2578 473.141 32.6875 475.461 35.5469L475.883 31.9609H485.094V68.7344C485.094 72.0625 484.332 74.957 482.809 77.418C481.309 79.8789 479.188 81.7539 476.445 83.043C473.703 84.332 470.492 84.9766 466.812 84.9766C464.023 84.9766 461.305 84.4141 458.656 83.2891C456.008 82.1875 454.004 80.7578 452.645 79L457.145 72.8125C459.676 75.6484 462.746 77.0664 466.355 77.0664C469.051 77.0664 471.148 76.3398 472.648 74.8867C474.148 73.457 474.898 71.418 474.898 68.7695V66.7305C472.555 69.3789 469.473 70.7031 465.652 70.7031C461.082 70.7031 457.379 68.9219 454.543 65.3594C451.73 61.7734 450.324 57.0273 450.324 51.1211V50.6992ZM460.484 51.4375C460.484 54.8828 461.176 57.5898 462.559 59.5586C463.941 61.5039 465.84 62.4766 468.254 62.4766C471.348 62.4766 473.562 61.3164 474.898 58.9961V43C473.539 40.6797 471.348 39.5195 468.324 39.5195C465.887 39.5195 463.965 40.5156 462.559 42.5078C461.176 44.5 460.484 47.4766 460.484 51.4375Z"/>
<path d="M502.848 36.1094C505.543 32.875 508.93 31.2578 513.008 31.2578C521.258 31.2578 525.441 36.0508 525.559 45.6367V70H515.398V45.918C515.398 43.7383 514.93 42.1328 513.992 41.1016C513.055 40.0469 511.496 39.5195 509.316 39.5195C506.34 39.5195 504.184 40.668 502.848 42.9648V70H492.688V16H502.848V36.1094Z"/>
<path d="M567.5 51.332C567.5 57.4258 566.199 62.1836 563.598 65.6055C560.996 69.0039 557.363 70.7031 552.699 70.7031C548.574 70.7031 545.281 69.1211 542.82 65.957L542.363 70H533.223V16H543.383V35.3711C545.727 32.6289 548.809 31.2578 552.629 31.2578C557.27 31.2578 560.902 32.9688 563.527 36.3906C566.176 39.7891 567.5 44.582 567.5 50.7695V51.332ZM557.34 50.5938C557.34 46.75 556.73 43.9492 555.512 42.1914C554.293 40.4102 552.477 39.5195 550.062 39.5195C546.828 39.5195 544.602 40.8438 543.383 43.4922V58.5039C544.625 61.1758 546.875 62.5117 550.133 62.5117C553.414 62.5117 555.57 60.8945 556.602 57.6602C557.094 56.1133 557.34 53.7578 557.34 50.5938Z"/>
<path d="M572.211 50.6289C572.211 46.8555 572.938 43.4922 574.391 40.5391C575.844 37.5859 577.93 35.3008 580.648 33.6836C583.391 32.0664 586.566 31.2578 590.176 31.2578C595.309 31.2578 599.492 32.8281 602.727 35.9688C605.984 39.1094 607.801 43.375 608.176 48.7656L608.246 51.3672C608.246 57.2031 606.617 61.8906 603.359 65.4297C600.102 68.9453 595.73 70.7031 590.246 70.7031C584.762 70.7031 580.379 68.9453 577.098 65.4297C573.84 61.9141 572.211 57.1328 572.211 51.0859V50.6289ZM582.371 51.3672C582.371 54.9766 583.051 57.7422 584.41 59.6641C585.77 61.5625 587.715 62.5117 590.246 62.5117C592.707 62.5117 594.629 61.5742 596.012 59.6992C597.395 57.8008 598.086 54.7773 598.086 50.6289C598.086 47.0898 597.395 44.3477 596.012 42.4023C594.629 40.457 592.684 39.4844 590.176 39.4844C587.691 39.4844 585.77 40.457 584.41 42.4023C583.051 44.3242 582.371 47.3125 582.371 51.3672Z"/>
<path d="M635.879 41.4883C634.496 41.3008 633.277 41.207 632.223 41.207C628.379 41.207 625.859 42.5078 624.664 45.1094V70H614.504V31.9609H624.102L624.383 36.4961C626.422 33.0039 629.246 31.2578 632.855 31.2578C633.98 31.2578 635.035 31.4102 636.02 31.7148L635.879 41.4883Z"/>
</mask>
<path d="M23.7031 49.4688L18.2188 55.375V70H7.67188V18.8125H18.2188V42.0156L22.8594 35.6523L35.9023 18.8125H48.875L30.6992 41.5586L49.4023 70H36.8516L23.7031 49.4688Z" stroke="#FF9E45" stroke-opacity="0.6" stroke-width="4" mask="url(#path-2-outside-1)"/>
<path d="M112.93 70H102.383L81.8516 36.3203V70H71.3047V18.8125H81.8516L102.418 52.5625V18.8125H112.93V70Z" stroke="#FF9E45" stroke-opacity="0.6" stroke-width="4" mask="url(#path-2-outside-1)"/>
<path d="M138.98 70.7031C133.402 70.7031 128.855 68.9922 125.34 65.5703C121.848 62.1484 120.102 57.5898 120.102 51.8945V50.9102C120.102 47.0898 120.84 43.6797 122.316 40.6797C123.793 37.6562 125.879 35.3359 128.574 33.7188C131.293 32.0781 134.387 31.2578 137.855 31.2578C143.059 31.2578 147.148 32.8984 150.125 36.1797C153.125 39.4609 154.625 44.1133 154.625 50.1367V54.2852H130.402C130.73 56.7695 131.715 58.7617 133.355 60.2617C135.02 61.7617 137.117 62.5117 139.648 62.5117C143.562 62.5117 146.621 61.0938 148.824 58.2578L153.816 63.8477C152.293 66.0039 150.23 67.6914 147.629 68.9102C145.027 70.1055 142.145 70.7031 138.98 70.7031ZM137.82 39.4844C135.805 39.4844 134.164 40.1641 132.898 41.5234C131.656 42.8828 130.859 44.8281 130.508 47.3594H144.641V46.5508C144.594 44.3008 143.984 42.5664 142.812 41.3477C141.641 40.1055 139.977 39.4844 137.82 39.4844Z" stroke="#FF9E45" stroke-opacity="0.6" stroke-width="4" mask="url(#path-2-outside-1)"/>
<path d="M182.469 70C182 69.0859 181.66 67.9492 181.449 66.5898C178.988 69.332 175.789 70.7031 171.852 70.7031C168.125 70.7031 165.031 69.625 162.57 67.4688C160.133 65.3125 158.914 62.5938 158.914 59.3125C158.914 55.2812 160.402 52.1875 163.379 50.0312C166.379 47.875 170.703 46.7852 176.352 46.7617H181.027V44.582C181.027 42.8242 180.57 41.418 179.656 40.3633C178.766 39.3086 177.348 38.7812 175.402 38.7812C173.691 38.7812 172.344 39.1914 171.359 40.0117C170.398 40.832 169.918 41.957 169.918 43.3867H159.758C159.758 41.1836 160.438 39.1445 161.797 37.2695C163.156 35.3945 165.078 33.9297 167.562 32.875C170.047 31.7969 172.836 31.2578 175.93 31.2578C180.617 31.2578 184.332 32.4414 187.074 34.8086C189.84 37.1523 191.223 40.457 191.223 44.7227V61.2109C191.246 64.8203 191.75 67.5508 192.734 69.4023V70H182.469ZM174.066 62.9336C175.566 62.9336 176.949 62.6055 178.215 61.9492C179.48 61.2695 180.418 60.3672 181.027 59.2422V52.7031H177.23C172.145 52.7031 169.438 54.4609 169.109 57.9766L169.074 58.5742C169.074 59.8398 169.52 60.8828 170.41 61.7031C171.301 62.5234 172.52 62.9336 174.066 62.9336Z" stroke="#FF9E45" stroke-opacity="0.6" stroke-width="4" mask="url(#path-2-outside-1)"/>
<path d="M220.402 41.4883C219.02 41.3008 217.801 41.207 216.746 41.207C212.902 41.207 210.383 42.5078 209.188 45.1094V70H199.027V31.9609H208.625L208.906 36.4961C210.945 33.0039 213.77 31.2578 217.379 31.2578C218.504 31.2578 219.559 31.4102 220.543 31.7148L220.402 41.4883Z" stroke="#FF9E45" stroke-opacity="0.6" stroke-width="4" mask="url(#path-2-outside-1)"/>
<path d="M242.129 70.7031C236.551 70.7031 232.004 68.9922 228.488 65.5703C224.996 62.1484 223.25 57.5898 223.25 51.8945V50.9102C223.25 47.0898 223.988 43.6797 225.465 40.6797C226.941 37.6562 229.027 35.3359 231.723 33.7188C234.441 32.0781 237.535 31.2578 241.004 31.2578C246.207 31.2578 250.297 32.8984 253.273 36.1797C256.273 39.4609 257.773 44.1133 257.773 50.1367V54.2852H233.551C233.879 56.7695 234.863 58.7617 236.504 60.2617C238.168 61.7617 240.266 62.5117 242.797 62.5117C246.711 62.5117 249.77 61.0938 251.973 58.2578L256.965 63.8477C255.441 66.0039 253.379 67.6914 250.777 68.9102C248.176 70.1055 245.293 70.7031 242.129 70.7031ZM240.969 39.4844C238.953 39.4844 237.312 40.1641 236.047 41.5234C234.805 42.8828 234.008 44.8281 233.656 47.3594H247.789V46.5508C247.742 44.3008 247.133 42.5664 245.961 41.3477C244.789 40.1055 243.125 39.4844 240.969 39.4844Z" stroke="#FF9E45" stroke-opacity="0.6" stroke-width="4" mask="url(#path-2-outside-1)"/>
<path d="M284.176 59.4883C284.176 58.2461 283.555 57.2734 282.312 56.5703C281.094 55.8438 279.125 55.1992 276.406 54.6367C267.359 52.7383 262.836 48.8945 262.836 43.1055C262.836 39.7305 264.23 36.918 267.02 34.668C269.832 32.3945 273.5 31.2578 278.023 31.2578C282.852 31.2578 286.707 32.3945 289.59 34.668C292.496 36.9414 293.949 39.8945 293.949 43.5273H283.789C283.789 42.0742 283.32 40.8789 282.383 39.9414C281.445 38.9805 279.98 38.5 277.988 38.5C276.277 38.5 274.953 38.8867 274.016 39.6602C273.078 40.4336 272.609 41.418 272.609 42.6133C272.609 43.7383 273.137 44.6523 274.191 45.3555C275.27 46.0352 277.074 46.6328 279.605 47.1484C282.137 47.6406 284.27 48.2031 286.004 48.8359C291.371 50.8047 294.055 54.2148 294.055 59.0664C294.055 62.5352 292.566 65.3477 289.59 67.5039C286.613 69.6367 282.77 70.7031 278.059 70.7031C274.871 70.7031 272.035 70.1406 269.551 69.0156C267.09 67.8672 265.156 66.3086 263.75 64.3398C262.344 62.3477 261.641 60.2031 261.641 57.9062H271.273C271.367 59.7109 272.035 61.0938 273.277 62.0547C274.52 63.0156 276.184 63.4961 278.27 63.4961C280.215 63.4961 281.68 63.1328 282.664 62.4062C283.672 61.6562 284.176 60.6836 284.176 59.4883Z" stroke="#FF9E45" stroke-opacity="0.6" stroke-width="4" mask="url(#path-2-outside-1)"/>
<path d="M312.793 22.6094V31.9609H319.297V39.4141H312.793V58.3984C312.793 59.8047 313.062 60.8125 313.602 61.4219C314.141 62.0312 315.172 62.3359 316.695 62.3359C317.82 62.3359 318.816 62.2539 319.684 62.0898V69.7891C317.691 70.3984 315.641 70.7031 313.531 70.7031C306.406 70.7031 302.773 67.1055 302.633 59.9102V39.4141H297.078V31.9609H302.633V22.6094H312.793Z" stroke="#FF9E45" stroke-opacity="0.6" stroke-width="4" mask="url(#path-2-outside-1)"/>
<path d="M385.18 70H374.633L354.102 36.3203V70H343.555V18.8125H354.102L374.668 52.5625V18.8125H385.18V70Z" stroke="#FF9E45" stroke-opacity="0.6" stroke-width="4" mask="url(#path-2-outside-1)"/>
<path d="M411.23 70.7031C405.652 70.7031 401.105 68.9922 397.59 65.5703C394.098 62.1484 392.352 57.5898 392.352 51.8945V50.9102C392.352 47.0898 393.09 43.6797 394.566 40.6797C396.043 37.6562 398.129 35.3359 400.824 33.7188C403.543 32.0781 406.637 31.2578 410.105 31.2578C415.309 31.2578 419.398 32.8984 422.375 36.1797C425.375 39.4609 426.875 44.1133 426.875 50.1367V54.2852H402.652C402.98 56.7695 403.965 58.7617 405.605 60.2617C407.27 61.7617 409.367 62.5117 411.898 62.5117C415.812 62.5117 418.871 61.0938 421.074 58.2578L426.066 63.8477C424.543 66.0039 422.48 67.6914 419.879 68.9102C417.277 70.1055 414.395 70.7031 411.23 70.7031ZM410.07 39.4844C408.055 39.4844 406.414 40.1641 405.148 41.5234C403.906 42.8828 403.109 44.8281 402.758 47.3594H416.891V46.5508C416.844 44.3008 416.234 42.5664 415.062 41.3477C413.891 40.1055 412.227 39.4844 410.07 39.4844Z" stroke="#FF9E45" stroke-opacity="0.6" stroke-width="4" mask="url(#path-2-outside-1)"/>
<path d="M443.398 70H433.203V31.9609H443.398V70ZM432.605 22.1172C432.605 20.5938 433.109 19.3398 434.117 18.3555C435.148 17.3711 436.543 16.8789 438.301 16.8789C440.035 16.8789 441.418 17.3711 442.449 18.3555C443.48 19.3398 443.996 20.5938 443.996 22.1172C443.996 23.6641 443.469 24.9297 442.414 25.9141C441.383 26.8984 440.012 27.3906 438.301 27.3906C436.59 27.3906 435.207 26.8984 434.152 25.9141C433.121 24.9297 432.605 23.6641 432.605 22.1172Z" stroke="#FF9E45" stroke-opacity="0.6" stroke-width="4" mask="url(#path-2-outside-1)"/>
<path d="M450.324 50.6992C450.324 44.8633 451.707 40.1641 454.473 36.6016C457.262 33.0391 461.012 31.2578 465.723 31.2578C469.895 31.2578 473.141 32.6875 475.461 35.5469L475.883 31.9609H485.094V68.7344C485.094 72.0625 484.332 74.957 482.809 77.418C481.309 79.8789 479.188 81.7539 476.445 83.043C473.703 84.332 470.492 84.9766 466.812 84.9766C464.023 84.9766 461.305 84.4141 458.656 83.2891C456.008 82.1875 454.004 80.7578 452.645 79L457.145 72.8125C459.676 75.6484 462.746 77.0664 466.355 77.0664C469.051 77.0664 471.148 76.3398 472.648 74.8867C474.148 73.457 474.898 71.418 474.898 68.7695V66.7305C472.555 69.3789 469.473 70.7031 465.652 70.7031C461.082 70.7031 457.379 68.9219 454.543 65.3594C451.73 61.7734 450.324 57.0273 450.324 51.1211V50.6992ZM460.484 51.4375C460.484 54.8828 461.176 57.5898 462.559 59.5586C463.941 61.5039 465.84 62.4766 468.254 62.4766C471.348 62.4766 473.562 61.3164 474.898 58.9961V43C473.539 40.6797 471.348 39.5195 468.324 39.5195C465.887 39.5195 463.965 40.5156 462.559 42.5078C461.176 44.5 460.484 47.4766 460.484 51.4375Z" stroke="#FF9E45" stroke-opacity="0.6" stroke-width="4" mask="url(#path-2-outside-1)"/>
<path d="M502.848 36.1094C505.543 32.875 508.93 31.2578 513.008 31.2578C521.258 31.2578 525.441 36.0508 525.559 45.6367V70H515.398V45.918C515.398 43.7383 514.93 42.1328 513.992 41.1016C513.055 40.0469 511.496 39.5195 509.316 39.5195C506.34 39.5195 504.184 40.668 502.848 42.9648V70H492.688V16H502.848V36.1094Z" stroke="#FF9E45" stroke-opacity="0.6" stroke-width="4" mask="url(#path-2-outside-1)"/>
<path d="M567.5 51.332C567.5 57.4258 566.199 62.1836 563.598 65.6055C560.996 69.0039 557.363 70.7031 552.699 70.7031C548.574 70.7031 545.281 69.1211 542.82 65.957L542.363 70H533.223V16H543.383V35.3711C545.727 32.6289 548.809 31.2578 552.629 31.2578C557.27 31.2578 560.902 32.9688 563.527 36.3906C566.176 39.7891 567.5 44.582 567.5 50.7695V51.332ZM557.34 50.5938C557.34 46.75 556.73 43.9492 555.512 42.1914C554.293 40.4102 552.477 39.5195 550.062 39.5195C546.828 39.5195 544.602 40.8438 543.383 43.4922V58.5039C544.625 61.1758 546.875 62.5117 550.133 62.5117C553.414 62.5117 555.57 60.8945 556.602 57.6602C557.094 56.1133 557.34 53.7578 557.34 50.5938Z" stroke="#FF9E45" stroke-opacity="0.6" stroke-width="4" mask="url(#path-2-outside-1)"/>
<path d="M572.211 50.6289C572.211 46.8555 572.938 43.4922 574.391 40.5391C575.844 37.5859 577.93 35.3008 580.648 33.6836C583.391 32.0664 586.566 31.2578 590.176 31.2578C595.309 31.2578 599.492 32.8281 602.727 35.9688C605.984 39.1094 607.801 43.375 608.176 48.7656L608.246 51.3672C608.246 57.2031 606.617 61.8906 603.359 65.4297C600.102 68.9453 595.73 70.7031 590.246 70.7031C584.762 70.7031 580.379 68.9453 577.098 65.4297C573.84 61.9141 572.211 57.1328 572.211 51.0859V50.6289ZM582.371 51.3672C582.371 54.9766 583.051 57.7422 584.41 59.6641C585.77 61.5625 587.715 62.5117 590.246 62.5117C592.707 62.5117 594.629 61.5742 596.012 59.6992C597.395 57.8008 598.086 54.7773 598.086 50.6289C598.086 47.0898 597.395 44.3477 596.012 42.4023C594.629 40.457 592.684 39.4844 590.176 39.4844C587.691 39.4844 585.77 40.457 584.41 42.4023C583.051 44.3242 582.371 47.3125 582.371 51.3672Z" stroke="#FF9E45" stroke-opacity="0.6" stroke-width="4" mask="url(#path-2-outside-1)"/>
<path d="M635.879 41.4883C634.496 41.3008 633.277 41.207 632.223 41.207C628.379 41.207 625.859 42.5078 624.664 45.1094V70H614.504V31.9609H624.102L624.383 36.4961C626.422 33.0039 629.246 31.2578 632.855 31.2578C633.98 31.2578 635.035 31.4102 636.02 31.7148L635.879 41.4883Z" stroke="#FF9E45" stroke-opacity="0.6" stroke-width="4" mask="url(#path-2-outside-1)"/>
<path d="M298.289 106.404C298.289 105.574 297.996 104.939 297.41 104.5C296.824 104.051 295.77 103.582 294.246 103.094C292.723 102.596 291.517 102.107 290.628 101.629C288.206 100.32 286.995 98.5576 286.995 96.3408C286.995 95.1885 287.317 94.1631 287.962 93.2646C288.616 92.3564 289.549 91.6484 290.76 91.1406C291.98 90.6328 293.348 90.3789 294.861 90.3789C296.385 90.3789 297.742 90.6572 298.934 91.2139C300.125 91.7607 301.048 92.5371 301.702 93.543C302.366 94.5488 302.698 95.6914 302.698 96.9707H298.304C298.304 95.9941 297.996 95.2373 297.381 94.7002C296.766 94.1533 295.901 93.8799 294.788 93.8799C293.714 93.8799 292.879 94.1094 292.283 94.5684C291.688 95.0176 291.39 95.6133 291.39 96.3555C291.39 97.0488 291.736 97.6299 292.43 98.0986C293.133 98.5674 294.163 99.0068 295.521 99.417C298.021 100.169 299.842 101.102 300.984 102.215C302.127 103.328 302.698 104.715 302.698 106.375C302.698 108.221 302 109.671 300.604 110.726C299.207 111.771 297.327 112.293 294.964 112.293C293.323 112.293 291.829 111.995 290.481 111.399C289.134 110.794 288.104 109.969 287.391 108.924C286.688 107.879 286.336 106.668 286.336 105.291H290.745C290.745 107.645 292.151 108.821 294.964 108.821C296.009 108.821 296.824 108.611 297.41 108.191C297.996 107.762 298.289 107.166 298.289 106.404ZM329.9 110.389C328.855 111.658 327.41 112.293 325.564 112.293C323.865 112.293 322.566 111.805 321.668 110.828C320.779 109.852 320.325 108.421 320.306 106.536V96.1504H324.539V106.39C324.539 108.04 325.291 108.865 326.795 108.865C328.23 108.865 329.217 108.367 329.754 107.371V96.1504H334.002V112H330.018L329.9 110.389ZM366.478 104.222C366.478 106.761 365.936 108.743 364.852 110.169C363.768 111.585 362.254 112.293 360.311 112.293C358.592 112.293 357.22 111.634 356.194 110.315L356.004 112H352.195V89.5H356.429V97.5713C357.405 96.4287 358.689 95.8574 360.281 95.8574C362.215 95.8574 363.729 96.5703 364.822 97.9961C365.926 99.4121 366.478 101.409 366.478 103.987V104.222ZM362.244 103.914C362.244 102.312 361.99 101.146 361.482 100.413C360.975 99.6709 360.218 99.2998 359.212 99.2998C357.864 99.2998 356.937 99.8516 356.429 100.955V107.21C356.946 108.323 357.884 108.88 359.241 108.88C360.608 108.88 361.507 108.206 361.937 106.858C362.142 106.214 362.244 105.232 362.244 103.914ZM390.691 108.88C391.473 108.88 392.107 108.665 392.596 108.235C393.084 107.806 393.338 107.234 393.357 106.521H397.327C397.317 107.596 397.024 108.582 396.448 109.48C395.872 110.369 395.081 111.062 394.075 111.561C393.079 112.049 391.976 112.293 390.765 112.293C388.499 112.293 386.712 111.575 385.403 110.14C384.095 108.694 383.44 106.702 383.44 104.163V103.885C383.44 101.443 384.09 99.4951 385.389 98.04C386.688 96.585 388.47 95.8574 390.735 95.8574C392.718 95.8574 394.305 96.4238 395.496 97.5566C396.697 98.6797 397.308 100.179 397.327 102.054H393.357C393.338 101.233 393.084 100.569 392.596 100.062C392.107 99.5439 391.463 99.2852 390.662 99.2852C389.676 99.2852 388.929 99.6465 388.421 100.369C387.923 101.082 387.674 102.244 387.674 103.855V104.295C387.674 105.926 387.923 107.098 388.421 107.811C388.919 108.523 389.676 108.88 390.691 108.88ZM422.039 112.293C419.715 112.293 417.82 111.58 416.355 110.154C414.9 108.729 414.173 106.829 414.173 104.456V104.046C414.173 102.454 414.48 101.033 415.096 99.7832C415.711 98.5234 416.58 97.5566 417.703 96.8828C418.836 96.1992 420.125 95.8574 421.57 95.8574C423.738 95.8574 425.442 96.541 426.683 97.9082C427.933 99.2754 428.558 101.214 428.558 103.724V105.452H418.465C418.602 106.487 419.012 107.317 419.695 107.942C420.389 108.567 421.263 108.88 422.317 108.88C423.948 108.88 425.223 108.289 426.141 107.107L428.221 109.437C427.586 110.335 426.727 111.038 425.643 111.546C424.559 112.044 423.357 112.293 422.039 112.293ZM421.556 99.2852C420.716 99.2852 420.032 99.5684 419.505 100.135C418.987 100.701 418.655 101.512 418.509 102.566H424.397V102.229C424.378 101.292 424.124 100.569 423.636 100.062C423.147 99.5439 422.454 99.2852 421.556 99.2852ZM450.442 112H446.194V89.5H450.442V112ZM473.411 112H469.163V89.5H473.411V112ZM501.404 110.389C500.359 111.658 498.914 112.293 497.068 112.293C495.369 112.293 494.07 111.805 493.172 110.828C492.283 109.852 491.829 108.421 491.81 106.536V96.1504H496.043V106.39C496.043 108.04 496.795 108.865 498.299 108.865C499.734 108.865 500.721 108.367 501.258 107.371V96.1504H505.506V112H501.521L501.404 110.389ZM528.167 112H523.919V89.5H528.167V112ZM555.853 112C555.657 111.619 555.516 111.146 555.428 110.579C554.402 111.722 553.069 112.293 551.429 112.293C549.876 112.293 548.587 111.844 547.562 110.945C546.546 110.047 546.038 108.914 546.038 107.547C546.038 105.867 546.658 104.578 547.898 103.68C549.148 102.781 550.95 102.327 553.304 102.317H555.252V101.409C555.252 100.677 555.062 100.091 554.681 99.6514C554.31 99.2119 553.719 98.9922 552.908 98.9922C552.195 98.9922 551.634 99.1631 551.224 99.5049C550.823 99.8467 550.623 100.315 550.623 100.911H546.39C546.39 99.9932 546.673 99.1436 547.239 98.3623C547.806 97.5811 548.606 96.9707 549.642 96.5312C550.677 96.082 551.839 95.8574 553.128 95.8574C555.081 95.8574 556.629 96.3506 557.771 97.3369C558.924 98.3135 559.5 99.6904 559.5 101.468V108.338C559.51 109.842 559.72 110.979 560.13 111.751V112H555.853ZM552.352 109.056C552.977 109.056 553.553 108.919 554.08 108.646C554.607 108.362 554.998 107.986 555.252 107.518V104.793H553.67C551.551 104.793 550.423 105.525 550.286 106.99L550.271 107.239C550.271 107.767 550.457 108.201 550.828 108.543C551.199 108.885 551.707 109.056 552.352 109.056ZM586.658 100.12C586.082 100.042 585.574 100.003 585.135 100.003C583.533 100.003 582.483 100.545 581.985 101.629V112H577.752V96.1504H581.751L581.868 98.04C582.718 96.585 583.895 95.8574 585.398 95.8574C585.867 95.8574 586.307 95.9209 586.717 96.0479L586.658 100.12ZM630.853 108.47H640.184V112H626.458V90.6719H630.853V108.47ZM656.78 103.929C656.78 102.356 657.083 100.955 657.688 99.7246C658.294 98.4941 659.163 97.542 660.296 96.8682C661.438 96.1943 662.762 95.8574 664.266 95.8574C666.404 95.8574 668.147 96.5117 669.495 97.8203C670.853 99.1289 671.609 100.906 671.766 103.152L671.795 104.236C671.795 106.668 671.116 108.621 669.759 110.096C668.401 111.561 666.58 112.293 664.295 112.293C662.01 112.293 660.184 111.561 658.816 110.096C657.459 108.631 656.78 106.639 656.78 104.119V103.929ZM661.014 104.236C661.014 105.74 661.297 106.893 661.863 107.693C662.43 108.484 663.24 108.88 664.295 108.88C665.32 108.88 666.121 108.489 666.697 107.708C667.273 106.917 667.562 105.657 667.562 103.929C667.562 102.454 667.273 101.312 666.697 100.501C666.121 99.6904 665.311 99.2852 664.266 99.2852C663.23 99.2852 662.43 99.6904 661.863 100.501C661.297 101.302 661.014 102.547 661.014 104.236ZM695.994 108.88C696.775 108.88 697.41 108.665 697.898 108.235C698.387 107.806 698.641 107.234 698.66 106.521H702.63C702.62 107.596 702.327 108.582 701.751 109.48C701.175 110.369 700.384 111.062 699.378 111.561C698.382 112.049 697.278 112.293 696.067 112.293C693.802 112.293 692.015 111.575 690.706 110.14C689.397 108.694 688.743 106.702 688.743 104.163V103.885C688.743 101.443 689.393 99.4951 690.691 98.04C691.99 96.585 693.772 95.8574 696.038 95.8574C698.021 95.8574 699.607 96.4238 700.799 97.5566C702 98.6797 702.61 100.179 702.63 102.054H698.66C698.641 101.233 698.387 100.569 697.898 100.062C697.41 99.5439 696.766 99.2852 695.965 99.2852C694.979 99.2852 694.231 99.6465 693.724 100.369C693.226 101.082 692.977 102.244 692.977 103.855V104.295C692.977 105.926 693.226 107.098 693.724 107.811C694.222 108.523 694.979 108.88 695.994 108.88ZM729.231 112C729.036 111.619 728.895 111.146 728.807 110.579C727.781 111.722 726.448 112.293 724.808 112.293C723.255 112.293 721.966 111.844 720.94 110.945C719.925 110.047 719.417 108.914 719.417 107.547C719.417 105.867 720.037 104.578 721.277 103.68C722.527 102.781 724.329 102.327 726.683 102.317H728.631V101.409C728.631 100.677 728.44 100.091 728.06 99.6514C727.688 99.2119 727.098 98.9922 726.287 98.9922C725.574 98.9922 725.013 99.1631 724.603 99.5049C724.202 99.8467 724.002 100.315 724.002 100.911H719.769C719.769 99.9932 720.052 99.1436 720.618 98.3623C721.185 97.5811 721.985 96.9707 723.021 96.5312C724.056 96.082 725.218 95.8574 726.507 95.8574C728.46 95.8574 730.008 96.3506 731.15 97.3369C732.303 98.3135 732.879 99.6904 732.879 101.468V108.338C732.889 109.842 733.099 110.979 733.509 111.751V112H729.231ZM725.73 109.056C726.355 109.056 726.932 108.919 727.459 108.646C727.986 108.362 728.377 107.986 728.631 107.518V104.793H727.049C724.93 104.793 723.802 105.525 723.665 106.99L723.65 107.239C723.65 107.767 723.836 108.201 724.207 108.543C724.578 108.885 725.086 109.056 725.73 109.056ZM755.599 112H751.351V89.5H755.599V112ZM778.567 112H774.319V96.1504H778.567V112ZM774.07 92.0488C774.07 91.4141 774.28 90.8916 774.7 90.4814C775.13 90.0713 775.711 89.8662 776.443 89.8662C777.166 89.8662 777.742 90.0713 778.172 90.4814C778.602 90.8916 778.816 91.4141 778.816 92.0488C778.816 92.6934 778.597 93.2207 778.157 93.6309C777.728 94.041 777.156 94.2461 776.443 94.2461C775.73 94.2461 775.154 94.041 774.715 93.6309C774.285 93.2207 774.07 92.6934 774.07 92.0488ZM801.932 108.587H809.681V112H796.526V109.422L803.982 99.5781H796.746V96.1504H809.446V98.6553L801.932 108.587ZM836.517 112C836.321 111.619 836.18 111.146 836.092 110.579C835.066 111.722 833.733 112.293 832.093 112.293C830.54 112.293 829.251 111.844 828.226 110.945C827.21 110.047 826.702 108.914 826.702 107.547C826.702 105.867 827.322 104.578 828.562 103.68C829.812 102.781 831.614 102.327 833.968 102.317H835.916V101.409C835.916 100.677 835.726 100.091 835.345 99.6514C834.974 99.2119 834.383 98.9922 833.572 98.9922C832.859 98.9922 832.298 99.1631 831.888 99.5049C831.487 99.8467 831.287 100.315 831.287 100.911H827.054C827.054 99.9932 827.337 99.1436 827.903 98.3623C828.47 97.5811 829.271 96.9707 830.306 96.5312C831.341 96.082 832.503 95.8574 833.792 95.8574C835.745 95.8574 837.293 96.3506 838.436 97.3369C839.588 98.3135 840.164 99.6904 840.164 101.468V108.338C840.174 109.842 840.384 110.979 840.794 111.751V112H836.517ZM833.016 109.056C833.641 109.056 834.217 108.919 834.744 108.646C835.271 108.362 835.662 107.986 835.916 107.518V104.793H834.334C832.215 104.793 831.087 105.525 830.95 106.99L830.936 107.239C830.936 107.767 831.121 108.201 831.492 108.543C831.863 108.885 832.371 109.056 833.016 109.056ZM863.484 92.2539V96.1504H866.194V99.2559H863.484V107.166C863.484 107.752 863.597 108.172 863.821 108.426C864.046 108.68 864.476 108.807 865.11 108.807C865.579 108.807 865.994 108.772 866.355 108.704V111.912C865.525 112.166 864.671 112.293 863.792 112.293C860.823 112.293 859.31 110.794 859.251 107.796V99.2559H856.937V96.1504H859.251V92.2539H863.484ZM888.021 112H883.772V96.1504H888.021V112ZM883.523 92.0488C883.523 91.4141 883.733 90.8916 884.153 90.4814C884.583 90.0713 885.164 89.8662 885.896 89.8662C886.619 89.8662 887.195 90.0713 887.625 90.4814C888.055 90.8916 888.27 91.4141 888.27 92.0488C888.27 92.6934 888.05 93.2207 887.61 93.6309C887.181 94.041 886.609 94.2461 885.896 94.2461C885.184 94.2461 884.607 94.041 884.168 93.6309C883.738 93.2207 883.523 92.6934 883.523 92.0488ZM905.862 103.929C905.862 102.356 906.165 100.955 906.771 99.7246C907.376 98.4941 908.245 97.542 909.378 96.8682C910.521 96.1943 911.844 95.8574 913.348 95.8574C915.486 95.8574 917.229 96.5117 918.577 97.8203C919.935 99.1289 920.691 100.906 920.848 103.152L920.877 104.236C920.877 106.668 920.198 108.621 918.841 110.096C917.483 111.561 915.662 112.293 913.377 112.293C911.092 112.293 909.266 111.561 907.898 110.096C906.541 108.631 905.862 106.639 905.862 104.119V103.929ZM910.096 104.236C910.096 105.74 910.379 106.893 910.945 107.693C911.512 108.484 912.322 108.88 913.377 108.88C914.402 108.88 915.203 108.489 915.779 107.708C916.355 106.917 916.644 105.657 916.644 103.929C916.644 102.454 916.355 101.312 915.779 100.501C915.203 99.6904 914.393 99.2852 913.348 99.2852C912.312 99.2852 911.512 99.6904 910.945 100.501C910.379 101.302 910.096 102.547 910.096 104.236ZM942.381 96.1504L942.513 97.9814C943.646 96.5654 945.164 95.8574 947.068 95.8574C948.748 95.8574 949.998 96.3506 950.818 97.3369C951.639 98.3232 952.059 99.7979 952.078 101.761V112H947.845V101.863C947.845 100.965 947.649 100.315 947.259 99.915C946.868 99.5049 946.219 99.2998 945.311 99.2998C944.119 99.2998 943.226 99.8076 942.63 100.823V112H938.396V96.1504H942.381Z" fill="#FF9E45"/>
</svg>
