<svg width="916" height="123" viewBox="0 0 916 123" fill="none" xmlns="http://www.w3.org/2000/svg">
<g opacity="0.6">
<mask id="path-1-outside-1" maskUnits="userSpaceOnUse" x="44.6289" y="14" width="841" height="74" fill="black">
<rect fill="white" x="44.6289" y="14" width="841" height="74"/>
<path d="M57.1758 61.5273H79.5703V70H46.6289V18.8125H57.1758V61.5273Z"/>
<path d="M83.4023 50.6289C83.4023 46.8555 84.1289 43.4922 85.582 40.5391C87.0352 37.5859 89.1211 35.3008 91.8398 33.6836C94.582 32.0664 97.7578 31.2578 101.367 31.2578C106.5 31.2578 110.684 32.8281 113.918 35.9688C117.176 39.1094 118.992 43.375 119.367 48.7656L119.438 51.3672C119.438 57.2031 117.809 61.8906 114.551 65.4297C111.293 68.9453 106.922 70.7031 101.438 70.7031C95.9531 70.7031 91.5703 68.9453 88.2891 65.4297C85.0312 61.9141 83.4023 57.1328 83.4023 51.0859V50.6289ZM93.5625 51.3672C93.5625 54.9766 94.2422 57.7422 95.6016 59.6641C96.9609 61.5625 98.9062 62.5117 101.438 62.5117C103.898 62.5117 105.82 61.5742 107.203 59.6992C108.586 57.8008 109.277 54.7773 109.277 50.6289C109.277 47.0898 108.586 44.3477 107.203 42.4023C105.82 40.457 103.875 39.4844 101.367 39.4844C98.8828 39.4844 96.9609 40.457 95.6016 42.4023C94.2422 44.3242 93.5625 47.3125 93.5625 51.3672Z"/>
<path d="M135.047 31.9609L135.363 36.3555C138.082 32.957 141.727 31.2578 146.297 31.2578C150.328 31.2578 153.328 32.4414 155.297 34.8086C157.266 37.1758 158.273 40.7148 158.32 45.4258V70H148.16V45.6719C148.16 43.5156 147.691 41.957 146.754 40.9961C145.816 40.0117 144.258 39.5195 142.078 39.5195C139.219 39.5195 137.074 40.7383 135.645 43.1758V70H125.484V31.9609H135.047Z"/>
<path d="M164.578 50.6992C164.578 44.8633 165.961 40.1641 168.727 36.6016C171.516 33.0391 175.266 31.2578 179.977 31.2578C184.148 31.2578 187.395 32.6875 189.715 35.5469L190.137 31.9609H199.348V68.7344C199.348 72.0625 198.586 74.957 197.062 77.418C195.562 79.8789 193.441 81.7539 190.699 83.043C187.957 84.332 184.746 84.9766 181.066 84.9766C178.277 84.9766 175.559 84.4141 172.91 83.2891C170.262 82.1875 168.258 80.7578 166.898 79L171.398 72.8125C173.93 75.6484 177 77.0664 180.609 77.0664C183.305 77.0664 185.402 76.3398 186.902 74.8867C188.402 73.457 189.152 71.418 189.152 68.7695V66.7305C186.809 69.3789 183.727 70.7031 179.906 70.7031C175.336 70.7031 171.633 68.9219 168.797 65.3594C165.984 61.7734 164.578 57.0273 164.578 51.1211V50.6992ZM174.738 51.4375C174.738 54.8828 175.43 57.5898 176.812 59.5586C178.195 61.5039 180.094 62.4766 182.508 62.4766C185.602 62.4766 187.816 61.3164 189.152 58.9961V43C187.793 40.6797 185.602 39.5195 182.578 39.5195C180.141 39.5195 178.219 40.5156 176.812 42.5078C175.43 44.5 174.738 47.4766 174.738 51.4375Z"/>
<path d="M252.328 56.5703C252.328 54.5781 251.625 53.0547 250.219 52C248.812 50.9219 246.281 49.7969 242.625 48.625C238.969 47.4297 236.074 46.2578 233.941 45.1094C228.129 41.9688 225.223 37.7383 225.223 32.418C225.223 29.6523 225.996 27.1914 227.543 25.0352C229.113 22.8555 231.352 21.1562 234.258 19.9375C237.188 18.7188 240.469 18.1094 244.102 18.1094C247.758 18.1094 251.016 18.7773 253.875 20.1133C256.734 21.4258 258.949 23.2891 260.52 25.7031C262.113 28.1172 262.91 30.8594 262.91 33.9297H252.363C252.363 31.5859 251.625 29.7695 250.148 28.4805C248.672 27.168 246.598 26.5117 243.926 26.5117C241.348 26.5117 239.344 27.0625 237.914 28.1641C236.484 29.2422 235.77 30.6719 235.77 32.4531C235.77 34.1172 236.602 35.5117 238.266 36.6367C239.953 37.7617 242.426 38.8164 245.684 39.8008C251.684 41.6055 256.055 43.8438 258.797 46.5156C261.539 49.1875 262.91 52.5156 262.91 56.5C262.91 60.9297 261.234 64.4102 257.883 66.9414C254.531 69.4492 250.02 70.7031 244.348 70.7031C240.41 70.7031 236.824 69.9883 233.59 68.5586C230.355 67.1055 227.883 65.125 226.172 62.6172C224.484 60.1094 223.641 57.2031 223.641 53.8984H234.223C234.223 59.5469 237.598 62.3711 244.348 62.3711C246.855 62.3711 248.812 61.8672 250.219 60.8594C251.625 59.8281 252.328 58.3984 252.328 56.5703Z"/>
<path d="M279.328 36.1094C282.023 32.875 285.41 31.2578 289.488 31.2578C297.738 31.2578 301.922 36.0508 302.039 45.6367V70H291.879V45.918C291.879 43.7383 291.41 42.1328 290.473 41.1016C289.535 40.0469 287.977 39.5195 285.797 39.5195C282.82 39.5195 280.664 40.668 279.328 42.9648V70H269.168V16H279.328V36.1094Z"/>
<path d="M308.121 50.6289C308.121 46.8555 308.848 43.4922 310.301 40.5391C311.754 37.5859 313.84 35.3008 316.559 33.6836C319.301 32.0664 322.477 31.2578 326.086 31.2578C331.219 31.2578 335.402 32.8281 338.637 35.9688C341.895 39.1094 343.711 43.375 344.086 48.7656L344.156 51.3672C344.156 57.2031 342.527 61.8906 339.27 65.4297C336.012 68.9453 331.641 70.7031 326.156 70.7031C320.672 70.7031 316.289 68.9453 313.008 65.4297C309.75 61.9141 308.121 57.1328 308.121 51.0859V50.6289ZM318.281 51.3672C318.281 54.9766 318.961 57.7422 320.32 59.6641C321.68 61.5625 323.625 62.5117 326.156 62.5117C328.617 62.5117 330.539 61.5742 331.922 59.6992C333.305 57.8008 333.996 54.7773 333.996 50.6289C333.996 47.0898 333.305 44.3477 331.922 42.4023C330.539 40.457 328.594 39.4844 326.086 39.4844C323.602 39.4844 321.68 40.457 320.32 42.4023C318.961 44.3242 318.281 47.3125 318.281 51.3672Z"/>
<path d="M371.789 41.4883C370.406 41.3008 369.188 41.207 368.133 41.207C364.289 41.207 361.77 42.5078 360.574 45.1094V70H350.414V31.9609H360.012L360.293 36.4961C362.332 33.0039 365.156 31.2578 368.766 31.2578C369.891 31.2578 370.945 31.4102 371.93 31.7148L371.789 41.4883Z"/>
<path d="M390.633 22.6094V31.9609H397.137V39.4141H390.633V58.3984C390.633 59.8047 390.902 60.8125 391.441 61.4219C391.98 62.0312 393.012 62.3359 394.535 62.3359C395.66 62.3359 396.656 62.2539 397.523 62.0898V69.7891C395.531 70.3984 393.48 70.7031 391.371 70.7031C384.246 70.7031 380.613 67.1055 380.473 59.9102V39.4141H374.918V31.9609H380.473V22.6094H390.633Z"/>
<path d="M422.555 52.1758H402.762V43.9844H422.555V52.1758Z"/>
<path d="M469.91 27.3555H454.23V70H443.684V27.3555H428.215V18.8125H469.91V27.3555Z"/>
<path d="M489.633 70.7031C484.055 70.7031 479.508 68.9922 475.992 65.5703C472.5 62.1484 470.754 57.5898 470.754 51.8945V50.9102C470.754 47.0898 471.492 43.6797 472.969 40.6797C474.445 37.6562 476.531 35.3359 479.227 33.7188C481.945 32.0781 485.039 31.2578 488.508 31.2578C493.711 31.2578 497.801 32.8984 500.777 36.1797C503.777 39.4609 505.277 44.1133 505.277 50.1367V54.2852H481.055C481.383 56.7695 482.367 58.7617 484.008 60.2617C485.672 61.7617 487.77 62.5117 490.301 62.5117C494.215 62.5117 497.273 61.0938 499.477 58.2578L504.469 63.8477C502.945 66.0039 500.883 67.6914 498.281 68.9102C495.68 70.1055 492.797 70.7031 489.633 70.7031ZM488.473 39.4844C486.457 39.4844 484.816 40.1641 483.551 41.5234C482.309 42.8828 481.512 44.8281 481.16 47.3594H495.293V46.5508C495.246 44.3008 494.637 42.5664 493.465 41.3477C492.293 40.1055 490.629 39.4844 488.473 39.4844Z"/>
<path d="M532.453 41.4883C531.07 41.3008 529.852 41.207 528.797 41.207C524.953 41.207 522.434 42.5078 521.238 45.1094V70H511.078V31.9609H520.676L520.957 36.4961C522.996 33.0039 525.82 31.2578 529.43 31.2578C530.555 31.2578 531.609 31.4102 532.594 31.7148L532.453 41.4883Z"/>
<path d="M546.902 31.9609L547.219 36.2148C549.914 32.9102 553.559 31.2578 558.152 31.2578C563.051 31.2578 566.414 33.1914 568.242 37.0586C570.914 33.1914 574.723 31.2578 579.668 31.2578C583.793 31.2578 586.863 32.4648 588.879 34.8789C590.895 37.2695 591.902 40.8789 591.902 45.707V70H581.707V45.7422C581.707 43.5859 581.285 42.0156 580.441 41.0312C579.598 40.0234 578.109 39.5195 575.977 39.5195C572.93 39.5195 570.82 40.9727 569.648 43.8789L569.684 70H559.523V45.7773C559.523 43.5742 559.09 41.9805 558.223 40.9961C557.355 40.0117 555.879 39.5195 553.793 39.5195C550.91 39.5195 548.824 40.7148 547.535 43.1055V70H537.375V31.9609H546.902Z"/>
<path d="M632.121 18.8125L645.27 55.9375L658.348 18.8125H672.199V70H661.617V56.0078L662.672 31.8555L648.855 70H641.613L627.832 31.8906L628.887 56.0078V70H618.34V18.8125H632.121Z"/>
<path d="M698.25 70.7031C692.672 70.7031 688.125 68.9922 684.609 65.5703C681.117 62.1484 679.371 57.5898 679.371 51.8945V50.9102C679.371 47.0898 680.109 43.6797 681.586 40.6797C683.062 37.6562 685.148 35.3359 687.844 33.7188C690.562 32.0781 693.656 31.2578 697.125 31.2578C702.328 31.2578 706.418 32.8984 709.395 36.1797C712.395 39.4609 713.895 44.1133 713.895 50.1367V54.2852H689.672C690 56.7695 690.984 58.7617 692.625 60.2617C694.289 61.7617 696.387 62.5117 698.918 62.5117C702.832 62.5117 705.891 61.0938 708.094 58.2578L713.086 63.8477C711.562 66.0039 709.5 67.6914 706.898 68.9102C704.297 70.1055 701.414 70.7031 698.25 70.7031ZM697.09 39.4844C695.074 39.4844 693.434 40.1641 692.168 41.5234C690.926 42.8828 690.129 44.8281 689.777 47.3594H703.91V46.5508C703.863 44.3008 703.254 42.5664 702.082 41.3477C700.91 40.1055 699.246 39.4844 697.09 39.4844Z"/>
<path d="M729.223 31.9609L729.539 36.2148C732.234 32.9102 735.879 31.2578 740.473 31.2578C745.371 31.2578 748.734 33.1914 750.562 37.0586C753.234 33.1914 757.043 31.2578 761.988 31.2578C766.113 31.2578 769.184 32.4648 771.199 34.8789C773.215 37.2695 774.223 40.8789 774.223 45.707V70H764.027V45.7422C764.027 43.5859 763.605 42.0156 762.762 41.0312C761.918 40.0234 760.43 39.5195 758.297 39.5195C755.25 39.5195 753.141 40.9727 751.969 43.8789L752.004 70H741.844V45.7773C741.844 43.5742 741.41 41.9805 740.543 40.9961C739.676 40.0117 738.199 39.5195 736.113 39.5195C733.23 39.5195 731.145 40.7148 729.855 43.1055V70H719.695V31.9609H729.223Z"/>
<path d="M780.48 50.6289C780.48 46.8555 781.207 43.4922 782.66 40.5391C784.113 37.5859 786.199 35.3008 788.918 33.6836C791.66 32.0664 794.836 31.2578 798.445 31.2578C803.578 31.2578 807.762 32.8281 810.996 35.9688C814.254 39.1094 816.07 43.375 816.445 48.7656L816.516 51.3672C816.516 57.2031 814.887 61.8906 811.629 65.4297C808.371 68.9453 804 70.7031 798.516 70.7031C793.031 70.7031 788.648 68.9453 785.367 65.4297C782.109 61.9141 780.48 57.1328 780.48 51.0859V50.6289ZM790.641 51.3672C790.641 54.9766 791.32 57.7422 792.68 59.6641C794.039 61.5625 795.984 62.5117 798.516 62.5117C800.977 62.5117 802.898 61.5742 804.281 59.6992C805.664 57.8008 806.355 54.7773 806.355 50.6289C806.355 47.0898 805.664 44.3477 804.281 42.4023C802.898 40.457 800.953 39.4844 798.445 39.4844C795.961 39.4844 794.039 40.457 792.68 42.4023C791.32 44.3242 790.641 47.3125 790.641 51.3672Z"/>
<path d="M844.148 41.4883C842.766 41.3008 841.547 41.207 840.492 41.207C836.648 41.207 834.129 42.5078 832.934 45.1094V70H822.773V31.9609H832.371L832.652 36.4961C834.691 33.0039 837.516 31.2578 841.125 31.2578C842.25 31.2578 843.305 31.4102 844.289 31.7148L844.148 41.4883Z"/>
<path d="M863.906 55.6211L870.938 31.9609H881.836L866.543 75.9062L865.699 77.9102C863.426 82.8789 859.676 85.3633 854.449 85.3633C852.973 85.3633 851.473 85.1406 849.949 84.6953V76.9961L851.496 77.0312C853.418 77.0312 854.848 76.7383 855.785 76.1523C856.746 75.5664 857.496 74.5938 858.035 73.2344L859.23 70.1055L845.906 31.9609H856.84L863.906 55.6211Z"/>
</mask>
<path d="M57.1758 61.5273H79.5703V70H46.6289V18.8125H57.1758V61.5273Z" stroke="#24AACB" stroke-width="4" mask="url(#path-1-outside-1)"/>
<path d="M83.4023 50.6289C83.4023 46.8555 84.1289 43.4922 85.582 40.5391C87.0352 37.5859 89.1211 35.3008 91.8398 33.6836C94.582 32.0664 97.7578 31.2578 101.367 31.2578C106.5 31.2578 110.684 32.8281 113.918 35.9688C117.176 39.1094 118.992 43.375 119.367 48.7656L119.438 51.3672C119.438 57.2031 117.809 61.8906 114.551 65.4297C111.293 68.9453 106.922 70.7031 101.438 70.7031C95.9531 70.7031 91.5703 68.9453 88.2891 65.4297C85.0312 61.9141 83.4023 57.1328 83.4023 51.0859V50.6289ZM93.5625 51.3672C93.5625 54.9766 94.2422 57.7422 95.6016 59.6641C96.9609 61.5625 98.9062 62.5117 101.438 62.5117C103.898 62.5117 105.82 61.5742 107.203 59.6992C108.586 57.8008 109.277 54.7773 109.277 50.6289C109.277 47.0898 108.586 44.3477 107.203 42.4023C105.82 40.457 103.875 39.4844 101.367 39.4844C98.8828 39.4844 96.9609 40.457 95.6016 42.4023C94.2422 44.3242 93.5625 47.3125 93.5625 51.3672Z" stroke="#24AACB" stroke-width="4" mask="url(#path-1-outside-1)"/>
<path d="M135.047 31.9609L135.363 36.3555C138.082 32.957 141.727 31.2578 146.297 31.2578C150.328 31.2578 153.328 32.4414 155.297 34.8086C157.266 37.1758 158.273 40.7148 158.32 45.4258V70H148.16V45.6719C148.16 43.5156 147.691 41.957 146.754 40.9961C145.816 40.0117 144.258 39.5195 142.078 39.5195C139.219 39.5195 137.074 40.7383 135.645 43.1758V70H125.484V31.9609H135.047Z" stroke="#24AACB" stroke-width="4" mask="url(#path-1-outside-1)"/>
<path d="M164.578 50.6992C164.578 44.8633 165.961 40.1641 168.727 36.6016C171.516 33.0391 175.266 31.2578 179.977 31.2578C184.148 31.2578 187.395 32.6875 189.715 35.5469L190.137 31.9609H199.348V68.7344C199.348 72.0625 198.586 74.957 197.062 77.418C195.562 79.8789 193.441 81.7539 190.699 83.043C187.957 84.332 184.746 84.9766 181.066 84.9766C178.277 84.9766 175.559 84.4141 172.91 83.2891C170.262 82.1875 168.258 80.7578 166.898 79L171.398 72.8125C173.93 75.6484 177 77.0664 180.609 77.0664C183.305 77.0664 185.402 76.3398 186.902 74.8867C188.402 73.457 189.152 71.418 189.152 68.7695V66.7305C186.809 69.3789 183.727 70.7031 179.906 70.7031C175.336 70.7031 171.633 68.9219 168.797 65.3594C165.984 61.7734 164.578 57.0273 164.578 51.1211V50.6992ZM174.738 51.4375C174.738 54.8828 175.43 57.5898 176.812 59.5586C178.195 61.5039 180.094 62.4766 182.508 62.4766C185.602 62.4766 187.816 61.3164 189.152 58.9961V43C187.793 40.6797 185.602 39.5195 182.578 39.5195C180.141 39.5195 178.219 40.5156 176.812 42.5078C175.43 44.5 174.738 47.4766 174.738 51.4375Z" stroke="#24AACB" stroke-width="4" mask="url(#path-1-outside-1)"/>
<path d="M252.328 56.5703C252.328 54.5781 251.625 53.0547 250.219 52C248.812 50.9219 246.281 49.7969 242.625 48.625C238.969 47.4297 236.074 46.2578 233.941 45.1094C228.129 41.9688 225.223 37.7383 225.223 32.418C225.223 29.6523 225.996 27.1914 227.543 25.0352C229.113 22.8555 231.352 21.1562 234.258 19.9375C237.188 18.7188 240.469 18.1094 244.102 18.1094C247.758 18.1094 251.016 18.7773 253.875 20.1133C256.734 21.4258 258.949 23.2891 260.52 25.7031C262.113 28.1172 262.91 30.8594 262.91 33.9297H252.363C252.363 31.5859 251.625 29.7695 250.148 28.4805C248.672 27.168 246.598 26.5117 243.926 26.5117C241.348 26.5117 239.344 27.0625 237.914 28.1641C236.484 29.2422 235.77 30.6719 235.77 32.4531C235.77 34.1172 236.602 35.5117 238.266 36.6367C239.953 37.7617 242.426 38.8164 245.684 39.8008C251.684 41.6055 256.055 43.8438 258.797 46.5156C261.539 49.1875 262.91 52.5156 262.91 56.5C262.91 60.9297 261.234 64.4102 257.883 66.9414C254.531 69.4492 250.02 70.7031 244.348 70.7031C240.41 70.7031 236.824 69.9883 233.59 68.5586C230.355 67.1055 227.883 65.125 226.172 62.6172C224.484 60.1094 223.641 57.2031 223.641 53.8984H234.223C234.223 59.5469 237.598 62.3711 244.348 62.3711C246.855 62.3711 248.812 61.8672 250.219 60.8594C251.625 59.8281 252.328 58.3984 252.328 56.5703Z" stroke="#24AACB" stroke-width="4" mask="url(#path-1-outside-1)"/>
<path d="M279.328 36.1094C282.023 32.875 285.41 31.2578 289.488 31.2578C297.738 31.2578 301.922 36.0508 302.039 45.6367V70H291.879V45.918C291.879 43.7383 291.41 42.1328 290.473 41.1016C289.535 40.0469 287.977 39.5195 285.797 39.5195C282.82 39.5195 280.664 40.668 279.328 42.9648V70H269.168V16H279.328V36.1094Z" stroke="#24AACB" stroke-width="4" mask="url(#path-1-outside-1)"/>
<path d="M308.121 50.6289C308.121 46.8555 308.848 43.4922 310.301 40.5391C311.754 37.5859 313.84 35.3008 316.559 33.6836C319.301 32.0664 322.477 31.2578 326.086 31.2578C331.219 31.2578 335.402 32.8281 338.637 35.9688C341.895 39.1094 343.711 43.375 344.086 48.7656L344.156 51.3672C344.156 57.2031 342.527 61.8906 339.27 65.4297C336.012 68.9453 331.641 70.7031 326.156 70.7031C320.672 70.7031 316.289 68.9453 313.008 65.4297C309.75 61.9141 308.121 57.1328 308.121 51.0859V50.6289ZM318.281 51.3672C318.281 54.9766 318.961 57.7422 320.32 59.6641C321.68 61.5625 323.625 62.5117 326.156 62.5117C328.617 62.5117 330.539 61.5742 331.922 59.6992C333.305 57.8008 333.996 54.7773 333.996 50.6289C333.996 47.0898 333.305 44.3477 331.922 42.4023C330.539 40.457 328.594 39.4844 326.086 39.4844C323.602 39.4844 321.68 40.457 320.32 42.4023C318.961 44.3242 318.281 47.3125 318.281 51.3672Z" stroke="#24AACB" stroke-width="4" mask="url(#path-1-outside-1)"/>
<path d="M371.789 41.4883C370.406 41.3008 369.188 41.207 368.133 41.207C364.289 41.207 361.77 42.5078 360.574 45.1094V70H350.414V31.9609H360.012L360.293 36.4961C362.332 33.0039 365.156 31.2578 368.766 31.2578C369.891 31.2578 370.945 31.4102 371.93 31.7148L371.789 41.4883Z" stroke="#24AACB" stroke-width="4" mask="url(#path-1-outside-1)"/>
<path d="M390.633 22.6094V31.9609H397.137V39.4141H390.633V58.3984C390.633 59.8047 390.902 60.8125 391.441 61.4219C391.98 62.0312 393.012 62.3359 394.535 62.3359C395.66 62.3359 396.656 62.2539 397.523 62.0898V69.7891C395.531 70.3984 393.48 70.7031 391.371 70.7031C384.246 70.7031 380.613 67.1055 380.473 59.9102V39.4141H374.918V31.9609H380.473V22.6094H390.633Z" stroke="#24AACB" stroke-width="4" mask="url(#path-1-outside-1)"/>
<path d="M422.555 52.1758H402.762V43.9844H422.555V52.1758Z" stroke="#24AACB" stroke-width="4" mask="url(#path-1-outside-1)"/>
<path d="M469.91 27.3555H454.23V70H443.684V27.3555H428.215V18.8125H469.91V27.3555Z" stroke="#24AACB" stroke-width="4" mask="url(#path-1-outside-1)"/>
<path d="M489.633 70.7031C484.055 70.7031 479.508 68.9922 475.992 65.5703C472.5 62.1484 470.754 57.5898 470.754 51.8945V50.9102C470.754 47.0898 471.492 43.6797 472.969 40.6797C474.445 37.6562 476.531 35.3359 479.227 33.7188C481.945 32.0781 485.039 31.2578 488.508 31.2578C493.711 31.2578 497.801 32.8984 500.777 36.1797C503.777 39.4609 505.277 44.1133 505.277 50.1367V54.2852H481.055C481.383 56.7695 482.367 58.7617 484.008 60.2617C485.672 61.7617 487.77 62.5117 490.301 62.5117C494.215 62.5117 497.273 61.0938 499.477 58.2578L504.469 63.8477C502.945 66.0039 500.883 67.6914 498.281 68.9102C495.68 70.1055 492.797 70.7031 489.633 70.7031ZM488.473 39.4844C486.457 39.4844 484.816 40.1641 483.551 41.5234C482.309 42.8828 481.512 44.8281 481.16 47.3594H495.293V46.5508C495.246 44.3008 494.637 42.5664 493.465 41.3477C492.293 40.1055 490.629 39.4844 488.473 39.4844Z" stroke="#24AACB" stroke-width="4" mask="url(#path-1-outside-1)"/>
<path d="M532.453 41.4883C531.07 41.3008 529.852 41.207 528.797 41.207C524.953 41.207 522.434 42.5078 521.238 45.1094V70H511.078V31.9609H520.676L520.957 36.4961C522.996 33.0039 525.82 31.2578 529.43 31.2578C530.555 31.2578 531.609 31.4102 532.594 31.7148L532.453 41.4883Z" stroke="#24AACB" stroke-width="4" mask="url(#path-1-outside-1)"/>
<path d="M546.902 31.9609L547.219 36.2148C549.914 32.9102 553.559 31.2578 558.152 31.2578C563.051 31.2578 566.414 33.1914 568.242 37.0586C570.914 33.1914 574.723 31.2578 579.668 31.2578C583.793 31.2578 586.863 32.4648 588.879 34.8789C590.895 37.2695 591.902 40.8789 591.902 45.707V70H581.707V45.7422C581.707 43.5859 581.285 42.0156 580.441 41.0312C579.598 40.0234 578.109 39.5195 575.977 39.5195C572.93 39.5195 570.82 40.9727 569.648 43.8789L569.684 70H559.523V45.7773C559.523 43.5742 559.09 41.9805 558.223 40.9961C557.355 40.0117 555.879 39.5195 553.793 39.5195C550.91 39.5195 548.824 40.7148 547.535 43.1055V70H537.375V31.9609H546.902Z" stroke="#24AACB" stroke-width="4" mask="url(#path-1-outside-1)"/>
<path d="M632.121 18.8125L645.27 55.9375L658.348 18.8125H672.199V70H661.617V56.0078L662.672 31.8555L648.855 70H641.613L627.832 31.8906L628.887 56.0078V70H618.34V18.8125H632.121Z" stroke="#24AACB" stroke-width="4" mask="url(#path-1-outside-1)"/>
<path d="M698.25 70.7031C692.672 70.7031 688.125 68.9922 684.609 65.5703C681.117 62.1484 679.371 57.5898 679.371 51.8945V50.9102C679.371 47.0898 680.109 43.6797 681.586 40.6797C683.062 37.6562 685.148 35.3359 687.844 33.7188C690.562 32.0781 693.656 31.2578 697.125 31.2578C702.328 31.2578 706.418 32.8984 709.395 36.1797C712.395 39.4609 713.895 44.1133 713.895 50.1367V54.2852H689.672C690 56.7695 690.984 58.7617 692.625 60.2617C694.289 61.7617 696.387 62.5117 698.918 62.5117C702.832 62.5117 705.891 61.0938 708.094 58.2578L713.086 63.8477C711.562 66.0039 709.5 67.6914 706.898 68.9102C704.297 70.1055 701.414 70.7031 698.25 70.7031ZM697.09 39.4844C695.074 39.4844 693.434 40.1641 692.168 41.5234C690.926 42.8828 690.129 44.8281 689.777 47.3594H703.91V46.5508C703.863 44.3008 703.254 42.5664 702.082 41.3477C700.91 40.1055 699.246 39.4844 697.09 39.4844Z" stroke="#24AACB" stroke-width="4" mask="url(#path-1-outside-1)"/>
<path d="M729.223 31.9609L729.539 36.2148C732.234 32.9102 735.879 31.2578 740.473 31.2578C745.371 31.2578 748.734 33.1914 750.562 37.0586C753.234 33.1914 757.043 31.2578 761.988 31.2578C766.113 31.2578 769.184 32.4648 771.199 34.8789C773.215 37.2695 774.223 40.8789 774.223 45.707V70H764.027V45.7422C764.027 43.5859 763.605 42.0156 762.762 41.0312C761.918 40.0234 760.43 39.5195 758.297 39.5195C755.25 39.5195 753.141 40.9727 751.969 43.8789L752.004 70H741.844V45.7773C741.844 43.5742 741.41 41.9805 740.543 40.9961C739.676 40.0117 738.199 39.5195 736.113 39.5195C733.23 39.5195 731.145 40.7148 729.855 43.1055V70H719.695V31.9609H729.223Z" stroke="#24AACB" stroke-width="4" mask="url(#path-1-outside-1)"/>
<path d="M780.48 50.6289C780.48 46.8555 781.207 43.4922 782.66 40.5391C784.113 37.5859 786.199 35.3008 788.918 33.6836C791.66 32.0664 794.836 31.2578 798.445 31.2578C803.578 31.2578 807.762 32.8281 810.996 35.9688C814.254 39.1094 816.07 43.375 816.445 48.7656L816.516 51.3672C816.516 57.2031 814.887 61.8906 811.629 65.4297C808.371 68.9453 804 70.7031 798.516 70.7031C793.031 70.7031 788.648 68.9453 785.367 65.4297C782.109 61.9141 780.48 57.1328 780.48 51.0859V50.6289ZM790.641 51.3672C790.641 54.9766 791.32 57.7422 792.68 59.6641C794.039 61.5625 795.984 62.5117 798.516 62.5117C800.977 62.5117 802.898 61.5742 804.281 59.6992C805.664 57.8008 806.355 54.7773 806.355 50.6289C806.355 47.0898 805.664 44.3477 804.281 42.4023C802.898 40.457 800.953 39.4844 798.445 39.4844C795.961 39.4844 794.039 40.457 792.68 42.4023C791.32 44.3242 790.641 47.3125 790.641 51.3672Z" stroke="#24AACB" stroke-width="4" mask="url(#path-1-outside-1)"/>
<path d="M844.148 41.4883C842.766 41.3008 841.547 41.207 840.492 41.207C836.648 41.207 834.129 42.5078 832.934 45.1094V70H822.773V31.9609H832.371L832.652 36.4961C834.691 33.0039 837.516 31.2578 841.125 31.2578C842.25 31.2578 843.305 31.4102 844.289 31.7148L844.148 41.4883Z" stroke="#24AACB" stroke-width="4" mask="url(#path-1-outside-1)"/>
<path d="M863.906 55.6211L870.938 31.9609H881.836L866.543 75.9062L865.699 77.9102C863.426 82.8789 859.676 85.3633 854.449 85.3633C852.973 85.3633 851.473 85.1406 849.949 84.6953V76.9961L851.496 77.0312C853.418 77.0312 854.848 76.7383 855.785 76.1523C856.746 75.5664 857.496 74.5938 858.035 73.2344L859.23 70.1055L845.906 31.9609H856.84L863.906 55.6211Z" stroke="#24AACB" stroke-width="4" mask="url(#path-1-outside-1)"/>
</g>
<path d="M53.1758 58.5273H75.5703V67H42.6289V15.8125H53.1758V58.5273ZM79.4023 47.6289C79.4023 43.8555 80.1289 40.4922 81.582 37.5391C83.0352 34.5859 85.1211 32.3008 87.8398 30.6836C90.582 29.0664 93.7578 28.2578 97.3672 28.2578C102.5 28.2578 106.684 29.8281 109.918 32.9688C113.176 36.1094 114.992 40.375 115.367 45.7656L115.438 48.3672C115.438 54.2031 113.809 58.8906 110.551 62.4297C107.293 65.9453 102.922 67.7031 97.4375 67.7031C91.9531 67.7031 87.5703 65.9453 84.2891 62.4297C81.0312 58.9141 79.4023 54.1328 79.4023 48.0859V47.6289ZM89.5625 48.3672C89.5625 51.9766 90.2422 54.7422 91.6016 56.6641C92.9609 58.5625 94.9062 59.5117 97.4375 59.5117C99.8984 59.5117 101.82 58.5742 103.203 56.6992C104.586 54.8008 105.277 51.7773 105.277 47.6289C105.277 44.0898 104.586 41.3477 103.203 39.4023C101.82 37.457 99.875 36.4844 97.3672 36.4844C94.8828 36.4844 92.9609 37.457 91.6016 39.4023C90.2422 41.3242 89.5625 44.3125 89.5625 48.3672ZM131.047 28.9609L131.363 33.3555C134.082 29.957 137.727 28.2578 142.297 28.2578C146.328 28.2578 149.328 29.4414 151.297 31.8086C153.266 34.1758 154.273 37.7148 154.32 42.4258V67H144.16V42.6719C144.16 40.5156 143.691 38.957 142.754 37.9961C141.816 37.0117 140.258 36.5195 138.078 36.5195C135.219 36.5195 133.074 37.7383 131.645 40.1758V67H121.484V28.9609H131.047ZM160.578 47.6992C160.578 41.8633 161.961 37.1641 164.727 33.6016C167.516 30.0391 171.266 28.2578 175.977 28.2578C180.148 28.2578 183.395 29.6875 185.715 32.5469L186.137 28.9609H195.348V65.7344C195.348 69.0625 194.586 71.957 193.062 74.418C191.562 76.8789 189.441 78.7539 186.699 80.043C183.957 81.332 180.746 81.9766 177.066 81.9766C174.277 81.9766 171.559 81.4141 168.91 80.2891C166.262 79.1875 164.258 77.7578 162.898 76L167.398 69.8125C169.93 72.6484 173 74.0664 176.609 74.0664C179.305 74.0664 181.402 73.3398 182.902 71.8867C184.402 70.457 185.152 68.418 185.152 65.7695V63.7305C182.809 66.3789 179.727 67.7031 175.906 67.7031C171.336 67.7031 167.633 65.9219 164.797 62.3594C161.984 58.7734 160.578 54.0273 160.578 48.1211V47.6992ZM170.738 48.4375C170.738 51.8828 171.43 54.5898 172.812 56.5586C174.195 58.5039 176.094 59.4766 178.508 59.4766C181.602 59.4766 183.816 58.3164 185.152 55.9961V40C183.793 37.6797 181.602 36.5195 178.578 36.5195C176.141 36.5195 174.219 37.5156 172.812 39.5078C171.43 41.5 170.738 44.4766 170.738 48.4375ZM248.328 53.5703C248.328 51.5781 247.625 50.0547 246.219 49C244.812 47.9219 242.281 46.7969 238.625 45.625C234.969 44.4297 232.074 43.2578 229.941 42.1094C224.129 38.9688 221.223 34.7383 221.223 29.418C221.223 26.6523 221.996 24.1914 223.543 22.0352C225.113 19.8555 227.352 18.1563 230.258 16.9375C233.188 15.7187 236.469 15.1094 240.102 15.1094C243.758 15.1094 247.016 15.7773 249.875 17.1133C252.734 18.4258 254.949 20.2891 256.52 22.7031C258.113 25.1172 258.91 27.8594 258.91 30.9297H248.363C248.363 28.5859 247.625 26.7695 246.148 25.4805C244.672 24.168 242.598 23.5117 239.926 23.5117C237.348 23.5117 235.344 24.0625 233.914 25.1641C232.484 26.2422 231.77 27.6719 231.77 29.4531C231.77 31.1172 232.602 32.5117 234.266 33.6367C235.953 34.7617 238.426 35.8164 241.684 36.8008C247.684 38.6055 252.055 40.8438 254.797 43.5156C257.539 46.1875 258.91 49.5156 258.91 53.5C258.91 57.9297 257.234 61.4102 253.883 63.9414C250.531 66.4492 246.02 67.7031 240.348 67.7031C236.41 67.7031 232.824 66.9883 229.59 65.5586C226.355 64.1055 223.883 62.125 222.172 59.6172C220.484 57.1094 219.641 54.2031 219.641 50.8984H230.223C230.223 56.5469 233.598 59.3711 240.348 59.3711C242.855 59.3711 244.812 58.8672 246.219 57.8594C247.625 56.8281 248.328 55.3984 248.328 53.5703ZM275.328 33.1094C278.023 29.875 281.41 28.2578 285.488 28.2578C293.738 28.2578 297.922 33.0508 298.039 42.6367V67H287.879V42.918C287.879 40.7383 287.41 39.1328 286.473 38.1016C285.535 37.0469 283.977 36.5195 281.797 36.5195C278.82 36.5195 276.664 37.668 275.328 39.9648V67H265.168V13H275.328V33.1094ZM304.121 47.6289C304.121 43.8555 304.848 40.4922 306.301 37.5391C307.754 34.5859 309.84 32.3008 312.559 30.6836C315.301 29.0664 318.477 28.2578 322.086 28.2578C327.219 28.2578 331.402 29.8281 334.637 32.9688C337.895 36.1094 339.711 40.375 340.086 45.7656L340.156 48.3672C340.156 54.2031 338.527 58.8906 335.27 62.4297C332.012 65.9453 327.641 67.7031 322.156 67.7031C316.672 67.7031 312.289 65.9453 309.008 62.4297C305.75 58.9141 304.121 54.1328 304.121 48.0859V47.6289ZM314.281 48.3672C314.281 51.9766 314.961 54.7422 316.32 56.6641C317.68 58.5625 319.625 59.5117 322.156 59.5117C324.617 59.5117 326.539 58.5742 327.922 56.6992C329.305 54.8008 329.996 51.7773 329.996 47.6289C329.996 44.0898 329.305 41.3477 327.922 39.4023C326.539 37.457 324.594 36.4844 322.086 36.4844C319.602 36.4844 317.68 37.457 316.32 39.4023C314.961 41.3242 314.281 44.3125 314.281 48.3672ZM367.789 38.4883C366.406 38.3008 365.188 38.207 364.133 38.207C360.289 38.207 357.77 39.5078 356.574 42.1094V67H346.414V28.9609H356.012L356.293 33.4961C358.332 30.0039 361.156 28.2578 364.766 28.2578C365.891 28.2578 366.945 28.4102 367.93 28.7148L367.789 38.4883ZM386.633 19.6094V28.9609H393.137V36.4141H386.633V55.3984C386.633 56.8047 386.902 57.8125 387.441 58.4219C387.98 59.0312 389.012 59.3359 390.535 59.3359C391.66 59.3359 392.656 59.2539 393.523 59.0898V66.7891C391.531 67.3984 389.48 67.7031 387.371 67.7031C380.246 67.7031 376.613 64.1055 376.473 56.9102V36.4141H370.918V28.9609H376.473V19.6094H386.633ZM418.555 49.1758H398.762V40.9844H418.555V49.1758ZM465.91 24.3555H450.23V67H439.684V24.3555H424.215V15.8125H465.91V24.3555ZM485.633 67.7031C480.055 67.7031 475.508 65.9922 471.992 62.5703C468.5 59.1484 466.754 54.5898 466.754 48.8945V47.9102C466.754 44.0898 467.492 40.6797 468.969 37.6797C470.445 34.6562 472.531 32.3359 475.227 30.7188C477.945 29.0781 481.039 28.2578 484.508 28.2578C489.711 28.2578 493.801 29.8984 496.777 33.1797C499.777 36.4609 501.277 41.1133 501.277 47.1367V51.2852H477.055C477.383 53.7695 478.367 55.7617 480.008 57.2617C481.672 58.7617 483.77 59.5117 486.301 59.5117C490.215 59.5117 493.273 58.0938 495.477 55.2578L500.469 60.8477C498.945 63.0039 496.883 64.6914 494.281 65.9102C491.68 67.1055 488.797 67.7031 485.633 67.7031ZM484.473 36.4844C482.457 36.4844 480.816 37.1641 479.551 38.5234C478.309 39.8828 477.512 41.8281 477.16 44.3594H491.293V43.5508C491.246 41.3008 490.637 39.5664 489.465 38.3477C488.293 37.1055 486.629 36.4844 484.473 36.4844ZM528.453 38.4883C527.07 38.3008 525.852 38.207 524.797 38.207C520.953 38.207 518.434 39.5078 517.238 42.1094V67H507.078V28.9609H516.676L516.957 33.4961C518.996 30.0039 521.82 28.2578 525.43 28.2578C526.555 28.2578 527.609 28.4102 528.594 28.7148L528.453 38.4883ZM542.902 28.9609L543.219 33.2148C545.914 29.9102 549.559 28.2578 554.152 28.2578C559.051 28.2578 562.414 30.1914 564.242 34.0586C566.914 30.1914 570.723 28.2578 575.668 28.2578C579.793 28.2578 582.863 29.4648 584.879 31.8789C586.895 34.2695 587.902 37.8789 587.902 42.707V67H577.707V42.7422C577.707 40.5859 577.285 39.0156 576.441 38.0312C575.598 37.0234 574.109 36.5195 571.977 36.5195C568.93 36.5195 566.82 37.9727 565.648 40.8789L565.684 67H555.523V42.7773C555.523 40.5742 555.09 38.9805 554.223 37.9961C553.355 37.0117 551.879 36.5195 549.793 36.5195C546.91 36.5195 544.824 37.7148 543.535 40.1055V67H533.375V28.9609H542.902ZM628.121 15.8125L641.27 52.9375L654.348 15.8125H668.199V67H657.617V53.0078L658.672 28.8555L644.855 67H637.613L623.832 28.8906L624.887 53.0078V67H614.34V15.8125H628.121ZM694.25 67.7031C688.672 67.7031 684.125 65.9922 680.609 62.5703C677.117 59.1484 675.371 54.5898 675.371 48.8945V47.9102C675.371 44.0898 676.109 40.6797 677.586 37.6797C679.062 34.6562 681.148 32.3359 683.844 30.7188C686.562 29.0781 689.656 28.2578 693.125 28.2578C698.328 28.2578 702.418 29.8984 705.395 33.1797C708.395 36.4609 709.895 41.1133 709.895 47.1367V51.2852H685.672C686 53.7695 686.984 55.7617 688.625 57.2617C690.289 58.7617 692.387 59.5117 694.918 59.5117C698.832 59.5117 701.891 58.0938 704.094 55.2578L709.086 60.8477C707.562 63.0039 705.5 64.6914 702.898 65.9102C700.297 67.1055 697.414 67.7031 694.25 67.7031ZM693.09 36.4844C691.074 36.4844 689.434 37.1641 688.168 38.5234C686.926 39.8828 686.129 41.8281 685.777 44.3594H699.91V43.5508C699.863 41.3008 699.254 39.5664 698.082 38.3477C696.91 37.1055 695.246 36.4844 693.09 36.4844ZM725.223 28.9609L725.539 33.2148C728.234 29.9102 731.879 28.2578 736.473 28.2578C741.371 28.2578 744.734 30.1914 746.562 34.0586C749.234 30.1914 753.043 28.2578 757.988 28.2578C762.113 28.2578 765.184 29.4648 767.199 31.8789C769.215 34.2695 770.223 37.8789 770.223 42.707V67H760.027V42.7422C760.027 40.5859 759.605 39.0156 758.762 38.0312C757.918 37.0234 756.43 36.5195 754.297 36.5195C751.25 36.5195 749.141 37.9727 747.969 40.8789L748.004 67H737.844V42.7773C737.844 40.5742 737.41 38.9805 736.543 37.9961C735.676 37.0117 734.199 36.5195 732.113 36.5195C729.23 36.5195 727.145 37.7148 725.855 40.1055V67H715.695V28.9609H725.223ZM776.48 47.6289C776.48 43.8555 777.207 40.4922 778.66 37.5391C780.113 34.5859 782.199 32.3008 784.918 30.6836C787.66 29.0664 790.836 28.2578 794.445 28.2578C799.578 28.2578 803.762 29.8281 806.996 32.9688C810.254 36.1094 812.07 40.375 812.445 45.7656L812.516 48.3672C812.516 54.2031 810.887 58.8906 807.629 62.4297C804.371 65.9453 800 67.7031 794.516 67.7031C789.031 67.7031 784.648 65.9453 781.367 62.4297C778.109 58.9141 776.48 54.1328 776.48 48.0859V47.6289ZM786.641 48.3672C786.641 51.9766 787.32 54.7422 788.68 56.6641C790.039 58.5625 791.984 59.5117 794.516 59.5117C796.977 59.5117 798.898 58.5742 800.281 56.6992C801.664 54.8008 802.355 51.7773 802.355 47.6289C802.355 44.0898 801.664 41.3477 800.281 39.4023C798.898 37.457 796.953 36.4844 794.445 36.4844C791.961 36.4844 790.039 37.457 788.68 39.4023C787.32 41.3242 786.641 44.3125 786.641 48.3672ZM840.148 38.4883C838.766 38.3008 837.547 38.207 836.492 38.207C832.648 38.207 830.129 39.5078 828.934 42.1094V67H818.773V28.9609H828.371L828.652 33.4961C830.691 30.0039 833.516 28.2578 837.125 28.2578C838.25 28.2578 839.305 28.4102 840.289 28.7148L840.148 38.4883ZM859.906 52.6211L866.938 28.9609H877.836L862.543 72.9062L861.699 74.9102C859.426 79.8789 855.676 82.3633 850.449 82.3633C848.973 82.3633 847.473 82.1406 845.949 81.6953V73.9961L847.496 74.0312C849.418 74.0312 850.848 73.7383 851.785 73.1523C852.746 72.5664 853.496 71.5938 854.035 70.2344L855.23 67.1055L841.906 28.9609H852.84L859.906 52.6211Z" fill="#24AACB"/>
<path d="M233.31 97.2314H226.776V115H222.382V97.2314H215.937V93.6719H233.31V97.2314ZM258.49 103.12C257.914 103.042 257.406 103.003 256.967 103.003C255.365 103.003 254.315 103.545 253.817 104.629V115H249.584V99.1504H253.583L253.7 101.04C254.55 99.585 255.727 98.8574 257.23 98.8574C257.699 98.8574 258.139 98.9209 258.549 99.0479L258.49 103.12ZM284.286 115C284.091 114.619 283.949 114.146 283.861 113.579C282.836 114.722 281.503 115.293 279.862 115.293C278.31 115.293 277.021 114.844 275.995 113.945C274.979 113.047 274.472 111.914 274.472 110.547C274.472 108.867 275.092 107.578 276.332 106.68C277.582 105.781 279.384 105.327 281.737 105.317H283.686V104.409C283.686 103.677 283.495 103.091 283.114 102.651C282.743 102.212 282.152 101.992 281.342 101.992C280.629 101.992 280.067 102.163 279.657 102.505C279.257 102.847 279.057 103.315 279.057 103.911H274.823C274.823 102.993 275.106 102.144 275.673 101.362C276.239 100.581 277.04 99.9707 278.075 99.5312C279.11 99.082 280.272 98.8574 281.562 98.8574C283.515 98.8574 285.062 99.3506 286.205 100.337C287.357 101.313 287.934 102.69 287.934 104.468V111.338C287.943 112.842 288.153 113.979 288.563 114.751V115H284.286ZM280.785 112.056C281.41 112.056 281.986 111.919 282.514 111.646C283.041 111.362 283.432 110.986 283.686 110.518V107.793H282.104C279.984 107.793 278.856 108.525 278.72 109.99L278.705 110.239C278.705 110.767 278.891 111.201 279.262 111.543C279.633 111.885 280.141 112.056 280.785 112.056ZM310.082 99.1504L310.214 100.981C311.347 99.5654 312.865 98.8574 314.77 98.8574C316.449 98.8574 317.699 99.3506 318.52 100.337C319.34 101.323 319.76 102.798 319.779 104.761V115H315.546V104.863C315.546 103.965 315.351 103.315 314.96 102.915C314.569 102.505 313.92 102.3 313.012 102.3C311.82 102.3 310.927 102.808 310.331 103.823V115H306.098V99.1504H310.082ZM346.586 110.62C346.586 110.103 346.327 109.697 345.81 109.404C345.302 109.102 344.481 108.833 343.349 108.599C339.579 107.808 337.694 106.206 337.694 103.794C337.694 102.388 338.275 101.216 339.438 100.278C340.609 99.3311 342.138 98.8574 344.022 98.8574C346.034 98.8574 347.641 99.3311 348.842 100.278C350.053 101.226 350.658 102.456 350.658 103.97H346.425C346.425 103.364 346.229 102.866 345.839 102.476C345.448 102.075 344.838 101.875 344.008 101.875C343.295 101.875 342.743 102.036 342.353 102.358C341.962 102.681 341.767 103.091 341.767 103.589C341.767 104.058 341.986 104.438 342.426 104.731C342.875 105.015 343.627 105.264 344.682 105.479C345.736 105.684 346.625 105.918 347.348 106.182C349.584 107.002 350.702 108.423 350.702 110.444C350.702 111.89 350.082 113.062 348.842 113.96C347.602 114.849 346 115.293 344.037 115.293C342.709 115.293 341.527 115.059 340.492 114.59C339.467 114.111 338.661 113.462 338.075 112.642C337.489 111.812 337.196 110.918 337.196 109.961H341.21C341.249 110.713 341.527 111.289 342.045 111.689C342.562 112.09 343.256 112.29 344.125 112.29C344.936 112.29 345.546 112.139 345.956 111.836C346.376 111.523 346.586 111.118 346.586 110.62ZM372.411 99.1504L372.543 100.923C373.666 99.5459 375.185 98.8574 377.099 98.8574C379.14 98.8574 380.541 99.6631 381.303 101.274C382.416 99.6631 384.003 98.8574 386.063 98.8574C387.782 98.8574 389.062 99.3604 389.901 100.366C390.741 101.362 391.161 102.866 391.161 104.878V115H386.913V104.893C386.913 103.994 386.737 103.34 386.386 102.93C386.034 102.51 385.414 102.3 384.525 102.3C383.256 102.3 382.377 102.905 381.889 104.116L381.903 115H377.67V104.907C377.67 103.989 377.489 103.325 377.128 102.915C376.767 102.505 376.151 102.3 375.282 102.3C374.081 102.3 373.212 102.798 372.675 103.794V115H368.441V99.1504H372.411ZM416.723 115.293C414.398 115.293 412.504 114.58 411.039 113.154C409.584 111.729 408.856 109.829 408.856 107.456V107.046C408.856 105.454 409.164 104.033 409.779 102.783C410.395 101.523 411.264 100.557 412.387 99.8828C413.52 99.1992 414.809 98.8574 416.254 98.8574C418.422 98.8574 420.126 99.541 421.366 100.908C422.616 102.275 423.241 104.214 423.241 106.724V108.452H413.148C413.285 109.487 413.695 110.317 414.379 110.942C415.072 111.567 415.946 111.88 417.001 111.88C418.632 111.88 419.906 111.289 420.824 110.107L422.904 112.437C422.27 113.335 421.41 114.038 420.326 114.546C419.242 115.044 418.041 115.293 416.723 115.293ZM416.239 102.285C415.399 102.285 414.716 102.568 414.188 103.135C413.671 103.701 413.339 104.512 413.192 105.566H419.081V105.229C419.062 104.292 418.808 103.569 418.319 103.062C417.831 102.544 417.138 102.285 416.239 102.285ZM444.628 99.1504L444.76 100.923C445.883 99.5459 447.401 98.8574 449.315 98.8574C451.356 98.8574 452.758 99.6631 453.52 101.274C454.633 99.6631 456.22 98.8574 458.28 98.8574C459.999 98.8574 461.278 99.3604 462.118 100.366C462.958 101.362 463.378 102.866 463.378 104.878V115H459.13V104.893C459.13 103.994 458.954 103.34 458.603 102.93C458.251 102.51 457.631 102.3 456.742 102.3C455.473 102.3 454.594 102.905 454.105 104.116L454.12 115H449.887V104.907C449.887 103.989 449.706 103.325 449.345 102.915C448.983 102.505 448.368 102.3 447.499 102.3C446.298 102.3 445.429 102.798 444.892 103.794V115H440.658V99.1504H444.628ZM495.927 107.222C495.927 109.761 495.385 111.743 494.301 113.169C493.217 114.585 491.703 115.293 489.76 115.293C488.041 115.293 486.669 114.634 485.644 113.315L485.453 115H481.645V92.5H485.878V100.571C486.854 99.4287 488.139 98.8574 489.73 98.8574C491.664 98.8574 493.178 99.5703 494.271 100.996C495.375 102.412 495.927 104.409 495.927 106.987V107.222ZM491.693 106.914C491.693 105.312 491.439 104.146 490.932 103.413C490.424 102.671 489.667 102.3 488.661 102.3C487.313 102.3 486.386 102.852 485.878 103.955V110.21C486.396 111.323 487.333 111.88 488.69 111.88C490.058 111.88 490.956 111.206 491.386 109.858C491.591 109.214 491.693 108.232 491.693 106.914ZM522.455 103.12C521.879 103.042 521.371 103.003 520.932 103.003C519.33 103.003 518.28 103.545 517.782 104.629V115H513.549V99.1504H517.548L517.665 101.04C518.515 99.585 519.691 98.8574 521.195 98.8574C521.664 98.8574 522.104 98.9209 522.514 99.0479L522.455 103.12ZM548.251 115C548.056 114.619 547.914 114.146 547.826 113.579C546.801 114.722 545.468 115.293 543.827 115.293C542.274 115.293 540.985 114.844 539.96 113.945C538.944 113.047 538.437 111.914 538.437 110.547C538.437 108.867 539.057 107.578 540.297 106.68C541.547 105.781 543.349 105.327 545.702 105.317H547.65V104.409C547.65 103.677 547.46 103.091 547.079 102.651C546.708 102.212 546.117 101.992 545.307 101.992C544.594 101.992 544.032 102.163 543.622 102.505C543.222 102.847 543.021 103.315 543.021 103.911H538.788C538.788 102.993 539.071 102.144 539.638 101.362C540.204 100.581 541.005 99.9707 542.04 99.5312C543.075 99.082 544.237 98.8574 545.526 98.8574C547.479 98.8574 549.027 99.3506 550.17 100.337C551.322 101.313 551.898 102.69 551.898 104.468V111.338C551.908 112.842 552.118 113.979 552.528 114.751V115H548.251ZM544.75 112.056C545.375 112.056 545.951 111.919 546.479 111.646C547.006 111.362 547.396 110.986 547.65 110.518V107.793H546.068C543.949 107.793 542.821 108.525 542.685 109.99L542.67 110.239C542.67 110.767 542.855 111.201 543.227 111.543C543.598 111.885 544.105 112.056 544.75 112.056ZM574.047 99.1504L574.179 100.981C575.312 99.5654 576.83 98.8574 578.734 98.8574C580.414 98.8574 581.664 99.3506 582.484 100.337C583.305 101.323 583.725 102.798 583.744 104.761V115H579.511V104.863C579.511 103.965 579.315 103.315 578.925 102.915C578.534 102.505 577.885 102.3 576.977 102.3C575.785 102.3 574.892 102.808 574.296 103.823V115H570.062V99.1504H574.047ZM609.262 115.293C606.938 115.293 605.043 114.58 603.578 113.154C602.123 111.729 601.396 109.829 601.396 107.456V107.046C601.396 105.454 601.703 104.033 602.318 102.783C602.934 101.523 603.803 100.557 604.926 99.8828C606.059 99.1992 607.348 98.8574 608.793 98.8574C610.961 98.8574 612.665 99.541 613.905 100.908C615.155 102.275 615.78 104.214 615.78 106.724V108.452H605.688C605.824 109.487 606.234 110.317 606.918 110.942C607.611 111.567 608.485 111.88 609.54 111.88C611.171 111.88 612.445 111.289 613.363 110.107L615.443 112.437C614.809 113.335 613.949 114.038 612.865 114.546C611.781 115.044 610.58 115.293 609.262 115.293ZM608.778 102.285C607.938 102.285 607.255 102.568 606.728 103.135C606.21 103.701 605.878 104.512 605.731 105.566H611.62V105.229C611.601 104.292 611.347 103.569 610.858 103.062C610.37 102.544 609.677 102.285 608.778 102.285ZM671.122 97.2314H664.589V115H660.194V97.2314H653.749V93.6719H671.122V97.2314ZM684.657 106.929C684.657 105.356 684.96 103.955 685.565 102.725C686.171 101.494 687.04 100.542 688.173 99.8682C689.315 99.1943 690.639 98.8574 692.143 98.8574C694.281 98.8574 696.024 99.5117 697.372 100.82C698.729 102.129 699.486 103.906 699.643 106.152L699.672 107.236C699.672 109.668 698.993 111.621 697.636 113.096C696.278 114.561 694.457 115.293 692.172 115.293C689.887 115.293 688.061 114.561 686.693 113.096C685.336 111.631 684.657 109.639 684.657 107.119V106.929ZM688.891 107.236C688.891 108.74 689.174 109.893 689.74 110.693C690.307 111.484 691.117 111.88 692.172 111.88C693.197 111.88 693.998 111.489 694.574 110.708C695.15 109.917 695.438 108.657 695.438 106.929C695.438 105.454 695.15 104.312 694.574 103.501C693.998 102.69 693.188 102.285 692.143 102.285C691.107 102.285 690.307 102.69 689.74 103.501C689.174 104.302 688.891 105.547 688.891 107.236ZM731.547 107.222C731.547 109.663 730.99 111.621 729.877 113.096C728.773 114.561 727.279 115.293 725.395 115.293C723.793 115.293 722.499 114.736 721.513 113.623V121.094H717.279V99.1504H721.205L721.352 100.703C722.377 99.4727 723.715 98.8574 725.365 98.8574C727.318 98.8574 728.837 99.5801 729.921 101.025C731.005 102.471 731.547 104.463 731.547 107.002V107.222ZM727.313 106.914C727.313 105.439 727.05 104.302 726.522 103.501C726.005 102.7 725.248 102.3 724.252 102.3C722.924 102.3 722.011 102.808 721.513 103.823V110.312C722.03 111.357 722.953 111.88 724.281 111.88C726.303 111.88 727.313 110.225 727.313 106.914ZM748.524 106.929C748.524 105.356 748.827 103.955 749.433 102.725C750.038 101.494 750.907 100.542 752.04 99.8682C753.183 99.1943 754.506 98.8574 756.01 98.8574C758.148 98.8574 759.892 99.5117 761.239 100.82C762.597 102.129 763.354 103.906 763.51 106.152L763.539 107.236C763.539 109.668 762.86 111.621 761.503 113.096C760.146 114.561 758.324 115.293 756.039 115.293C753.754 115.293 751.928 114.561 750.561 113.096C749.203 111.631 748.524 109.639 748.524 107.119V106.929ZM752.758 107.236C752.758 108.74 753.041 109.893 753.607 110.693C754.174 111.484 754.984 111.88 756.039 111.88C757.064 111.88 757.865 111.489 758.441 110.708C759.018 109.917 759.306 108.657 759.306 106.929C759.306 105.454 759.018 104.312 758.441 103.501C757.865 102.69 757.055 102.285 756.01 102.285C754.975 102.285 754.174 102.69 753.607 103.501C753.041 104.302 752.758 105.547 752.758 107.236ZM785.614 115H781.366V92.5H785.614V115ZM803.456 106.929C803.456 105.356 803.759 103.955 804.364 102.725C804.97 101.494 805.839 100.542 806.972 99.8682C808.114 99.1943 809.438 98.8574 810.941 98.8574C813.08 98.8574 814.823 99.5117 816.171 100.82C817.528 102.129 818.285 103.906 818.441 106.152L818.471 107.236C818.471 109.668 817.792 111.621 816.435 113.096C815.077 114.561 813.256 115.293 810.971 115.293C808.686 115.293 806.859 114.561 805.492 113.096C804.135 111.631 803.456 109.639 803.456 107.119V106.929ZM807.689 107.236C807.689 108.74 807.973 109.893 808.539 110.693C809.105 111.484 809.916 111.88 810.971 111.88C811.996 111.88 812.797 111.489 813.373 110.708C813.949 109.917 814.237 108.657 814.237 106.929C814.237 105.454 813.949 104.312 813.373 103.501C812.797 102.69 811.986 102.285 810.941 102.285C809.906 102.285 809.105 102.69 808.539 103.501C807.973 104.302 807.689 105.547 807.689 107.236ZM835.463 106.958C835.463 104.526 836.039 102.568 837.191 101.084C838.354 99.5996 839.916 98.8574 841.879 98.8574C843.617 98.8574 844.97 99.4531 845.937 100.645L846.112 99.1504H849.95V114.473C849.95 115.859 849.633 117.065 848.998 118.091C848.373 119.116 847.489 119.897 846.347 120.435C845.204 120.972 843.866 121.24 842.333 121.24C841.171 121.24 840.038 121.006 838.935 120.537C837.831 120.078 836.996 119.482 836.43 118.75L838.305 116.172C839.359 117.354 840.639 117.944 842.143 117.944C843.266 117.944 844.14 117.642 844.765 117.036C845.39 116.44 845.702 115.591 845.702 114.487V113.638C844.726 114.741 843.441 115.293 841.85 115.293C839.945 115.293 838.402 114.551 837.221 113.066C836.049 111.572 835.463 109.595 835.463 107.134V106.958ZM839.696 107.266C839.696 108.701 839.984 109.829 840.561 110.649C841.137 111.46 841.928 111.865 842.934 111.865C844.223 111.865 845.146 111.382 845.702 110.415V103.75C845.136 102.783 844.223 102.3 842.963 102.3C841.947 102.3 841.146 102.715 840.561 103.545C839.984 104.375 839.696 105.615 839.696 107.266ZM874.135 109.009L877.064 99.1504H881.605L875.233 117.461L874.882 118.296C873.935 120.366 872.372 121.401 870.194 121.401C869.579 121.401 868.954 121.309 868.319 121.123V117.915L868.964 117.93C869.765 117.93 870.36 117.808 870.751 117.563C871.151 117.319 871.464 116.914 871.688 116.348L872.187 115.044L866.635 99.1504H871.19L874.135 109.009Z" fill="#24AACB"/>
</svg>
