<svg width="148" height="55" viewBox="0 0 148 55" fill="none" xmlns="http://www.w3.org/2000/svg">
<rect width="148" height="55" rx="10" fill="#A4A4A4"/>
<path d="M62.4734 36H58.9578L52.1141 24.7734V36H48.5984V18.9375H52.1141L58.9695 30.1875V18.9375H62.4734V36ZM72.357 36.2344C70.4977 36.2344 68.982 35.6641 67.8102 34.5234C66.6461 33.3828 66.0641 31.8633 66.0641 29.9648V29.6367C66.0641 28.3633 66.3102 27.2266 66.8023 26.2266C67.2945 25.2188 67.9898 24.4453 68.8883 23.9062C69.7945 23.3594 70.8258 23.0859 71.982 23.0859C73.7164 23.0859 75.0797 23.6328 76.0719 24.7266C77.0719 25.8203 77.5719 27.3711 77.5719 29.3789V30.7617H69.4977C69.607 31.5898 69.9352 32.2539 70.482 32.7539C71.0367 33.2539 71.7359 33.5039 72.5797 33.5039C73.8844 33.5039 74.9039 33.0312 75.6383 32.0859L77.3023 33.9492C76.7945 34.668 76.107 35.2305 75.2398 35.6367C74.3727 36.0352 73.4117 36.2344 72.357 36.2344ZM71.9703 25.8281C71.2984 25.8281 70.7516 26.0547 70.3297 26.5078C69.9156 26.9609 69.65 27.6094 69.5328 28.4531H74.2438V28.1836C74.2281 27.4336 74.025 26.8555 73.6344 26.4492C73.2438 26.0352 72.6891 25.8281 71.9703 25.8281ZM85.5336 27.1055L87.6664 23.3203H91.2875L87.6781 29.5312L91.4398 36H87.807L85.5453 32.0156L83.2953 36H79.6508L83.4125 29.5312L79.8148 23.3203H83.4477L85.5336 27.1055ZM98.1711 20.2031V23.3203H100.339V25.8047H98.1711V32.1328C98.1711 32.6016 98.2609 32.9375 98.4406 33.1406C98.6203 33.3438 98.9641 33.4453 99.4719 33.4453C99.8469 33.4453 100.179 33.418 100.468 33.3633V35.9297C99.8039 36.1328 99.1203 36.2344 98.4172 36.2344C96.0422 36.2344 94.8312 35.0352 94.7844 32.6367V25.8047H92.9328V23.3203H94.7844V20.2031H98.1711Z" fill="white"/>
</svg>
