<svg width="162" height="162" viewBox="0 0 162 162" fill="none" xmlns="http://www.w3.org/2000/svg">
<g filter="url(#filter0_d)">
<circle cx="81" cy="81" r="75" fill="url(#paint0_radial)" shape-rendering="crispEdges"/>
<circle cx="81" cy="81" r="73" stroke="#FFE487" stroke-width="4" shape-rendering="crispEdges"/>
</g>
<ellipse cx="45.2711" cy="46.4992" rx="21.836" ry="7.6817" transform="rotate(-41.6982 45.2711 46.4992)" fill="white" fill-opacity="0.4"/>
<circle cx="116.085" cy="114.894" r="7.14286" transform="rotate(-41.6982 116.085 114.894)" fill="white" fill-opacity="0.4"/>
<g filter="url(#filter1_d)">
<path d="M56.96 92.76C56.6133 92.84 56.28 92.76 55.96 92.52C55.64 92.28 55.4 92 55.24 91.68C55.1067 91.3067 55.0133 90.9467 54.96 90.6C54.9067 90.2267 54.8667 89.7333 54.84 89.12L54.8 87.76L53.16 89.24C51.48 90.8133 49.92 91.6 48.48 91.6C48.0533 91.52 47.5067 91.16 46.84 90.52C46.2 89.88 45.7867 89.3333 45.6 88.88C45.4933 88.6667 45.44 88.3333 45.44 87.88C45.44 86.8667 45.7067 85.6533 46.24 84.24C46.7733 82.8 47.44 81.64 48.24 80.76C48.8267 79.88 49.5333 79.2133 50.36 78.76C51.1867 78.3067 52.0267 78.08 52.88 78.08C53.68 78.08 54.3867 78.2533 55 78.6C55.3733 78.7867 55.68 78.88 55.92 78.88C56.1867 78.88 56.36 78.7067 56.44 78.36C56.4667 78.2267 56.6267 77.6933 56.92 76.76L57.36 75.48C57.9467 73.72 58.4533 72.3067 58.88 71.24C59.3067 70.1733 59.8267 69 60.44 67.72C60.7067 67.16 60.9867 66.7467 61.28 66.48C61.5733 66.2133 61.84 66.0933 62.08 66.12C62.4267 66.12 62.8 66.24 63.2 66.48C63.6267 66.6933 63.9067 66.9733 64.04 67.32C64.12 67.5067 64.16 67.7333 64.16 68C64.16 68.2933 64.08 68.6 63.92 68.92C63.2267 70.12 62.3733 72.08 61.36 74.8C60.3467 77.52 59.56 79.88 59 81.88C58.7867 82.6 58.6267 83.6 58.52 84.88C58.44 86.16 58.4 87.4133 58.4 88.64C58.4 89.8133 58.44 90.5467 58.52 90.84C58.5733 91 58.6 91.2133 58.6 91.48C58.6 91.9333 58.44 92.24 58.12 92.4C57.8267 92.5867 57.44 92.7067 56.96 92.76ZM50.36 87.92C50.9733 87.68 51.6533 87.28 52.4 86.72C53.2 86.1333 53.7733 85.6133 54.12 85.16C54.4933 84.7067 54.7867 84.1333 55 83.44C55.0533 83.3067 55.08 83.12 55.08 82.88C55.08 82.4 54.8533 81.96 54.4 81.56C54.1333 81.3467 53.8267 81.24 53.48 81.24C52.92 81.24 52.3333 81.5333 51.72 82.12C51.0267 82.76 50.4667 83.48 50.04 84.28C49.6133 85.0533 49.2533 86.12 48.96 87.48C48.9067 87.6667 48.9333 87.8267 49.04 87.96C49.1467 88.0667 49.32 88.12 49.56 88.12C49.7467 88.12 50.0133 88.0533 50.36 87.92ZM73.1431 91.92C72.9031 91.68 72.7031 91.3733 72.5431 91C72.4098 90.6 72.2365 90 72.0231 89.2C71.9698 89.04 71.9431 88.8133 71.9431 88.52C71.9431 88.2 71.9431 87.9733 71.9431 87.84C71.8365 88.08 71.7031 88.3467 71.5431 88.64C71.3831 88.9067 71.2231 89.0933 71.0631 89.2C70.4498 89.8133 69.8365 90.2667 69.2231 90.56C68.3698 91.0933 67.6365 91.36 67.0231 91.36C66.2765 91.36 65.6365 91.0133 65.1031 90.32C64.2498 89.6267 63.8231 88.8 63.8231 87.84C63.8231 87.7067 63.8498 87.4533 63.9031 87.08C63.9565 86.0933 64.0898 85.1467 64.3031 84.24C64.5431 83.3333 64.9831 82.1733 65.6231 80.76L66.8231 78.36L67.4631 77.12C67.5965 77.0667 67.8098 77.04 68.1031 77.04C68.5298 77.04 68.9298 77.12 69.3031 77.28C69.6765 77.44 69.8765 77.6533 69.9031 77.92C69.9831 78.0267 70.0231 78.2267 70.0231 78.52C70.0231 79.3733 69.6631 80.5067 68.9431 81.92L68.6231 82.68C68.1431 83.8267 67.7965 84.72 67.5831 85.36C67.3698 86 67.2631 86.5333 67.2631 86.96C67.2631 87.3867 67.4231 87.6667 67.7431 87.8C67.8765 87.88 68.0365 87.92 68.2231 87.92C68.7565 87.92 69.3965 87.5067 70.1431 86.68C70.9165 85.8533 71.7031 84.4667 72.5031 82.52C72.8765 81.6133 73.1031 80.68 73.1831 79.72C73.1298 79.4267 73.2098 79.1067 73.4231 78.76C73.6365 78.4133 73.9165 78.1333 74.2631 77.92C74.3698 77.76 74.5165 77.64 74.7031 77.56C74.8898 77.4533 75.0098 77.4533 75.0631 77.56L75.7031 77.52C75.7831 77.4933 75.9031 77.6133 76.0631 77.88C76.2498 78.1467 76.3831 78.3067 76.4631 78.36C76.7298 78.5733 76.8631 79 76.8631 79.64C76.8631 80.52 76.5431 81.7333 75.9031 83.28C75.3965 84.3467 75.0498 85.1733 74.8631 85.76C74.7031 86.32 74.6098 86.8667 74.5831 87.4C74.5831 87.96 74.6231 88.4 74.7031 88.72C74.8098 89.0133 75.0498 89.32 75.4231 89.64C75.8498 89.9333 76.0231 90.6267 75.9431 91.72C75.8898 91.9067 75.7431 92.0533 75.5031 92.16C75.2631 92.2667 74.9698 92.32 74.6231 92.32C74.0365 92.32 73.5431 92.1867 73.1431 91.92ZM84.0278 91.68C83.2278 91.68 82.7078 91.64 82.4678 91.56C82.2278 91.4533 81.9345 91.24 81.5878 90.92C81.5078 90.7333 81.3345 90.48 81.0678 90.16C80.8278 89.84 80.6278 89.6 80.4678 89.44C80.3878 89.1467 80.3478 88.8 80.3478 88.4C80.3478 87.7067 80.4411 86.8933 80.6278 85.96C80.8411 85.0267 81.0945 84.1733 81.3878 83.4C81.4945 83.1867 81.5745 82.9867 81.6278 82.8C81.7078 82.6133 81.7611 82.4933 81.7878 82.44C81.7878 82.2533 82.1211 81.68 82.7878 80.72C83.4811 79.7333 84.0278 79.0533 84.4278 78.68C84.6145 78.4667 84.8945 78.24 85.2678 78C85.6678 77.76 86.0145 77.5867 86.3078 77.48C86.3878 77.4533 86.7078 77.3333 87.2678 77.12C87.8545 76.9067 88.3878 76.8 88.8678 76.8C89.2945 76.8 89.7078 76.8933 90.1078 77.08C90.5345 77.24 90.8811 77.5067 91.1478 77.88C91.8411 78.5733 92.1878 79.48 92.1878 80.6C92.1878 80.8133 92.1611 81.0533 92.1078 81.32C91.9745 81.8533 91.6945 82.2933 91.2678 82.64C90.8678 82.96 90.4411 83.12 89.9878 83.12C89.5345 83.12 89.1478 82.9467 88.8278 82.6C88.7211 82.3333 88.6678 82.16 88.6678 82.08C88.6678 82 88.7211 81.7733 88.8278 81.4C88.9345 80.92 88.9878 80.6133 88.9878 80.48C88.9878 80.1333 88.8678 79.96 88.6278 79.96C88.3078 79.96 88.0545 80.04 87.8678 80.2C87.6811 80.36 87.3345 80.7067 86.8278 81.24C86.4811 81.6133 86.0678 82.16 85.5878 82.88C85.1345 83.5733 84.7745 84.24 84.5078 84.88C84.2678 85.6 84.0945 86.12 83.9878 86.44C83.9078 86.7333 83.8678 86.9067 83.8678 86.96C83.8678 87.0667 83.8545 87.1733 83.8278 87.28C83.8011 87.36 83.7878 87.4533 83.7878 87.56C83.7878 87.7467 83.8278 87.8933 83.9078 88C83.9878 88.1067 84.1345 88.2133 84.3478 88.32C84.4011 88.3467 84.4945 88.4 84.6278 88.48C84.7611 88.56 84.8945 88.6 85.0278 88.6C85.1878 88.6 85.4145 88.5333 85.7078 88.4C86.0011 88.2667 86.1878 88.1867 86.2678 88.16C86.6145 88 87.1078 87.6533 87.7478 87.12L88.7078 86.4C88.8945 86.2667 89.0545 86.16 89.1878 86.08C89.3478 85.9733 89.4678 85.9067 89.5478 85.88C89.6278 85.8267 89.6678 85.8267 89.6678 85.88C89.6678 85.9867 89.7078 86.04 89.7878 86.04C89.8678 86.04 89.9611 85.9867 90.0678 85.88C90.1745 85.72 90.3611 85.64 90.6278 85.64C90.8411 85.64 91.0545 85.7067 91.2678 85.84C91.5078 85.9467 91.6278 86.04 91.6278 86.12L91.5878 86.32C91.5878 86.4533 91.6545 86.5867 91.7878 86.72C91.7878 86.8267 91.7478 86.9733 91.6678 87.16C91.6145 87.32 91.5345 87.4533 91.4278 87.56C91.1611 87.96 90.8545 88.3733 90.5078 88.8C90.1878 89.2267 89.9611 89.52 89.8278 89.68H89.7878C89.6545 89.68 89.4678 89.8 89.2278 90.04C88.8278 90.4133 88.4811 90.6 88.1878 90.6C88.0811 90.6533 87.9611 90.72 87.8278 90.8C87.6945 90.8533 87.6278 90.92 87.6278 91C87.1745 91.4533 85.9745 91.68 84.0278 91.68ZM105.122 92.32C105.042 92.2667 104.882 92.1333 104.642 91.92C104.429 91.7067 104.269 91.52 104.162 91.36L102.682 89.8C102.469 89.3733 102.042 88.84 101.402 88.2C101.135 87.8533 100.895 87.56 100.682 87.32C100.495 87.08 100.362 86.96 100.282 86.96L99.0419 90.92C98.8552 91.2667 98.6685 91.4933 98.4819 91.6C98.2952 91.68 98.0685 91.72 97.8019 91.72C97.4285 91.72 97.0285 91.5733 96.6019 91.28C96.2019 90.9867 96.0019 90.6133 96.0019 90.16C95.7885 89.3867 96.4952 86.9733 98.1219 82.92C98.2019 82.5467 98.3352 82.12 98.5219 81.64C98.7085 81.1333 98.8419 80.7733 98.9219 80.56C99.3485 79.2 100.082 77.3067 101.122 74.88L101.842 73.24C102.295 72.3067 102.789 71.3333 103.322 70.32C104.735 67.7067 105.629 66.1867 106.002 65.76C106.215 65.5467 106.589 65.44 107.122 65.44C107.629 65.44 107.989 65.5467 108.202 65.76C108.389 65.9467 108.522 66.12 108.602 66.28C108.709 66.4133 108.762 66.5733 108.762 66.76C108.762 67.1867 108.495 67.8267 107.962 68.68C107.669 69.2933 107.402 69.8 107.162 70.2C106.949 70.4933 106.695 70.92 106.402 71.48C106.215 72.0133 106.015 72.28 105.802 72.28C105.775 72.4133 105.722 72.5867 105.642 72.8C105.589 73.0133 105.509 73.2267 105.402 73.44C105.322 73.7067 105.189 74.0267 105.002 74.4C104.815 74.7733 104.695 75.04 104.642 75.2C104.589 75.3333 104.522 75.48 104.442 75.64C104.362 75.8 104.269 76 104.162 76.24C103.549 77.44 103.202 78.2667 103.122 78.72C103.122 78.7467 103.135 78.76 103.162 78.76C103.215 78.76 103.322 78.7067 103.482 78.6C103.642 78.4933 103.775 78.4 103.882 78.32C104.522 77.7867 105.189 77.32 105.882 76.92C106.602 76.52 107.189 76.28 107.642 76.2C108.015 76.12 108.322 76.08 108.562 76.08C108.909 76.08 109.229 76.1333 109.522 76.24C109.815 76.4 110.082 76.7333 110.322 77.24C110.562 77.7467 110.735 78.2667 110.842 78.8C110.842 79.2 110.589 79.96 110.082 81.08C109.602 82.1733 109.189 82.8667 108.842 83.16C108.655 83.24 108.509 83.32 108.402 83.4C108.322 83.4533 108.269 83.4933 108.242 83.52C108.242 83.6267 108.189 83.7733 108.082 83.96C107.975 84.12 107.829 84.24 107.642 84.32C107.269 84.6933 107.082 84.9467 107.082 85.08V85.28H107.002C106.895 85.28 106.655 85.4 106.282 85.64C105.989 85.9333 105.749 86.1067 105.562 86.16C105.402 86.2133 105.269 86.2533 105.162 86.28C105.109 86.3333 104.989 86.4 104.802 86.48C104.642 86.5333 104.562 86.6 104.562 86.68C104.562 86.8667 104.922 87.3867 105.642 88.24C106.389 89.0667 106.922 89.5867 107.242 89.8C107.615 89.9867 107.802 90.4 107.802 91.04C107.802 91.3867 107.735 91.7333 107.602 92.08C107.522 92.16 107.309 92.24 106.962 92.32C106.642 92.4267 106.309 92.48 105.962 92.48C105.615 92.48 105.335 92.4267 105.122 92.32ZM102.802 84.68C103.202 84.3867 103.882 83.8267 104.842 83C105.802 82.1733 106.415 81.5867 106.682 81.24C106.895 81.0267 107.095 80.7067 107.282 80.28C107.469 79.8533 107.509 79.52 107.402 79.28C107.375 79.2 107.055 79.3333 106.442 79.68L105.362 80.28C104.295 80.8933 103.415 81.44 102.722 81.92C102.055 82.4 101.549 82.9333 101.202 83.52C101.122 83.7867 101.215 84.0667 101.482 84.36C101.749 84.6267 102.055 84.76 102.402 84.76C102.589 84.76 102.722 84.7333 102.802 84.68Z" fill="white"/>
</g>
<defs>
<filter id="filter0_d" x="0" y="0" width="162" height="162" filterUnits="userSpaceOnUse" color-interpolation-filters="sRGB">
<feFlood flood-opacity="0" result="BackgroundImageFix"/>
<feColorMatrix in="SourceAlpha" type="matrix" values="0 0 0 0 0 0 0 0 0 0 0 0 0 0 0 0 0 0 127 0" result="hardAlpha"/>
<feOffset/>
<feGaussianBlur stdDeviation="3"/>
<feComposite in2="hardAlpha" operator="out"/>
<feColorMatrix type="matrix" values="0 0 0 0 1 0 0 0 0 1 0 0 0 0 1 0 0 0 0.25 0"/>
<feBlend mode="normal" in2="BackgroundImageFix" result="effect1_dropShadow"/>
<feBlend mode="normal" in="SourceGraphic" in2="effect1_dropShadow" result="shape"/>
</filter>
<filter id="filter1_d" x="41.4399" y="65.4399" width="73.402" height="35.3501" filterUnits="userSpaceOnUse" color-interpolation-filters="sRGB">
<feFlood flood-opacity="0" result="BackgroundImageFix"/>
<feColorMatrix in="SourceAlpha" type="matrix" values="0 0 0 0 0 0 0 0 0 0 0 0 0 0 0 0 0 0 127 0" result="hardAlpha"/>
<feOffset dy="4"/>
<feGaussianBlur stdDeviation="2"/>
<feComposite in2="hardAlpha" operator="out"/>
<feColorMatrix type="matrix" values="0 0 0 0 0 0 0 0 0 0 0 0 0 0 0 0 0 0 0.25 0"/>
<feBlend mode="normal" in2="BackgroundImageFix" result="effect1_dropShadow"/>
<feBlend mode="normal" in="SourceGraphic" in2="effect1_dropShadow" result="shape"/>
</filter>
<radialGradient id="paint0_radial" cx="0" cy="0" r="1" gradientUnits="userSpaceOnUse" gradientTransform="translate(83.9762 83.381) rotate(-140.366) scale(76.5176)">
<stop stop-color="#FFEBA7" stop-opacity="0"/>
<stop offset="1" stop-color="#FEE488"/>
</radialGradient>
</defs>
</svg>
