<svg width="92" height="92" viewBox="0 0 92 92" fill="none" xmlns="http://www.w3.org/2000/svg">
<g filter="url(#filter0_d)">
<circle cx="46" cy="46" r="40" fill="url(#paint0_radial)" shape-rendering="crispEdges"/>
<circle cx="46" cy="46" r="38" stroke="#FFE487" stroke-width="4" shape-rendering="crispEdges"/>
</g>
<ellipse cx="26.9446" cy="27.5997" rx="11.6459" ry="4.09691" transform="rotate(-41.6982 26.9446 27.5997)" fill="white" fill-opacity="0.4"/>
<circle cx="64.7119" cy="64.0769" r="3.80952" transform="rotate(-41.6982 64.7119 64.0769)" fill="white" fill-opacity="0.4"/>
<g filter="url(#filter1_d)">
<circle cx="46" cy="46" r="40" fill="url(#paint1_radial)" shape-rendering="crispEdges"/>
<circle cx="46" cy="46" r="38" stroke="#FFE487" stroke-width="4" shape-rendering="crispEdges"/>
</g>
<ellipse cx="26.9446" cy="27.5997" rx="11.6459" ry="4.09691" transform="rotate(-41.6982 26.9446 27.5997)" fill="white" fill-opacity="0.4"/>
<circle cx="64.7119" cy="64.0769" r="3.80952" transform="rotate(-41.6982 64.7119 64.0769)" fill="white" fill-opacity="0.4"/>
<g filter="url(#filter2_d)">
<path d="M29.3968 57.552C29.2101 57.552 29.0701 57.468 28.9768 57.3C28.9581 57.2813 28.8741 57.1693 28.7248 56.964C28.5754 56.7587 28.5008 56.46 28.5008 56.068C28.5008 55.9933 28.5194 55.844 28.5568 55.62C28.7621 54.836 28.8648 54.2947 28.8648 53.996C28.8648 53.9027 28.8834 53.7627 28.9208 53.576C28.9581 53.408 28.9861 53.2493 29.0048 53.1C29.0794 52.9693 29.1448 52.764 29.2008 52.484C29.2754 52.2227 29.3128 51.9893 29.3128 51.784C29.3128 51.6907 29.3408 51.5787 29.3968 51.448C29.4714 51.336 29.5554 51.2427 29.6488 51.168C29.6488 51.056 29.6768 50.888 29.7328 50.664C29.7888 50.4213 29.8261 50.2533 29.8448 50.16C29.9381 49.656 30.3021 48.4613 30.9368 46.576C31.5714 44.6907 32.1128 43.1693 32.5608 42.012C32.7848 41.4893 32.9714 41.004 33.1208 40.556C33.2701 40.108 33.3448 39.7907 33.3448 39.604C33.3448 39.5293 33.3634 39.464 33.4008 39.408C33.4568 39.3333 33.5408 39.24 33.6528 39.128C33.8021 38.9787 33.9981 38.904 34.2408 38.904C34.5581 38.904 34.8661 39.0067 35.1648 39.212C35.2954 39.4173 35.3888 39.5947 35.4448 39.744C35.5008 39.8933 35.5288 40.0613 35.5288 40.248C35.5288 40.304 35.5101 40.4813 35.4728 40.78C35.4728 41.172 35.3608 41.5267 35.1368 41.844C34.9128 42.1613 34.8101 42.3107 34.8288 42.292C35.7434 41.732 36.5928 41.452 37.3768 41.452C38.2168 41.452 38.8888 41.7507 39.3928 42.348C39.8968 42.9267 40.1488 43.6173 40.1488 44.42C40.1488 44.7373 39.9994 45.2133 39.7008 45.848C39.4021 46.464 39.1594 46.856 38.9728 47.024C38.8608 47.024 38.7114 47.22 38.5248 47.612C38.3008 47.9107 37.8714 48.228 37.2368 48.564C36.6208 48.8813 36.2008 49.0027 35.9768 48.928C35.9581 48.928 35.9301 48.956 35.8928 49.012C35.8554 49.0493 35.8368 49.1053 35.8368 49.18C35.8368 49.2547 35.5568 49.3853 34.9968 49.572C34.4368 49.7587 33.9514 49.852 33.5408 49.852C33.3168 49.852 33.1488 49.8427 33.0368 49.824C32.9248 49.7867 32.8128 49.7213 32.7008 49.628C32.5701 49.7587 32.5048 49.88 32.5048 49.992C32.5048 50.1787 32.4114 50.4773 32.2248 50.888C32.0381 51.28 31.8888 51.476 31.7768 51.476C31.7581 51.4947 31.7301 51.532 31.6928 51.588C31.6741 51.644 31.7021 51.7093 31.7768 51.784C31.7768 51.84 31.7674 51.9707 31.7488 52.176C31.7301 52.3813 31.6834 52.54 31.6088 52.652C31.6088 52.82 31.5808 53.044 31.5248 53.324C31.4688 53.6227 31.4034 53.8467 31.3288 53.996C31.3288 54.22 31.2914 54.4347 31.2168 54.64C31.1608 54.864 31.0954 54.976 31.0208 54.976C30.9088 55.0133 30.8528 55.284 30.8528 55.788C30.8341 56.236 30.6848 56.6373 30.4048 56.992C30.1434 57.3467 29.8914 57.524 29.6488 57.524L29.3968 57.552ZM33.2328 47.724C33.4941 47.724 33.9794 47.584 34.6888 47.304C35.4168 47.0053 35.9488 46.716 36.2848 46.436C36.7141 46.0813 37.0408 45.7547 37.2648 45.456C37.4888 45.1573 37.6008 44.8587 37.6008 44.56C37.6008 44.2987 37.5168 44.0467 37.3488 43.804C37.2181 43.5987 37.0221 43.496 36.7608 43.496C36.1448 43.496 35.3421 43.972 34.3528 44.924C34.0168 45.2787 33.7181 45.7267 33.4568 46.268C33.1954 46.7907 33.0648 47.192 33.0648 47.472C33.0648 47.64 33.1208 47.724 33.2328 47.724ZM46.1668 51C45.1028 51 44.2441 50.7013 43.5908 50.104C42.9375 49.5067 42.6108 48.6573 42.6108 47.556C42.6108 47.1267 42.6388 46.6507 42.6948 46.128C42.7321 45.68 42.9095 45.064 43.2268 44.28C43.5628 43.496 44.0108 42.7307 44.5708 41.984C45.1495 41.2373 45.8215 40.6867 46.5868 40.332C46.9415 40.164 47.2401 40.052 47.4828 39.996C47.7255 39.9213 48.0055 39.884 48.3228 39.884C49.0881 39.884 49.7041 40.024 50.1708 40.304C50.6561 40.584 50.9921 40.9013 51.1788 41.256C51.3841 41.6107 51.4868 41.9187 51.4868 42.18V42.32V42.404C51.4868 42.628 51.3561 43.0387 51.0948 43.636C50.8335 44.2333 50.4135 44.7933 49.8348 45.316C49.2748 45.8387 48.5468 46.128 47.6508 46.184C47.2028 46.184 46.7641 46.1467 46.3348 46.072C45.9241 45.9787 45.6628 45.932 45.5508 45.932C45.2708 45.932 45.0935 46.0347 45.0188 46.24C44.9441 46.4453 44.9068 46.7907 44.9068 47.276C44.9628 47.7987 45.1028 48.1627 45.3268 48.368C45.5695 48.5733 45.9148 48.676 46.3628 48.676C46.5868 48.676 46.8481 48.6107 47.1468 48.48C47.4455 48.3307 47.8001 48.0973 48.2108 47.78C48.4348 47.5933 48.6121 47.4627 48.7428 47.388C48.8735 47.3133 49.0321 47.276 49.2188 47.276C49.3868 47.276 49.5828 47.388 49.8068 47.612C50.0308 47.836 50.1521 48.0507 50.1708 48.256C50.1335 48.48 49.9281 48.816 49.5548 49.264C49.1815 49.712 48.6961 50.1133 48.0988 50.468C47.5015 50.8227 46.8575 51 46.1668 51ZM47.1468 44.252C47.5015 44.252 47.7441 44.2147 47.8748 44.14C48.0615 44.0467 48.3415 43.8133 48.7148 43.44C49.1068 43.048 49.3121 42.7773 49.3308 42.628C49.3308 42.4413 49.2468 42.292 49.0788 42.18C48.9295 42.0493 48.7148 41.9653 48.4348 41.928H48.1268C47.8841 41.928 47.5295 42.1333 47.0628 42.544C46.6148 42.936 46.2228 43.3933 45.8868 43.916C45.9055 44.0093 46.0455 44.0933 46.3068 44.168C46.5681 44.224 46.8481 44.252 47.1468 44.252ZM63.9463 44.448C63.9463 44.7467 63.797 45.512 63.4983 46.744C63.461 46.912 63.377 47.276 63.2463 47.836C63.1343 48.3773 63.069 48.788 63.0503 49.068C63.0503 49.2733 63.0877 49.488 63.1623 49.712C63.2557 49.9173 63.3023 50.0387 63.3023 50.076C63.3023 50.2627 63.2183 50.4493 63.0503 50.636C62.8823 50.804 62.6677 50.888 62.4063 50.888C61.9397 50.888 61.5383 50.692 61.2023 50.3C60.8663 49.8893 60.6983 49.3573 60.6983 48.704C60.6983 48.144 60.9037 47.0987 61.3143 45.568C61.3517 45.3627 61.3797 45.2133 61.3983 45.12C61.4357 45.008 61.4543 44.9147 61.4543 44.84C61.4543 44.7467 61.4263 44.7 61.3703 44.7C61.2397 44.7 61.053 44.7933 60.8103 44.98C60.5677 45.148 60.3063 45.344 60.0263 45.568L59.3263 46.156C59.0277 46.3427 58.4023 46.856 57.4503 47.696C57.3197 47.7893 57.0023 48.0507 56.4983 48.48C56.013 48.8907 55.733 49.096 55.6583 49.096C55.5837 49.096 55.4157 49.04 55.1543 48.928C54.9117 48.7973 54.6783 48.6387 54.4543 48.452C54.249 48.2653 54.1463 48.0507 54.1463 47.808C54.1463 47.528 54.3143 46.884 54.6503 45.876C54.9863 44.868 55.3877 43.8787 55.8543 42.908C55.9103 42.7587 55.9757 42.4787 56.0503 42.068C56.125 41.396 56.2463 40.976 56.4143 40.808C56.5263 40.6213 56.685 40.528 56.8903 40.528C57.2637 40.528 57.609 40.7147 57.9263 41.088C58.2623 41.4613 58.4303 41.872 58.4303 42.32C58.4303 42.6373 58.337 43.0573 58.1503 43.58C57.9823 44.084 57.861 44.3827 57.7863 44.476C57.8423 44.4387 57.9543 44.3453 58.1223 44.196C58.309 44.028 58.5517 43.8507 58.8503 43.664C59.485 43.1787 59.961 42.852 60.2783 42.684C60.5957 42.4973 60.8197 42.3573 60.9503 42.264C61.025 42.208 61.081 42.1707 61.1183 42.152C61.1743 42.1147 61.2117 42.096 61.2303 42.096C61.2863 42.0773 61.389 42.04 61.5383 41.984C61.7063 41.9093 61.837 41.872 61.9303 41.872C62.2103 41.872 62.4997 41.9747 62.7983 42.18C63.1157 42.3667 63.2743 42.5627 63.2743 42.768C63.2743 42.824 63.3397 42.9267 63.4703 43.076C63.601 43.2067 63.713 43.3747 63.8063 43.58C63.8997 43.7667 63.9463 44.056 63.9463 44.448Z" fill="white"/>
</g>
<defs>
<filter id="filter0_d" x="0" y="0" width="92" height="92" filterUnits="userSpaceOnUse" color-interpolation-filters="sRGB">
<feFlood flood-opacity="0" result="BackgroundImageFix"/>
<feColorMatrix in="SourceAlpha" type="matrix" values="0 0 0 0 0 0 0 0 0 0 0 0 0 0 0 0 0 0 127 0" result="hardAlpha"/>
<feOffset/>
<feGaussianBlur stdDeviation="3"/>
<feComposite in2="hardAlpha" operator="out"/>
<feColorMatrix type="matrix" values="0 0 0 0 1 0 0 0 0 1 0 0 0 0 1 0 0 0 0.25 0"/>
<feBlend mode="normal" in2="BackgroundImageFix" result="effect1_dropShadow"/>
<feBlend mode="normal" in="SourceGraphic" in2="effect1_dropShadow" result="shape"/>
</filter>
<filter id="filter1_d" x="0" y="0" width="92" height="92" filterUnits="userSpaceOnUse" color-interpolation-filters="sRGB">
<feFlood flood-opacity="0" result="BackgroundImageFix"/>
<feColorMatrix in="SourceAlpha" type="matrix" values="0 0 0 0 0 0 0 0 0 0 0 0 0 0 0 0 0 0 127 0" result="hardAlpha"/>
<feOffset/>
<feGaussianBlur stdDeviation="3"/>
<feComposite in2="hardAlpha" operator="out"/>
<feColorMatrix type="matrix" values="0 0 0 0 1 0 0 0 0 1 0 0 0 0 1 0 0 0 0.25 0"/>
<feBlend mode="normal" in2="BackgroundImageFix" result="effect1_dropShadow"/>
<feBlend mode="normal" in="SourceGraphic" in2="effect1_dropShadow" result="shape"/>
</filter>
<filter id="filter2_d" x="24.5007" y="38.9041" width="43.4456" height="26.6479" filterUnits="userSpaceOnUse" color-interpolation-filters="sRGB">
<feFlood flood-opacity="0" result="BackgroundImageFix"/>
<feColorMatrix in="SourceAlpha" type="matrix" values="0 0 0 0 0 0 0 0 0 0 0 0 0 0 0 0 0 0 127 0" result="hardAlpha"/>
<feOffset dy="4"/>
<feGaussianBlur stdDeviation="2"/>
<feComposite in2="hardAlpha" operator="out"/>
<feColorMatrix type="matrix" values="0 0 0 0 0 0 0 0 0 0 0 0 0 0 0 0 0 0 0.25 0"/>
<feBlend mode="normal" in2="BackgroundImageFix" result="effect1_dropShadow"/>
<feBlend mode="normal" in="SourceGraphic" in2="effect1_dropShadow" result="shape"/>
</filter>
<radialGradient id="paint0_radial" cx="0" cy="0" r="1" gradientUnits="userSpaceOnUse" gradientTransform="translate(47.5873 47.2698) rotate(-140.366) scale(40.8094)">
<stop stop-color="#FFEBA7" stop-opacity="0"/>
<stop offset="1" stop-color="#FEE488"/>
</radialGradient>
<radialGradient id="paint1_radial" cx="0" cy="0" r="1" gradientUnits="userSpaceOnUse" gradientTransform="translate(47.5873 47.2698) rotate(-140.366) scale(40.8094)">
<stop stop-color="#FFEBA7" stop-opacity="0"/>
<stop offset="1" stop-color="#FEE488"/>
</radialGradient>
</defs>
</svg>
