<svg width="162" height="162" viewBox="0 0 162 162" fill="none" xmlns="http://www.w3.org/2000/svg">
<g filter="url(#filter0_d)">
<circle cx="81" cy="81" r="75" fill="url(#paint0_radial)" shape-rendering="crispEdges"/>
<circle cx="81" cy="81" r="73" stroke="#FFE487" stroke-width="4" shape-rendering="crispEdges"/>
</g>
<ellipse cx="45.2711" cy="46.4992" rx="21.836" ry="7.6817" transform="rotate(-41.6982 45.2711 46.4992)" fill="white" fill-opacity="0.4"/>
<circle cx="116.085" cy="114.894" r="7.14286" transform="rotate(-41.6982 116.085 114.894)" fill="white" fill-opacity="0.4"/>
<g filter="url(#filter1_d)">
<circle cx="81" cy="81" r="75" fill="url(#paint1_radial)" shape-rendering="crispEdges"/>
<circle cx="81" cy="81" r="73" stroke="#FFE487" stroke-width="4" shape-rendering="crispEdges"/>
</g>
<ellipse cx="45.2711" cy="46.4992" rx="21.836" ry="7.6817" transform="rotate(-41.6982 45.2711 46.4992)" fill="white" fill-opacity="0.4"/>
<circle cx="116.085" cy="114.894" r="7.14286" transform="rotate(-41.6982 116.085 114.894)" fill="white" fill-opacity="0.4"/>
<g filter="url(#filter2_d)">
<path d="M56.9178 91.76C55.9311 91.6533 55.2778 91.2267 54.9578 90.48C54.7445 90.2667 54.6111 90.0933 54.5578 89.96C54.5311 89.8267 54.5311 89.6933 54.5578 89.56C54.8778 89.56 55.0645 89.5067 55.1178 89.4C55.1178 89.32 55.1578 89.2667 55.2378 89.24C55.3445 89.2133 55.4511 89.2133 55.5578 89.24C56.2511 89.2933 57.2111 88.92 58.4378 88.12C59.6911 87.32 61.0378 86.2533 62.4778 84.92C63.2245 83.96 63.7311 83.28 63.9978 82.88C64.2645 82.4533 64.3978 82.1067 64.3978 81.84C64.3978 81.7067 64.3311 81.5067 64.1978 81.24C64.0645 81.0267 63.8511 80.92 63.5578 80.92C63.0778 80.92 62.4245 81.1867 61.5978 81.72C60.4511 82.44 59.5311 83.1067 58.8378 83.72C58.1445 84.3067 57.5045 85 56.9178 85.8C56.5711 86.2533 56.2378 86.6667 55.9178 87.04C55.6245 87.3867 55.4245 87.6267 55.3178 87.76C55.3178 87.8667 55.1578 88 54.8378 88.16C54.5445 88.32 54.2911 88.4 54.0778 88.4C53.9445 88.3467 53.7845 88.24 53.5978 88.08C53.4378 87.92 53.3445 87.7333 53.3178 87.52C53.2645 87.4667 53.1445 87.3867 52.9578 87.28C52.7978 87.1467 52.6778 87 52.5978 86.84C52.5178 86.68 52.4778 86.4933 52.4778 86.28C52.4778 85.88 52.6111 85.2 52.8778 84.24C53.1178 83.1467 53.3845 82.0667 53.6778 81C53.9978 79.9067 54.2111 79.3067 54.3178 79.2C54.3445 79.1467 54.3978 79 54.4778 78.76C54.5845 78.52 54.6378 78.2667 54.6378 78C54.6911 77.76 54.7711 77.4933 54.8778 77.2C55.0111 76.88 55.0778 76.6933 55.0778 76.64C55.2111 76.5333 55.6378 75.48 56.3578 73.48C56.3578 73.3733 56.6511 72.6667 57.2378 71.36C58.0911 69.36 58.6245 68.08 58.8378 67.52C58.9711 67.3067 59.1978 66.92 59.5178 66.36C59.5711 66.28 59.6778 66.1067 59.8378 65.84C60.0245 65.5467 60.1711 65.3733 60.2778 65.32C60.4645 65.2667 60.8645 65.4 61.4778 65.72C62.1178 66.04 62.5311 66.3467 62.7178 66.64C62.7445 66.6933 62.7711 66.76 62.7978 66.84C62.8511 66.8933 62.8778 66.96 62.8778 67.04C62.8778 67.1733 62.7978 67.4133 62.6378 67.76C62.5045 68.1067 62.3445 68.4667 62.1578 68.84C61.9978 69.1867 61.8778 69.4533 61.7978 69.64L60.6378 72.04C59.5178 74.4933 58.5578 76.88 57.7578 79.2C57.5178 79.9467 57.3045 80.5467 57.1178 81L56.9178 81.88L57.9578 80.72C58.4378 80.24 59.0378 79.7467 59.7578 79.24C60.0778 79.0267 60.5445 78.7867 61.1578 78.52C61.7711 78.2533 62.1978 78.0933 62.4378 78.04C63.2911 77.8267 64.0245 77.72 64.6378 77.72C65.6245 77.72 66.5311 78.4267 67.3578 79.84C67.5978 80.2667 67.7178 80.8133 67.7178 81.48C67.7178 81.96 67.6511 82.44 67.5178 82.92C67.3845 83.4 67.2111 83.8267 66.9978 84.2C66.8645 84.3067 66.7311 84.4533 66.5978 84.64C66.4645 84.8 66.3978 84.9333 66.3978 85.04C66.3711 85.2 66.1445 85.56 65.7178 86.12C65.2911 86.68 64.8245 87.24 64.3178 87.8C63.6245 88.52 62.7045 89.24 61.5578 89.96C60.4378 90.68 59.5045 91.1733 58.7578 91.44C58.5978 91.4667 58.2911 91.52 57.8378 91.6C57.4111 91.6533 57.1045 91.7067 56.9178 91.76ZM76.4513 92C74.9313 92 73.7046 91.5733 72.7713 90.72C71.8379 89.8667 71.3713 88.6533 71.3713 87.08C71.3713 86.4667 71.4113 85.7867 71.4913 85.04C71.5446 84.4 71.7979 83.52 72.2513 82.4C72.7313 81.28 73.3713 80.1867 74.1713 79.12C74.9979 78.0533 75.9579 77.2667 77.0513 76.76C77.5579 76.52 77.9846 76.36 78.3313 76.28C78.6779 76.1733 79.0779 76.12 79.5313 76.12C80.6246 76.12 81.5046 76.32 82.1713 76.72C82.8646 77.12 83.3446 77.5733 83.6113 78.08C83.9046 78.5867 84.0513 79.0267 84.0513 79.4V79.6V79.72C84.0513 80.04 83.8646 80.6267 83.4913 81.48C83.1179 82.3333 82.5179 83.1333 81.6913 83.88C80.8913 84.6267 79.8513 85.04 78.5713 85.12C77.9313 85.12 77.3046 85.0667 76.6913 84.96C76.1046 84.8267 75.7313 84.76 75.5713 84.76C75.1713 84.76 74.9179 84.9067 74.8113 85.2C74.7046 85.4933 74.6513 85.9867 74.6513 86.68C74.7313 87.4267 74.9313 87.9467 75.2513 88.24C75.5979 88.5333 76.0913 88.68 76.7313 88.68C77.0513 88.68 77.4246 88.5867 77.8513 88.4C78.2779 88.1867 78.7846 87.8533 79.3713 87.4C79.6913 87.1333 79.9446 86.9467 80.1313 86.84C80.3179 86.7333 80.5446 86.68 80.8113 86.68C81.0513 86.68 81.3313 86.84 81.6513 87.16C81.9713 87.48 82.1446 87.7867 82.1713 88.08C82.1179 88.4 81.8246 88.88 81.2913 89.52C80.7579 90.16 80.0646 90.7333 79.2113 91.24C78.3579 91.7467 77.4379 92 76.4513 92ZM77.8513 82.36C78.3579 82.36 78.7046 82.3067 78.8913 82.2C79.1579 82.0667 79.5579 81.7333 80.0913 81.2C80.6513 80.64 80.9446 80.2533 80.9713 80.04C80.9713 79.7733 80.8513 79.56 80.6113 79.4C80.3979 79.2133 80.0913 79.0933 79.6913 79.04H79.2513C78.9046 79.04 78.3979 79.3333 77.7313 79.92C77.0913 80.48 76.5313 81.1333 76.0513 81.88C76.0779 82.0133 76.2779 82.1333 76.6513 82.24C77.0246 82.32 77.4246 82.36 77.8513 82.36ZM90.9306 92.72C87.8906 92.72 86.3706 90.9867 86.3706 87.52C86.3706 86.2667 86.6773 84.8533 87.2906 83.28C87.9306 81.68 88.7173 80.2533 89.6506 79C90.6106 77.72 91.5573 76.8667 92.4906 76.44C92.9973 76.1733 93.584 76.04 94.2506 76.04C95.4506 76.04 96.4906 76.3067 97.3706 76.84C98.2773 77.3467 98.7306 78.32 98.7306 79.76C98.7306 80.5867 98.4506 81.4933 97.8906 82.48C97.3306 83.4667 96.624 84.3067 95.7706 85C94.944 85.6667 94.1306 86 93.3306 86C92.1306 86 91.1173 85.6133 90.2906 84.84C89.8373 85.7467 89.6106 86.6133 89.6106 87.44C89.6106 88.1067 89.6906 88.6267 89.8506 89C90.0106 89.3467 90.384 89.52 90.9706 89.52C91.5306 89.52 91.984 89.44 92.3306 89.28C92.6773 89.12 92.9973 88.9333 93.2906 88.72C93.584 88.5067 93.8106 88.3467 93.9706 88.24L94.1306 88.16H94.0906C94.5706 87.8933 94.9173 87.6933 95.1306 87.56C95.3706 87.4 95.5706 87.2933 95.7306 87.24C96.1306 87.24 96.504 87.36 96.8506 87.6C97.1973 87.84 97.3706 88.1333 97.3706 88.48C97.3706 88.7467 97.1306 89.1867 96.6506 89.8C96.1706 90.3867 95.6773 90.8 95.1706 91.04L94.6906 91.28H94.7306C94.4906 91.6 94.2506 91.76 94.0106 91.76H93.6906C93.584 91.9733 93.224 92.1867 92.6106 92.4C92.024 92.6133 91.464 92.72 90.9306 92.72ZM93.0106 83.08C93.7573 83.08 94.3706 82.76 94.8506 82.12C95.3573 81.48 95.6106 80.84 95.6106 80.2C95.6106 79.9067 95.5306 79.64 95.3706 79.4C95.2373 79.16 95.0506 79.04 94.8106 79.04C94.3573 79.04 93.8506 79.2533 93.2906 79.68C92.7306 80.1067 92.2373 80.6667 91.8106 81.36L91.2906 82.2C91.3973 82.1467 91.4773 82.12 91.5306 82.12C91.744 82.12 91.904 82.2133 92.0106 82.4C92.1173 82.5867 92.2373 82.7467 92.3706 82.88C92.504 83.0133 92.7173 83.08 93.0106 83.08ZM104.21 95.48C103.863 95.5067 103.517 95.2933 103.17 94.84C102.823 94.3867 102.53 93.7733 102.29 93C102.077 92.2533 101.97 91.4533 101.97 90.6C101.943 90.3867 101.93 90.0667 101.93 89.64C101.93 87.7467 102.477 84.8933 103.57 81.08C103.943 79.7467 104.65 77.88 105.69 75.48C106.73 73.08 107.357 71.7867 107.57 71.6H107.65C107.757 71.6 107.81 71.48 107.81 71.24C107.81 71.1867 107.917 70.9867 108.13 70.64C108.343 70.2667 108.543 69.8933 108.73 69.52C109.29 68.72 110.023 67.8933 110.93 67.04C111.863 66.16 112.637 65.6 113.25 65.36C113.65 65.2 114.05 65.12 114.45 65.12C114.957 65.12 115.517 65.2933 116.13 65.64C116.743 65.96 117.263 66.3733 117.69 66.88C118.117 67.3867 118.33 67.88 118.33 68.36C118.33 68.7867 118.237 69.2 118.05 69.6C117.917 70.1333 117.663 70.7733 117.29 71.52C116.917 72.2667 116.597 72.8267 116.33 73.2C115.743 73.6533 115.197 73.88 114.69 73.88C114.45 73.88 114.263 73.8267 114.13 73.72C114.023 73.6133 114.01 73.5067 114.09 73.4C114.117 73.2133 114.157 72.9867 114.21 72.72C114.29 72.4267 114.343 72.1467 114.37 71.88C114.37 71.8267 114.423 71.6667 114.53 71.4C114.663 71.1067 114.73 70.84 114.73 70.6C114.97 69.6667 115.09 69.0533 115.09 68.76C115.09 68.44 114.957 68.28 114.69 68.28C114.45 68.2533 114.197 68.3333 113.93 68.52C113.69 68.68 113.57 68.8533 113.57 69.04V69.2C113.437 69.1733 112.983 69.6533 112.21 70.64C111.463 71.6267 110.85 72.52 110.37 73.32C109.943 74.2267 109.357 75.6133 108.61 77.48L108.29 78.44L108.93 78.52C109.143 78.5467 109.797 78.4533 110.89 78.24C111.05 78.2133 111.277 78.2 111.57 78.2C112.13 78.2 112.543 78.32 112.81 78.56C113.103 78.8 113.343 79.1467 113.53 79.6C113.637 79.8667 113.69 80.0533 113.69 80.16C113.69 80.56 113.357 80.8533 112.69 81.04C112.023 81.2 110.823 81.32 109.09 81.4C108.85 81.3733 108.543 81.36 108.17 81.36C107.743 81.36 107.477 81.4133 107.37 81.52C107.21 81.6 106.957 82.1733 106.61 83.24C106.29 84.3067 106.05 85.3067 105.89 86.24C105.597 87.3867 105.45 88.7333 105.45 90.28C105.45 91.6667 105.543 92.7067 105.73 93.4C105.757 93.5067 105.77 93.64 105.77 93.8C105.77 94.5467 105.25 95.1067 104.21 95.48Z" fill="white"/>
</g>
<defs>
<filter id="filter0_d" x="0" y="0" width="162" height="162" filterUnits="userSpaceOnUse" color-interpolation-filters="sRGB">
<feFlood flood-opacity="0" result="BackgroundImageFix"/>
<feColorMatrix in="SourceAlpha" type="matrix" values="0 0 0 0 0 0 0 0 0 0 0 0 0 0 0 0 0 0 127 0" result="hardAlpha"/>
<feOffset/>
<feGaussianBlur stdDeviation="3"/>
<feComposite in2="hardAlpha" operator="out"/>
<feColorMatrix type="matrix" values="0 0 0 0 1 0 0 0 0 1 0 0 0 0 1 0 0 0 0.25 0"/>
<feBlend mode="normal" in2="BackgroundImageFix" result="effect1_dropShadow"/>
<feBlend mode="normal" in="SourceGraphic" in2="effect1_dropShadow" result="shape"/>
</filter>
<filter id="filter1_d" x="0" y="0" width="162" height="162" filterUnits="userSpaceOnUse" color-interpolation-filters="sRGB">
<feFlood flood-opacity="0" result="BackgroundImageFix"/>
<feColorMatrix in="SourceAlpha" type="matrix" values="0 0 0 0 0 0 0 0 0 0 0 0 0 0 0 0 0 0 127 0" result="hardAlpha"/>
<feOffset/>
<feGaussianBlur stdDeviation="3"/>
<feComposite in2="hardAlpha" operator="out"/>
<feColorMatrix type="matrix" values="0 0 0 0 1 0 0 0 0 1 0 0 0 0 1 0 0 0 0.25 0"/>
<feBlend mode="normal" in2="BackgroundImageFix" result="effect1_dropShadow"/>
<feBlend mode="normal" in="SourceGraphic" in2="effect1_dropShadow" result="shape"/>
</filter>
<filter id="filter2_d" x="48.4778" y="65.1201" width="73.8523" height="38.3621" filterUnits="userSpaceOnUse" color-interpolation-filters="sRGB">
<feFlood flood-opacity="0" result="BackgroundImageFix"/>
<feColorMatrix in="SourceAlpha" type="matrix" values="0 0 0 0 0 0 0 0 0 0 0 0 0 0 0 0 0 0 127 0" result="hardAlpha"/>
<feOffset dy="4"/>
<feGaussianBlur stdDeviation="2"/>
<feComposite in2="hardAlpha" operator="out"/>
<feColorMatrix type="matrix" values="0 0 0 0 0 0 0 0 0 0 0 0 0 0 0 0 0 0 0.25 0"/>
<feBlend mode="normal" in2="BackgroundImageFix" result="effect1_dropShadow"/>
<feBlend mode="normal" in="SourceGraphic" in2="effect1_dropShadow" result="shape"/>
</filter>
<radialGradient id="paint0_radial" cx="0" cy="0" r="1" gradientUnits="userSpaceOnUse" gradientTransform="translate(83.9762 83.381) rotate(-140.366) scale(76.5176)">
<stop stop-color="#FFEBA7" stop-opacity="0"/>
<stop offset="1" stop-color="#FEE488"/>
</radialGradient>
<radialGradient id="paint1_radial" cx="0" cy="0" r="1" gradientUnits="userSpaceOnUse" gradientTransform="translate(83.9762 83.381) rotate(-140.366) scale(76.5176)">
<stop stop-color="#FFEBA7" stop-opacity="0"/>
<stop offset="1" stop-color="#FEE488"/>
</radialGradient>
</defs>
</svg>
