<svg width="162" height="162" viewBox="0 0 162 162" fill="none" xmlns="http://www.w3.org/2000/svg">
<g filter="url(#filter0_d)">
<circle cx="81" cy="81" r="75" fill="url(#paint0_radial)" shape-rendering="crispEdges"/>
<circle cx="81" cy="81" r="73" stroke="#FFE487" stroke-width="4" shape-rendering="crispEdges"/>
</g>
<ellipse cx="45.2711" cy="46.4992" rx="21.836" ry="7.6817" transform="rotate(-41.6982 45.2711 46.4992)" fill="white" fill-opacity="0.4"/>
<circle cx="116.085" cy="114.894" r="7.14286" transform="rotate(-41.6982 116.085 114.894)" fill="white" fill-opacity="0.4"/>
<g filter="url(#filter1_d)">
<circle cx="81" cy="81" r="75" fill="url(#paint1_radial)" shape-rendering="crispEdges"/>
<circle cx="81" cy="81" r="73" stroke="#FFE487" stroke-width="4" shape-rendering="crispEdges"/>
</g>
<ellipse cx="45.2711" cy="46.4992" rx="21.836" ry="7.6817" transform="rotate(-41.6982 45.2711 46.4992)" fill="white" fill-opacity="0.4"/>
<circle cx="116.085" cy="114.894" r="7.14286" transform="rotate(-41.6982 116.085 114.894)" fill="white" fill-opacity="0.4"/>
<g filter="url(#filter2_d)">
<path d="M35.6719 92.6C35.0319 92.6 34.3652 92.4667 33.6719 92.2C33.0052 91.9333 32.4319 91.6133 31.9519 91.24C31.4985 90.84 31.2719 90.48 31.2719 90.16C31.2719 89.84 31.4185 89.64 31.7119 89.56L31.9119 89.4C31.9652 89.3733 32.0719 89.36 32.2319 89.36C32.3385 89.3333 32.4719 89.3467 32.6319 89.4C32.7919 89.4267 32.9252 89.44 33.0319 89.44C33.2185 89.4933 33.4985 89.5467 33.8719 89.6L34.9119 89.72C35.4452 89.72 35.9385 89.6667 36.3919 89.56C36.8719 89.4533 37.1119 89.3333 37.1119 89.2C37.1119 89.12 37.0052 88.9867 36.7919 88.8C36.5785 88.6133 36.3519 88.52 36.1119 88.52C36.1119 88.4133 35.6985 88.0533 34.8719 87.44C34.4185 87.0933 33.9785 86.7467 33.5519 86.4C33.1519 86.0533 32.9519 85.8 32.9519 85.64L32.9919 85.56V85.36C32.8052 85.36 32.6319 85.1067 32.4719 84.6C32.3119 84.0933 32.2319 83.6 32.2319 83.12C32.2319 82.2133 32.6319 81.2133 33.4319 80.12C34.2319 79.0267 35.2185 78.04 36.3919 77.16C37.5919 76.28 38.7252 75.68 39.7919 75.36C40.1919 75.1733 40.7785 75.08 41.5519 75.08C42.0585 75.08 42.4052 75.1333 42.5919 75.24L42.9119 75.16C43.2319 75.16 43.6452 75.4267 44.1519 75.96C44.6585 76.4933 44.9785 76.92 45.1119 77.24C45.1119 78.12 45.0852 78.8267 45.0319 79.36C44.9785 79.8933 44.8452 80.16 44.6319 80.16C44.6052 80.16 44.5652 80.1733 44.5119 80.2C44.4585 80.2267 44.4319 80.2933 44.4319 80.4C44.4319 80.7733 44.0985 81.1867 43.4319 81.64C42.7919 82.0933 42.2052 82.32 41.6719 82.32L41.5119 82.28C41.3519 82.2533 41.1119 82.0933 40.7919 81.8C40.4985 81.5067 40.3519 81.2133 40.3519 80.92C40.3519 80.84 40.5119 80.6267 40.8319 80.28C41.1519 79.9333 41.4185 79.6 41.6319 79.28C41.8719 78.9333 41.9919 78.5733 41.9919 78.2C41.9919 78.0667 41.9385 77.9867 41.8319 77.96C41.7519 77.9067 41.5785 77.88 41.3119 77.88C39.8452 78.5467 38.7919 79.1733 38.1519 79.76C38.0719 79.92 37.9919 80.04 37.9119 80.12C37.8585 80.2 37.7785 80.24 37.6719 80.24C37.6719 80.2133 37.6585 80.2 37.6319 80.2C37.5785 80.2 37.4052 80.36 37.1119 80.68C36.8185 80.9733 36.5385 81.32 36.2719 81.72C36.0319 82.12 35.8852 82.4933 35.8319 82.84L35.7519 82.96V83.16C35.7252 83.2133 35.7119 83.32 35.7119 83.48C35.7119 83.72 35.8185 83.9733 36.0319 84.24C36.2452 84.48 36.6719 84.8267 37.3119 85.28C38.5119 86.1867 39.3252 86.8667 39.7519 87.32C40.2052 87.7467 40.4852 88.1333 40.5919 88.48C40.8319 88.96 40.9519 89.3867 40.9519 89.76C40.9519 90.6667 40.4719 91.3733 39.5119 91.88C38.5785 92.36 37.2985 92.6 35.6719 92.6ZM60.4963 91.36C59.9096 91.6267 59.4029 91.76 58.9763 91.76C58.2029 91.76 57.5763 91.4533 57.0963 90.84C56.6163 90.2267 56.3763 89.3333 56.3763 88.16C56.3763 86.9867 56.6029 85.72 57.0563 84.36C57.1363 84.1733 57.2429 83.9467 57.3763 83.68C57.5096 83.4133 57.5363 83.28 57.4563 83.28C57.3229 83.28 57.0829 83.4533 56.7363 83.8C55.4296 84.9733 54.3363 86.2 53.4563 87.48C52.6029 88.7333 52.1763 89.7067 52.1763 90.4C52.1763 90.6933 52.0563 90.92 51.8163 91.08C51.6029 91.24 51.3496 91.32 51.0563 91.32C50.8696 91.32 50.6963 91.28 50.5363 91.2C49.9496 90.8533 49.4696 90.3733 49.0963 89.76C48.7229 89.12 48.5763 88.3467 48.6562 87.44C48.7629 85.6 48.9496 83.9867 49.2163 82.6C49.5096 81.1867 50.0563 79.1867 50.8563 76.6C50.8829 76.52 51.1363 75.84 51.6163 74.56C52.4429 72.2133 52.9096 70.9333 53.0163 70.72C53.2029 70.5333 53.4696 69.96 53.8163 69C54.1896 68.0133 54.3763 67.4133 54.3763 67.2C54.3763 66.9867 54.4296 66.7867 54.5363 66.6C54.6696 66.3867 54.7496 66.2533 54.7763 66.2C55.0696 65.5333 55.3229 65.2 55.5363 65.2C55.7763 65.2 56.1496 65.36 56.6563 65.68C57.1896 65.9733 57.4963 66.2533 57.5763 66.52C57.7896 66.9467 57.8963 67.3467 57.8963 67.72C57.8963 68.12 57.7896 68.6 57.5763 69.16C57.3629 69.6933 57.0029 70.44 56.4963 71.4C55.7229 72.9467 55.0029 74.72 54.3363 76.72C54.0163 77.5733 53.6296 78.7867 53.1763 80.36C52.7229 81.9333 52.4963 82.8667 52.4963 83.16C52.4963 83.3467 52.5896 83.44 52.7763 83.44C52.9896 83.44 53.2163 83.28 53.4563 82.96C53.5363 82.8 53.7096 82.6 53.9763 82.36C54.2429 82.12 54.4563 81.9067 54.6163 81.72C55.1763 81.0267 55.8163 80.3333 56.5363 79.64C57.2563 78.9467 57.8029 78.6 58.1763 78.6C59.1363 78.6 59.8563 79.2 60.3363 80.4C60.4429 80.5067 60.5229 80.6133 60.5763 80.72C60.6296 80.8267 60.6829 80.9067 60.7363 80.96C60.8696 81.0933 60.9363 81.4267 60.9363 81.96C60.9363 82.8667 60.7229 83.96 60.2963 85.24C60.0029 86.4133 59.8563 87.2133 59.8563 87.64C59.8563 87.9867 59.9496 88.16 60.1363 88.16C60.2163 88.1067 60.3763 88.0133 60.6163 87.88C60.8563 87.7467 61.1363 87.5867 61.4563 87.4C62.0429 87.0533 62.5096 86.88 62.8563 86.88C63.1229 86.88 63.3229 86.96 63.4563 87.12C63.5896 87.2533 63.6562 87.4267 63.6562 87.64C63.6562 87.8267 63.5629 88.1067 63.3763 88.48C63.2163 88.8533 63.1363 89.0667 63.1363 89.12V89.32C63.1363 89.4267 62.7763 89.7733 62.0563 90.36C61.3363 90.9467 60.8163 91.28 60.4963 91.36ZM69.3719 91.4C69.1852 91.4 68.9319 91.2667 68.6119 91C68.3185 90.7333 68.1452 90.4933 68.0919 90.28C68.0652 90.2267 68.0519 90.1067 68.0519 89.92C68.0519 89.5733 68.2119 88.8933 68.5319 87.88L68.8119 86.6C69.0785 85.4267 69.3185 84.44 69.5319 83.64C69.6119 83.48 69.7719 83.0267 70.0119 82.28C70.1719 81.6933 70.3852 81.12 70.6519 80.56C70.9719 79.36 71.4785 78.1733 72.1719 77C72.2519 76.8667 72.3852 76.7067 72.5719 76.52C72.7585 76.3333 72.8919 76.24 72.9719 76.24C73.1319 76.08 73.3585 76 73.6519 76C74.0785 76 74.4652 76.1467 74.8119 76.44C75.1585 76.84 75.3319 77.2667 75.3319 77.72C75.3319 78.2267 75.1452 78.8533 74.7719 79.6C74.5585 80.1867 74.2119 80.9333 73.7319 81.84C73.3585 82.5067 73.1319 82.9467 73.0519 83.16C73.3719 82.7333 74.0652 81.9333 75.1319 80.76C75.4519 80.4133 75.7585 80.1333 76.0519 79.92C76.3452 79.68 76.7852 79.3733 77.3719 79C77.9585 78.5733 78.4252 78.28 78.7719 78.12C79.1185 77.9333 79.5185 77.84 79.9719 77.84C80.1852 77.84 80.3452 77.8533 80.4519 77.88C80.7985 77.8533 81.1585 78.08 81.5319 78.56C81.9319 79.04 82.1319 79.5867 82.1319 80.2C82.1319 80.44 82.0919 80.68 82.0119 80.92C81.6919 80.8667 81.4652 80.84 81.3319 80.84C80.7985 80.84 80.3185 80.9467 79.8919 81.16C79.4919 81.3733 79.1585 81.5867 78.8919 81.8C78.6252 81.9867 78.4519 82.1067 78.3719 82.16C77.4385 82.7733 76.3319 83.6 75.0519 84.64C74.4119 85.1733 73.9319 85.64 73.6119 86.04C73.2919 86.44 73.0385 86.8667 72.8519 87.32C72.7985 87.48 72.5452 88.1067 72.0919 89.2C71.6385 90.2667 71.2919 90.8933 71.0519 91.08C70.9185 91.3733 70.5719 91.52 70.0119 91.52C69.7185 91.52 69.5052 91.48 69.3719 91.4ZM89.0259 75.28C88.7593 75.0933 88.5459 74.8533 88.3859 74.56C88.2259 74.2667 88.1326 73.9867 88.1059 73.72C88.0793 73.4533 88.1059 73.2933 88.1859 73.24C88.3459 73.0533 88.5059 72.8 88.6659 72.48C88.8259 72.16 88.9459 71.9333 89.0259 71.8C89.2393 71.32 89.4126 70.9733 89.5459 70.76C89.7326 70.3867 89.9059 70.1867 90.0659 70.16C90.2793 70.0533 90.4526 70 90.5859 70C90.9326 70 91.3059 70.12 91.7059 70.36C92.1326 70.6 92.4526 70.88 92.6659 71.2C92.8526 71.6267 92.9459 72 92.9459 72.32C92.9459 72.96 92.6393 73.6667 92.0259 74.44C91.7593 74.7867 91.4393 75.0533 91.0659 75.24C90.6926 75.4267 90.3193 75.52 89.9459 75.52C89.5726 75.52 89.2659 75.44 89.0259 75.28ZM84.7059 91.32C84.3326 90.9467 84.1459 90.28 84.1459 89.32C84.1459 88.8133 84.2126 88.4267 84.3459 88.16C84.3459 88.0267 84.3726 87.8667 84.4259 87.68C84.4793 87.4933 84.5059 87.3733 84.5059 87.32C84.4793 87.16 84.5859 86.72 84.8259 86C85.1459 85.28 85.5459 84.1733 86.0259 82.68C86.5326 81.1867 86.8793 80.12 87.0659 79.48C87.0659 79.3467 87.1193 79.24 87.2259 79.16C87.3326 79.0533 87.4926 78.9867 87.7059 78.96C87.9993 78.8533 88.3726 78.9867 88.8259 79.36C89.2793 79.7067 89.6526 80.1067 89.9459 80.56C90.1059 80.72 90.1859 80.9333 90.1859 81.2C90.1859 81.6 90.0126 82.16 89.6659 82.88C89.5326 83.1733 89.3993 83.5333 89.2659 83.96C89.1593 84.3867 89.0659 84.7867 88.9859 85.16C88.6659 85.88 88.4126 86.5467 88.2259 87.16C88.1459 87.5067 88.0926 87.7733 88.0659 87.96C87.8793 88.9467 87.7059 89.5867 87.5459 89.88C87.3859 90.5467 87.1593 91.0533 86.8659 91.4C86.5726 91.72 86.2393 91.88 85.8659 91.88C85.4126 91.88 85.0259 91.6933 84.7059 91.32ZM113.598 91.08C113.251 91.08 112.984 91.0267 112.798 90.92C112.584 90.84 112.304 90.6533 111.958 90.36C111.638 90.04 111.344 89.6 111.078 89.04C110.838 88.4533 110.718 87.76 110.718 86.96C110.718 86.4533 110.744 86.0133 110.798 85.64C110.878 85.24 110.918 84.9867 110.918 84.88C110.918 84.7467 110.878 84.68 110.798 84.68C110.104 84.68 108.598 85.9467 106.278 88.48C106.198 88.5333 106.131 88.6 106.078 88.68C105.758 88.92 105.464 89.1733 105.198 89.44C104.798 89.8133 104.464 90.0933 104.198 90.28C103.958 90.44 103.691 90.5333 103.398 90.56C103.211 90.56 103.011 90.48 102.798 90.32L102.358 89.96C102.224 89.88 102.104 89.7333 101.998 89.52C101.891 89.3067 101.838 89.1067 101.838 88.92V88.8V88.72L102.758 86.04C103.424 84.5733 103.758 83.7067 103.758 83.44C103.758 83.3867 103.744 83.36 103.718 83.36C103.478 83.3333 103.118 83.5467 102.638 84C102.184 84.4267 101.531 85.1067 100.678 86.04L98.8775 87.92C98.6642 88.1333 98.0908 88.7733 97.1575 89.84C96.5708 90.56 96.2642 90.92 96.2375 90.92C95.6508 90.92 95.1175 90.6933 94.6375 90.24C94.1842 89.7867 93.9575 89.24 93.9575 88.6C93.9575 88.28 94.0108 87.8533 94.1175 87.32C94.2242 86.7867 94.3442 86.2267 94.4775 85.64C94.5308 85.4267 94.5842 85.1867 94.6375 84.92C94.7175 84.6533 94.7975 84.3467 94.8775 84C94.9308 83.7333 94.9842 83.44 95.0375 83.12C95.1175 82.8 95.2642 82.3867 95.4775 81.88C95.6908 81.3467 95.9975 80.6133 96.3975 79.68C96.5042 79.3333 96.5575 78.9733 96.5575 78.6C96.5575 78.4133 96.5442 78.24 96.5175 78.08C96.4908 77.8933 96.4775 77.7733 96.4775 77.72C96.4775 77.32 96.6642 76.9867 97.0375 76.72C97.4375 76.4267 97.8775 76.28 98.3575 76.28C99.0508 76.28 99.5708 76.5333 99.9175 77.04C100.264 77.52 100.438 78.0267 100.438 78.56C100.438 79.0133 100.331 79.4533 100.118 79.88L99.6775 80.96C99.5708 81.2 99.3708 81.64 99.0775 82.28C98.8108 82.8933 98.6775 83.2667 98.6775 83.4C98.6775 83.48 98.7042 83.52 98.7575 83.52H98.7975C98.9308 83.52 99.1442 83.3733 99.4375 83.08C100.291 82.28 101.318 81.4533 102.518 80.6C103.744 79.72 104.624 79.2 105.158 79.04C105.371 79.04 105.651 79.1467 105.998 79.36C106.344 79.5733 106.651 79.8667 106.918 80.24C107.184 80.5867 107.318 80.9733 107.318 81.4L107.278 81.72C107.251 81.8267 107.131 82.28 106.918 83.08C106.731 83.88 106.584 84.3467 106.478 84.48C106.984 83.8933 107.864 83.1733 109.118 82.32C110.371 81.44 111.291 80.9867 111.878 80.96C112.758 80.96 113.331 81.32 113.598 82.04C113.864 82.76 114.051 83.8133 114.158 85.2C114.264 86.5067 114.411 87.3867 114.598 87.84C114.651 88 114.838 88.1333 115.158 88.24C115.478 88.3467 115.731 88.48 115.918 88.64C116.131 88.7733 116.238 89.0533 116.238 89.48C116.238 90.0667 115.971 90.48 115.438 90.72C114.931 90.96 114.318 91.08 113.598 91.08ZM118.531 99.44C118.078 99.44 117.651 99.2 117.251 98.72C116.878 98.24 116.691 97.6933 116.691 97.08C116.691 96.84 116.731 96.6 116.811 96.36C116.838 96.2533 116.904 96 117.011 95.6C117.144 95.2267 117.224 94.9067 117.251 94.64C117.304 94.3467 117.464 93.8133 117.731 93.04C117.998 92.2667 118.211 91.7467 118.371 91.48C118.504 91.24 118.611 90.96 118.691 90.64C118.771 90.2933 118.811 90 118.811 89.76C118.998 89.1733 119.171 88.7733 119.331 88.56C119.518 87.9733 119.718 87.52 119.931 87.2C119.958 87.12 119.984 86.9333 120.011 86.64C120.064 86.32 120.158 86.1333 120.291 86.08C120.371 85.7067 120.438 85.4533 120.491 85.32C120.678 84.4933 121.024 83.4533 121.531 82.2C121.931 81.0533 122.131 80.28 122.131 79.88C122.131 79.4533 121.984 79.1867 121.691 79.08C121.398 78.9733 121.251 78.6 121.251 77.96C121.251 77.6133 121.304 77.2933 121.411 77C121.518 76.7067 121.664 76.52 121.851 76.44C122.251 76.28 122.771 76.2 123.411 76.2C123.838 76.2 124.051 76.24 124.051 76.32C124.051 76.4 124.064 76.4667 124.091 76.52C124.118 76.5467 124.171 76.56 124.251 76.56C124.331 76.4533 124.531 76.7333 124.851 77.4C125.171 78.04 125.331 78.4667 125.331 78.68C125.278 78.76 125.251 78.8133 125.251 78.84C125.278 78.8667 125.331 78.88 125.411 78.88C125.598 78.8 125.944 78.6267 126.451 78.36C126.984 78.0667 127.318 77.84 127.451 77.68C127.504 77.6533 127.598 77.6133 127.731 77.56C127.864 77.48 127.971 77.4 128.051 77.32C128.344 77.2133 128.678 77.16 129.051 77.16C129.478 77.16 129.891 77.2267 130.291 77.36C130.691 77.4933 131.024 77.68 131.291 77.92C131.691 78.4267 132.024 79.0133 132.291 79.68C132.558 80.3467 132.691 81 132.691 81.64C132.691 82.1733 132.584 82.72 132.371 83.28C132.318 83.44 132.144 83.76 131.851 84.24C131.584 84.6933 131.398 85 131.291 85.16C130.224 86.8133 128.758 88.1733 126.891 89.24C126.544 89.48 126.038 89.7067 125.371 89.92C124.731 90.1067 124.264 90.2 123.971 90.2C123.811 90.2 123.638 90.0667 123.451 89.8C123.291 89.5067 123.144 89.1733 123.011 88.8C122.664 89.6267 122.464 90.1867 122.411 90.48C122.411 90.56 122.384 90.6933 122.331 90.88C122.304 91.04 122.238 91.16 122.131 91.24C122.131 91.2667 122.104 91.3333 122.051 91.44C122.024 91.5467 121.944 91.6933 121.811 91.88L121.131 93.84C120.811 94.6133 120.611 95.2267 120.531 95.68C120.451 96.6133 120.238 97.4667 119.891 98.24C119.544 99.04 119.091 99.44 118.531 99.44ZM124.811 86.4C125.211 86.2133 125.771 85.92 126.491 85.52C127.238 85.12 127.731 84.7733 127.971 84.48C128.158 84.2667 128.278 84.04 128.331 83.8C128.411 83.56 128.478 83.3467 128.531 83.16C128.798 82.4933 128.984 82 129.091 81.68C129.171 81.52 129.211 81.3333 129.211 81.12C129.211 80.8267 129.131 80.6 128.971 80.44C128.651 80.4133 128.131 80.5733 127.411 80.92C126.718 81.24 126.064 81.8 125.451 82.6C124.571 83.7467 124.131 84.72 124.131 85.52C124.131 85.7867 124.184 86 124.291 86.16C124.424 86.32 124.598 86.4 124.811 86.4Z" fill="white"/>
</g>
<defs>
<filter id="filter0_d" x="0" y="0" width="162" height="162" filterUnits="userSpaceOnUse" color-interpolation-filters="sRGB">
<feFlood flood-opacity="0" result="BackgroundImageFix"/>
<feColorMatrix in="SourceAlpha" type="matrix" values="0 0 0 0 0 0 0 0 0 0 0 0 0 0 0 0 0 0 127 0" result="hardAlpha"/>
<feOffset/>
<feGaussianBlur stdDeviation="3"/>
<feComposite in2="hardAlpha" operator="out"/>
<feColorMatrix type="matrix" values="0 0 0 0 1 0 0 0 0 1 0 0 0 0 1 0 0 0 0.25 0"/>
<feBlend mode="normal" in2="BackgroundImageFix" result="effect1_dropShadow"/>
<feBlend mode="normal" in="SourceGraphic" in2="effect1_dropShadow" result="shape"/>
</filter>
<filter id="filter1_d" x="0" y="0" width="162" height="162" filterUnits="userSpaceOnUse" color-interpolation-filters="sRGB">
<feFlood flood-opacity="0" result="BackgroundImageFix"/>
<feColorMatrix in="SourceAlpha" type="matrix" values="0 0 0 0 0 0 0 0 0 0 0 0 0 0 0 0 0 0 127 0" result="hardAlpha"/>
<feOffset/>
<feGaussianBlur stdDeviation="3"/>
<feComposite in2="hardAlpha" operator="out"/>
<feColorMatrix type="matrix" values="0 0 0 0 1 0 0 0 0 1 0 0 0 0 1 0 0 0 0.25 0"/>
<feBlend mode="normal" in2="BackgroundImageFix" result="effect1_dropShadow"/>
<feBlend mode="normal" in="SourceGraphic" in2="effect1_dropShadow" result="shape"/>
</filter>
<filter id="filter2_d" x="27.2719" y="65.2" width="109.419" height="42.24" filterUnits="userSpaceOnUse" color-interpolation-filters="sRGB">
<feFlood flood-opacity="0" result="BackgroundImageFix"/>
<feColorMatrix in="SourceAlpha" type="matrix" values="0 0 0 0 0 0 0 0 0 0 0 0 0 0 0 0 0 0 127 0" result="hardAlpha"/>
<feOffset dy="4"/>
<feGaussianBlur stdDeviation="2"/>
<feComposite in2="hardAlpha" operator="out"/>
<feColorMatrix type="matrix" values="0 0 0 0 0 0 0 0 0 0 0 0 0 0 0 0 0 0 0.25 0"/>
<feBlend mode="normal" in2="BackgroundImageFix" result="effect1_dropShadow"/>
<feBlend mode="normal" in="SourceGraphic" in2="effect1_dropShadow" result="shape"/>
</filter>
<radialGradient id="paint0_radial" cx="0" cy="0" r="1" gradientUnits="userSpaceOnUse" gradientTransform="translate(83.9762 83.381) rotate(-140.366) scale(76.5176)">
<stop stop-color="#FFEBA7" stop-opacity="0"/>
<stop offset="1" stop-color="#FEE488"/>
</radialGradient>
<radialGradient id="paint1_radial" cx="0" cy="0" r="1" gradientUnits="userSpaceOnUse" gradientTransform="translate(83.9762 83.381) rotate(-140.366) scale(76.5176)">
<stop stop-color="#FFEBA7" stop-opacity="0"/>
<stop offset="1" stop-color="#FEE488"/>
</radialGradient>
</defs>
</svg>
