<svg width="162" height="162" viewBox="0 0 162 162" fill="none" xmlns="http://www.w3.org/2000/svg">
<g filter="url(#filter0_d)">
<circle cx="81" cy="81" r="75" fill="url(#paint0_radial)" shape-rendering="crispEdges"/>
<circle cx="81" cy="81" r="73" stroke="#FFE487" stroke-width="4" shape-rendering="crispEdges"/>
</g>
<ellipse cx="45.2711" cy="46.4992" rx="21.836" ry="7.6817" transform="rotate(-41.6982 45.2711 46.4992)" fill="white" fill-opacity="0.4"/>
<circle cx="116.085" cy="114.894" r="7.14286" transform="rotate(-41.6982 116.085 114.894)" fill="white" fill-opacity="0.4"/>
<g filter="url(#filter1_d)">
<circle cx="81" cy="81" r="75" fill="url(#paint1_radial)" shape-rendering="crispEdges"/>
<circle cx="81" cy="81" r="73" stroke="#FFE487" stroke-width="4" shape-rendering="crispEdges"/>
</g>
<ellipse cx="45.2711" cy="46.4992" rx="21.836" ry="7.6817" transform="rotate(-41.6982 45.2711 46.4992)" fill="white" fill-opacity="0.4"/>
<circle cx="116.085" cy="114.894" r="7.14286" transform="rotate(-41.6982 116.085 114.894)" fill="white" fill-opacity="0.4"/>
<g filter="url(#filter2_d)">
<path d="M48.5878 101.36C48.3211 101.36 48.1211 101.24 47.9878 101C47.9611 100.973 47.8411 100.813 47.6278 100.52C47.4145 100.227 47.3078 99.8 47.3078 99.24C47.3078 99.1333 47.3345 98.92 47.3878 98.6C47.6811 97.48 47.8278 96.7067 47.8278 96.28C47.8278 96.1467 47.8545 95.9467 47.9078 95.68C47.9611 95.44 48.0011 95.2133 48.0278 95C48.1345 94.8133 48.2278 94.52 48.3078 94.12C48.4145 93.7467 48.4678 93.4133 48.4678 93.12C48.4678 92.9867 48.5078 92.8267 48.5878 92.64C48.6945 92.48 48.8145 92.3467 48.9478 92.24C48.9478 92.08 48.9878 91.84 49.0678 91.52C49.1478 91.1733 49.2011 90.9333 49.2278 90.8C49.3611 90.08 49.8811 88.3733 50.7878 85.68C51.6945 82.9867 52.4678 80.8133 53.1078 79.16C53.4278 78.4133 53.6945 77.72 53.9078 77.08C54.1211 76.44 54.2278 75.9867 54.2278 75.72C54.2278 75.6133 54.2545 75.52 54.3078 75.44C54.3878 75.3333 54.5078 75.2 54.6678 75.04C54.8811 74.8267 55.1611 74.72 55.5078 74.72C55.9611 74.72 56.4011 74.8667 56.8278 75.16C57.0145 75.4533 57.1478 75.7067 57.2278 75.92C57.3078 76.1333 57.3478 76.3733 57.3478 76.64C57.3478 76.72 57.3211 76.9733 57.2678 77.4C57.2678 77.96 57.1078 78.4667 56.7878 78.92C56.4678 79.3733 56.3211 79.5867 56.3478 79.56C57.6545 78.76 58.8678 78.36 59.9878 78.36C61.1878 78.36 62.1478 78.7867 62.8678 79.64C63.5878 80.4667 63.9478 81.4533 63.9478 82.6C63.9478 83.0533 63.7345 83.7333 63.3078 84.64C62.8811 85.52 62.5345 86.08 62.2678 86.32C62.1078 86.32 61.8945 86.6 61.6278 87.16C61.3078 87.5867 60.6945 88.04 59.7878 88.52C58.9078 88.9733 58.3078 89.1467 57.9878 89.04C57.9611 89.04 57.9211 89.08 57.8678 89.16C57.8145 89.2133 57.7878 89.2933 57.7878 89.4C57.7878 89.5067 57.3878 89.6933 56.5878 89.96C55.7878 90.2267 55.0945 90.36 54.5078 90.36C54.1878 90.36 53.9478 90.3467 53.7878 90.32C53.6278 90.2667 53.4678 90.1733 53.3078 90.04C53.1211 90.2267 53.0278 90.4 53.0278 90.56C53.0278 90.8267 52.8945 91.2533 52.6278 91.84C52.3611 92.4 52.1478 92.68 51.9878 92.68C51.9611 92.7067 51.9211 92.76 51.8678 92.84C51.8411 92.92 51.8811 93.0133 51.9878 93.12C51.9878 93.2 51.9745 93.3867 51.9478 93.68C51.9211 93.9733 51.8545 94.2 51.7478 94.36C51.7478 94.6 51.7078 94.92 51.6278 95.32C51.5478 95.7467 51.4545 96.0667 51.3478 96.28C51.3478 96.6 51.2945 96.9067 51.1878 97.2C51.1078 97.52 51.0145 97.68 50.9078 97.68C50.7478 97.7333 50.6678 98.12 50.6678 98.84C50.6411 99.48 50.4278 100.053 50.0278 100.56C49.6545 101.067 49.2945 101.32 48.9478 101.32L48.5878 101.36ZM54.0678 87.32C54.4411 87.32 55.1345 87.12 56.1478 86.72C57.1878 86.2933 57.9478 85.88 58.4278 85.48C59.0411 84.9733 59.5078 84.5067 59.8278 84.08C60.1478 83.6533 60.3078 83.2267 60.3078 82.8C60.3078 82.4267 60.1878 82.0667 59.9478 81.72C59.7611 81.4267 59.4811 81.28 59.1078 81.28C58.2278 81.28 57.0811 81.96 55.6678 83.32C55.1878 83.8267 54.7611 84.4667 54.3878 85.24C54.0145 85.9867 53.8278 86.56 53.8278 86.96C53.8278 87.2 53.9078 87.32 54.0678 87.32ZM70.345 91.72C70.025 91.72 69.7717 91.6667 69.585 91.56C69.3983 91.4533 69.1317 91.2533 68.785 90.96C68.2517 90.4 67.8383 89.8267 67.545 89.24C67.2517 88.6267 67.145 88.0933 67.225 87.64C67.305 87.4533 67.3317 87.2667 67.305 87.08C67.305 86.8933 67.305 86.7733 67.305 86.72C67.1983 86.6133 67.145 86.5467 67.145 86.52C67.145 86.4667 67.1717 86.4267 67.225 86.4C67.2783 86.3467 67.3183 86.2933 67.345 86.24C67.505 86.24 67.5583 86.0933 67.505 85.8C67.4517 85.5867 67.545 85.12 67.785 84.4C68.025 83.68 68.3317 83.0133 68.705 82.4C68.9983 81.92 69.425 81.32 69.985 80.6C70.5717 79.88 71.0917 79.3333 71.545 78.96C72.8783 77.8133 74.0783 77.12 75.145 76.88C75.6783 76.7467 76.1983 76.68 76.705 76.68C77.4783 76.68 78.0783 76.8933 78.505 77.32C79.0917 77.56 79.5183 77.9067 79.785 78.36C80.0517 78.8133 80.225 79.4133 80.305 80.16C80.3317 80.32 80.345 80.5867 80.345 80.96C80.345 82.9333 79.5983 84.9867 78.105 87.12C77.4917 88 76.8783 88.7067 76.265 89.24C75.6517 89.7733 74.905 90.3067 74.025 90.84C73.545 91.16 73.0383 91.3733 72.505 91.48C71.9717 91.5867 71.2517 91.6667 70.345 91.72ZM74.425 86.84C74.9317 86.3867 75.2917 85.9333 75.505 85.48C75.745 85 76.0783 84.1733 76.505 83C76.665 82.76 76.745 82.28 76.745 81.56C76.745 80.92 76.6517 80.56 76.465 80.48C76.3317 80.3733 76.1717 80.32 75.985 80.32C75.745 80.32 75.3583 80.5067 74.825 80.88C73.8917 81.68 73.105 82.52 72.465 83.4C71.8517 84.2533 71.425 85.24 71.185 86.36C71.1583 86.4667 71.145 86.6267 71.145 86.84C71.145 87.7467 71.465 88.2 72.105 88.2C72.7183 88.2 73.4917 87.7467 74.425 86.84ZM87.1972 91.16C86.9839 91.16 86.6772 91.1067 86.2772 91C85.9039 90.8933 85.6772 90.8 85.5972 90.72C85.4372 90.5867 85.2772 90.3867 85.1172 90.12C84.9572 89.8267 84.8772 89.4933 84.8772 89.12C84.8772 88.5333 85.0905 87.92 85.5172 87.28C85.6772 86.96 86.0772 85.8533 86.7172 83.96L87.5172 81.76C87.5705 81.3067 87.5439 80.9867 87.4372 80.8C87.3305 80.5867 87.1039 80.4667 86.7572 80.44C86.4639 80.44 86.2505 80.3467 86.1172 80.16C85.9839 79.9467 85.9172 79.6133 85.9172 79.16C85.9972 78.3867 86.3039 77.8267 86.8372 77.48C87.2639 77.2667 87.8505 77.16 88.5972 77.16C89.2639 77.16 89.7039 77.2533 89.9172 77.44C90.1305 77.6 90.3172 77.96 90.4772 78.52C90.6372 79.08 90.7572 79.6 90.8372 80.08C90.9705 80 91.3172 79.64 91.8772 79L92.7572 78.08C93.2105 77.76 93.7305 77.4533 94.3172 77.16C94.9039 76.8667 95.3172 76.72 95.5572 76.72C95.8239 76.72 96.1705 76.8533 96.5972 77.12C97.0239 77.3867 97.3039 77.64 97.4372 77.88C97.8372 78.6267 98.0372 79.24 98.0372 79.72C98.0372 80.0933 97.9439 80.3867 97.7572 80.6C97.0372 81.5067 96.2372 81.96 95.3572 81.96C95.1439 81.96 94.9705 81.9467 94.8372 81.92C94.7039 81.8933 94.5439 81.7067 94.3572 81.36C94.1705 81.0133 94.0639 80.7467 94.0372 80.56C94.0372 80.48 93.8372 80.64 93.4372 81.04C93.0639 81.4133 92.8239 81.6533 92.7172 81.76L92.0372 82.48C91.6105 82.9867 91.1705 83.6533 90.7172 84.48C90.2905 85.3067 89.6505 86.56 88.7972 88.24L88.2772 89.48C88.0105 90.0933 87.8105 90.5333 87.6772 90.8C87.5439 91.04 87.3839 91.16 87.1972 91.16ZM108.731 92.32C108.651 92.2667 108.491 92.1333 108.251 91.92C108.038 91.7067 107.878 91.52 107.771 91.36L106.291 89.8C106.078 89.3733 105.651 88.84 105.011 88.2C104.745 87.8533 104.505 87.56 104.291 87.32C104.105 87.08 103.971 86.96 103.891 86.96L102.651 90.92C102.465 91.2667 102.278 91.4933 102.091 91.6C101.905 91.68 101.678 91.72 101.411 91.72C101.038 91.72 100.638 91.5733 100.211 91.28C99.8113 90.9867 99.6113 90.6133 99.6113 90.16C99.3979 89.3867 100.105 86.9733 101.731 82.92C101.811 82.5467 101.945 82.12 102.131 81.64C102.318 81.1333 102.451 80.7733 102.531 80.56C102.958 79.2 103.691 77.3067 104.731 74.88L105.451 73.24C105.905 72.3067 106.398 71.3333 106.931 70.32C108.345 67.7067 109.238 66.1867 109.611 65.76C109.825 65.5467 110.198 65.44 110.731 65.44C111.238 65.44 111.598 65.5467 111.811 65.76C111.998 65.9467 112.131 66.12 112.211 66.28C112.318 66.4133 112.371 66.5733 112.371 66.76C112.371 67.1867 112.105 67.8267 111.571 68.68C111.278 69.2933 111.011 69.8 110.771 70.2C110.558 70.4933 110.305 70.92 110.011 71.48C109.825 72.0133 109.625 72.28 109.411 72.28C109.385 72.4133 109.331 72.5867 109.251 72.8C109.198 73.0133 109.118 73.2267 109.011 73.44C108.931 73.7067 108.798 74.0267 108.611 74.4C108.425 74.7733 108.305 75.04 108.251 75.2C108.198 75.3333 108.131 75.48 108.051 75.64C107.971 75.8 107.878 76 107.771 76.24C107.158 77.44 106.811 78.2667 106.731 78.72C106.731 78.7467 106.745 78.76 106.771 78.76C106.825 78.76 106.931 78.7067 107.091 78.6C107.251 78.4933 107.385 78.4 107.491 78.32C108.131 77.7867 108.798 77.32 109.491 76.92C110.211 76.52 110.798 76.28 111.251 76.2C111.625 76.12 111.931 76.08 112.171 76.08C112.518 76.08 112.838 76.1333 113.131 76.24C113.425 76.4 113.691 76.7333 113.931 77.24C114.171 77.7467 114.345 78.2667 114.451 78.8C114.451 79.2 114.198 79.96 113.691 81.08C113.211 82.1733 112.798 82.8667 112.451 83.16C112.265 83.24 112.118 83.32 112.011 83.4C111.931 83.4533 111.878 83.4933 111.851 83.52C111.851 83.6267 111.798 83.7733 111.691 83.96C111.585 84.12 111.438 84.24 111.251 84.32C110.878 84.6933 110.691 84.9467 110.691 85.08V85.28H110.611C110.505 85.28 110.265 85.4 109.891 85.64C109.598 85.9333 109.358 86.1067 109.171 86.16C109.011 86.2133 108.878 86.2533 108.771 86.28C108.718 86.3333 108.598 86.4 108.411 86.48C108.251 86.5333 108.171 86.6 108.171 86.68C108.171 86.8667 108.531 87.3867 109.251 88.24C109.998 89.0667 110.531 89.5867 110.851 89.8C111.225 89.9867 111.411 90.4 111.411 91.04C111.411 91.3867 111.345 91.7333 111.211 92.08C111.131 92.16 110.918 92.24 110.571 92.32C110.251 92.4267 109.918 92.48 109.571 92.48C109.225 92.48 108.945 92.4267 108.731 92.32ZM106.411 84.68C106.811 84.3867 107.491 83.8267 108.451 83C109.411 82.1733 110.025 81.5867 110.291 81.24C110.505 81.0267 110.705 80.7067 110.891 80.28C111.078 79.8533 111.118 79.52 111.011 79.28C110.985 79.2 110.665 79.3333 110.051 79.68L108.971 80.28C107.905 80.8933 107.025 81.44 106.331 81.92C105.665 82.4 105.158 82.9333 104.811 83.52C104.731 83.7867 104.825 84.0667 105.091 84.36C105.358 84.6267 105.665 84.76 106.011 84.76C106.198 84.76 106.331 84.7333 106.411 84.68Z" fill="white"/>
</g>
<defs>
<filter id="filter0_d" x="0" y="0" width="162" height="162" filterUnits="userSpaceOnUse" color-interpolation-filters="sRGB">
<feFlood flood-opacity="0" result="BackgroundImageFix"/>
<feColorMatrix in="SourceAlpha" type="matrix" values="0 0 0 0 0 0 0 0 0 0 0 0 0 0 0 0 0 0 127 0" result="hardAlpha"/>
<feOffset/>
<feGaussianBlur stdDeviation="3"/>
<feComposite in2="hardAlpha" operator="out"/>
<feColorMatrix type="matrix" values="0 0 0 0 1 0 0 0 0 1 0 0 0 0 1 0 0 0 0.25 0"/>
<feBlend mode="normal" in2="BackgroundImageFix" result="effect1_dropShadow"/>
<feBlend mode="normal" in="SourceGraphic" in2="effect1_dropShadow" result="shape"/>
</filter>
<filter id="filter1_d" x="0" y="0" width="162" height="162" filterUnits="userSpaceOnUse" color-interpolation-filters="sRGB">
<feFlood flood-opacity="0" result="BackgroundImageFix"/>
<feColorMatrix in="SourceAlpha" type="matrix" values="0 0 0 0 0 0 0 0 0 0 0 0 0 0 0 0 0 0 127 0" result="hardAlpha"/>
<feOffset/>
<feGaussianBlur stdDeviation="3"/>
<feComposite in2="hardAlpha" operator="out"/>
<feColorMatrix type="matrix" values="0 0 0 0 1 0 0 0 0 1 0 0 0 0 1 0 0 0 0.25 0"/>
<feBlend mode="normal" in2="BackgroundImageFix" result="effect1_dropShadow"/>
<feBlend mode="normal" in="SourceGraphic" in2="effect1_dropShadow" result="shape"/>
</filter>
<filter id="filter2_d" x="43.3079" y="65.4399" width="75.1434" height="43.9202" filterUnits="userSpaceOnUse" color-interpolation-filters="sRGB">
<feFlood flood-opacity="0" result="BackgroundImageFix"/>
<feColorMatrix in="SourceAlpha" type="matrix" values="0 0 0 0 0 0 0 0 0 0 0 0 0 0 0 0 0 0 127 0" result="hardAlpha"/>
<feOffset dy="4"/>
<feGaussianBlur stdDeviation="2"/>
<feComposite in2="hardAlpha" operator="out"/>
<feColorMatrix type="matrix" values="0 0 0 0 0 0 0 0 0 0 0 0 0 0 0 0 0 0 0.25 0"/>
<feBlend mode="normal" in2="BackgroundImageFix" result="effect1_dropShadow"/>
<feBlend mode="normal" in="SourceGraphic" in2="effect1_dropShadow" result="shape"/>
</filter>
<radialGradient id="paint0_radial" cx="0" cy="0" r="1" gradientUnits="userSpaceOnUse" gradientTransform="translate(83.9762 83.381) rotate(-140.366) scale(76.5176)">
<stop stop-color="#FFEBA7" stop-opacity="0"/>
<stop offset="1" stop-color="#FEE488"/>
</radialGradient>
<radialGradient id="paint1_radial" cx="0" cy="0" r="1" gradientUnits="userSpaceOnUse" gradientTransform="translate(83.9762 83.381) rotate(-140.366) scale(76.5176)">
<stop stop-color="#FFEBA7" stop-opacity="0"/>
<stop offset="1" stop-color="#FEE488"/>
</radialGradient>
</defs>
</svg>
