<svg width="162" height="162" viewBox="0 0 162 162" fill="none" xmlns="http://www.w3.org/2000/svg">
<g filter="url(#filter0_d)">
<circle cx="81" cy="81" r="75" fill="url(#paint0_radial)" shape-rendering="crispEdges"/>
<circle cx="81" cy="81" r="73" stroke="#FFE487" stroke-width="4" shape-rendering="crispEdges"/>
</g>
<ellipse cx="45.2711" cy="46.4992" rx="21.836" ry="7.6817" transform="rotate(-41.6982 45.2711 46.4992)" fill="white" fill-opacity="0.4"/>
<circle cx="116.085" cy="114.894" r="7.14286" transform="rotate(-41.6982 116.085 114.894)" fill="white" fill-opacity="0.4"/>
<g filter="url(#filter1_d)">
<path d="M30.3947 92.16C30.0747 92.2133 29.8214 92.24 29.6347 92.24C28.5414 92.24 27.568 91.8933 26.7147 91.2C25.888 90.48 25.4747 89.5733 25.4747 88.48L25.4347 87.84C25.4347 86.5867 25.7147 85.1333 26.2747 83.48C26.8347 81.8267 27.528 80.48 28.3547 79.44C29.0214 78.6667 29.5947 78.04 30.0747 77.56C30.5547 77.08 30.9947 76.76 31.3947 76.6C31.7414 76.4667 32.1814 76.3467 32.7147 76.24C33.248 76.1333 33.648 76.08 33.9147 76.08C34.448 76.2133 34.9414 76.4 35.3947 76.64C35.8747 76.88 36.1147 77.1467 36.1147 77.44L36.3147 77.64C36.5014 77.64 36.7147 77.9333 36.9547 78.52C37.2214 79.1067 37.3547 79.64 37.3547 80.12C37.3547 80.36 37.3147 80.56 37.2347 80.72C37.128 81.2267 36.9147 81.72 36.5947 82.2C36.3014 82.68 36.048 82.92 35.8347 82.92C35.5414 82.92 35.3947 83 35.3947 83.16C35.3947 83.2933 35.2347 83.36 34.9147 83.36C34.648 83.36 34.368 83.3067 34.0747 83.2C33.7814 83.0667 33.608 82.9067 33.5547 82.72C33.5547 82.5867 33.6614 82.0533 33.8747 81.12C33.9547 80.72 33.9947 80.3867 33.9947 80.12C33.9947 79.64 33.8347 79.4 33.5147 79.4C33.4347 79.4 33.2347 79.4533 32.9147 79.56C32.2214 79.9333 31.6614 80.3733 31.2347 80.88C30.8347 81.36 30.4747 82.0267 30.1547 82.88C29.8347 83.7333 29.4614 84.9733 29.0347 86.6C28.9547 86.92 28.9147 87.2133 28.9147 87.48C28.9147 87.8 28.9547 88.0667 29.0347 88.28C29.1147 88.4667 29.1947 88.5733 29.2747 88.6C29.408 88.6533 29.648 88.68 29.9947 88.68C30.6614 88.68 31.1947 88.56 31.5947 88.32C32.0747 88.0533 32.5414 87.76 32.9947 87.44C33.448 87.0933 33.728 86.88 33.8347 86.8C33.888 86.7467 33.9947 86.6 34.1547 86.36C34.3147 86.0933 34.488 85.92 34.6747 85.84C34.8347 85.6 35.0347 85.4533 35.2747 85.4C35.5147 85.3467 35.7547 85.32 35.9947 85.32C36.2347 85.32 36.3947 85.32 36.4747 85.32C36.8214 85.4267 37.1547 85.6667 37.4747 86.04C37.7947 86.4133 37.848 86.6533 37.6347 86.76C37.5547 86.76 37.5014 86.7867 37.4747 86.84C37.448 86.8933 37.4347 86.9333 37.4347 86.96C37.488 87.0933 37.2747 87.4533 36.7947 88.04C36.3147 88.6 35.7814 89.1467 35.1947 89.68C34.608 90.1867 34.208 90.44 33.9947 90.44C33.888 90.44 33.7947 90.4533 33.7147 90.48C33.6347 90.5067 33.5947 90.5733 33.5947 90.68C33.5947 90.7867 33.1814 91.04 32.3547 91.44C31.5547 91.8133 30.9014 92.0533 30.3947 92.16ZM54.965 91.36C54.3783 91.6267 53.8717 91.76 53.445 91.76C52.6717 91.76 52.045 91.4533 51.565 90.84C51.085 90.2267 50.845 89.3333 50.845 88.16C50.845 86.9867 51.0717 85.72 51.525 84.36C51.605 84.1733 51.7117 83.9467 51.845 83.68C51.9783 83.4133 52.005 83.28 51.925 83.28C51.7917 83.28 51.5517 83.4533 51.205 83.8C49.8983 84.9733 48.805 86.2 47.925 87.48C47.0717 88.7333 46.645 89.7067 46.645 90.4C46.645 90.6933 46.525 90.92 46.285 91.08C46.0717 91.24 45.8183 91.32 45.525 91.32C45.3383 91.32 45.165 91.28 45.005 91.2C44.4183 90.8533 43.9383 90.3733 43.565 89.76C43.1917 89.12 43.045 88.3467 43.125 87.44C43.2317 85.6 43.4183 83.9867 43.685 82.6C43.9783 81.1867 44.525 79.1867 45.325 76.6C45.3517 76.52 45.605 75.84 46.085 74.56C46.9117 72.2133 47.3783 70.9333 47.485 70.72C47.6717 70.5333 47.9383 69.96 48.285 69C48.6583 68.0133 48.845 67.4133 48.845 67.2C48.845 66.9867 48.8983 66.7867 49.005 66.6C49.1383 66.3867 49.2183 66.2533 49.245 66.2C49.5383 65.5333 49.7917 65.2 50.005 65.2C50.245 65.2 50.6183 65.36 51.125 65.68C51.6583 65.9733 51.965 66.2533 52.045 66.52C52.2583 66.9467 52.365 67.3467 52.365 67.72C52.365 68.12 52.2583 68.6 52.045 69.16C51.8317 69.6933 51.4717 70.44 50.965 71.4C50.1917 72.9467 49.4717 74.72 48.805 76.72C48.485 77.5733 48.0983 78.7867 47.645 80.36C47.1917 81.9333 46.965 82.8667 46.965 83.16C46.965 83.3467 47.0583 83.44 47.245 83.44C47.4583 83.44 47.685 83.28 47.925 82.96C48.005 82.8 48.1783 82.6 48.445 82.36C48.7117 82.12 48.925 81.9067 49.085 81.72C49.645 81.0267 50.285 80.3333 51.005 79.64C51.725 78.9467 52.2717 78.6 52.645 78.6C53.605 78.6 54.325 79.2 54.805 80.4C54.9117 80.5067 54.9917 80.6133 55.045 80.72C55.0983 80.8267 55.1517 80.9067 55.205 80.96C55.3383 81.0933 55.405 81.4267 55.405 81.96C55.405 82.8667 55.1917 83.96 54.765 85.24C54.4717 86.4133 54.325 87.2133 54.325 87.64C54.325 87.9867 54.4183 88.16 54.605 88.16C54.685 88.1067 54.845 88.0133 55.085 87.88C55.325 87.7467 55.605 87.5867 55.925 87.4C56.5117 87.0533 56.9783 86.88 57.325 86.88C57.5917 86.88 57.7917 86.96 57.925 87.12C58.0583 87.2533 58.125 87.4267 58.125 87.64C58.125 87.8267 58.0317 88.1067 57.845 88.48C57.685 88.8533 57.605 89.0667 57.605 89.12V89.32C57.605 89.4267 57.245 89.7733 56.525 90.36C55.805 90.9467 55.285 91.28 54.965 91.36ZM67.0806 75.28C66.814 75.0933 66.6006 74.8533 66.4406 74.56C66.2806 74.2667 66.1873 73.9867 66.1606 73.72C66.134 73.4533 66.1606 73.2933 66.2406 73.24C66.4006 73.0533 66.5606 72.8 66.7206 72.48C66.8806 72.16 67.0006 71.9333 67.0806 71.8C67.294 71.32 67.4673 70.9733 67.6006 70.76C67.7873 70.3867 67.9606 70.1867 68.1206 70.16C68.334 70.0533 68.5073 70 68.6406 70C68.9873 70 69.3606 70.12 69.7606 70.36C70.1873 70.6 70.5073 70.88 70.7206 71.2C70.9073 71.6267 71.0006 72 71.0006 72.32C71.0006 72.96 70.694 73.6667 70.0806 74.44C69.814 74.7867 69.494 75.0533 69.1206 75.24C68.7473 75.4267 68.374 75.52 68.0006 75.52C67.6273 75.52 67.3206 75.44 67.0806 75.28ZM62.7606 91.32C62.3873 90.9467 62.2006 90.28 62.2006 89.32C62.2006 88.8133 62.2673 88.4267 62.4006 88.16C62.4006 88.0267 62.4273 87.8667 62.4806 87.68C62.534 87.4933 62.5606 87.3733 62.5606 87.32C62.534 87.16 62.6406 86.72 62.8806 86C63.2006 85.28 63.6006 84.1733 64.0806 82.68C64.5873 81.1867 64.934 80.12 65.1206 79.48C65.1206 79.3467 65.174 79.24 65.2806 79.16C65.3873 79.0533 65.5473 78.9867 65.7606 78.96C66.054 78.8533 66.4273 78.9867 66.8806 79.36C67.334 79.7067 67.7073 80.1067 68.0006 80.56C68.1606 80.72 68.2406 80.9333 68.2406 81.2C68.2406 81.6 68.0673 82.16 67.7206 82.88C67.5873 83.1733 67.454 83.5333 67.3206 83.96C67.214 84.3867 67.1206 84.7867 67.0406 85.16C66.7206 85.88 66.4673 86.5467 66.2806 87.16C66.2006 87.5067 66.1473 87.7733 66.1206 87.96C65.934 88.9467 65.7606 89.5867 65.6006 89.88C65.4406 90.5467 65.214 91.0533 64.9206 91.4C64.6273 91.72 64.294 91.88 63.9206 91.88C63.4673 91.88 63.0806 91.6933 62.7606 91.32ZM78.4122 91.64C78.0922 91.7733 77.7589 91.84 77.4122 91.84C76.8522 91.84 76.1722 91.6933 75.3722 91.4C75.2655 91.4 74.9055 91.1467 74.2922 90.64C73.7055 90.1067 73.3455 89.6933 73.2122 89.4C72.8922 88.9467 72.7322 88.3467 72.7322 87.6C72.7322 86.32 73.1855 84.5733 74.0922 82.36C74.3855 81.7467 74.8655 80.9467 75.5322 79.96C76.2255 78.9467 76.6922 78.3733 76.9322 78.24C77.0122 78.2133 77.1989 78.1467 77.4922 78.04C77.7855 77.9067 78.1189 77.7467 78.4922 77.56C78.6789 77.48 79.0655 77.3867 79.6522 77.28C80.2389 77.1467 80.6522 77.08 80.8922 77.08C81.3989 77.08 81.9589 77.2667 82.5722 77.64C83.1855 77.9867 83.6655 78.4 84.0122 78.88C84.3855 79.36 84.5189 79.7733 84.4122 80.12C84.3855 80.2267 84.2389 80.5467 83.9722 81.08C83.7055 81.5867 83.4922 81.92 83.3322 82.08C83.2255 82.2133 83.0255 82.28 82.7322 82.28C82.3855 82.28 82.0655 82.1867 81.7722 82C81.4789 81.8133 81.3189 81.5467 81.2922 81.2C81.2389 81.04 81.0655 80.8667 80.7722 80.68C80.5055 80.4933 80.3189 80.3733 80.2122 80.32C80.0255 80.32 79.7722 80.5067 79.4522 80.88C79.1322 81.2267 78.7455 81.7333 78.2922 82.4C77.7855 82.9067 77.4255 83.4533 77.2122 84.04C77.0255 84.6 76.8922 85.12 76.8122 85.6C76.7589 86.0533 76.7055 86.36 76.6522 86.52C76.5989 86.68 76.5722 86.84 76.5722 87C76.5722 87.2667 76.6255 87.5333 76.7322 87.8C76.8389 88.04 76.9455 88.1733 77.0522 88.2C77.5322 88.2267 78.2789 88.12 79.2922 87.88C80.3322 87.6133 81.2522 87.32 82.0522 87C82.4255 86.76 82.8255 86.64 83.2522 86.64C83.4389 86.64 83.6255 86.6667 83.8122 86.72C83.9989 86.7467 84.1322 86.7733 84.2122 86.8C84.4789 86.9067 84.6122 87.1467 84.6122 87.52C84.6122 87.8667 84.4922 88.2267 84.2522 88.6C84.0122 88.9733 83.6789 89.28 83.2522 89.52C82.7989 89.76 82.4122 90 82.0922 90.24C81.7722 90.48 81.6122 90.6667 81.6122 90.8C81.5589 90.8 81.4522 90.84 81.2922 90.92C81.1322 90.9733 81.0255 90.9867 80.9722 90.96C80.6789 90.9867 80.2255 91.08 79.6122 91.24C78.9989 91.4 78.5989 91.5333 78.4122 91.64ZM100.366 92.56C99.859 92.56 99.299 92.32 98.6856 91.84C98.0723 91.36 97.1656 90.3333 95.9656 88.76C95.9656 88.6 95.8056 88.2267 95.4856 87.64C95.1656 87.0533 94.9656 86.72 94.8856 86.64C94.8856 86.72 94.819 86.5733 94.6856 86.2C94.579 85.8 94.3923 85.6 94.1256 85.6C93.9923 85.6 93.7656 85.8933 93.4456 86.48C93.1523 87.04 92.8856 87.7067 92.6456 88.48C92.4056 89.2267 92.2856 89.8933 92.2856 90.48C92.2856 90.9067 92.1656 91.2933 91.9256 91.64C91.6856 91.96 91.3523 92.12 90.9256 92.12C90.579 92.04 90.1256 91.64 89.5656 90.92C89.0056 90.1733 88.7256 89.5867 88.7256 89.16L89.2856 87.48L90.0456 85.08C90.2856 84.7333 90.4723 84.32 90.6056 83.84C90.7656 83.3333 90.859 83.04 90.8856 82.96C91.1256 82.48 91.5656 81.4667 92.2056 79.92C92.6856 78.6933 93.0323 77.8667 93.2456 77.44C93.9656 75.7867 94.7656 73.9333 95.6456 71.88L95.7656 71.6C96.219 70.6667 96.6856 69.5867 97.1656 68.36C97.6723 67.1333 97.9656 66.32 98.0456 65.92V65.84V65.76C98.0456 65.5467 98.1923 65.3867 98.4856 65.28C98.8056 65.1733 99.2056 65.12 99.6856 65.12C99.9256 65.12 100.232 65.36 100.606 65.84C100.979 66.2933 101.166 66.7067 101.166 67.08C101.166 67.9867 100.379 70.12 98.8056 73.48C97.659 75.8533 96.819 77.68 96.2856 78.96C95.779 80.24 95.5256 81.0133 95.5256 81.28C95.5256 81.36 95.539 81.4 95.5656 81.4C95.619 81.3733 95.7256 81.3333 95.8856 81.28C96.0456 81.2 96.2323 81.0933 96.4456 80.96C96.6323 80.8533 97.019 80.5867 97.6056 80.16C98.6723 79.3067 99.4056 78.8267 99.8056 78.72C100.979 77.92 101.699 77.52 101.966 77.52C102.259 77.52 102.566 77.7067 102.886 78.08C103.206 78.4267 103.366 78.76 103.366 79.08C103.366 79.64 102.926 80.24 102.046 80.88C101.166 81.4933 99.979 82.2133 98.4856 83.04C97.739 83.44 97.3123 83.6933 97.2056 83.8C97.2056 83.8267 97.5256 84.2933 98.1656 85.2C98.379 85.6 98.5523 85.96 98.6856 86.28C98.8456 86.5733 98.9923 86.84 99.1256 87.08C99.5256 87.9067 99.8456 88.48 100.086 88.8C100.326 89.0933 100.672 89.24 101.126 89.24C101.259 89.24 101.486 89.2 101.806 89.12C102.126 89.0133 102.366 88.96 102.526 88.96C102.926 88.96 103.259 89.0933 103.526 89.36C103.792 89.6267 103.926 89.92 103.926 90.24C103.926 90.48 103.686 90.7867 103.206 91.16C102.752 91.5333 102.232 91.8533 101.646 92.12C101.059 92.4133 100.632 92.56 100.366 92.56ZM110.767 92.72C107.727 92.72 106.207 90.9867 106.207 87.52C106.207 86.2667 106.513 84.8533 107.127 83.28C107.767 81.68 108.553 80.2533 109.487 79C110.447 77.72 111.393 76.8667 112.327 76.44C112.833 76.1733 113.42 76.04 114.087 76.04C115.287 76.04 116.327 76.3067 117.207 76.84C118.113 77.3467 118.567 78.32 118.567 79.76C118.567 80.5867 118.287 81.4933 117.727 82.48C117.167 83.4667 116.46 84.3067 115.607 85C114.78 85.6667 113.967 86 113.167 86C111.967 86 110.953 85.6133 110.127 84.84C109.673 85.7467 109.447 86.6133 109.447 87.44C109.447 88.1067 109.527 88.6267 109.687 89C109.847 89.3467 110.22 89.52 110.807 89.52C111.367 89.52 111.82 89.44 112.167 89.28C112.513 89.12 112.833 88.9333 113.127 88.72C113.42 88.5067 113.647 88.3467 113.807 88.24L113.967 88.16H113.927C114.407 87.8933 114.753 87.6933 114.967 87.56C115.207 87.4 115.407 87.2933 115.567 87.24C115.967 87.24 116.34 87.36 116.687 87.6C117.033 87.84 117.207 88.1333 117.207 88.48C117.207 88.7467 116.967 89.1867 116.487 89.8C116.007 90.3867 115.513 90.8 115.007 91.04L114.527 91.28H114.567C114.327 91.6 114.087 91.76 113.847 91.76H113.527C113.42 91.9733 113.06 92.1867 112.447 92.4C111.86 92.6133 111.3 92.72 110.767 92.72ZM112.847 83.08C113.593 83.08 114.207 82.76 114.687 82.12C115.193 81.48 115.447 80.84 115.447 80.2C115.447 79.9067 115.367 79.64 115.207 79.4C115.073 79.16 114.887 79.04 114.647 79.04C114.193 79.04 113.687 79.2533 113.127 79.68C112.567 80.1067 112.073 80.6667 111.647 81.36L111.127 82.2C111.233 82.1467 111.313 82.12 111.367 82.12C111.58 82.12 111.74 82.2133 111.847 82.4C111.953 82.5867 112.073 82.7467 112.207 82.88C112.34 83.0133 112.553 83.08 112.847 83.08ZM137.046 82.64C137.046 83.0667 136.833 84.16 136.406 85.92C136.353 86.16 136.233 86.68 136.046 87.48C135.886 88.2533 135.793 88.84 135.766 89.24C135.766 89.5333 135.819 89.84 135.926 90.16C136.059 90.4533 136.126 90.6267 136.126 90.68C136.126 90.9467 136.006 91.2133 135.766 91.48C135.526 91.72 135.219 91.84 134.846 91.84C134.179 91.84 133.606 91.56 133.126 91C132.646 90.4133 132.406 89.6533 132.406 88.72C132.406 87.92 132.699 86.4267 133.286 84.24C133.339 83.9467 133.379 83.7333 133.406 83.6C133.459 83.44 133.486 83.3067 133.486 83.2C133.486 83.0667 133.446 83 133.366 83C133.179 83 132.913 83.1333 132.566 83.4C132.219 83.64 131.846 83.92 131.446 84.24L130.446 85.08C130.019 85.3467 129.126 86.08 127.766 87.28C127.579 87.4133 127.126 87.7867 126.406 88.4C125.713 88.9867 125.313 89.28 125.206 89.28C125.099 89.28 124.859 89.2 124.486 89.04C124.139 88.8533 123.806 88.6267 123.486 88.36C123.193 88.0933 123.046 87.7867 123.046 87.44C123.046 87.04 123.286 86.12 123.766 84.68C124.246 83.24 124.819 81.8267 125.486 80.44C125.566 80.2267 125.659 79.8267 125.766 79.24C125.873 78.28 126.046 77.68 126.286 77.44C126.446 77.1733 126.673 77.04 126.966 77.04C127.499 77.04 127.993 77.3067 128.446 77.84C128.926 78.3733 129.166 78.96 129.166 79.6C129.166 80.0533 129.033 80.6533 128.766 81.4C128.526 82.12 128.353 82.5467 128.246 82.68C128.326 82.6267 128.486 82.4933 128.726 82.28C128.993 82.04 129.339 81.7867 129.766 81.52C130.673 80.8267 131.353 80.36 131.806 80.12C132.259 79.8533 132.579 79.6533 132.766 79.52C132.873 79.44 132.953 79.3867 133.006 79.36C133.086 79.3067 133.139 79.28 133.166 79.28C133.246 79.2533 133.393 79.2 133.606 79.12C133.846 79.0133 134.033 78.96 134.166 78.96C134.566 78.96 134.979 79.1067 135.406 79.4C135.859 79.6667 136.086 79.9467 136.086 80.24C136.086 80.32 136.179 80.4667 136.366 80.68C136.553 80.8667 136.713 81.1067 136.846 81.4C136.979 81.6667 137.046 82.08 137.046 82.64Z" fill="white"/>
</g>
<defs>
<filter id="filter0_d" x="0" y="0" width="162" height="162" filterUnits="userSpaceOnUse" color-interpolation-filters="sRGB">
<feFlood flood-opacity="0" result="BackgroundImageFix"/>
<feColorMatrix in="SourceAlpha" type="matrix" values="0 0 0 0 0 0 0 0 0 0 0 0 0 0 0 0 0 0 127 0" result="hardAlpha"/>
<feOffset/>
<feGaussianBlur stdDeviation="3"/>
<feComposite in2="hardAlpha" operator="out"/>
<feColorMatrix type="matrix" values="0 0 0 0 1 0 0 0 0 1 0 0 0 0 1 0 0 0 0.25 0"/>
<feBlend mode="normal" in2="BackgroundImageFix" result="effect1_dropShadow"/>
<feBlend mode="normal" in="SourceGraphic" in2="effect1_dropShadow" result="shape"/>
</filter>
<filter id="filter1_d" x="21.4346" y="65.1201" width="119.611" height="35.6001" filterUnits="userSpaceOnUse" color-interpolation-filters="sRGB">
<feFlood flood-opacity="0" result="BackgroundImageFix"/>
<feColorMatrix in="SourceAlpha" type="matrix" values="0 0 0 0 0 0 0 0 0 0 0 0 0 0 0 0 0 0 127 0" result="hardAlpha"/>
<feOffset dy="4"/>
<feGaussianBlur stdDeviation="2"/>
<feComposite in2="hardAlpha" operator="out"/>
<feColorMatrix type="matrix" values="0 0 0 0 0 0 0 0 0 0 0 0 0 0 0 0 0 0 0.25 0"/>
<feBlend mode="normal" in2="BackgroundImageFix" result="effect1_dropShadow"/>
<feBlend mode="normal" in="SourceGraphic" in2="effect1_dropShadow" result="shape"/>
</filter>
<radialGradient id="paint0_radial" cx="0" cy="0" r="1" gradientUnits="userSpaceOnUse" gradientTransform="translate(83.9762 83.381) rotate(-140.366) scale(76.5176)">
<stop stop-color="#FFEBA7" stop-opacity="0"/>
<stop offset="1" stop-color="#FEE488"/>
</radialGradient>
</defs>
</svg>
