<svg width="367" height="140" viewBox="0 0 367 140" fill="none" xmlns="http://www.w3.org/2000/svg">
<path d="M12.8228 132.562C12.2967 132.549 11.8467 132.486 11.4729 132.373C11.1142 132.254 10.7564 131.984 10.3993 131.563C9.9319 130.958 9.54625 130.192 9.24239 129.265C8.9485 128.367 8.75265 127.59 8.65485 126.932C8.55207 126.258 8.52282 125.552 8.56711 124.814L8.61546 124.267C8.65451 123.564 8.69487 123.096 8.73654 122.864C8.80075 122.186 9.00534 121.269 9.35031 120.112C9.63918 119.041 9.88611 118.253 10.0911 117.748C10.2911 117.228 10.5033 116.796 10.7277 116.453C10.9673 116.106 11.4106 115.506 12.0576 114.654C12.3226 114.281 12.6832 114.02 13.1393 113.87C13.5195 113.746 13.9015 113.73 14.2856 113.823C14.6799 113.896 15.0179 114.08 15.2998 114.375C15.5617 114.609 15.7723 114.969 15.9317 115.456C16.1559 116.14 16.2379 116.904 16.1779 117.749C16.1179 118.594 15.922 119.306 15.5901 119.886C15.4829 120.073 15.3609 120.189 15.224 120.233C15.0568 120.288 14.7964 120.239 14.443 120.085C14.2215 119.872 14.0957 119.744 14.0655 119.704C14.0354 119.663 14.0558 119.623 14.1269 119.583C14.2089 119.371 14.302 118.987 14.406 118.431C14.5203 117.854 14.5783 117.414 14.5798 117.111C14.5803 117.01 14.5609 116.848 14.5216 116.625C14.4689 116.053 14.4127 115.676 14.3529 115.493C14.2931 115.311 14.1926 115.184 14.0513 115.112C13.9907 115.081 13.9224 115.078 13.8464 115.103C13.7248 115.143 13.5368 115.289 13.2825 115.541C12.9674 115.812 12.6157 116.306 12.2275 117.023C11.8393 117.739 11.5192 118.484 11.2673 119.257C10.8667 120.398 10.5736 121.328 10.3877 122.045C10.2171 122.758 10.1325 123.45 10.1341 124.123L10.0775 124.799C10.1126 124.854 10.1396 125.014 10.1585 125.277C10.1774 125.54 10.1737 125.76 10.1475 125.937C10.2236 126.889 10.4036 127.798 10.6875 128.665C10.9017 129.319 11.1442 129.879 11.415 130.346C11.701 130.808 11.9804 131.095 12.253 131.208C12.4095 131.274 12.6094 131.268 12.8527 131.188C13.1568 131.089 13.5044 130.89 13.8955 130.594C14.3019 130.292 14.7846 129.89 15.3438 129.387C15.6487 129.136 15.9233 128.869 16.1676 128.587C16.4271 128.3 16.608 128.055 16.7102 127.853C17.0109 127.435 17.2829 127.186 17.5262 127.106C17.6735 126.991 17.7776 126.923 17.8384 126.903C17.8688 126.893 17.8915 126.911 17.9064 126.956C17.9316 126.982 17.9541 127.025 17.974 127.086C18.0438 127.299 18.007 127.572 17.8636 127.905C17.7152 128.223 17.4883 128.558 17.1829 128.911C16.9784 129.315 16.6907 129.67 16.3198 129.977C15.9478 130.486 15.4797 130.984 14.9156 131.472C14.3667 131.955 13.8261 132.284 13.2939 132.458C13.1723 132.498 13.0153 132.532 12.8228 132.562ZM26.6473 127.452C26.3126 127.612 26.0539 127.722 25.8715 127.782C25.7042 127.836 25.5295 127.868 25.3473 127.878C25.1853 127.897 25.036 127.904 24.8994 127.898C24.7678 127.908 24.6691 127.915 24.6033 127.919C24.3658 127.862 24.141 127.793 23.9289 127.711C23.732 127.624 23.5957 127.568 23.52 127.542C23.5 127.481 23.4674 127.433 23.422 127.397C23.3767 127.362 23.3439 127.339 23.3237 127.328C23.2629 127.348 23.1698 127.244 23.0445 127.016C22.9344 126.782 22.8221 126.491 22.7075 126.141C22.583 125.761 22.4887 125.396 22.4248 125.047C22.3558 124.682 22.3343 124.437 22.3602 124.31C22.3403 124.25 22.3231 124.146 22.3087 123.999C22.3095 123.847 22.3024 123.748 22.2875 123.703C22.2476 123.581 22.2253 123.487 22.2206 123.422C22.2109 123.341 22.2289 123.293 22.2745 123.278C22.2897 123.273 22.31 123.258 22.3354 123.232C22.3609 123.207 22.3686 123.18 22.3586 123.149C22.3337 123.073 22.3218 122.934 22.3228 122.732C22.3239 122.529 22.3222 122.37 22.3177 122.253C22.3437 122.127 22.3632 121.775 22.3763 121.199C22.3674 120.966 22.3738 120.703 22.3955 120.409C22.3664 120.166 22.3688 119.711 22.4026 119.043L22.421 118.406C22.5144 117.971 22.5311 117.663 22.4714 117.48C22.4782 117.141 22.6176 116.102 22.8897 114.363C23.177 112.619 23.3848 111.558 23.5133 111.179C23.6467 110.815 23.7618 110.575 23.8585 110.46C23.9503 110.328 24.0722 110.238 24.2242 110.188C24.3608 110.194 24.5628 110.271 24.8302 110.419C25.0926 110.552 25.2513 110.677 25.3064 110.793C25.3263 110.854 25.2642 111.127 25.12 111.612C24.9861 112.077 24.8398 112.478 24.6812 112.817C24.6657 112.872 24.6579 112.925 24.6576 112.976C24.6574 113.026 24.6597 113.059 24.6647 113.074C24.618 113.292 24.5374 113.714 24.4229 114.341C24.3186 114.947 24.2811 115.347 24.3105 115.539C24.1977 115.812 24.0845 116.674 23.9708 118.126C23.9118 118.768 23.8721 119.109 23.8516 119.15C23.9114 119.332 23.9207 119.489 23.8796 119.62C23.8741 119.706 23.8677 119.969 23.8603 120.409C23.8682 120.845 23.8432 121.282 23.7852 121.722C23.8183 122.183 23.8186 122.62 23.7861 123.035C23.7638 123.43 23.722 123.687 23.6606 123.809C23.6499 123.93 23.6444 124.016 23.6441 124.067C23.6591 124.112 23.6945 124.117 23.7503 124.082C23.781 124.022 23.8039 123.989 23.8191 123.984C23.8343 123.979 23.8469 123.992 23.8569 124.022C23.8718 124.068 23.8612 124.164 23.825 124.31C23.8025 124.755 23.851 125.16 23.9706 125.525C24.1653 126.017 24.3434 126.329 24.5046 126.462C24.6658 126.594 24.9213 126.603 25.271 126.488C25.9856 126.254 26.8124 125.849 27.7515 125.272C28.1578 124.97 28.551 124.757 28.9311 124.633C29.3417 124.498 29.6553 124.505 29.8721 124.653C29.988 124.749 30.066 124.833 30.1061 124.904C30.1565 124.955 30.1991 125.034 30.2339 125.14C30.1875 125.307 29.7049 125.684 28.7861 126.271C27.8672 126.858 27.1543 127.252 26.6473 127.452ZM37.1643 123.956C36.877 123.747 36.1478 123.859 34.9768 124.294L34.779 124.384C34.4901 124.478 34.2168 124.492 33.9591 124.425C33.7014 124.358 33.568 124.233 33.5588 124.051C33.4597 123.646 34.0234 123.234 35.2501 122.815L36.4514 122.396L36.53 121.865C36.5371 121.476 36.5276 120.856 36.5016 120.006C36.483 119.692 36.4833 119.153 36.5024 118.389C36.4955 116.775 36.4874 115.902 36.4779 115.771C36.4942 115.563 36.4963 115.159 36.4842 114.556C36.4721 113.954 36.4544 113.463 36.4311 113.084C36.4234 110.645 36.3462 109.433 36.1994 109.447C36.0424 109.482 35.6342 109.649 34.9749 109.949C34.3258 110.229 33.9707 110.405 33.9096 110.475C33.8839 110.551 33.8179 110.606 33.7114 110.641C33.6202 110.671 33.5114 110.673 33.3851 110.647C33.2537 110.606 33.1579 110.545 33.0976 110.463C33.0625 110.407 33.0275 110.326 32.9926 110.22C32.9577 110.113 32.976 110.015 33.0473 109.924C33.1697 109.733 33.4848 109.461 33.9926 109.109C34.5106 108.738 35.0257 108.434 35.5379 108.199C35.7865 108.084 36.0275 107.946 36.2611 107.785C36.5049 107.604 36.6753 107.431 36.7723 107.264C37.0567 107.053 37.3078 106.92 37.5257 106.866C37.657 106.907 37.928 106.86 38.3385 106.726C38.6882 106.611 38.9518 106.517 39.1293 106.442C39.6567 106.201 40.1105 106.019 40.4906 105.895C40.7795 105.8 40.9948 105.763 41.1363 105.784C41.2931 105.8 41.4319 105.864 41.5528 105.976C41.6933 106.199 41.776 106.349 41.8009 106.425C41.8955 106.714 41.7731 106.906 41.4336 107C41.1951 107.145 40.5866 107.395 39.6083 107.749C38.5586 108.194 38.0157 108.49 37.9795 108.637C37.9284 108.738 37.89 108.826 37.8643 108.902C37.8538 108.972 37.8357 109.046 37.8101 109.121C37.8452 109.177 37.8719 109.387 37.8903 109.752C37.9189 110.096 37.9271 110.455 37.9151 110.83L37.9006 112.173C37.9082 113.635 37.901 114.538 37.879 114.882C37.8573 115.176 37.8684 115.467 37.9125 115.755C37.9479 116.737 37.9691 117.521 37.9762 118.108C37.9783 118.68 37.9861 119.141 37.9995 119.49C37.9895 120.436 38.0032 121.223 38.0404 121.85L39.3031 121.31C40.1703 120.925 40.7407 120.688 41.0144 120.598C41.2272 120.528 41.3792 120.504 41.4701 120.525C41.5763 120.54 41.6746 120.609 41.7651 120.731C42.0222 120.899 42.1757 121.06 42.2255 121.212C42.2853 121.394 42.1832 121.571 41.9192 121.741C41.6553 121.912 41.2167 122.089 40.6035 122.273C39.914 122.533 39.3361 122.748 38.8698 122.917C38.4236 123.097 38.1243 123.237 37.972 123.338C37.8349 123.433 37.7686 123.539 37.7731 123.655C37.8129 123.777 37.7644 123.86 37.6276 123.905C37.4755 123.955 37.3211 123.972 37.1643 123.956ZM50.3004 120.082C50.1481 120.182 49.9807 120.262 49.7982 120.322C49.3725 120.461 48.8815 120.504 48.3252 120.451C47.7689 120.397 47.2459 120.266 46.7562 120.056C46.5446 119.872 46.2452 119.55 45.858 119.087C45.4658 118.61 45.2801 118.325 45.3008 118.234C45.3215 118.143 45.3245 118.05 45.3098 117.953C45.2902 117.842 45.2603 117.751 45.2202 117.68C45.1599 117.599 45.1148 117.512 45.0849 117.421C44.9305 116.95 44.8665 116.112 44.8929 114.908C44.9144 113.689 45.0102 112.285 45.1803 110.697C45.2812 109.772 45.5193 108.726 45.8947 107.559C46.2853 106.387 46.7208 105.327 47.2013 104.378C47.6921 103.409 48.128 102.761 48.5092 102.434C48.7328 102.243 48.9206 102.123 49.0727 102.073C49.5896 101.903 50.121 101.881 50.6668 102.005C51.2077 102.114 51.6873 102.319 52.1057 102.62C52.3524 102.859 52.5911 103.176 52.8218 103.572C53.0525 103.968 53.2326 104.363 53.3621 104.759C53.4767 105.109 53.5307 105.428 53.5241 105.716C53.5186 105.802 53.5079 105.923 53.4919 106.08C53.4759 106.237 53.4374 106.35 53.3763 106.421C53.3304 106.487 53.2416 106.549 53.1097 106.609C53.0588 106.66 52.9575 106.684 52.8057 106.684C52.6692 106.678 52.4998 106.649 52.2977 106.598C52.2169 106.557 52.121 106.521 52.0098 106.49C51.9139 106.454 51.8482 106.433 51.8128 106.428C51.7979 106.382 51.7731 106.281 51.7385 106.124C51.7141 105.947 51.7074 105.772 51.7184 105.6C51.7258 105.16 51.6672 104.75 51.5426 104.37C51.4181 103.99 51.2426 103.685 51.0161 103.456C50.8048 103.223 50.5675 103.115 50.3043 103.134C49.9496 103.233 49.5557 103.573 49.1227 104.153C48.6896 104.732 48.3217 105.434 48.0189 106.257C47.0907 108.665 46.5738 110.788 46.4682 112.624C46.4325 113.646 46.4428 114.602 46.4989 115.493C46.5702 116.379 46.6603 117.065 46.7691 117.551C46.8745 117.719 46.9496 117.871 46.9944 118.008C47.0393 118.145 47.0313 118.223 46.9705 118.243C47.0607 118.415 47.219 118.616 47.4455 118.845C47.6872 119.069 47.909 119.232 48.1109 119.334C48.2522 119.406 48.4369 119.404 48.6649 119.329L48.8399 119.247C49.1133 119.208 49.5317 119.02 50.0951 118.684C50.6535 118.333 50.9888 118.071 51.101 117.9C51.1416 117.87 51.2305 117.807 51.3676 117.711C51.5047 117.616 51.6264 117.551 51.7329 117.516C51.8346 117.415 52.0024 117.259 52.2362 117.048C52.4651 116.822 52.6432 116.62 52.7706 116.444C53.1061 116.132 53.4414 115.87 53.7765 115.66C54.1115 115.449 54.3448 115.339 54.4764 115.329C54.4662 115.349 54.4507 115.405 54.43 115.496C54.4195 115.567 54.4164 115.686 54.4206 115.853C54.3639 116.04 54.2004 116.363 53.9298 116.822C53.6543 117.265 53.4886 117.505 53.4328 117.54C53.2147 117.645 52.9503 117.892 52.6397 118.28C51.8506 119.212 51.0709 119.812 50.3004 120.082ZM68.2223 97.8195C68.3026 97.9616 68.3094 98.1109 68.2428 98.2674C68.1864 98.4037 68.0209 98.6179 67.7462 98.9099C67.1715 99.4686 66.866 99.8465 66.8296 100.044C66.7735 100.129 66.641 100.316 66.432 100.603C66.2383 100.886 65.9911 101.236 65.6904 101.654C65.2269 102.244 64.832 102.786 64.5056 103.28C64.1945 103.769 64.0004 104.127 63.9233 104.355C63.8777 104.37 63.8243 104.412 63.7633 104.483C63.7174 104.548 63.6691 104.581 63.6185 104.581C63.5931 104.606 63.5396 104.674 63.4581 104.785C63.3766 104.896 63.323 104.989 63.2973 105.065C63.2915 105.201 63.2554 105.348 63.1888 105.505C63.1324 105.641 63.0333 105.724 62.8915 105.753C62.6524 106 62.2192 106.605 61.5919 107.568C62.0819 108.704 62.7146 109.633 63.4901 110.356C64.2498 111.184 64.9325 111.752 65.5381 112.059C65.972 112.304 66.3581 112.48 66.6966 112.588C67.0502 112.692 67.3031 112.718 67.4551 112.668C67.6069 112.669 67.8318 112.713 68.1299 112.801C68.428 112.888 68.602 112.983 68.6521 113.084C68.6773 113.11 68.7048 113.168 68.7347 113.259C68.8094 113.487 68.8262 113.667 68.785 113.798C68.7591 113.925 68.7308 114.018 68.7001 114.079C68.6744 114.155 68.6084 114.21 68.5019 114.245C68.3347 114.3 68.1095 114.306 67.8264 114.264C67.5881 114.359 67.0952 114.268 66.3478 113.991C65.6004 113.714 65.0023 113.43 64.5535 113.139C63.9487 112.681 63.4145 112.258 62.951 111.871C62.5027 111.479 62.1079 111.019 61.7666 110.491C61.6161 110.237 61.3676 109.864 61.021 109.372C60.8199 109.118 60.6918 108.932 60.6368 108.816L60.4948 108.382L60.4453 109.156C60.445 109.207 60.4284 109.49 60.3954 110.006C60.3775 110.517 60.3983 111.402 60.4576 112.663L60.4812 113.968C60.4901 115.177 60.4811 115.946 60.4541 116.275C60.4423 116.599 60.3756 116.781 60.254 116.821C60.1931 116.841 60.0971 116.83 59.9657 116.789C59.8546 116.758 59.7712 116.735 59.7156 116.719C59.5691 116.683 59.463 116.642 59.3975 116.596C59.332 116.55 59.2842 116.482 59.2544 116.39C59.2195 116.284 59.1952 116.081 59.1816 115.783C59.1016 115.59 59.0546 115.395 59.0404 115.198C59.0263 115 59.0142 114.886 59.0042 114.856C59.1107 114.821 59.124 114.682 59.0443 114.439C59.0045 114.317 58.9857 114.029 58.9881 113.573L58.9617 112.799L59.0187 112.048C59.0465 111.567 59.0554 111.312 59.0454 111.282C58.9807 111.084 58.9973 110.801 59.0954 110.432C59.0964 110.229 59.0849 110.014 59.0607 109.787C59.0366 109.559 59.0021 109.376 58.9573 109.24C58.9628 109.154 58.9891 108.951 59.0363 108.633C59.0835 108.314 59.0927 108.008 59.0638 107.715C59.0541 107.634 59.0495 107.542 59.0501 107.441C59.0658 107.335 59.074 107.206 59.0748 107.054L59.155 104.755L59.243 103.868C59.2485 103.782 59.2702 103.514 59.3079 103.063C59.3609 102.608 59.4177 102.371 59.4786 102.351L59.3964 102.1C59.3764 102.039 59.3953 101.814 59.453 101.425L59.5473 100.788C59.6042 100.55 59.6332 100.33 59.6342 100.128C59.6455 99.9054 59.6488 99.7612 59.644 99.6954C59.6493 99.66 59.6623 99.5968 59.683 99.5059C59.7037 99.4149 59.7345 99.329 59.7754 99.2483C59.9028 99.0719 60.0349 98.9612 60.1717 98.9164C60.3846 98.8466 60.6169 98.9389 60.8685 99.1932C61.0447 99.3712 61.1602 99.5438 61.215 99.7111C61.2648 99.8631 61.2562 100.068 61.1891 100.326C61.0357 101.605 60.8848 102.917 60.7362 104.262C60.6028 105.602 60.5659 106.364 60.6257 106.546L61.2144 105.722C61.4802 105.197 61.9393 104.466 62.5918 103.528L64.6499 100.328C65.0059 99.976 65.3981 99.4771 65.8264 98.8317C65.9486 98.6907 66.0428 98.5672 66.1091 98.4613C66.1754 98.3554 66.234 98.2772 66.2849 98.2269C66.3512 98.121 66.4913 97.932 66.7052 97.6599C66.9142 97.3725 67.0591 97.224 67.1401 97.2143C67.2825 97.0835 67.4899 97.0997 67.7622 97.2631C68.0346 97.4264 68.188 97.6118 68.2223 97.8195ZM85.2588 108.098C85.2179 108.179 85.167 108.229 85.1062 108.249C85.0302 108.274 84.886 108.271 84.6737 108.24C84.4611 108.259 84.2967 108.245 84.1805 108.199C84.0694 108.168 83.9914 108.084 83.9466 107.947C83.8968 107.795 83.8877 107.588 83.9194 107.325C83.9716 107.022 83.9054 105.637 83.7207 103.172C83.6505 102.084 83.6153 101.54 83.6153 101.54C83.6103 101.525 83.5635 101.279 83.4749 100.803C83.4458 100.56 83.3772 100.12 83.2692 99.4815C83.3371 99.072 83.3342 98.652 83.2605 98.2216C83.1971 97.771 83.163 97.5127 83.1583 97.4469C83.1302 97.0015 83.1191 96.7105 83.1248 96.574L83.0686 95.7085L83.0336 95.1391C83.0155 94.7241 82.989 94.4634 82.9541 94.3569L82.8346 93.992L81.9907 94.2685L81.5648 94.4332L80.6907 94.6944C80.4728 94.7489 80.1738 94.8384 79.7937 94.963C79.0691 95.1667 78.5678 95.2552 78.2896 95.2284C78.0065 95.1865 77.8025 95.0008 77.6777 94.6712C77.5624 94.4733 77.5784 94.3165 77.7257 94.2009C77.8681 94.0701 78.2433 93.9051 78.8515 93.7058C79.3837 93.5315 79.8347 93.3921 80.2046 93.2878C80.4125 93.2028 80.7141 93.0956 81.1094 92.9661C81.5352 92.8266 81.8874 92.7197 82.166 92.6452C82.4599 92.5658 82.6297 92.5186 82.6753 92.5036C82.7059 92.4431 82.724 92.3698 82.7295 92.2838C82.735 92.1978 82.7379 92.1295 82.7382 92.0789C82.6535 91.8205 82.6848 91.6334 82.8321 91.5178C82.8586 91.2902 82.9403 91.1541 83.0771 91.1092C83.2596 91.0494 83.497 91.1316 83.7893 91.3558C83.8446 91.4218 83.935 91.5437 84.0606 91.7215C84.1964 91.879 84.335 91.9936 84.4763 92.0651C84.5171 91.9844 84.7024 91.8816 85.0319 91.7568C85.3614 91.632 85.5921 91.5396 85.724 91.4796C86.0129 91.3849 86.3069 91.2802 86.606 91.1654C86.9001 91.0353 87.1004 90.9529 87.2068 90.918C87.3188 90.7972 87.5192 90.6894 87.8081 90.5948C87.9449 90.5499 88.14 90.5029 88.3932 90.4536C88.7429 90.339 88.9912 90.2745 89.138 90.2601C89.3 90.2407 89.4162 90.2615 89.4868 90.3226C89.5416 90.4899 89.6194 90.599 89.7204 90.6502C89.7961 90.6758 89.8415 90.7115 89.8564 90.7571C89.8664 90.7875 89.8584 90.8659 89.8324 90.9923C89.7708 91.164 89.5196 91.3221 89.0786 91.4665L88.6071 91.6462C88.2826 91.7862 88.0443 91.8811 87.8923 91.931C87.3239 92.2518 86.477 92.6219 85.3516 93.0411C84.7282 93.2453 84.4364 93.4083 84.4763 93.5299C84.3851 93.5598 84.3721 94.1112 84.4374 95.1842C84.4657 95.579 84.4765 95.9459 84.4697 96.2849C84.4731 96.6037 84.4618 96.8262 84.4359 96.9526C84.5014 96.9985 84.5466 97.0594 84.5715 97.1355C84.5964 97.2115 84.6056 97.3937 84.5991 97.682C84.6083 97.8642 84.6098 98.0489 84.6038 98.2361C84.5928 98.4081 84.6022 98.5397 84.6321 98.6309C84.6369 98.6967 84.6411 98.8637 84.6447 99.1319C84.6586 99.3799 84.6901 99.6558 84.7391 99.9596C84.9022 100.714 84.9428 101.172 84.8611 101.334C84.8558 101.369 84.8377 101.443 84.8068 101.554C84.7911 101.66 84.8006 101.766 84.8355 101.873C84.9053 102.086 84.9766 102.483 85.0495 103.065C85.1174 103.632 85.1284 103.949 85.0825 104.014C85.1281 103.999 85.1659 104.037 85.1958 104.129C85.2306 104.235 85.2373 104.41 85.2158 104.652C85.2557 104.774 85.2802 104.926 85.2894 105.108C85.2986 105.29 85.3131 105.412 85.333 105.473L85.3291 106.232C85.3231 107.395 85.2997 108.018 85.2588 108.098ZM95.9249 103.771C94.4477 103.733 93.4401 102.893 92.9021 101.25C92.7925 100.916 92.696 100.493 92.6127 99.9814C92.5136 99.5762 92.4529 99.0825 92.4306 98.5005C92.4321 98.197 92.4084 97.8933 92.3594 97.5894C92.3494 97.559 92.3472 97.5008 92.3527 97.4148C92.3582 97.3288 92.3458 97.2655 92.3157 97.2249C92.3322 96.9669 92.3568 96.6053 92.3896 96.14C92.4376 95.6697 92.4769 95.4042 92.5076 95.3437C92.5584 95.2933 92.5764 95.2454 92.5614 95.1998C92.5617 95.1492 92.5593 95.1163 92.5543 95.1011C92.4896 94.9034 92.5554 94.4104 92.7517 93.6221C92.9632 92.8288 93.2102 92.0408 93.4925 91.258C93.7748 90.4752 93.9616 90.0688 94.0528 90.0389C94.0832 90.029 94.1113 89.9861 94.137 89.9104C94.1577 89.8194 94.1756 89.7714 94.1908 89.7664C94.2524 89.5947 94.5273 89.2774 95.0154 88.8144C95.5187 88.3464 95.9683 87.9971 96.3642 87.7664C96.6892 87.5252 96.981 87.3623 97.2395 87.2776C97.9237 87.0534 98.5503 87.2186 99.1192 87.773C99.688 88.3275 100.199 89.2459 100.653 90.5284C100.682 90.7714 100.754 91.1183 100.868 91.5692C100.952 91.9289 100.994 92.134 100.994 92.1846C101.128 92.6458 101.216 93.2483 101.258 93.9923C101.31 94.7161 101.308 95.0956 101.252 95.1307C101.267 95.1763 101.269 95.2345 101.259 95.3053C101.248 95.3761 101.25 95.4343 101.265 95.4799C101.325 95.6118 101.284 96.1555 101.143 97.111C100.996 98.0514 100.895 98.5391 100.839 98.5743C100.824 98.5792 100.804 98.5943 100.778 98.6195C100.768 98.6397 100.778 98.6701 100.808 98.7107C100.839 98.7513 100.762 98.928 100.578 99.2408C100.409 99.5486 100.272 99.7199 100.165 99.7548C100.15 99.7597 100.138 99.7723 100.127 99.7925C100.132 99.8077 100.157 99.8331 100.203 99.8688C100.248 99.9044 100.118 100.149 99.812 100.603C99.5163 101.037 99.1749 101.485 98.788 101.949C98.4163 102.407 98.1035 102.712 97.8498 102.862C97.8089 102.943 97.7529 103.003 97.6819 103.043C97.626 103.079 97.5905 103.099 97.5753 103.104C97.4526 103.346 97.1784 103.537 96.7527 103.676C96.4334 103.781 96.1575 103.812 95.9249 103.771ZM97.3106 101.448C97.717 101.146 98.1267 100.675 98.5398 100.035C98.9632 99.3741 99.1732 98.8844 99.1698 98.5657C99.1561 98.2671 99.2003 98.0421 99.3023 97.8909C99.4658 97.5679 99.6061 96.8653 99.723 95.7831C99.8501 94.6808 99.8716 93.9498 99.7874 93.5901C99.7575 93.4989 99.733 93.3469 99.7139 93.1343C99.6897 92.9065 99.6931 92.737 99.7241 92.6259C99.7398 92.5197 99.703 92.3045 99.6136 91.9802C99.5192 91.6407 99.3577 91.0707 99.129 90.27C98.9044 89.687 98.7294 89.2813 98.6041 89.053C98.489 88.8045 98.3682 88.6673 98.2419 88.6413C98.1711 88.6308 98.0597 88.6505 97.9076 88.7003C97.7252 88.7601 97.5477 88.8351 97.3752 88.9252C97.1977 89.0002 97.048 89.0829 96.9261 89.1734C96.8805 89.1883 96.8145 89.2436 96.728 89.3393C96.6414 89.435 96.5678 89.4928 96.507 89.5127C96.4053 89.6134 96.3389 89.7193 96.308 89.8305C96.2721 89.9264 96.2641 90.0048 96.284 90.0656C96.3288 90.2025 96.3054 90.3364 96.2136 90.4675C96.1371 90.5936 96.0255 90.6386 95.879 90.6024C95.5799 90.7172 95.3869 90.8478 95.3002 90.9941C95.2134 91.1404 95.1414 91.3576 95.0843 91.6457C95.0272 91.9338 94.9856 92.141 94.9597 92.2674C94.6742 92.6808 94.4849 93.0795 94.3919 93.4636C94.2988 93.8476 94.2643 94.1536 94.2885 94.3814C94.0806 95.4429 93.9606 96.1557 93.9283 96.5198C93.8911 96.8687 93.9268 97.3116 94.0353 97.8485C93.9884 98.1164 93.9767 98.4149 94.0003 98.7439C94.0391 99.0679 94.0507 99.283 94.035 99.3892C94.0339 99.5916 94.1455 100.035 94.3696 100.719C94.6038 101.434 94.7963 101.867 94.9473 102.02C95.1681 102.385 95.5217 102.488 96.0083 102.329C96.4036 102.199 96.8377 101.906 97.3106 101.448ZM120.537 96.3892C120.227 96.5749 119.943 96.71 119.685 96.7947C118.833 97.0736 117.958 97.0995 117.058 96.8722C116.169 96.6248 115.486 96.1583 115.009 95.4728C114.682 95.0916 114.572 94.8836 114.678 94.8487C114.754 94.8238 114.785 94.7885 114.77 94.7429C114.755 94.6973 114.707 94.6541 114.626 94.6132C114.586 94.5927 114.543 94.5141 114.498 94.3772C114.453 94.2404 114.431 94.0961 114.432 93.9443C114.448 93.7875 114.494 93.6967 114.57 93.6718C114.722 93.622 114.914 93.6432 115.147 93.7355C115.379 93.8277 115.459 93.9192 115.388 94.0099C115.418 94.0506 115.481 94.1394 115.577 94.2765C115.672 94.4136 115.742 94.5759 115.787 94.7634C115.837 94.8142 115.933 94.9007 116.074 95.0229C116.215 95.145 116.356 95.2419 116.497 95.3135C116.638 95.385 116.818 95.4441 117.035 95.4908C117.353 95.5886 117.601 95.6506 117.778 95.6768C117.965 95.6828 118.241 95.626 118.606 95.5065C118.91 95.4069 119.123 95.2612 119.246 95.0696C119.368 94.878 119.507 94.5295 119.661 94.0244C119.582 93.5787 119.159 92.8252 118.39 91.7637C117.632 90.6821 116.709 89.5364 115.622 88.3266C115.471 88.174 115.341 88.0316 115.23 87.8995C115.119 87.7674 115.049 87.681 115.019 87.6404C115.009 87.5594 114.979 87.4428 114.93 87.2908C114.88 87.1387 114.807 86.9942 114.712 86.8571C114.611 86.806 114.47 86.5573 114.29 86.1111L114.08 85.6243C113.981 85.219 113.922 84.9354 113.903 84.7734C113.894 84.5912 113.928 84.3611 114.005 84.0832C114.242 83.2648 114.612 82.5457 115.117 81.9259C115.631 81.286 116.342 80.7331 117.25 80.2672C117.433 80.1569 117.699 80.0444 118.049 79.9298C118.414 79.8103 118.789 79.7211 119.173 79.6624C119.553 79.5885 119.827 79.5747 119.993 79.6211C120.398 79.6738 120.741 79.7717 121.024 79.9148C121.307 80.0579 121.579 80.2466 121.841 80.4806C122.017 80.6586 122.122 80.8009 122.157 80.9073C122.187 80.9985 122.171 81.1806 122.109 81.4535C121.991 81.7109 121.734 82.0562 121.337 82.4893C120.94 82.9224 120.562 83.2316 120.201 83.4169C120.11 83.4974 120.044 83.5527 120.003 83.5829C119.973 83.5929 119.948 83.5674 119.928 83.5066C119.949 83.4156 119.944 83.3498 119.914 83.3092C119.883 83.2686 119.858 83.2431 119.838 83.2329C119.716 83.2728 119.646 83.2623 119.626 83.2015C119.601 83.1254 119.622 82.9839 119.689 82.7768C119.771 82.5647 119.868 82.3223 119.981 82.0497C120.175 81.6156 120.288 81.3429 120.319 81.2318C120.345 81.1054 120.315 81.0142 120.229 80.9581C120.042 80.9014 119.607 80.9852 118.923 81.2094C118.527 81.3389 118.2 81.4713 117.942 81.6066C117.226 82.0937 116.659 82.6498 116.24 83.2751C115.817 83.8851 115.635 84.4585 115.693 84.9951C115.666 85.2732 115.675 85.4807 115.72 85.6176C115.785 85.8152 115.953 86.0969 116.224 86.4626C116.379 86.8328 116.509 87.1269 116.614 87.345C116.729 87.5429 116.79 87.6495 116.795 87.6647C116.81 87.7103 116.855 87.7966 116.93 87.9235C117.005 88.0503 117.093 88.2405 117.193 88.494C117.404 88.7785 117.795 89.0208 118.365 89.2211C118.535 89.5863 118.711 89.8908 118.892 90.1345C119.032 90.3579 119.13 90.5279 119.185 90.6446C119.698 91.1835 120.148 91.7601 120.535 92.3744C120.936 92.9836 121.199 93.4783 121.324 93.8584C121.409 94.1169 121.413 94.2586 121.337 94.2835C121.322 94.2885 121.322 94.3138 121.337 94.3594C121.352 94.405 121.367 94.4253 121.382 94.4203C121.432 94.5724 121.352 94.8679 121.142 95.3071C120.927 95.731 120.726 96.0917 120.537 96.3892ZM131.171 93.0569C130.665 93.1049 130.131 93.0693 129.57 92.95C129.029 92.841 128.693 92.69 128.563 92.497C128.538 92.421 128.488 92.3702 128.412 92.3445C128.331 92.3036 128.253 92.2956 128.177 92.3205L128.117 92.138L128.065 91.9784C128.03 91.872 127.977 91.8135 127.906 91.803C127.755 91.6504 127.622 91.3993 127.508 91.0496C127.358 90.5934 127.242 90.0337 127.16 89.3705C127.087 88.6871 127.058 88.057 127.071 87.4802C127.036 87.3738 127.014 87.2295 127.005 87.0473C127.011 86.8601 127.006 86.7437 126.991 86.6981C126.998 86.3085 127.06 85.6739 127.176 84.7941C127.292 83.9143 127.421 83.2825 127.565 82.8987C127.55 82.8531 127.571 82.7368 127.628 82.5499C127.694 82.3428 127.723 82.1481 127.714 81.9659C127.878 81.643 128.05 81.0645 128.231 80.2306C128.619 79.6153 128.71 79.1478 128.504 78.8279C128.44 78.5797 128.421 78.3924 128.447 78.266C128.468 78.1244 128.549 77.9883 128.692 77.8574C128.844 77.7064 129.111 77.5181 129.491 77.2923C129.903 76.9555 130.35 76.6744 130.831 76.4492C131.308 76.2088 131.952 75.9389 132.763 75.6395C132.946 75.5291 133.103 75.4439 133.235 75.3839C133.382 75.3189 133.471 75.2814 133.501 75.2714C133.542 75.1907 133.841 75.177 134.397 75.2305C134.964 75.2638 135.244 75.3234 135.239 75.4094C135.268 75.5512 135.1 75.7578 134.735 76.0292C134.369 76.3005 133.938 76.5513 133.441 76.7814C132.518 77.2017 131.825 77.5801 131.363 77.9167C130.916 78.2484 130.567 78.6488 130.317 79.1181C130.077 79.5672 129.846 80.2237 129.624 81.0878C129.453 81.7497 129.337 82.2425 129.274 82.566C129.227 82.8845 129.224 83.1046 129.263 83.2262C129.288 83.3022 129.336 83.3455 129.407 83.356C129.493 83.3615 129.604 83.3418 129.741 83.297C129.878 83.2521 130.033 83.1846 130.205 83.0945C130.373 82.9891 130.502 82.9214 130.593 82.8915C130.69 82.8263 130.913 82.6857 131.263 82.47C131.614 82.2542 131.956 82.0662 132.291 81.9061L133.182 81.387C133.506 81.1964 133.768 81.0687 133.965 81.0039C134.482 80.8346 134.781 80.8715 134.86 81.1148C134.9 81.2364 134.861 81.4007 134.744 81.6075C134.626 81.8144 134.443 82.0259 134.194 82.2422C133.955 82.4383 133.678 82.6469 133.364 82.8679C133.049 83.0889 132.846 83.2143 132.755 83.2442C132.729 83.2694 132.658 83.3095 132.541 83.3645C132.44 83.4146 132.306 83.4671 132.138 83.5218L131.157 83.9949L130.434 84.3327C130.297 84.4282 130.02 84.6114 129.604 84.8825C129.183 85.1384 128.921 85.3672 128.819 85.5691C128.716 85.771 128.654 86.0439 128.632 86.3878C128.584 86.9593 128.618 87.7058 128.735 88.6273C128.851 89.5487 129.007 90.306 129.201 90.8989C129.341 91.3247 129.481 91.5733 129.622 91.6449C129.769 91.7317 129.976 91.7732 130.244 91.7695C130.507 91.7506 130.798 91.6889 131.118 91.5843C131.543 91.4448 131.959 91.2496 132.365 90.9987C132.787 90.7429 133.117 90.4663 133.356 90.169C133.57 89.8463 133.833 89.5668 134.142 89.3306C134.27 89.1542 134.371 89.0535 134.448 89.0286C134.524 89.0037 134.645 89.0144 134.812 89.0608C134.978 89.1072 135.1 89.1433 135.175 89.169C135.402 89.3472 135.533 89.4896 135.568 89.596C135.628 89.7785 135.561 89.9856 135.367 90.2173C135.174 90.4491 134.782 90.8215 134.193 91.3345C133.558 91.8119 133.045 92.1736 132.654 92.4195C132.263 92.6654 131.893 92.8456 131.543 92.9602L131.171 93.0569ZM144.835 88.5047C144.495 88.5991 144.156 88.6176 143.817 88.5602C143.479 88.5028 143.08 88.3894 142.62 88.2201L142.059 88.0502C141.696 87.8662 141.391 87.6546 141.144 87.4155C140.908 87.1563 140.667 86.8059 140.421 86.3645C140.331 86.192 140.263 86.0373 140.218 85.9005C140.074 85.4595 139.981 84.9176 139.938 84.2748C139.891 83.6168 139.897 83.0679 139.955 82.628C140.025 81.7125 140.339 80.1785 140.897 78.026C140.938 77.9452 140.963 77.8948 140.973 77.8746C140.994 77.8342 140.996 77.8165 140.981 77.8215C140.976 77.8063 140.974 77.7987 140.974 77.7987C140.939 77.6923 141.005 77.1487 141.172 76.168C141.341 75.8096 141.393 75.5316 141.328 75.3339C141.293 75.2275 141.243 75.1513 141.177 75.1054C141.092 75.0493 141.169 74.8221 141.409 74.4236C141.659 74.0049 141.995 73.5664 142.417 73.1082C142.723 72.6544 143.074 72.3627 143.469 72.2332C143.591 72.1934 143.697 72.1838 143.788 72.2045C143.889 72.205 143.96 72.2408 144 72.3119C144.03 72.4031 144.324 72.2731 144.882 71.9218C145.136 71.7713 145.321 71.6685 145.438 71.6134C145.474 71.5175 145.606 71.4069 145.834 71.2815C146.073 71.136 146.41 70.9582 146.846 70.7479C147.095 70.6834 147.346 70.6012 147.599 70.5013C147.853 70.4014 148.015 70.3314 148.086 70.2913C148.193 70.2059 148.329 70.1863 148.496 70.2327C148.673 70.2589 148.855 70.3763 149.041 70.5847C149.121 70.6762 149.176 70.7675 149.206 70.8587C149.261 71.026 149.199 71.1977 149.021 71.3739C148.854 71.5299 148.529 71.7205 148.047 71.9457C147.565 72.1709 147.266 72.311 147.149 72.366C146.343 72.7312 145.508 73.1646 144.646 73.6661C144.092 73.982 143.709 74.2761 143.495 74.5482C143.296 74.8153 143.114 75.2622 142.949 75.8887C142.868 75.9996 142.796 76.2421 142.733 76.6162C142.665 76.9751 142.603 77.3492 142.545 77.7385C142.519 77.8142 142.491 77.9077 142.46 78.0189C142.429 78.13 142.386 78.2538 142.329 78.3901C142.082 79.1275 141.92 79.6605 141.843 79.989C141.76 80.3022 141.752 80.4818 141.817 80.5277C141.868 80.528 141.959 80.5234 142.091 80.5139C142.237 80.4995 142.359 80.4849 142.455 80.4703C142.567 80.3494 142.74 80.2339 142.973 80.1238C143.206 80.0137 143.371 79.926 143.468 79.8607C145.681 78.4453 146.94 77.6625 147.244 77.5123C147.351 77.3762 147.465 77.2882 147.587 77.2484C147.861 77.1587 148.164 77.2615 148.496 77.5567C148.572 77.633 148.622 77.7091 148.647 77.7851C148.692 77.922 148.628 78.0861 148.455 78.2775C148.282 78.4688 147.928 78.7529 147.395 79.1296C146.857 79.4911 146.207 79.9229 145.446 80.425L144.783 80.8693C143.889 81.482 143.169 81.878 142.621 82.0573C142.15 82.2118 141.88 82.1572 141.81 81.8938C141.633 81.8676 141.513 82.0921 141.45 82.5674C141.402 83.0377 141.409 83.5994 141.472 84.2524C141.529 84.8902 141.625 85.4144 141.76 85.8249C141.829 86.0378 141.907 86.1976 141.992 86.3043C142.254 86.6395 142.516 86.8736 142.778 87.0065C143.056 87.1345 143.46 87.1872 143.992 87.1646C144.103 87.1449 144.237 87.1178 144.394 87.0832C144.566 87.0436 144.759 86.9889 144.972 86.9192C145.276 86.8196 145.56 86.6591 145.824 86.4379C146.555 86.047 147.167 85.6782 147.659 85.3317C148.167 84.9801 148.469 84.7464 148.566 84.6305C148.642 84.555 148.708 84.4997 148.764 84.4646C148.82 84.4294 148.878 84.4019 148.939 84.382L148.931 84.4351C148.931 84.4351 148.934 84.4427 148.939 84.4579C148.939 84.4579 148.946 84.4554 148.962 84.4504C149.007 84.4355 149.102 84.2614 149.245 83.9282C149.434 83.6306 149.716 83.3108 150.092 82.9687C150.484 82.6216 150.705 82.4987 150.755 82.6002C150.815 82.6815 150.855 82.7525 150.875 82.8133C150.97 83.1022 150.902 83.5117 150.671 84.0418C150.451 84.5517 150.094 85.0811 149.601 85.6301C148.985 86.2695 148.243 86.8323 147.376 87.3187C146.528 87.8152 145.681 88.2106 144.835 88.5047ZM166.708 81.6921L166.709 81.6163C166.659 81.4642 166.502 81.4229 166.239 81.4924C165.855 81.3993 165.481 81.2355 165.118 81.0009C164.77 80.7613 164.511 80.5348 164.34 80.3214C164.154 80.113 164.058 80.0012 164.053 79.986C164.038 79.9404 164.049 79.8949 164.084 79.8495C164.135 79.7992 164.191 79.7388 164.252 79.6682C164.319 79.5623 164.405 79.4919 164.511 79.4571C164.572 79.4372 164.638 79.4577 164.708 79.5188C164.789 79.5597 164.903 79.6488 165.049 79.7862C165.336 80.0457 165.732 80.2021 166.238 80.2553C166.738 80.2933 167.27 80.2201 167.833 80.0358C168.517 79.8117 169.111 79.4656 169.614 78.9977C169.955 78.7009 170.191 78.4466 170.324 78.2348C170.451 78.0077 170.483 77.7954 170.418 77.5977C170.358 77.4153 170.202 77.2222 169.951 77.0185C169.865 76.9118 169.762 76.8278 169.641 76.7665C169.53 76.6849 169.376 76.6007 169.179 76.5136C169.063 76.4675 168.833 76.3575 168.49 76.1837C168.217 76.1722 167.926 76.1327 167.618 76.0654L167.064 75.9942C166.594 75.9463 166.013 75.7915 165.321 75.5299C164.639 75.2481 164.153 74.9698 163.86 74.6951C163.583 74.5671 163.326 74.3482 163.09 74.0384C162.854 73.7285 162.668 73.3683 162.534 72.9578C162.354 72.4104 162.304 71.8713 162.383 71.3404C162.431 70.8701 162.647 70.1679 163.031 69.2339C163.415 68.2998 163.737 67.664 163.997 67.3263L164.403 66.5618C164.399 66.496 164.411 66.4582 164.442 66.4482C164.467 66.423 164.488 66.408 164.503 66.403C164.538 66.3576 164.676 66.2369 164.915 66.0408C165.148 65.8295 165.37 65.5296 165.579 65.1411C166.449 64.3006 167.161 63.6718 167.714 63.2547C168.278 62.8174 168.765 62.5315 169.176 62.397C169.764 62.2381 170.31 62.2612 170.815 62.4662C171.33 62.651 171.713 62.997 171.963 63.5043C172.023 63.5856 172.083 63.7174 172.143 63.8999C172.323 64.4472 172.319 65.105 172.133 65.8731C171.942 66.626 171.643 67.2291 171.236 67.6824C170.91 67.9742 170.672 68.145 170.52 68.1948C170.413 68.2297 170.325 68.2165 170.254 68.1555C170.199 68.0894 170.152 67.9703 170.112 67.798C170.067 67.6612 170.063 67.4942 170.099 67.297C170.146 67.0797 170.279 66.7161 170.5 66.2062C170.829 65.1049 170.922 64.3338 170.777 63.8928C170.692 63.6343 170.534 63.5349 170.301 63.5944C170.118 63.6036 169.705 63.781 169.061 64.1268C168.432 64.4677 168.129 64.6761 168.154 64.7521C168.159 64.7673 168.162 64.8002 168.161 64.8508C168.171 64.8812 168.151 64.8963 168.1 64.896C168.035 64.9007 167.577 65.4044 166.727 66.4069C165.871 67.3941 165.441 67.9308 165.436 68.0168C165.445 68.0978 165.412 68.2013 165.335 68.3274C165.269 68.4333 165.177 68.5391 165.06 68.6448C164.826 68.9067 164.64 69.2371 164.501 69.6361C164.363 70.0351 164.223 70.5859 164.083 71.2885C163.985 71.6067 163.925 71.9379 163.903 72.2818C163.896 72.6208 163.933 72.9119 164.013 73.1552C164.067 73.3224 164.138 73.4594 164.223 73.5661C164.384 73.7997 164.724 74.0418 165.244 74.2924C165.759 74.5278 166.37 74.7232 167.078 74.8786C167.997 75.0655 168.786 75.2871 169.442 75.5435C170.109 75.7797 170.558 76.0198 170.789 76.2639C171.298 76.6359 171.65 77.1184 171.844 77.7113C171.914 77.9242 171.956 78.1293 171.97 78.3267C171.933 78.6251 171.825 78.9382 171.647 79.2662C171.473 79.6093 171.292 79.8032 171.105 79.8478C170.968 79.9432 170.856 80.0388 170.769 80.1345C170.688 80.2454 170.614 80.3285 170.548 80.3838C170.416 80.545 170.04 80.7606 169.421 81.0307C168.823 81.3109 168.253 81.523 167.71 81.667L166.708 81.6921ZM179.866 76.2703C178.389 76.2323 177.381 75.3922 176.843 73.7501C176.734 73.4156 176.637 72.9926 176.554 72.4812C176.455 72.0759 176.394 71.5822 176.372 71.0003C176.373 70.6967 176.35 70.393 176.301 70.0891C176.291 70.0587 176.288 70.0005 176.294 69.9145C176.299 69.8286 176.287 69.7652 176.257 69.7246C176.274 69.4667 176.298 69.105 176.331 68.6397C176.379 68.1694 176.418 67.9039 176.449 67.8434C176.5 67.7931 176.518 67.7451 176.503 67.6995C176.503 67.6489 176.501 67.616 176.496 67.6008C176.431 67.4031 176.497 66.9101 176.693 66.1218C176.905 65.3285 177.151 64.5405 177.434 63.7577C177.716 62.9749 177.903 62.5685 177.994 62.5387C178.025 62.5287 178.053 62.4858 178.078 62.4101C178.099 62.3191 178.117 62.2711 178.132 62.2661C178.194 62.0944 178.469 61.7771 178.957 61.3141C179.46 60.8462 179.91 60.4968 180.305 60.2661C180.631 60.0249 180.922 59.862 181.181 59.7773C181.865 59.5532 182.492 59.7183 183.06 60.2727C183.629 60.8272 184.141 61.7456 184.595 63.0281C184.624 63.2711 184.695 63.618 184.809 64.0689C184.893 64.4286 184.935 64.6338 184.935 64.6844C185.069 65.1455 185.157 65.748 185.199 66.492C185.251 67.2158 185.249 67.5953 185.193 67.6304C185.208 67.676 185.21 67.7342 185.2 67.805C185.189 67.8758 185.192 67.934 185.207 67.9796C185.267 68.1115 185.226 68.6552 185.084 69.6108C184.938 70.5511 184.837 71.0388 184.781 71.074C184.766 71.079 184.745 71.094 184.72 71.1192C184.71 71.1394 184.72 71.1698 184.75 71.2104C184.78 71.2511 184.703 71.4278 184.519 71.7405C184.351 72.0483 184.213 72.2196 184.107 72.2545C184.092 72.2595 184.079 72.272 184.069 72.2922C184.074 72.3074 184.099 72.3329 184.144 72.3685C184.189 72.4042 184.059 72.6489 183.753 73.1027C183.458 73.5363 183.116 73.9848 182.729 74.4483C182.358 74.9069 182.045 75.2114 181.791 75.3618C181.75 75.4426 181.694 75.503 181.623 75.5431C181.567 75.5783 181.532 75.5983 181.517 75.6033C181.394 75.8455 181.12 76.0364 180.694 76.1759C180.375 76.2805 180.099 76.3119 179.866 76.2703ZM181.252 73.9474C181.658 73.6459 182.068 73.1749 182.481 72.5345C182.905 71.8739 183.114 71.3841 183.111 71.0654C183.097 70.7668 183.142 70.5418 183.244 70.3906C183.407 70.0676 183.547 69.365 183.664 68.2828C183.791 67.1805 183.813 66.4495 183.729 66.0898C183.699 65.9986 183.674 65.8466 183.655 65.634C183.631 65.4062 183.634 65.2367 183.665 65.1256C183.681 65.0194 183.644 64.8042 183.555 64.4799C183.46 64.1404 183.299 63.5704 183.07 62.7698C182.846 62.1867 182.671 61.781 182.545 61.5527C182.43 61.3042 182.31 61.167 182.183 61.141C182.112 61.1305 182.001 61.1502 181.849 61.2C181.666 61.2598 181.489 61.3348 181.317 61.4249C181.139 61.4999 180.989 61.5826 180.867 61.6731C180.822 61.688 180.756 61.7433 180.669 61.839C180.583 61.9347 180.509 61.9925 180.448 62.0125C180.347 62.1131 180.28 62.219 180.249 62.3302C180.213 62.4261 180.205 62.5045 180.225 62.5653C180.27 62.7022 180.247 62.8361 180.155 62.9672C180.078 63.0933 179.967 63.1383 179.82 63.1021C179.521 63.2169 179.328 63.3475 179.241 63.4938C179.155 63.6401 179.083 63.8573 179.026 64.1454C178.968 64.4335 178.927 64.6407 178.901 64.7671C178.616 65.1805 178.426 65.5792 178.333 65.9633C178.24 66.3474 178.206 66.6533 178.23 66.8811C178.022 67.9426 177.902 68.6554 177.87 69.0195C177.832 69.3684 177.868 69.8113 177.977 70.3482C177.93 70.6162 177.918 70.9146 177.942 71.2436C177.98 71.5676 177.992 71.7827 177.976 71.8889C177.975 72.0913 178.087 72.5346 178.311 73.2188C178.545 73.9334 178.738 74.367 178.889 74.5196C179.109 74.885 179.463 74.9881 179.95 74.8287C180.345 74.6991 180.779 74.4054 181.252 73.9474ZM203.752 69.1523C203.726 69.1268 203.661 69.081 203.555 69.0146C203.449 68.9483 203.298 68.8463 203.101 68.7087C202.769 68.3124 202.454 67.658 202.155 66.7457C202.05 66.4264 201.976 66.1731 201.931 65.9856C201.896 65.9298 201.846 65.803 201.781 65.6054C201.582 64.9972 201.367 64.0575 201.136 62.7863C200.915 61.4949 200.781 60.495 200.734 59.7864C200.486 58.8237 200.332 58.15 200.273 57.7652C200.21 57.3651 200.168 57.1347 200.148 57.0739C200.098 57.023 200.003 57.2224 199.864 57.672C199.72 58.1064 199.583 58.6395 199.454 59.2713C199.35 59.7261 199.203 60.2541 199.013 60.8552C198.972 60.9865 198.917 61.3076 198.849 61.8182L198.643 63.3503C198.236 64.8813 197.927 65.9169 197.717 66.4572C197.501 66.9823 197.257 67.2897 196.983 67.3794C196.892 67.4092 196.821 67.4241 196.77 67.4238C196.295 67.4618 195.933 67.3866 195.686 67.1981C195.45 66.9894 195.206 66.5556 194.957 65.8965C194.852 65.6278 194.66 65.0677 194.381 64.2163C194.392 64.0949 194.357 63.9379 194.277 63.7452C194.197 63.5525 194.157 63.4309 194.158 63.3803C194.148 63.3499 194.138 63.2182 194.129 62.9855C194.115 62.7375 194.091 62.5349 194.057 62.3779C193.988 62.0133 193.896 61.6055 193.782 61.1546C193.683 60.6987 193.587 60.3263 193.492 60.0374C193.397 59.7485 193.332 59.6015 193.297 59.5962L193.304 59.619C193.329 59.695 193.295 59.8998 193.202 60.2333C193.085 60.5413 192.984 60.9531 192.9 61.4688C192.827 61.9643 192.722 62.7227 192.585 63.744L192.308 65.8297C192.367 66.164 192.378 66.6321 192.339 67.234C192.311 67.8157 192.255 68.3644 192.171 68.88C192.154 69.3404 192.121 69.831 192.073 70.3519C192.024 70.8728 191.962 71.2469 191.885 71.4742C191.862 71.9193 191.825 72.243 191.773 72.4451C191.732 72.627 191.65 72.7379 191.529 72.7778C191.422 72.8126 191.23 72.7914 190.952 72.7141C190.75 72.6118 190.586 72.5225 190.46 72.4459C190.344 72.3492 190.264 72.2324 190.219 72.0955C190.169 71.9435 190.171 71.7411 190.222 71.4884C190.345 71.1956 190.439 70.7356 190.503 70.1085C190.577 69.4613 190.591 69.0945 190.546 69.0083C190.511 68.9524 190.517 68.8412 190.563 68.6744C190.605 68.4925 190.672 68.2348 190.765 67.9013C190.729 67.8455 190.726 67.6026 190.753 67.1727C190.776 66.7275 190.829 66.2218 190.913 65.6556C190.97 65.3675 190.971 65.1651 190.916 65.0484C190.931 64.9928 190.942 64.8968 190.948 64.7602C190.969 64.6186 191.01 64.5126 191.071 64.4421C191.061 64.3611 191.067 64.1992 191.089 63.9564C191.084 63.8906 191.084 63.7894 191.09 63.6528C191.096 63.5163 191.094 63.4075 191.084 63.3265C191.121 62.9775 191.171 62.7172 191.232 62.5455C191.253 62.5051 191.274 62.4142 191.295 62.2726C191.331 62.1261 191.364 62.0225 191.395 61.9619C191.391 61.7444 191.436 61.4182 191.529 60.9836C191.637 60.5439 191.756 60.0841 191.885 59.6041L192.017 59.0811C192.053 58.9346 192.079 58.7576 192.095 58.5503C192.122 58.3227 192.174 58.0953 192.251 57.868C192.266 57.8124 192.295 57.6937 192.336 57.5117C192.393 57.3248 192.447 57.105 192.499 56.8523C192.54 56.7209 192.61 56.4708 192.708 56.102C192.801 55.7179 192.885 55.5134 192.961 55.4885C193.088 55.4133 193.369 55.4729 193.803 55.6674C194.247 55.8418 194.499 56.0201 194.559 56.2026C194.599 56.3242 194.648 56.6281 194.706 57.1141C194.78 57.5952 194.823 58.0356 194.836 58.4354C194.9 58.6836 194.967 59.0154 195.036 59.4306C195.115 59.8257 195.169 60.1194 195.198 60.3119C195.32 61.1979 195.436 61.8588 195.545 62.2945C195.659 62.7454 195.725 63.1784 195.743 63.5934C195.761 64.0083 195.772 64.274 195.777 64.3904C195.912 64.548 196.01 64.718 196.07 64.9004L196.234 65.4022L196.795 64.1832C196.821 64.0568 196.854 63.928 196.895 63.7966C196.937 63.6653 196.97 63.5364 196.996 63.4101C197.155 62.9201 197.274 62.4856 197.352 62.1065C197.332 62.0457 197.34 61.942 197.376 61.7955C197.407 61.6337 197.423 61.5022 197.424 61.401C197.51 61.3054 197.572 61.1842 197.608 61.0377C197.639 60.8759 197.627 60.7367 197.572 60.6201C197.897 59.5036 198.3 58.2179 198.784 56.7632C199.262 55.2933 199.59 54.4197 199.768 54.1423C199.967 53.8752 200.173 53.7068 200.386 53.637C200.644 53.5523 200.927 53.5943 201.235 53.7628C201.548 53.9466 201.742 54.1525 201.816 54.3806C201.876 54.563 201.898 54.8085 201.881 55.1171L201.898 56.3239C201.877 57.3408 201.914 57.9684 202.009 58.2067C201.993 58.4647 202.031 58.814 202.125 59.2547C202.11 59.3608 202.104 59.4974 202.108 59.6644C202.127 59.8264 202.114 59.9402 202.068 60.0057C202.088 60.0666 202.138 60.168 202.218 60.3101C202.294 60.437 202.349 60.5536 202.384 60.6601C202.419 60.7665 202.436 60.845 202.436 60.8956C202.774 63.0579 203.114 64.6635 203.458 65.7127C203.782 66.701 204.108 67.1834 204.437 67.1597L204.46 67.1523C204.506 67.1373 204.543 67.1755 204.573 67.2667C204.598 67.3427 204.63 67.5175 204.669 67.7909C204.729 67.9227 204.764 68.0798 204.773 68.262C204.787 68.4594 204.781 68.596 204.756 68.6717C204.72 68.7677 204.679 68.8484 204.633 68.9139C204.587 68.9795 204.526 69.0247 204.45 69.0496C204.389 69.0695 204.157 69.1038 203.752 69.1523ZM213.099 66.2163C212.592 66.2643 212.059 66.2286 211.498 66.1094C210.957 66.0003 210.621 65.8493 210.491 65.6564C210.466 65.5804 210.416 65.5295 210.34 65.5038C210.259 65.4629 210.181 65.4549 210.105 65.4798L210.045 65.2974L209.993 65.1377C209.958 65.0313 209.905 64.9728 209.834 64.9624C209.683 64.8098 209.55 64.5586 209.436 64.2089C209.286 63.7528 209.17 63.1931 209.088 62.5298C209.015 61.8464 208.986 61.2163 208.999 60.6396C208.964 60.5332 208.942 60.3888 208.933 60.2066C208.939 60.0195 208.934 59.9031 208.919 59.8574C208.926 59.4679 208.988 58.8332 209.104 57.9534C209.219 57.0736 209.349 56.4418 209.493 56.058C209.478 56.0124 209.499 55.8962 209.555 55.7092C209.622 55.5021 209.651 55.3075 209.642 55.1253C209.805 54.8023 209.978 54.2239 210.159 53.3899C210.547 52.7747 210.638 52.3071 210.432 51.9873C210.368 51.739 210.348 51.5517 210.374 51.4254C210.395 51.2838 210.477 51.1476 210.619 51.0168C210.772 50.8658 211.039 50.6774 211.419 50.4517C211.831 50.1148 212.277 49.8338 212.759 49.6086C213.236 49.3682 213.88 49.0983 214.691 48.7989C214.874 48.6885 215.031 48.6033 215.163 48.5432C215.31 48.4782 215.399 48.4407 215.429 48.4308C215.47 48.35 215.769 48.3364 216.325 48.3899C216.892 48.4231 217.172 48.4828 217.167 48.5688C217.196 48.7106 217.028 48.9172 216.662 49.1885C216.297 49.4598 215.865 49.7106 215.368 49.9408C214.445 50.361 213.753 50.7395 213.291 51.0761C212.844 51.4077 212.495 51.8082 212.245 52.2774C212.004 52.7265 211.773 53.3831 211.551 54.2472C211.381 54.9091 211.265 55.4018 211.202 55.7253C211.155 56.0438 211.151 56.2639 211.191 56.3856C211.216 56.4616 211.264 56.5048 211.335 56.5153C211.421 56.5208 211.532 56.5012 211.669 56.4563C211.806 56.4115 211.961 56.344 212.133 56.2538C212.301 56.1484 212.43 56.0808 212.521 56.0509C212.618 55.9856 212.841 55.8451 213.191 55.6293C213.541 55.4136 213.884 55.2256 214.219 55.0654L215.109 54.5463C215.434 54.3557 215.695 54.228 215.893 54.1633C216.41 53.9939 216.708 54.0309 216.788 54.2742C216.828 54.3958 216.789 54.56 216.672 54.7669C216.554 54.9737 216.371 55.1853 216.122 55.4016C215.883 55.5977 215.606 55.8062 215.291 56.0272C214.977 56.2482 214.774 56.3737 214.682 56.4036C214.657 56.4287 214.586 56.4688 214.469 56.5239C214.368 56.574 214.233 56.6264 214.066 56.6812L213.085 57.1543L212.362 57.4921C212.225 57.5875 211.948 57.7708 211.532 58.0418C211.111 58.2977 210.849 58.5266 210.747 58.7284C210.644 58.9303 210.582 59.2032 210.56 59.5471C210.512 60.1186 210.546 60.8651 210.662 61.7866C210.779 62.7081 210.935 63.4653 211.129 64.0583C211.268 64.484 211.409 64.7327 211.55 64.8042C211.696 64.891 211.904 64.9326 212.172 64.9289C212.435 64.91 212.726 64.8482 213.046 64.7436C213.471 64.6042 213.887 64.409 214.293 64.1581C214.715 63.9022 215.045 63.6256 215.284 63.3283C215.498 63.0056 215.76 62.7262 216.07 62.49C216.198 62.3135 216.299 62.2129 216.375 62.1879C216.451 62.163 216.573 62.1738 216.739 62.2202C216.906 62.2666 217.027 62.3026 217.103 62.3283C217.33 62.5066 217.461 62.6489 217.496 62.7554C217.555 62.9378 217.489 63.1449 217.295 63.3767C217.102 63.6084 216.71 63.9808 216.121 64.4939C215.486 64.9713 214.973 65.3329 214.582 65.5788C214.191 65.8247 213.821 66.005 213.471 66.1195L213.099 66.2163ZM234.79 59.0343C234.45 59.1287 234.111 59.1472 233.772 59.0897C233.434 59.0323 233.035 58.919 232.575 58.7496L232.014 58.5798C231.651 58.3957 231.346 58.1842 231.099 57.9451C230.863 57.6859 230.622 57.3355 230.376 56.894C230.286 56.7215 230.218 56.5669 230.173 56.43C230.029 55.9891 229.936 55.4472 229.893 54.8044C229.846 54.1464 229.852 53.5975 229.909 53.1576C229.98 52.2421 230.294 50.7081 230.852 48.5555C230.892 48.4748 230.918 48.4243 230.928 48.4041C230.949 48.3638 230.951 48.3461 230.936 48.3511C230.931 48.3359 230.929 48.3283 230.929 48.3283C230.894 48.2218 230.96 47.6782 231.127 46.6975C231.296 46.3392 231.348 46.0611 231.283 45.8635C231.248 45.757 231.198 45.6809 231.132 45.635C231.047 45.5789 231.124 45.3516 231.363 44.9531C231.614 44.5345 231.95 44.096 232.372 43.6378C232.678 43.184 233.029 42.8923 233.424 42.7628C233.546 42.7229 233.652 42.7134 233.743 42.7341C233.844 42.7346 233.915 42.7704 233.955 42.8414C233.985 42.9327 234.279 42.8026 234.837 42.4513C235.091 42.3008 235.276 42.1981 235.393 42.143C235.429 42.0471 235.561 41.9364 235.789 41.8111C236.028 41.6656 236.365 41.4877 236.801 41.2775C237.05 41.213 237.3 41.1308 237.554 41.0309C237.808 40.931 237.97 40.861 238.041 40.8209C238.148 40.7354 238.284 40.7159 238.451 40.7623C238.628 40.7885 238.809 40.9058 238.996 41.1142C239.076 41.2057 239.131 41.2971 239.161 41.3883C239.216 41.5556 239.154 41.7273 238.976 41.9034C238.809 42.0594 238.484 42.25 238.002 42.4752C237.52 42.7004 237.221 42.8406 237.104 42.8956C236.298 43.2608 235.463 43.6942 234.601 44.1957C234.047 44.5116 233.664 44.8056 233.45 45.0777C233.251 45.3449 233.069 45.7917 232.904 46.4183C232.823 46.5292 232.751 46.7717 232.688 47.1458C232.62 47.5047 232.558 47.8788 232.5 48.2681C232.474 48.3438 232.446 48.4373 232.415 48.5484C232.384 48.6596 232.34 48.7833 232.284 48.9196C232.037 49.6571 231.875 50.1901 231.798 50.5185C231.715 50.8318 231.707 51.0114 231.772 51.0573C231.823 51.0575 231.914 51.0529 232.045 51.0435C232.192 51.0291 232.314 51.0145 232.41 50.9998C232.522 50.879 232.695 50.7635 232.928 50.6534C233.161 50.5433 233.326 50.4556 233.423 50.3903C235.636 48.9749 236.895 48.1921 237.199 48.0418C237.306 47.9058 237.42 47.8178 237.542 47.778C237.816 47.6883 238.119 47.7911 238.451 48.0862C238.527 48.1625 238.577 48.2387 238.602 48.3147C238.647 48.4515 238.582 48.6157 238.409 48.807C238.236 48.9984 237.883 49.2825 237.35 49.6592C236.812 50.0207 236.162 50.4525 235.401 50.9545L234.738 51.3989C233.844 52.0116 233.124 52.4076 232.576 52.5869C232.105 52.7413 231.835 52.6868 231.765 52.4233C231.588 52.3971 231.468 52.6217 231.405 53.097C231.357 53.5673 231.364 54.1289 231.427 54.782C231.484 55.4198 231.58 55.944 231.714 56.3545C231.784 56.5673 231.862 56.7271 231.947 56.8338C232.209 57.1691 232.471 57.4032 232.733 57.5361C233.011 57.664 233.415 57.7167 233.947 57.6942C234.058 57.6745 234.192 57.6474 234.349 57.6128C234.521 57.5732 234.714 57.5185 234.927 57.4488C235.231 57.3491 235.515 57.1887 235.779 56.9674C236.51 56.5765 237.122 56.2078 237.614 55.8612C238.122 55.5097 238.424 55.2759 238.521 55.1601C238.597 55.0846 238.663 55.0293 238.719 54.9941C238.775 54.959 238.833 54.9315 238.894 54.9115L238.886 54.9646C238.886 54.9646 238.889 54.9722 238.894 54.9874C238.894 54.9874 238.901 54.9849 238.916 54.98C238.962 54.965 239.057 54.7909 239.2 54.4577C239.389 54.1602 239.671 53.8404 240.047 53.4982C240.439 53.1511 240.66 53.0283 240.71 53.1298C240.77 53.211 240.81 53.2821 240.83 53.3429C240.925 53.6318 240.857 54.0413 240.626 54.5714C240.406 55.0812 240.049 55.6107 239.556 56.1596C238.94 56.799 238.198 57.3619 237.331 57.8482C236.483 58.3448 235.636 58.7401 234.79 59.0343ZM256.582 52.4504C256.521 52.4703 256.428 52.4673 256.301 52.4414C256.175 52.4154 256.059 52.4199 255.952 52.4547C255.8 52.454 255.591 52.4048 255.323 52.3073C255.055 52.2098 254.75 52.0235 254.407 51.7485C253.515 51.1823 252.791 50.6701 252.237 50.2118C251.698 49.7486 251.157 49.1513 250.615 48.4199C250.257 48.0487 249.948 47.7208 249.686 47.4361C249.44 47.1464 249.276 46.9558 249.196 46.8643C248.913 46.7718 248.61 47.2079 248.286 48.1726C248.03 48.8291 247.787 49.2706 247.558 49.4971C247.583 49.5731 247.577 49.6844 247.541 49.8309C247.505 49.9775 247.459 50.0936 247.403 50.1793C247.362 50.3107 247.303 50.4394 247.226 50.5655C247.145 50.6764 247.091 50.7444 247.066 50.7696C247.086 50.8304 246.973 51.1789 246.726 51.8152C246.48 52.4514 246.217 53.0598 245.935 53.6402C245.649 54.2054 245.46 54.503 245.369 54.5328C245.328 54.6136 245.27 54.6664 245.194 54.6913C245.026 54.7461 244.822 54.6616 244.58 54.4377C244.434 54.3509 244.308 54.2744 244.202 54.2081C244.106 54.1215 244.051 54.0555 244.036 54.0099C244.021 53.9643 244.026 53.9036 244.052 53.8278C244.088 53.7319 244.129 53.6258 244.175 53.5097C244.287 53.3382 244.408 52.9619 244.538 52.3807C244.721 52.2197 245.102 51.4552 245.68 50.087C245.89 49.6984 246.059 49.3148 246.187 48.936C246.326 48.537 246.411 48.2819 246.442 48.1707C246.518 48.1458 246.581 48.0829 246.632 47.982C246.684 47.881 246.732 47.7725 246.778 47.6564C246.819 47.525 246.871 47.3988 246.932 47.2777C246.973 47.0957 247.061 46.8483 247.194 46.5353C247.327 46.2222 247.462 45.9674 247.6 45.7708L247.93 45.1577L247.312 44.2742C246.85 43.6343 246.307 42.9535 245.683 42.2318C245.059 41.5101 244.576 41.037 244.233 40.8126C244.007 40.5838 243.866 40.3857 243.811 40.2185C243.751 40.036 243.781 39.7402 243.899 39.3309C243.95 39.2806 244.029 39.238 244.135 39.2031C244.485 39.0886 244.929 39.2629 245.468 39.7261C246.007 40.1893 246.573 40.8373 247.166 41.6702C247.397 42.066 247.738 42.4928 248.191 42.9505L248.886 43.7586L250.067 41.2753C250.429 40.6852 251.021 39.7927 251.842 38.5978L252.369 37.8188C252.603 37.5569 252.81 37.3378 252.988 37.1617C253.176 36.9653 253.295 36.842 253.346 36.7916C253.483 36.7468 253.687 36.8313 253.96 37.0452C254.242 37.239 254.405 37.4295 254.45 37.617C254.445 37.6524 254.406 37.7407 254.335 37.882C254.273 38.0031 254.179 38.1013 254.052 38.1766C253.68 38.7363 253.362 39.1015 253.098 39.2721C252.981 39.3778 252.527 40.099 251.736 41.4357C250.94 42.7573 250.36 43.789 249.997 44.5309L249.63 45.1817L250.422 46.0586C251.755 47.6087 252.968 48.8697 254.061 49.8418C255.149 50.7986 255.772 51.1079 255.93 50.7697C255.987 50.6334 256.063 50.482 256.16 50.3156C256.257 50.1491 256.367 50.0459 256.488 50.0061C256.58 49.9762 256.653 49.9943 256.708 50.0603C256.743 50.1162 256.801 50.2404 256.881 50.4331C256.971 50.6056 257.038 50.7856 257.083 50.973C257.167 51.3327 257.199 51.5833 257.178 51.7249C257.177 51.8767 257.148 52.0207 257.092 52.157C257.036 52.2428 256.947 52.3056 256.825 52.3454C256.709 52.4005 256.635 52.433 256.605 52.4429L256.582 52.4504ZM268.446 49.397C268.324 49.4369 268.148 49.3854 267.916 49.2425C267.673 49.1198 267.492 48.876 267.373 48.5111C267.144 47.8117 266.972 47.3377 266.857 47.0892L266.326 45.5458C266.191 45.1352 266.134 44.8845 266.155 44.7935C266.115 44.7225 266.07 44.6109 266.02 44.4589C265.975 44.322 265.931 44.1599 265.886 43.9725C265.852 43.7648 265.817 43.6078 265.782 43.5014L265.489 42.9155L264.235 43.3264C264.001 43.4365 263.748 43.5364 263.474 43.6261C262.942 43.8004 262.078 44.0414 260.883 44.3489L260.743 44.925C260.583 45.5162 260.487 46.0444 260.454 46.5097C260.403 47.486 260.296 48.2621 260.131 48.8381C259.974 49.7986 259.82 50.3038 259.668 50.3536L259.531 50.3984C259.424 50.4333 259.32 50.4505 259.219 50.4499C259.138 50.4596 259.022 50.4388 258.87 50.3874C258.557 50.3554 258.36 50.2178 258.281 49.9745C258.181 49.6704 258.226 49.2178 258.417 48.6167L258.556 48.0406C258.526 47.9494 258.585 47.4589 258.731 46.5691C258.877 45.6794 259.009 45.1817 259.126 45.076C259.218 44.8944 259.241 44.7351 259.196 44.5983C259.147 44.4462 259.005 44.324 258.773 44.2318C258.667 44.216 258.601 44.1702 258.577 44.0941C258.547 44.0029 258.573 43.9019 258.654 43.791C258.736 43.6801 258.845 43.6022 258.982 43.5574C259.043 43.4869 259.099 43.4264 259.15 43.3761C259.216 43.3208 259.261 43.2805 259.287 43.2554C259.322 43.21 259.333 43.1645 259.318 43.1189C259.293 43.0429 259.348 42.5954 259.484 41.7764C259.615 40.9422 259.739 40.3711 259.857 40.0631C259.875 39.6028 259.907 39.2639 259.954 39.0466C260.015 38.8243 260.049 38.6701 260.055 38.5842C260.106 38.4832 260.176 38.1825 260.264 37.6821C260.28 37.6265 260.324 37.4269 260.396 37.0832C260.499 36.8813 260.593 36.6567 260.681 36.4092C260.778 36.1415 260.84 35.9698 260.865 35.894C260.891 35.7677 260.94 35.6085 261.012 35.4167C261.028 35.2093 261.093 34.944 261.206 34.6207C261.314 34.2823 261.381 34.0752 261.406 33.9994C261.54 33.6864 261.652 33.4644 261.744 33.3333C261.846 33.182 261.973 33.0815 262.125 33.0317C262.262 32.9868 262.436 32.9802 262.649 33.0116C263.048 33.0491 263.386 33.2077 263.663 33.4874C263.94 33.7671 264.206 34.2188 264.461 34.8424C264.511 34.9439 264.618 35.1696 264.784 35.5196C264.964 35.8646 265.099 36.1739 265.189 36.4476C265.253 36.6453 265.283 36.8124 265.277 36.949L265.606 37.9525C265.77 38.4542 265.907 38.8218 266.018 39.0551C266.027 39.2373 266.094 39.5185 266.218 39.8986L266.532 40.7806C266.607 41.0087 266.662 41.2012 266.696 41.3582L266.95 42.2096L267.204 43.0609C267.313 43.446 267.462 43.9275 267.652 44.5052L268.145 45.9346L268.437 46.8241C268.72 47.6908 268.862 48.3012 268.86 48.6554C268.878 49.0198 268.74 49.267 268.446 49.397ZM261.201 42.9313C261.302 42.8812 261.515 42.7862 261.84 42.6462C262.18 42.5012 262.527 42.379 262.882 42.2797C263.297 42.1098 263.581 41.9999 263.733 41.9501C263.931 41.8854 264.139 41.8257 264.357 41.7712C264.57 41.7014 264.689 41.654 264.714 41.6288C265.008 41.5494 265.065 41.236 264.886 40.6886C264.551 39.9229 264.142 38.8026 263.659 37.3277C263.474 36.7651 263.357 36.3825 263.308 36.1799C263.228 35.9366 263.136 35.7059 263.031 35.4878C262.941 35.2647 262.878 35.1252 262.843 35.0694C262.757 35.0133 262.571 35.369 262.283 36.1366C261.991 36.889 261.809 37.4371 261.736 37.7807C261.685 37.9323 261.633 38.185 261.58 38.5389C261.544 38.6854 261.508 38.8573 261.471 39.0544C261.45 39.2466 261.411 39.4614 261.354 39.6989C260.957 41.2097 260.84 42.216 261.005 42.7178C261.05 42.8546 261.115 42.9258 261.201 42.9313ZM286.185 42.8024C286.205 42.8633 286.162 42.9111 286.056 42.946C285.98 42.9709 285.878 42.9704 285.752 42.9444C285.626 42.9185 285.515 42.8622 285.419 42.7757C285.213 42.5571 285.047 42.2577 284.923 41.8776L284.639 40.935C284.204 38.0133 283.847 35.049 283.569 32.0421C283.538 31.2274 283.481 30.463 283.399 29.7492C283.332 29.0304 283.284 28.5747 283.254 28.3823C283.239 28.3367 283.201 28.3745 283.14 28.4956C283.089 28.5965 283.045 28.7203 283.009 28.8668C282.968 28.9981 282.962 29.0841 282.992 29.1248L282.699 30.1554C282.637 30.2765 282.539 30.696 282.404 31.4138C282.335 31.975 282.254 32.4224 282.162 32.7559L281.919 34.1739C281.732 35.195 281.615 35.8142 281.568 36.0315C281.491 36.3094 281.4 36.7769 281.295 37.4342C281.263 37.8489 281.131 38.3719 280.9 39.0032C280.833 39.2103 280.771 39.4326 280.714 39.6701C280.673 39.9026 280.647 40.0543 280.636 40.1251C280.661 40.2011 280.586 40.5119 280.411 41.0574C280.252 41.598 280.09 42.0551 279.926 42.4286C279.696 42.9081 279.494 43.2688 279.321 43.5108C279.143 43.7376 278.955 43.8834 278.757 43.9481C278.498 44.0328 278.17 43.9805 277.771 43.7912C277.504 43.6431 277.277 43.4396 277.091 43.1806C276.921 42.9166 276.765 42.5717 276.626 42.146C276.501 41.7659 276.345 41.1098 276.158 40.1779C276.148 40.0969 276.026 39.2361 275.792 37.5955C275.568 35.9348 275.461 35.0184 275.472 34.8465C275.457 34.7502 275.43 34.6413 275.39 34.5197C275.345 34.3828 275.3 34.3219 275.255 34.3368C275.209 34.3518 275.158 34.478 275.101 34.7155C275.075 34.7913 274.941 35.3067 274.698 36.2617C274.471 37.2118 274.277 38.3947 274.118 39.8106C273.769 41.7265 273.517 43.1647 273.36 44.1252C273.198 45.0705 273.076 45.7504 272.993 46.1649C272.899 46.7513 272.836 47.0748 272.805 47.1354C272.577 47.2101 272.226 47.1147 271.752 46.8491C271.677 46.7729 271.626 46.6967 271.601 46.6207C271.567 46.5142 271.555 46.3244 271.566 46.0513C271.593 45.7731 271.633 45.4065 271.686 44.9514C271.853 43.8695 271.993 43.2428 272.105 43.0714C272.208 42.7683 272.227 42.4674 272.163 42.1685C272.271 41.8301 272.391 41.2437 272.521 40.4096C272.63 39.9699 272.747 39.4266 272.871 38.7796C273.011 38.1276 273.121 37.5109 273.2 36.9295L273.472 35.6027C273.726 34.3745 273.936 33.4218 274.102 32.7447C274.282 32.0625 274.434 31.6004 274.557 31.3581C274.705 30.9895 274.752 30.7216 274.697 30.5544C274.593 30.2351 274.559 29.9262 274.596 29.6279C274.643 29.3094 274.74 29.1429 274.887 29.1285C275.069 29.0687 275.221 29.0442 275.343 29.0549C275.474 29.0455 275.626 29.0969 275.797 29.2091C275.842 29.2447 275.913 29.3058 276.009 29.3923C276.115 29.4586 276.203 29.5476 276.273 29.6593C276.353 29.7508 276.421 29.8802 276.476 30.0474C276.536 30.2299 276.588 30.4654 276.632 30.7541C276.681 30.9567 276.767 31.4252 276.89 32.1595C276.939 32.5139 276.976 32.7291 277.001 32.8052C276.999 34.1358 277.135 35.7582 277.408 37.6722C277.692 39.566 277.953 40.8778 278.192 41.6076C278.247 41.7749 278.3 41.8839 278.35 41.9348C278.481 41.9759 278.575 41.9536 278.631 41.8679C278.702 41.7772 278.767 41.5372 278.825 41.1479C278.903 40.7182 279.083 40.1373 279.365 39.4051C279.38 39.3495 279.512 38.7506 279.761 37.6084C280.408 34.8542 281.014 32.1048 281.58 29.3603L281.866 28.231C281.975 27.7913 282.086 27.3846 282.199 27.0108C282.307 26.6217 282.407 26.3617 282.499 26.2306C282.611 26.0591 282.736 25.951 282.872 25.9062C283.161 25.8115 283.477 25.9017 283.82 26.1767C284.162 26.4517 284.421 26.8553 284.595 27.3874C284.73 27.798 284.853 28.4563 284.965 29.3626C285.071 30.2537 285.127 31.1698 285.133 32.1109C285.181 32.5665 285.226 33.141 285.268 33.8344C285.31 34.5278 285.324 35.1629 285.311 35.7396C285.365 36.0081 285.412 36.3549 285.45 36.7801C285.46 36.8611 285.491 37.1117 285.545 37.532C285.608 37.932 285.678 38.1955 285.753 38.3224C285.66 38.8076 285.815 39.666 286.218 40.8976L286.321 41.4446C286.431 41.8803 286.495 42.1792 286.514 42.3412C286.534 42.5032 286.51 42.5866 286.445 42.5913C286.409 42.586 286.361 42.5934 286.3 42.6133C286.194 42.6482 286.156 42.7112 286.185 42.8024ZM293.055 39.9711C292.933 40.0109 292.764 39.9822 292.547 39.885C292.33 39.7877 292.194 39.6555 292.139 39.4882C292.129 39.4578 292.101 39.3995 292.056 39.3132C292.011 39.227 291.951 39.1457 291.875 39.0694C291.751 38.6893 291.689 38.3728 291.691 38.1198C291.636 37.9525 291.599 37.7626 291.58 37.55C291.561 37.3374 291.561 37.1603 291.582 37.0188C291.543 36.8971 291.521 36.7275 291.517 36.5099C291.508 36.2771 291.499 36.1202 291.489 36.0392L291.469 35.5154L291.475 34.2252C291.492 34.0179 291.495 33.8484 291.486 33.7168C291.476 33.5852 291.454 33.4662 291.419 33.3597C291.411 33.0258 291.398 32.6007 291.38 32.0845C291.363 31.5683 291.342 31.1204 291.319 30.7408C291.37 30.6399 291.371 30.5134 291.321 30.3614C291.321 30.2602 291.32 30.0249 291.317 29.6555C291.309 29.2709 291.311 28.8662 291.323 28.4412C291.332 27.6975 291.328 27.0928 291.31 26.6272C291.292 26.1616 291.256 25.8452 291.201 25.678C291.166 25.5715 291.113 25.4878 291.043 25.4267C290.982 25.3454 290.94 25.2921 290.914 25.2667C290.804 25.1345 290.744 25.0533 290.734 25.0229C290.714 24.962 290.724 24.8913 290.765 24.8105C290.806 24.7298 290.832 24.654 290.842 24.5832C290.863 24.4923 290.876 24.4291 290.881 24.3937C290.866 24.3481 291.135 24.1167 291.689 23.6996C292.258 23.2775 292.768 22.9083 293.22 22.5918L294.155 22.2855C294.601 22.2068 295.059 22.1915 295.529 22.2394C296 22.2874 296.416 22.4034 296.78 22.5874C297.022 22.7101 297.249 22.8631 297.461 23.0463C297.687 23.2246 297.997 23.5272 298.389 23.9543C298.409 24.0151 298.469 24.1469 298.569 24.3498C298.68 24.5326 298.76 24.7 298.81 24.852C299.034 25.5362 299.022 26.3482 298.774 27.2881C298.527 28.2279 298.069 29.2198 297.401 30.2637C297.028 30.8234 296.596 31.3018 296.103 31.699C295.625 32.0912 295.136 32.3695 294.634 32.5339C294.421 32.6036 294.201 32.6505 293.973 32.6747C293.786 32.6686 293.599 32.5614 293.413 32.353C293.237 32.1244 293.175 31.9597 293.226 31.8587C293.281 31.8236 293.446 31.7612 293.72 31.6715C293.994 31.5819 294.364 31.351 294.832 30.979C295.182 30.7127 295.454 30.4636 295.648 30.2319C296.386 29.3502 296.871 28.4167 297.104 27.4312C297.207 27.027 297.276 26.5416 297.309 25.9751C297.342 25.4086 297.314 24.9885 297.224 24.7148C297.205 24.5528 297.183 24.4338 297.158 24.3577C297.058 24.0537 296.839 23.8476 296.501 23.7396C296.172 23.6114 295.758 23.6042 295.256 23.718C295.205 23.7177 295.127 23.735 295.021 23.7699C294.686 23.8795 294.262 24.1025 293.75 24.4388C293.232 24.76 292.914 24.9987 292.797 25.1549C292.752 25.1699 292.731 25.2355 292.736 25.3519C292.74 25.4683 292.734 25.5796 292.719 25.6858C292.758 25.8074 292.78 26.0529 292.783 26.4223C292.801 26.7867 292.805 27.1308 292.793 27.4546L292.78 28.4184C292.747 28.9849 292.74 29.425 292.758 29.7388C292.778 29.9514 292.786 30.1842 292.785 30.4372C292.779 30.675 292.771 30.8293 292.76 30.9C292.77 30.9305 292.769 31.0822 292.758 31.3554C292.746 31.6286 292.745 31.8563 292.754 32.0384C292.851 32.7979 292.876 33.514 292.827 34.1867C292.85 35.4416 292.937 36.2971 293.087 36.7533C293.141 36.9205 293.204 37.0347 293.275 37.0958C293.411 37.051 293.507 37.1122 293.562 37.2794C293.642 37.5227 293.632 37.9805 293.532 38.653C293.51 39.0981 293.483 39.4016 293.452 39.5633C293.436 39.7201 293.4 39.816 293.344 39.8512C293.303 39.8813 293.207 39.9213 293.055 39.9711ZM307.529 35.3806C306.587 35.5376 305.812 35.2275 305.204 34.4503C305.144 34.369 305.048 34.2572 304.917 34.1148C304.797 33.9523 304.709 33.7874 304.654 33.6202C304.59 33.4225 304.551 33.0985 304.538 32.6481C304.276 31.4881 304.158 30.3313 304.184 29.1778C304.174 29.0968 304.165 28.9399 304.156 28.7071C304.162 28.4694 304.174 28.1962 304.191 27.8876C304.19 27.0629 304.276 26.0413 304.449 24.8228C304.618 23.5891 304.841 22.4467 305.12 21.3958C305.398 20.3448 305.663 19.6353 305.912 19.2672C306.086 18.9746 306.302 18.786 306.56 18.7013C306.758 18.6365 306.882 18.6802 306.932 18.8322C306.926 18.9182 306.928 18.9764 306.938 19.0068C306.943 19.022 306.979 19.0273 307.044 19.0226C307.136 18.9927 307.199 19.0309 307.234 19.1374C307.293 19.3198 307.272 19.5879 307.169 19.9415C307.061 20.28 306.915 20.555 306.732 20.7666C306.742 20.797 306.739 20.8653 306.723 20.9714C306.707 21.0776 306.649 21.2063 306.547 21.3576C306.551 21.5246 306.542 21.6789 306.522 21.8204C306.501 21.962 306.487 22.0505 306.482 22.0858C306.477 22.1212 306.454 22.2046 306.413 22.3359C306.387 22.4623 306.363 22.6216 306.342 22.8137C306.162 23.2935 306.092 23.5942 306.132 23.7158C306.122 23.8372 306.087 24.0672 306.03 24.4059C305.983 24.7244 305.967 24.9065 305.982 24.9521L305.859 25.1185C305.894 25.2249 305.903 25.4324 305.887 25.7409C305.88 26.0293 305.836 26.3048 305.753 26.5675C305.727 26.8457 305.706 27.349 305.692 28.0775C305.716 28.4571 305.709 28.7202 305.673 28.8667C305.663 28.9375 305.667 29.0286 305.687 29.14C305.646 29.2208 305.63 29.4029 305.639 29.6862C305.647 29.9696 305.696 30.2988 305.785 30.6736L305.756 31.9713C305.644 31.991 305.656 32.2061 305.79 32.6166C305.925 33.0271 306.092 33.4353 306.293 33.8411C306.424 33.9329 306.552 33.9917 306.679 34.0177C306.815 34.0234 306.998 33.9889 307.226 33.9142L307.963 33.622C308.014 33.6223 308.092 33.605 308.199 33.5701C308.336 33.5253 308.516 33.4579 308.739 33.368C308.957 33.2629 309.129 33.198 309.256 33.1733C309.697 33.0289 310.176 32.8214 310.694 32.5508C310.927 32.4407 311.165 32.3458 311.408 32.2661C311.53 32.2262 311.619 32.2141 311.674 32.2295C311.725 32.2298 311.801 32.2555 311.902 32.3066C312.098 32.4442 312.211 32.5586 312.241 32.6499C312.296 32.8171 312.148 33.0086 311.798 33.2244C310.991 33.7414 310.174 34.2027 309.347 34.6082C308.541 35.024 307.935 35.2815 307.529 35.3806ZM319.901 31.2265C319.394 31.2745 318.861 31.2389 318.3 31.1196C317.759 31.0106 317.423 30.8596 317.293 30.6666C317.268 30.5906 317.218 30.5398 317.142 30.5141C317.061 30.4732 316.983 30.4652 316.907 30.4901L316.847 30.3076L316.795 30.148C316.76 30.0415 316.707 29.9831 316.636 29.9726C316.485 29.82 316.352 29.5689 316.238 29.2192C316.088 28.763 315.972 28.2033 315.89 27.5401C315.817 26.8566 315.788 26.2266 315.801 25.6498C315.766 25.5434 315.744 25.3991 315.735 25.2169C315.741 25.0297 315.736 24.9133 315.721 24.8677C315.728 24.4781 315.79 23.8434 315.906 22.9637C316.022 22.0839 316.151 21.4521 316.295 21.0683C316.28 21.0227 316.301 20.9064 316.357 20.7195C316.424 20.5124 316.453 20.3177 316.444 20.1355C316.607 19.8125 316.78 19.2341 316.961 18.4002C317.349 17.7849 317.44 17.3173 317.234 16.9975C317.17 16.7493 317.15 16.562 317.176 16.4356C317.197 16.294 317.279 16.1578 317.421 16.027C317.574 15.876 317.841 15.6876 318.221 15.4619C318.633 15.125 319.079 14.844 319.561 14.6188C320.038 14.3784 320.682 14.1085 321.493 13.8091C321.676 13.6987 321.833 13.6135 321.965 13.5535C322.112 13.4885 322.201 13.451 322.231 13.441C322.272 13.3603 322.571 13.3466 323.127 13.4001C323.694 13.4334 323.974 13.493 323.969 13.579C323.998 13.7208 323.83 13.9274 323.465 14.1987C323.099 14.4701 322.667 14.7208 322.17 14.951C321.247 15.3713 320.555 15.7497 320.093 16.0863C319.646 16.418 319.297 16.8184 319.047 17.2877C318.807 17.7368 318.575 18.3933 318.353 19.2574C318.183 19.9193 318.067 20.4121 318.004 20.7356C317.957 21.0541 317.953 21.2742 317.993 21.3958C318.018 21.4718 318.066 21.5151 318.137 21.5256C318.223 21.5311 318.334 21.5114 318.471 21.4666C318.608 21.4217 318.763 21.3542 318.935 21.264C319.103 21.1586 319.232 21.091 319.323 21.0611C319.42 20.9958 319.643 20.8553 319.993 20.6396C320.343 20.4238 320.686 20.2358 321.021 20.0756L321.911 19.5566C322.236 19.366 322.497 19.2383 322.695 19.1735C323.212 19.0042 323.51 19.0411 323.59 19.2844C323.63 19.406 323.591 19.5703 323.474 19.7771C323.356 19.984 323.173 20.1955 322.924 20.4118C322.685 20.6079 322.408 20.8165 322.093 21.0375C321.779 21.2585 321.576 21.3839 321.484 21.4138C321.459 21.439 321.388 21.4791 321.271 21.5341C321.17 21.5842 321.035 21.6366 320.868 21.6914L319.887 22.1645L319.164 22.5023C319.027 22.5977 318.75 22.781 318.334 23.0521C317.913 23.3079 317.651 23.5368 317.549 23.7387C317.446 23.9405 317.384 24.2134 317.362 24.5574C317.314 25.1289 317.348 25.8754 317.465 26.7968C317.581 27.7183 317.737 28.4755 317.931 29.0685C318.07 29.4943 318.211 29.7429 318.352 29.8145C318.498 29.9012 318.706 29.9428 318.974 29.9391C319.237 29.9202 319.528 29.8585 319.848 29.7539C320.273 29.6144 320.689 29.4192 321.095 29.1683C321.517 28.9125 321.847 28.6359 322.086 28.3386C322.3 28.0159 322.562 27.7364 322.872 27.5002C323 27.3238 323.101 27.2231 323.177 27.1982C323.253 27.1733 323.375 27.184 323.542 27.2304C323.708 27.2768 323.83 27.3129 323.905 27.3386C324.132 27.5168 324.263 27.6592 324.298 27.7656C324.357 27.948 324.291 28.1552 324.097 28.3869C323.904 28.6187 323.512 28.9911 322.923 29.5041C322.288 29.9815 321.775 30.3432 321.384 30.5891C320.993 30.835 320.623 31.0152 320.273 31.1298L319.901 31.2265ZM333.059 27.1936L333.059 27.1177C333.009 26.9657 332.853 26.9244 332.589 26.9938C332.205 26.9008 331.832 26.737 331.468 26.5023C331.121 26.2627 330.861 26.0362 330.69 25.8229C330.504 25.6144 330.409 25.5026 330.404 25.4874C330.389 25.4418 330.399 25.3963 330.435 25.351C330.485 25.3006 330.541 25.2402 330.603 25.1697C330.669 25.0638 330.755 24.9934 330.862 24.9585C330.922 24.9386 330.988 24.9592 331.059 25.0203C331.139 25.0612 331.253 25.1503 331.399 25.2876C331.686 25.5472 332.082 25.7035 332.588 25.7567C333.089 25.7947 333.62 25.7216 334.183 25.5373C334.867 25.3131 335.461 24.9671 335.964 24.4991C336.305 24.2023 336.541 23.948 336.674 23.7362C336.802 23.5092 336.833 23.2968 336.768 23.0992C336.709 22.9167 336.553 22.7237 336.301 22.52C336.215 22.4133 336.112 22.3293 335.991 22.2679C335.88 22.1864 335.726 22.1021 335.529 22.0151C335.413 21.9689 335.183 21.859 334.84 21.6852C334.567 21.6736 334.276 21.6342 333.968 21.5668L333.414 21.4957C332.944 21.4477 332.363 21.2929 331.671 21.0313C330.99 20.7495 330.503 20.4712 330.211 20.1965C329.933 20.0686 329.676 19.8497 329.44 19.5398C329.204 19.23 329.018 18.8698 328.884 18.4592C328.705 17.9119 328.654 17.3728 328.733 16.8419C328.781 16.3716 328.997 15.6694 329.381 14.7353C329.766 13.8013 330.088 13.1654 330.347 12.8277L330.754 12.0633C330.749 11.9975 330.762 11.9596 330.792 11.9496C330.818 11.9245 330.838 11.9094 330.853 11.9044C330.889 11.8591 331.026 11.7383 331.265 11.5422C331.499 11.3309 331.72 11.031 331.93 10.6425C332.799 9.80203 333.511 9.17324 334.065 8.75614C334.628 8.31885 335.116 8.03296 335.526 7.89846C336.114 7.73958 336.66 7.76264 337.165 7.96763C337.68 8.15244 338.063 8.49847 338.313 9.00573C338.374 9.087 338.434 9.21886 338.494 9.40132C338.673 9.94869 338.669 10.6064 338.483 11.3746C338.292 12.1275 337.993 12.7306 337.586 13.1838C337.261 13.4756 337.022 13.6464 336.87 13.6962C336.764 13.7311 336.675 13.718 336.605 13.6569C336.549 13.5909 336.502 13.4717 336.462 13.2995C336.417 13.1626 336.413 12.9956 336.45 12.7985C336.496 12.5812 336.63 12.2176 336.85 11.7077C337.179 10.6063 337.272 9.83521 337.127 9.39428C337.043 9.13579 336.884 9.03631 336.651 9.09582C336.469 9.105 336.055 9.28249 335.411 9.62829C334.782 9.96911 334.48 10.1775 334.505 10.2535C334.51 10.2688 334.512 10.3017 334.512 10.3523C334.522 10.3827 334.501 10.3977 334.451 10.3975C334.385 10.4022 333.927 10.9058 333.077 11.9083C332.222 12.8956 331.791 13.4322 331.786 13.5182C331.796 13.5992 331.762 13.7028 331.686 13.8289C331.619 13.9348 331.528 14.0406 331.411 14.1462C331.177 14.4081 330.99 14.7386 330.852 15.1376C330.713 15.5366 330.573 16.0874 330.433 16.7899C330.335 17.1082 330.276 17.4393 330.254 17.7832C330.247 18.1222 330.283 18.4133 330.363 18.6566C330.418 18.8239 330.488 18.9608 330.573 19.0675C330.734 19.3011 331.074 19.5432 331.594 19.7938C332.109 20.0292 332.72 20.2246 333.428 20.3801C334.348 20.567 335.136 20.7886 335.792 21.045C336.459 21.2812 336.908 21.5213 337.14 21.7653C337.649 22.1373 338 22.6198 338.195 23.2128C338.264 23.4257 338.306 23.6308 338.32 23.8282C338.283 24.1265 338.176 24.4397 337.997 24.7676C337.823 25.1108 337.642 25.3047 337.455 25.3492C337.318 25.4447 337.206 25.5402 337.12 25.6359C337.038 25.7468 336.964 25.8299 336.898 25.8852C336.766 26.0465 336.39 26.2621 335.772 26.5321C335.173 26.8124 334.603 27.0245 334.061 27.1684L333.059 27.1936ZM344.489 18.1957C344.22 18.3512 343.965 18.3422 343.723 18.169C343.481 17.9957 343.288 17.6886 343.143 17.2476C343.014 16.8523 342.933 16.3738 342.9 15.812C342.974 15.3165 342.975 14.9623 342.906 14.7495C342.897 14.4661 342.912 14.0993 342.949 13.6492C342.982 13.1839 343.017 12.8273 343.054 12.5796C343.114 12.5597 343.158 12.4865 343.184 12.3602C343.225 12.2288 343.228 12.1099 343.193 12.0035C343.148 11.8667 343.126 11.7224 343.127 11.5706C343.138 11.3986 343.164 11.2722 343.205 11.1915C343.19 11.1459 343.195 11.0599 343.221 10.9335C343.242 10.792 343.245 10.6984 343.23 10.6528C343.22 10.6223 343.221 10.5718 343.231 10.501C343.252 10.41 343.255 10.3417 343.24 10.2961C343.364 9.75029 343.478 8.7617 343.582 7.33034C343.685 5.89897 343.712 5.08197 343.662 4.87933C343.623 4.6059 343.725 4.45463 343.968 4.42553C344.024 4.3398 344.136 4.26954 344.303 4.21475L344.742 4.47506C344.884 4.54662 344.982 4.64073 345.037 4.75739C345.102 4.85386 345.172 5.01613 345.247 5.24421C345.306 5.47726 345.32 5.75055 345.288 6.06409C345.251 6.36243 345.196 6.68343 345.124 7.02712C345.051 7.37081 345.004 7.61343 344.983 7.75499L344.866 8.3995C344.762 8.90494 344.723 9.19567 344.748 9.27169C344.768 9.33251 344.767 9.459 344.746 9.65116C344.72 9.82812 344.701 9.97728 344.69 10.0987C344.628 10.3716 344.571 10.7103 344.518 11.1148C344.461 11.5041 344.442 11.7291 344.462 11.79C344.456 11.8253 344.451 11.886 344.446 11.972C344.455 12.053 344.44 12.1339 344.399 12.2146C344.353 12.2296 344.335 12.2776 344.345 12.3586C344.35 12.4244 344.357 12.4725 344.367 12.5029C344.392 12.5789 344.404 12.7434 344.402 12.9964C344.401 13.2494 344.377 13.5351 344.33 13.8536C344.296 15.4979 344.358 16.6392 344.517 17.2775C344.606 17.6524 344.645 17.8752 344.635 17.946C344.64 18.0118 344.591 18.095 344.489 18.1957ZM344.453 22.2483C344.199 22.4494 343.996 22.5749 343.844 22.6247C343.647 22.6894 343.389 22.6729 343.07 22.5751C342.788 22.432 342.612 22.254 342.542 22.0411C342.432 21.7066 342.579 21.2799 342.981 20.7608C343.225 20.4787 343.416 20.3152 343.553 20.2704C343.629 20.2455 343.829 20.2389 344.152 20.2507C344.643 20.3595 344.94 20.5736 345.045 20.8929C345.104 21.0753 345.081 21.2852 344.973 21.5224C344.881 21.7547 344.708 21.9967 344.453 22.2483Z" fill="#63C4B4"/>
<path d="M359.04 97.9773C359.327 98.2764 359.801 98.2866 360.101 98.0001L364.975 93.3309C365.274 93.0443 365.284 92.5696 364.998 92.2704C364.711 91.9713 364.237 91.9611 363.937 92.2476L359.605 96.3981L355.454 92.0652C355.168 91.7661 354.693 91.7559 354.394 92.0424C354.095 92.3289 354.084 92.8037 354.371 93.1028L359.04 97.9773ZM357.893 84.448L357.166 84.6322L357.893 84.448ZM352.386 67.5779L353.051 67.2308L352.386 67.5779ZM333.909 65.1659L333.366 64.6483L333.909 65.1659ZM331.338 80.3451L332.069 80.1772L331.338 80.3451ZM344.01 56.4115L343.309 56.6792L344.01 56.4115ZM332.654 44.793L332.399 45.4982L332.654 44.793ZM327.368 44.8811L327.88 45.43L327.368 44.8811ZM323.103 46.666C322.925 47.04 323.084 47.4875 323.458 47.6654C323.832 47.8433 324.279 47.6843 324.457 47.3103L323.103 46.666ZM360.332 97.4746C360.429 92.9564 359.654 88.3476 358.62 84.2639L357.166 84.6322C358.181 88.6392 358.925 93.1055 358.832 97.4424L360.332 97.4746ZM358.62 84.2639C357.151 78.4626 355.66 72.23 353.051 67.2308L351.721 67.9249C354.231 72.7331 355.68 78.7664 357.166 84.6322L358.62 84.2639ZM353.051 67.2308C350.78 62.8795 347.361 60.6176 343.695 60.291C340.053 59.9665 336.305 61.5656 333.366 64.6483L334.451 65.6834C337.139 62.8645 340.459 61.5087 343.562 61.7851C346.642 62.0595 349.649 63.9544 351.721 67.9249L353.051 67.2308ZM333.366 64.6483C332.307 65.7585 331.582 67.5421 331.103 69.3691C330.618 71.2221 330.357 73.2353 330.296 74.9082L331.795 74.9625C331.852 73.3876 332.099 71.4847 332.554 69.7492C333.016 67.9877 333.663 66.5105 334.451 65.6834L333.366 64.6483ZM330.296 74.9082C330.227 76.8124 330.165 78.5887 330.607 80.5129L332.069 80.1772C331.677 78.4733 331.726 76.8882 331.795 74.9625L330.296 74.9082ZM330.607 80.5129C330.776 81.2498 330.966 81.8727 331.157 82.4687C331.351 83.0699 331.539 83.625 331.722 84.2686L333.165 83.8583C332.972 83.1823 332.77 82.5847 332.585 82.0098C332.399 81.4297 332.224 80.8532 332.069 80.1772L330.607 80.5129ZM331.722 84.2686C332.351 86.4816 334.013 87.5479 335.71 88.0592C337.373 88.5602 339.186 88.5645 340.279 88.6041L340.333 87.1051C339.16 87.0626 337.577 87.0551 336.143 86.623C334.743 86.2011 333.607 85.413 333.165 83.8583L331.722 84.2686ZM340.279 88.6041C342.94 88.7005 344.595 86.8303 345.598 84.4727C346.602 82.1103 347.07 79.0263 347.292 76.1353L345.797 76.0204C345.578 78.8713 345.123 81.7553 344.217 83.8856C343.309 86.0207 342.065 87.1679 340.333 87.1051L340.279 88.6041ZM347.292 76.1353C347.839 69.0245 347.041 62.2443 344.711 56.1439L343.309 56.6792C345.548 62.5385 346.329 69.0912 345.797 76.0204L347.292 76.1353ZM344.711 56.1439C343.346 52.5725 341.706 50.0191 339.73 48.1209C337.752 46.222 335.479 45.0179 332.909 44.0878L332.399 45.4982C334.841 46.3823 336.91 47.4931 338.691 49.2028C340.472 50.9131 342.004 53.2619 343.309 56.6792L344.711 56.1439ZM332.909 44.0878C332.193 43.8287 331.11 43.5418 330.022 43.4744C328.972 43.4093 327.713 43.5358 326.857 44.3322L327.88 45.43C328.264 45.0717 328.98 44.9127 329.929 44.9715C330.84 45.0279 331.78 45.2743 332.399 45.4982L332.909 44.0878ZM326.857 44.3322C326.445 44.7165 326.057 44.7263 325.297 44.9025C324.944 44.9844 324.528 45.1099 324.127 45.3913C323.718 45.6777 323.377 46.0885 323.103 46.666L324.457 47.3103C324.64 46.9268 324.825 46.7334 324.988 46.6192C325.158 46.5 325.357 46.4285 325.636 46.3637C326.142 46.2463 327.092 46.1636 327.88 45.43L326.857 44.3322Z" fill="#63C4B4"/>
</svg>
