<svg width="92" height="92" viewBox="0 0 92 92" fill="none" xmlns="http://www.w3.org/2000/svg">
<g filter="url(#filter0_d)">
<circle cx="46" cy="46" r="40" fill="url(#paint0_radial)" shape-rendering="crispEdges"/>
<circle cx="46" cy="46" r="38" stroke="#FFE487" stroke-width="4" shape-rendering="crispEdges"/>
</g>
<ellipse cx="26.9446" cy="27.5997" rx="11.6459" ry="4.09691" transform="rotate(-41.6982 26.9446 27.5997)" fill="white" fill-opacity="0.4"/>
<circle cx="64.7119" cy="64.0769" r="3.80952" transform="rotate(-41.6982 64.7119 64.0769)" fill="white" fill-opacity="0.4"/>
<g filter="url(#filter1_d)">
<path d="M20.1187 58.4321C19.4281 58.3574 18.9707 58.0588 18.7467 57.5361C18.5974 57.3868 18.5041 57.2654 18.4667 57.1721C18.4481 57.0788 18.4481 56.9854 18.4667 56.8921C18.6907 56.8921 18.8214 56.8548 18.8587 56.7801C18.8587 56.7241 18.8867 56.6868 18.9427 56.6681C19.0174 56.6494 19.0921 56.6494 19.1667 56.6681C19.6521 56.7054 20.3241 56.4441 21.1827 55.8841C22.0601 55.3241 23.0027 54.5774 24.0107 53.6441C24.5334 52.9721 24.8881 52.4961 25.0747 52.2161C25.2614 51.9174 25.3547 51.6748 25.3547 51.4881C25.3547 51.3948 25.3081 51.2548 25.2147 51.0681C25.1214 50.9188 24.9721 50.8441 24.7667 50.8441C24.4307 50.8441 23.9734 51.0308 23.3947 51.4041C22.5921 51.9081 21.9481 52.3748 21.4627 52.8041C20.9774 53.2148 20.5294 53.7001 20.1187 54.2601C19.8761 54.5774 19.6427 54.8668 19.4187 55.1281C19.2134 55.3708 19.0734 55.5388 18.9987 55.6321C18.9987 55.7068 18.8867 55.8001 18.6627 55.9121C18.4574 56.0241 18.2801 56.0801 18.1307 56.0801C18.0374 56.0428 17.9254 55.9681 17.7947 55.8561C17.6827 55.7441 17.6174 55.6134 17.5987 55.4641C17.5614 55.4268 17.4774 55.3708 17.3467 55.2961C17.2347 55.2028 17.1507 55.1001 17.0947 54.9881C17.0387 54.8761 17.0107 54.7454 17.0107 54.5961C17.0107 54.3161 17.1041 53.8401 17.2907 53.1681C17.4587 52.4028 17.6454 51.6468 17.8507 50.9001C18.0747 50.1348 18.2241 49.7148 18.2987 49.6401C18.3174 49.6028 18.3547 49.5001 18.4107 49.3321C18.4854 49.1641 18.5227 48.9868 18.5227 48.8001C18.5601 48.6321 18.6161 48.4454 18.6907 48.2401C18.7841 48.0161 18.8307 47.8854 18.8307 47.8481C18.9241 47.7734 19.2227 47.0361 19.7267 45.6361C19.7267 45.5614 19.9321 45.0668 20.3427 44.1521C20.9401 42.7521 21.3134 41.8561 21.4627 41.4641C21.5561 41.3148 21.7147 41.0441 21.9387 40.6521C21.9761 40.5961 22.0507 40.4748 22.1627 40.2881C22.2934 40.0828 22.3961 39.9614 22.4707 39.9241C22.6014 39.8868 22.8814 39.9801 23.3107 40.2041C23.7587 40.4281 24.0481 40.6428 24.1787 40.8481C24.1974 40.8854 24.2161 40.9321 24.2347 40.9881C24.2721 41.0254 24.2907 41.0721 24.2907 41.1281C24.2907 41.2214 24.2347 41.3894 24.1227 41.6321C24.0294 41.8748 23.9174 42.1268 23.7867 42.3881C23.6747 42.6308 23.5907 42.8174 23.5347 42.9481L22.7227 44.6281C21.9387 46.3454 21.2667 48.0161 20.7067 49.6401C20.5387 50.1628 20.3894 50.5828 20.2587 50.9001L20.1187 51.5161L20.8467 50.7041C21.1827 50.3681 21.6027 50.0228 22.1067 49.6681C22.3307 49.5188 22.6574 49.3508 23.0867 49.1641C23.5161 48.9774 23.8147 48.8654 23.9827 48.8281C24.5801 48.6788 25.0934 48.6041 25.5227 48.6041C26.2134 48.6041 26.8481 49.0988 27.4267 50.0881C27.5947 50.3868 27.6787 50.7694 27.6787 51.2361C27.6787 51.5721 27.6321 51.9081 27.5387 52.2441C27.4454 52.5801 27.3241 52.8788 27.1747 53.1401C27.0814 53.2148 26.9881 53.3174 26.8947 53.4481C26.8014 53.5601 26.7547 53.6534 26.7547 53.7281C26.7361 53.8401 26.5774 54.0921 26.2787 54.4841C25.9801 54.8761 25.6534 55.2681 25.2987 55.6601C24.8134 56.1641 24.1694 56.6681 23.3667 57.1721C22.5827 57.6761 21.9294 58.0214 21.4067 58.2081C21.2947 58.2268 21.0801 58.2641 20.7627 58.3201C20.4641 58.3574 20.2494 58.3948 20.1187 58.4321ZM32.2521 58.4041C32.0281 58.4041 31.8508 58.3668 31.7201 58.2921C31.5895 58.2174 31.4028 58.0774 31.1601 57.8721C30.7868 57.4801 30.4975 57.0788 30.2921 56.6681C30.0868 56.2388 30.0121 55.8654 30.0681 55.5481C30.1241 55.4174 30.1428 55.2868 30.1241 55.1561C30.1241 55.0254 30.1241 54.9414 30.1241 54.9041C30.0495 54.8294 30.0121 54.7828 30.0121 54.7641C30.0121 54.7268 30.0308 54.6988 30.0681 54.6801C30.1055 54.6428 30.1335 54.6054 30.1521 54.5681C30.2641 54.5681 30.3015 54.4654 30.2641 54.2601C30.2268 54.1108 30.2921 53.7841 30.4601 53.2801C30.6281 52.7761 30.8428 52.3094 31.1041 51.8801C31.3095 51.5441 31.6081 51.1241 32.0001 50.6201C32.4108 50.1161 32.7748 49.7334 33.0921 49.4721C34.0255 48.6694 34.8655 48.1841 35.6121 48.0161C35.9855 47.9228 36.3495 47.8761 36.7041 47.8761C37.2455 47.8761 37.6655 48.0254 37.9641 48.3241C38.3748 48.4921 38.6735 48.7348 38.8601 49.0521C39.0468 49.3694 39.1681 49.7894 39.2241 50.3121C39.2428 50.4241 39.2521 50.6108 39.2521 50.8721C39.2521 52.2534 38.7295 53.6908 37.6841 55.1841C37.2548 55.8001 36.8255 56.2948 36.3961 56.6681C35.9668 57.0414 35.4441 57.4148 34.8281 57.7881C34.4921 58.0121 34.1375 58.1614 33.7641 58.2361C33.3908 58.3108 32.8868 58.3668 32.2521 58.4041ZM35.1081 54.9881C35.4628 54.6708 35.7148 54.3534 35.8641 54.0361C36.0321 53.7001 36.2655 53.1214 36.5641 52.3001C36.6761 52.1321 36.7321 51.7961 36.7321 51.2921C36.7321 50.8441 36.6668 50.5921 36.5361 50.5361C36.4428 50.4614 36.3308 50.4241 36.2001 50.4241C36.0321 50.4241 35.7615 50.5548 35.3881 50.8161C34.7348 51.3761 34.1841 51.9641 33.7361 52.5801C33.3068 53.1774 33.0081 53.8681 32.8401 54.6521C32.8215 54.7268 32.8121 54.8388 32.8121 54.9881C32.8121 55.6228 33.0361 55.9401 33.4841 55.9401C33.9135 55.9401 34.4548 55.6228 35.1081 54.9881ZM45.5327 58.7681C45.122 58.6561 44.59 58.3108 43.9367 57.7321C43.6193 57.3214 43.4327 56.9574 43.3767 56.6401C43.3207 56.3041 43.2927 55.6508 43.2927 54.6801C43.2927 54.2321 43.5167 53.1121 43.9647 51.3201C43.9833 51.2454 44.0487 50.9934 44.1607 50.5641C44.2167 50.3588 44.142 50.2281 43.9367 50.1721C43.7313 50.1161 43.442 50.0881 43.0687 50.0881C42.7513 50.0881 42.5647 50.0694 42.5087 50.0321C42.4527 50.0134 42.4153 49.9294 42.3967 49.7801C42.3967 49.6308 42.3967 49.5281 42.3967 49.4721C42.3967 49.4161 42.35 49.3601 42.2567 49.3041C42.182 49.2481 42.126 49.1921 42.0887 49.1361C42.0327 49.0614 42.0793 48.9214 42.2287 48.7161C42.378 48.5108 42.546 48.3894 42.7327 48.3521C42.8447 48.3334 43.0873 48.3054 43.4607 48.2681C43.834 48.2308 44.1887 48.1561 44.5247 48.0441C44.8793 47.9321 45.1407 47.7734 45.3087 47.5681C45.5513 46.9334 45.8313 46.2614 46.1487 45.5521C46.4847 44.8428 46.718 44.4228 46.8487 44.2921C47.1473 44.1428 47.418 44.0681 47.6607 44.0681C48.0713 44.0681 48.3887 44.2361 48.6127 44.5721C48.6687 44.6468 48.734 44.7214 48.8087 44.7961C48.8833 44.8708 48.9207 44.9548 48.9207 45.0481C48.9207 45.1788 48.8553 45.3841 48.7247 45.6641C48.6127 45.9441 48.3793 46.4014 48.0247 47.0361L47.6607 47.7361C47.7167 47.7548 47.8473 47.7641 48.0527 47.7641C48.258 47.7641 48.426 47.7548 48.5567 47.7361C48.9673 47.6614 49.2847 47.6241 49.5087 47.6241C49.6767 47.6241 49.798 47.6334 49.8727 47.6521C50.6567 47.6521 51.086 48.0814 51.1607 48.9401C51.198 49.1641 51.114 49.3508 50.9087 49.5001C50.722 49.6308 50.386 49.6961 49.9007 49.6961C47.978 49.7708 47.0073 49.8548 46.9887 49.9481C46.8953 50.0041 46.746 50.2934 46.5407 50.8161C46.3353 51.3388 46.1673 51.8334 46.0367 52.3001C45.8127 53.2708 45.7007 54.1854 45.7007 55.0441C45.7007 55.8654 45.822 56.3974 46.0647 56.6401C46.1393 56.7148 46.242 56.7521 46.3727 56.7521C46.7087 56.7521 47.1847 56.5001 47.8007 55.9961C48.006 55.8094 48.23 55.7161 48.4727 55.7161C48.678 55.7161 48.8367 55.7908 48.9487 55.9401C49.0793 56.0894 49.1447 56.2854 49.1447 56.5281C49.1447 56.8081 49.0513 57.0788 48.8647 57.3401C48.5847 57.7694 48.1647 58.1241 47.6047 58.4041C47.0447 58.6841 46.5127 58.8241 46.0087 58.8241C45.7847 58.8241 45.626 58.8054 45.5327 58.7681ZM55.1662 60.2801C54.4382 60.2614 53.9155 60.0841 53.5982 59.7481C53.2995 59.4308 53.1502 58.9734 53.1502 58.3761C53.1502 58.2268 53.1689 57.9841 53.2062 57.6481C53.2809 57.3868 53.3369 57.1254 53.3742 56.8641C53.4675 56.4534 53.5609 56.2108 53.6542 56.1361C53.6729 56.1174 53.6915 56.0801 53.7102 56.0241C53.7289 55.9681 53.7102 55.9214 53.6542 55.8841C53.6542 55.6414 53.7382 55.3054 53.9062 54.8761C53.9435 54.7454 53.9902 54.6148 54.0462 54.4841C54.1022 54.3534 54.1395 54.2694 54.1582 54.2321C54.1209 54.1948 54.1022 54.1388 54.1022 54.0641C54.1022 53.9708 54.1489 53.8774 54.2422 53.7841C54.3542 53.6908 54.4289 53.6068 54.4662 53.5321C54.5222 53.4574 54.5222 53.3828 54.4662 53.3081C54.4289 53.2148 54.6062 52.7948 54.9982 52.0481C55.2409 51.5628 55.3715 51.2921 55.3902 51.2361C55.3715 51.1801 55.5022 50.8348 55.7822 50.2001C56.0809 49.5654 56.3142 49.0894 56.4822 48.7721C56.6502 48.6788 56.5849 48.6134 56.2862 48.5761C55.9875 48.5388 55.6235 48.5294 55.1942 48.5481C54.5782 48.5294 54.1022 48.5014 53.7662 48.4641C53.4302 48.4081 53.1595 48.3241 52.9542 48.2121C52.8235 48.0814 52.7582 47.9134 52.7582 47.7081C52.7582 47.4654 52.8422 47.2414 53.0102 47.0361C53.1969 46.8308 53.4209 46.7188 53.6822 46.7001C54.1675 46.6814 54.9142 46.6161 55.9222 46.5041L57.3502 46.3921L57.4342 45.9161C57.5275 45.7481 57.6115 45.6081 57.6862 45.4961C57.7795 45.3654 57.8355 45.2534 57.8542 45.1601C57.8915 45.0668 57.9195 44.9268 57.9382 44.7401C57.9942 44.6654 58.0875 44.4788 58.2182 44.1801C58.3675 43.8814 58.4609 43.5921 58.4982 43.3121C58.7035 42.9574 58.8902 42.6214 59.0582 42.3041C59.2449 41.9681 59.3569 41.7721 59.3942 41.7161C59.7302 41.2121 60.1035 40.9601 60.5142 40.9601C60.7382 40.9601 60.9715 41.0348 61.2142 41.1841C61.4569 41.3521 61.6435 41.5014 61.7742 41.6321C61.9049 41.7628 61.9702 41.9401 61.9702 42.1641C61.9702 42.3321 61.8862 42.5748 61.7182 42.8921C61.6435 43.0414 61.5315 43.3401 61.3822 43.7881C61.2515 43.9561 61.1115 44.1894 60.9622 44.4881C60.8129 44.7681 60.7102 45.0388 60.6542 45.3001C60.6169 45.3934 60.5609 45.5241 60.4862 45.6921C60.4115 45.8414 60.3555 45.9348 60.3182 45.9721C60.2995 45.9908 60.2622 46.0001 60.2062 46.0001C60.2249 46.1121 60.2622 46.1868 60.3182 46.2241C60.3742 46.2614 60.4675 46.2801 60.5982 46.2801C60.6915 46.2801 60.8035 46.2708 60.9342 46.2521C61.0835 46.2334 61.2609 46.2241 61.4662 46.2241C61.6529 46.2054 61.8115 46.1774 61.9422 46.1401C62.0915 46.1028 62.2315 46.0841 62.3622 46.0841C62.4369 46.0841 62.5489 46.1121 62.6982 46.1681C62.7915 46.2801 62.8382 46.4948 62.8382 46.8121C62.8382 47.0548 62.8009 47.2881 62.7262 47.5121C62.6515 47.7174 62.5582 47.8481 62.4462 47.9041C62.3529 47.9228 62.1475 47.9788 61.8302 48.0721C61.5129 48.1654 61.1675 48.2214 60.7942 48.2401L59.3102 48.3801L58.8342 49.3321C58.7035 49.5561 58.5915 49.7708 58.4982 49.9761C58.4049 50.1814 58.3395 50.3028 58.3022 50.3401C58.3022 50.4334 58.2275 50.6201 58.0782 50.9001C57.9289 51.1801 57.8169 51.4041 57.7422 51.5721C57.6489 51.8334 57.5369 52.0948 57.4062 52.3561C57.2755 52.5988 57.1915 52.7574 57.1542 52.8321C57.0982 52.8321 57.0609 52.8508 57.0422 52.8881C57.0422 52.9068 57.0422 52.9441 57.0422 53.0001L57.0982 53.2241C57.0982 53.3174 57.0515 53.4108 56.9582 53.5041C56.8835 53.5414 56.8089 53.6068 56.7342 53.7001C56.6782 53.7934 56.6409 53.8588 56.6222 53.8961C56.6595 53.9334 56.6782 53.9801 56.6782 54.0361C56.6782 54.1668 56.6129 54.3348 56.4822 54.5401C56.4822 54.8574 56.3515 55.3334 56.0902 55.9681C56.1089 56.3041 56.1275 56.5188 56.1462 56.6121C56.1649 56.7054 56.2115 56.7428 56.2862 56.7241H56.4262L57.0422 56.6961C57.1729 56.6401 57.2009 56.7801 57.1262 57.1161C57.0702 57.4521 56.9115 57.9654 56.6502 58.6561C56.3702 59.0854 56.0715 59.4588 55.7542 59.7761C55.4555 60.1121 55.2595 60.2801 55.1662 60.2801ZM64.4077 58.9081C64.3517 58.9268 64.2771 58.9361 64.1837 58.9361C63.7917 58.9361 63.4651 58.7121 63.2037 58.2641C62.9424 57.8161 62.8117 57.2468 62.8117 56.5561C62.8117 56.1828 62.8491 55.8188 62.9237 55.4641C63.1291 54.9228 63.2317 54.5308 63.2317 54.2881C63.2877 53.9334 63.4744 53.2988 63.7917 52.3841C64.1277 51.4508 64.3424 50.8908 64.4357 50.7041C64.5104 50.7041 64.5757 50.6481 64.6317 50.5361C64.6877 50.4054 64.7157 50.2654 64.7157 50.1161C64.7157 49.9481 64.7437 49.7801 64.7997 49.6121C64.8744 49.4254 64.9491 49.2948 65.0237 49.2201C65.0237 49.1641 65.0424 49.0614 65.0797 48.9121C65.1357 48.7628 65.1637 48.6601 65.1637 48.6041C65.1637 48.5668 65.1824 48.5014 65.2197 48.4081C65.2757 48.2961 65.3037 48.2121 65.3037 48.1561C65.6024 47.5774 66.1251 46.2801 66.8717 44.2641C67.6184 42.2294 67.9917 41.1001 67.9917 40.8761C67.9917 40.7268 68.0477 40.5868 68.1597 40.4561C68.2717 40.3254 68.4024 40.2601 68.5517 40.2601C68.6077 40.2041 68.7291 40.1668 68.9157 40.1481C69.1024 40.1108 69.2517 40.0921 69.3637 40.0921L69.8117 40.5401C70.0171 40.7268 70.1757 40.8948 70.2877 41.0441C70.3997 41.1934 70.4557 41.3708 70.4557 41.5761C70.4557 41.9121 70.3904 42.2481 70.2597 42.5841C70.1477 42.9014 69.8024 43.6668 69.2237 44.8801C69.1864 44.9734 69.0371 45.3094 68.7757 45.8881C68.5891 46.2614 68.4957 46.4761 68.4957 46.5321C68.4957 46.5881 68.4584 46.7094 68.3837 46.8961C68.3091 47.0641 68.2437 47.2414 68.1877 47.4281C68.0384 47.7268 67.7957 48.2588 67.4597 49.0241C67.1424 49.7708 66.9837 50.1814 66.9837 50.2561C66.9837 50.4614 66.9371 50.6108 66.8437 50.7041C66.7877 50.7041 66.7504 50.7508 66.7317 50.8441C66.7131 50.9188 66.7037 50.9748 66.7037 51.0121C66.7037 51.1988 66.5544 51.6934 66.2557 52.4961L66.0037 53.3081C65.6491 54.5214 65.3971 55.4081 65.2477 55.9681C65.1171 56.5281 65.0517 57.0041 65.0517 57.3961C65.0517 57.8068 64.9864 58.1428 64.8557 58.4041C64.7251 58.6654 64.5757 58.8334 64.4077 58.9081ZM72.4363 59.1041C70.3083 59.1041 69.2443 57.8908 69.2443 55.4641C69.2443 54.5868 69.459 53.5974 69.8883 52.4961C70.3363 51.3761 70.887 50.3774 71.5403 49.5001C72.2123 48.6041 72.875 48.0068 73.5283 47.7081C73.883 47.5214 74.2936 47.4281 74.7603 47.4281C75.6003 47.4281 76.3283 47.6148 76.9443 47.9881C77.579 48.3428 77.8963 49.0241 77.8963 50.0321C77.8963 50.6108 77.7003 51.2454 77.3083 51.9361C76.9163 52.6268 76.4216 53.2148 75.8243 53.7001C75.2456 54.1668 74.6763 54.4001 74.1163 54.4001C73.2763 54.4001 72.567 54.1294 71.9883 53.5881C71.671 54.2228 71.5123 54.8294 71.5123 55.4081C71.5123 55.8748 71.5683 56.2388 71.6803 56.5001C71.7923 56.7428 72.0536 56.8641 72.4643 56.8641C72.8563 56.8641 73.1736 56.8081 73.4163 56.6961C73.659 56.5841 73.883 56.4534 74.0883 56.3041C74.2936 56.1548 74.4523 56.0428 74.5643 55.9681L74.6763 55.9121H74.6483C74.9843 55.7254 75.227 55.5854 75.3763 55.4921C75.5443 55.3801 75.6843 55.3054 75.7963 55.2681C76.0763 55.2681 76.3376 55.3521 76.5803 55.5201C76.823 55.6881 76.9443 55.8934 76.9443 56.1361C76.9443 56.3228 76.7763 56.6308 76.4403 57.0601C76.1043 57.4708 75.759 57.7601 75.4043 57.9281L75.0683 58.0961H75.0963C74.9283 58.3201 74.7603 58.4321 74.5923 58.4321H74.3683C74.2936 58.5814 74.0416 58.7308 73.6123 58.8801C73.2016 59.0294 72.8096 59.1041 72.4363 59.1041ZM73.8923 52.3561C74.415 52.3561 74.8443 52.1321 75.1803 51.6841C75.535 51.2361 75.7123 50.7881 75.7123 50.3401C75.7123 50.1348 75.6563 49.9481 75.5443 49.7801C75.451 49.6121 75.3203 49.5281 75.1523 49.5281C74.835 49.5281 74.4803 49.6774 74.0883 49.9761C73.6963 50.2748 73.351 50.6668 73.0523 51.1521L72.6883 51.7401C72.763 51.7028 72.819 51.6841 72.8563 51.6841C73.0056 51.6841 73.1176 51.7494 73.1923 51.8801C73.267 52.0108 73.351 52.1228 73.4443 52.2161C73.5376 52.3094 73.687 52.3561 73.8923 52.3561Z" fill="white"/>
</g>
<defs>
<filter id="filter0_d" x="0" y="0" width="92" height="92" filterUnits="userSpaceOnUse" color-interpolation-filters="sRGB">
<feFlood flood-opacity="0" result="BackgroundImageFix"/>
<feColorMatrix in="SourceAlpha" type="matrix" values="0 0 0 0 0 0 0 0 0 0 0 0 0 0 0 0 0 0 127 0" result="hardAlpha"/>
<feOffset/>
<feGaussianBlur stdDeviation="3"/>
<feComposite in2="hardAlpha" operator="out"/>
<feColorMatrix type="matrix" values="0 0 0 0 1 0 0 0 0 1 0 0 0 0 1 0 0 0 0.25 0"/>
<feBlend mode="normal" in2="BackgroundImageFix" result="effect1_dropShadow"/>
<feBlend mode="normal" in="SourceGraphic" in2="effect1_dropShadow" result="shape"/>
</filter>
<filter id="filter1_d" x="13.0107" y="39.916" width="68.8855" height="28.3643" filterUnits="userSpaceOnUse" color-interpolation-filters="sRGB">
<feFlood flood-opacity="0" result="BackgroundImageFix"/>
<feColorMatrix in="SourceAlpha" type="matrix" values="0 0 0 0 0 0 0 0 0 0 0 0 0 0 0 0 0 0 127 0" result="hardAlpha"/>
<feOffset dy="4"/>
<feGaussianBlur stdDeviation="2"/>
<feComposite in2="hardAlpha" operator="out"/>
<feColorMatrix type="matrix" values="0 0 0 0 0 0 0 0 0 0 0 0 0 0 0 0 0 0 0.25 0"/>
<feBlend mode="normal" in2="BackgroundImageFix" result="effect1_dropShadow"/>
<feBlend mode="normal" in="SourceGraphic" in2="effect1_dropShadow" result="shape"/>
</filter>
<radialGradient id="paint0_radial" cx="0" cy="0" r="1" gradientUnits="userSpaceOnUse" gradientTransform="translate(47.5873 47.2698) rotate(-140.366) scale(40.8094)">
<stop stop-color="#FFEBA7" stop-opacity="0"/>
<stop offset="1" stop-color="#FEE488"/>
</radialGradient>
</defs>
</svg>
