<svg width="162" height="162" viewBox="0 0 162 162" fill="none" xmlns="http://www.w3.org/2000/svg">
<g filter="url(#filter0_d)">
<circle cx="81" cy="81" r="75" fill="url(#paint0_radial)" shape-rendering="crispEdges"/>
<circle cx="81" cy="81" r="73" stroke="#FFE487" stroke-width="4" shape-rendering="crispEdges"/>
</g>
<ellipse cx="45.2711" cy="46.4992" rx="21.836" ry="7.6817" transform="rotate(-41.6982 45.2711 46.4992)" fill="white" fill-opacity="0.4"/>
<circle cx="116.085" cy="114.894" r="7.14286" transform="rotate(-41.6982 116.085 114.894)" fill="white" fill-opacity="0.4"/>
<g filter="url(#filter1_d)">
<path d="M48.703 91.08C48.3563 91.08 48.0896 91.0267 47.903 90.92C47.6896 90.84 47.4096 90.6533 47.063 90.36C46.743 90.04 46.4496 89.6 46.183 89.04C45.943 88.4533 45.823 87.76 45.823 86.96C45.823 86.4533 45.8496 86.0133 45.903 85.64C45.983 85.24 46.023 84.9867 46.023 84.88C46.023 84.7467 45.983 84.68 45.903 84.68C45.2096 84.68 43.703 85.9467 41.383 88.48C41.303 88.5333 41.2363 88.6 41.183 88.68C40.863 88.92 40.5696 89.1733 40.303 89.44C39.903 89.8133 39.5696 90.0933 39.303 90.28C39.063 90.44 38.7963 90.5333 38.503 90.56C38.3163 90.56 38.1163 90.48 37.903 90.32L37.463 89.96C37.3296 89.88 37.2096 89.7333 37.103 89.52C36.9963 89.3067 36.943 89.1067 36.943 88.92V88.8V88.72L37.863 86.04C38.5296 84.5733 38.863 83.7067 38.863 83.44C38.863 83.3867 38.8496 83.36 38.823 83.36C38.583 83.3333 38.223 83.5467 37.743 84C37.2896 84.4267 36.6363 85.1067 35.783 86.04L33.983 87.92C33.7696 88.1333 33.1963 88.7733 32.263 89.84C31.6763 90.56 31.3696 90.92 31.343 90.92C30.7563 90.92 30.223 90.6933 29.743 90.24C29.2896 89.7867 29.063 89.24 29.063 88.6C29.063 88.28 29.1163 87.8533 29.223 87.32C29.3296 86.7867 29.4496 86.2267 29.583 85.64C29.6363 85.4267 29.6896 85.1867 29.743 84.92C29.823 84.6533 29.903 84.3467 29.983 84C30.0363 83.7333 30.0896 83.44 30.143 83.12C30.223 82.8 30.3696 82.3867 30.583 81.88C30.7963 81.3467 31.103 80.6133 31.503 79.68C31.6096 79.3333 31.663 78.9733 31.663 78.6C31.663 78.4133 31.6496 78.24 31.623 78.08C31.5963 77.8933 31.583 77.7733 31.583 77.72C31.583 77.32 31.7696 76.9867 32.143 76.72C32.543 76.4267 32.983 76.28 33.463 76.28C34.1563 76.28 34.6763 76.5333 35.023 77.04C35.3696 77.52 35.543 78.0267 35.543 78.56C35.543 79.0133 35.4363 79.4533 35.223 79.88L34.783 80.96C34.6763 81.2 34.4763 81.64 34.183 82.28C33.9163 82.8933 33.783 83.2667 33.783 83.4C33.783 83.48 33.8096 83.52 33.863 83.52H33.903C34.0363 83.52 34.2496 83.3733 34.543 83.08C35.3963 82.28 36.423 81.4533 37.623 80.6C38.8496 79.72 39.7296 79.2 40.263 79.04C40.4763 79.04 40.7563 79.1467 41.103 79.36C41.4496 79.5733 41.7563 79.8667 42.023 80.24C42.2896 80.5867 42.423 80.9733 42.423 81.4L42.383 81.72C42.3563 81.8267 42.2363 82.28 42.023 83.08C41.8363 83.88 41.6896 84.3467 41.583 84.48C42.0896 83.8933 42.9696 83.1733 44.223 82.32C45.4763 81.44 46.3963 80.9867 46.983 80.96C47.863 80.96 48.4363 81.32 48.703 82.04C48.9696 82.76 49.1563 83.8133 49.263 85.2C49.3696 86.5067 49.5163 87.3867 49.703 87.84C49.7563 88 49.943 88.1333 50.263 88.24C50.583 88.3467 50.8363 88.48 51.023 88.64C51.2363 88.7733 51.343 89.0533 51.343 89.48C51.343 90.0667 51.0763 90.48 50.543 90.72C50.0363 90.96 49.423 91.08 48.703 91.08ZM63.7564 91.92C63.5164 91.68 63.3164 91.3733 63.1564 91C63.0231 90.6 62.8497 90 62.6364 89.2C62.5831 89.04 62.5564 88.8133 62.5564 88.52C62.5564 88.2 62.5564 87.9733 62.5564 87.84C62.4497 88.08 62.3164 88.3467 62.1564 88.64C61.9964 88.9067 61.8364 89.0933 61.6764 89.2C61.0631 89.8133 60.4497 90.2667 59.8364 90.56C58.9831 91.0933 58.2497 91.36 57.6364 91.36C56.8897 91.36 56.2497 91.0133 55.7164 90.32C54.8631 89.6267 54.4364 88.8 54.4364 87.84C54.4364 87.7067 54.4631 87.4533 54.5164 87.08C54.5697 86.0933 54.7031 85.1467 54.9164 84.24C55.1564 83.3333 55.5964 82.1733 56.2364 80.76L57.4364 78.36L58.0764 77.12C58.2097 77.0667 58.4231 77.04 58.7164 77.04C59.1431 77.04 59.5431 77.12 59.9164 77.28C60.2897 77.44 60.4897 77.6533 60.5164 77.92C60.5964 78.0267 60.6364 78.2267 60.6364 78.52C60.6364 79.3733 60.2764 80.5067 59.5564 81.92L59.2364 82.68C58.7564 83.8267 58.4097 84.72 58.1964 85.36C57.9831 86 57.8764 86.5333 57.8764 86.96C57.8764 87.3867 58.0364 87.6667 58.3564 87.8C58.4897 87.88 58.6497 87.92 58.8364 87.92C59.3697 87.92 60.0097 87.5067 60.7564 86.68C61.5297 85.8533 62.3164 84.4667 63.1164 82.52C63.4897 81.6133 63.7164 80.68 63.7964 79.72C63.7431 79.4267 63.8231 79.1067 64.0364 78.76C64.2497 78.4133 64.5297 78.1333 64.8764 77.92C64.9831 77.76 65.1297 77.64 65.3164 77.56C65.5031 77.4533 65.6231 77.4533 65.6764 77.56L66.3164 77.52C66.3964 77.4933 66.5164 77.6133 66.6764 77.88C66.8631 78.1467 66.9964 78.3067 67.0764 78.36C67.3431 78.5733 67.4764 79 67.4764 79.64C67.4764 80.52 67.1564 81.7333 66.5164 83.28C66.0097 84.3467 65.6631 85.1733 65.4764 85.76C65.3164 86.32 65.2231 86.8667 65.1964 87.4C65.1964 87.96 65.2364 88.4 65.3164 88.72C65.4231 89.0133 65.6631 89.32 66.0364 89.64C66.4631 89.9333 66.6364 90.6267 66.5564 91.72C66.5031 91.9067 66.3564 92.0533 66.1164 92.16C65.8764 92.2667 65.5831 92.32 65.2364 92.32C64.6497 92.32 64.1564 92.1867 63.7564 91.92ZM76.3211 92.24C75.7344 92.08 74.9744 91.5867 74.0411 90.76C73.5878 90.1733 73.3211 89.6533 73.2411 89.2C73.1611 88.72 73.1211 87.7867 73.1211 86.4C73.1211 85.76 73.4411 84.16 74.0811 81.6C74.1078 81.4933 74.2011 81.1333 74.3611 80.52C74.4411 80.2267 74.3344 80.04 74.0411 79.96C73.7478 79.88 73.3344 79.84 72.8011 79.84C72.3478 79.84 72.0811 79.8133 72.0011 79.76C71.9211 79.7333 71.8678 79.6133 71.8411 79.4C71.8411 79.1867 71.8411 79.04 71.8411 78.96C71.8411 78.88 71.7744 78.8 71.6411 78.72C71.5344 78.64 71.4544 78.56 71.4011 78.48C71.3211 78.3733 71.3878 78.1733 71.6011 77.88C71.8144 77.5867 72.0544 77.4133 72.3211 77.36C72.4811 77.3333 72.8278 77.2933 73.3611 77.24C73.8944 77.1867 74.4011 77.08 74.8811 76.92C75.3878 76.76 75.7611 76.5333 76.0011 76.24C76.3478 75.3333 76.7478 74.3733 77.2011 73.36C77.6811 72.3467 78.0144 71.7467 78.2011 71.56C78.6278 71.3467 79.0144 71.24 79.3611 71.24C79.9478 71.24 80.4011 71.48 80.7211 71.96C80.8011 72.0667 80.8944 72.1733 81.0011 72.28C81.1078 72.3867 81.1611 72.5067 81.1611 72.64C81.1611 72.8267 81.0678 73.12 80.8811 73.52C80.7211 73.92 80.3878 74.5733 79.8811 75.48L79.3611 76.48C79.4411 76.5067 79.6278 76.52 79.9211 76.52C80.2144 76.52 80.4544 76.5067 80.6411 76.48C81.2278 76.3733 81.6811 76.32 82.0011 76.32C82.2411 76.32 82.4144 76.3333 82.5211 76.36C83.6411 76.36 84.2544 76.9733 84.3611 78.2C84.4144 78.52 84.2944 78.7867 84.0011 79C83.7344 79.1867 83.2544 79.28 82.5611 79.28C79.8144 79.3867 78.4278 79.5067 78.4011 79.64C78.2678 79.72 78.0544 80.1333 77.7611 80.88C77.4678 81.6267 77.2278 82.3333 77.0411 83C76.7211 84.3867 76.5611 85.6933 76.5611 86.92C76.5611 88.0933 76.7344 88.8533 77.0811 89.2C77.1878 89.3067 77.3344 89.36 77.5211 89.36C78.0011 89.36 78.6811 89 79.5611 88.28C79.8544 88.0133 80.1744 87.88 80.5211 87.88C80.8144 87.88 81.0411 87.9867 81.2011 88.2C81.3878 88.4133 81.4811 88.6933 81.4811 89.04C81.4811 89.44 81.3478 89.8267 81.0811 90.2C80.6811 90.8133 80.0811 91.32 79.2811 91.72C78.4811 92.12 77.7211 92.32 77.0011 92.32C76.6811 92.32 76.4544 92.2933 76.3211 92.24ZM90.0833 94.4C89.0433 94.3733 88.2966 94.12 87.8433 93.64C87.4166 93.1867 87.2033 92.5333 87.2033 91.68C87.2033 91.4667 87.2299 91.12 87.2833 90.64C87.3899 90.2667 87.4699 89.8933 87.5233 89.52C87.6566 88.9333 87.7899 88.5867 87.9233 88.48C87.9499 88.4533 87.9766 88.4 88.0033 88.32C88.0299 88.24 88.0033 88.1733 87.9233 88.12C87.9233 87.7733 88.0433 87.2933 88.2833 86.68C88.3366 86.4933 88.4033 86.3067 88.4833 86.12C88.5633 85.9333 88.6166 85.8133 88.6433 85.76C88.5899 85.7067 88.5633 85.6267 88.5633 85.52C88.5633 85.3867 88.6299 85.2533 88.7633 85.12C88.9233 84.9867 89.0299 84.8667 89.0833 84.76C89.1633 84.6533 89.1633 84.5467 89.0833 84.44C89.0299 84.3067 89.2833 83.7067 89.8433 82.64C90.1899 81.9467 90.3766 81.56 90.4033 81.48C90.3766 81.4 90.5633 80.9067 90.9633 80C91.3899 79.0933 91.7233 78.4133 91.9633 77.96C92.2033 77.8267 92.1099 77.7333 91.6833 77.68C91.2566 77.6267 90.7366 77.6133 90.1233 77.64C89.2433 77.6133 88.5633 77.5733 88.0833 77.52C87.6033 77.44 87.2166 77.32 86.9233 77.16C86.7366 76.9733 86.6433 76.7333 86.6433 76.44C86.6433 76.0933 86.7633 75.7733 87.0033 75.48C87.2699 75.1867 87.5899 75.0267 87.9633 75C88.6566 74.9733 89.7233 74.88 91.1633 74.72L93.2033 74.56L93.3233 73.88C93.4566 73.64 93.5766 73.44 93.6833 73.28C93.8166 73.0933 93.8966 72.9333 93.9233 72.8C93.9766 72.6667 94.0166 72.4667 94.0433 72.2C94.1233 72.0933 94.2566 71.8267 94.4433 71.4C94.6566 70.9733 94.7899 70.56 94.8433 70.16C95.1366 69.6533 95.4033 69.1733 95.6433 68.72C95.9099 68.24 96.0699 67.96 96.1233 67.88C96.6033 67.16 97.1366 66.8 97.7233 66.8C98.0433 66.8 98.3766 66.9067 98.7233 67.12C99.0699 67.36 99.3366 67.5733 99.5233 67.76C99.7099 67.9467 99.8033 68.2 99.8033 68.52C99.8033 68.76 99.6833 69.1067 99.4433 69.56C99.3366 69.7733 99.1766 70.2 98.9633 70.84C98.7766 71.08 98.5766 71.4133 98.3633 71.84C98.1499 72.24 98.0033 72.6267 97.9233 73C97.8699 73.1333 97.7899 73.32 97.6833 73.56C97.5766 73.7733 97.4966 73.9067 97.4433 73.96C97.4166 73.9867 97.3633 74 97.2833 74C97.3099 74.16 97.3633 74.2667 97.4433 74.32C97.5233 74.3733 97.6566 74.4 97.8433 74.4C97.9766 74.4 98.1366 74.3867 98.3233 74.36C98.5366 74.3333 98.7899 74.32 99.0833 74.32C99.3499 74.2933 99.5766 74.2533 99.7633 74.2C99.9766 74.1467 100.177 74.12 100.363 74.12C100.47 74.12 100.63 74.16 100.843 74.24C100.977 74.4 101.043 74.7067 101.043 75.16C101.043 75.5067 100.99 75.84 100.883 76.16C100.777 76.4533 100.643 76.64 100.483 76.72C100.35 76.7467 100.057 76.8267 99.6033 76.96C99.1499 77.0933 98.6566 77.1733 98.1233 77.2L96.0033 77.4L95.3233 78.76C95.1366 79.08 94.9766 79.3867 94.8433 79.68C94.7099 79.9733 94.6166 80.1467 94.5633 80.2C94.5633 80.3333 94.4566 80.6 94.2433 81C94.0299 81.4 93.8699 81.72 93.7633 81.96C93.6299 82.3333 93.4699 82.7067 93.2833 83.08C93.0966 83.4267 92.9766 83.6533 92.9233 83.76C92.8433 83.76 92.7899 83.7867 92.7633 83.84C92.7633 83.8667 92.7633 83.92 92.7633 84L92.8433 84.32C92.8433 84.4533 92.7766 84.5867 92.6433 84.72C92.5366 84.7733 92.4299 84.8667 92.3233 85C92.2433 85.1333 92.1899 85.2267 92.1633 85.28C92.2166 85.3333 92.2433 85.4 92.2433 85.48C92.2433 85.6667 92.1499 85.9067 91.9633 86.2C91.9633 86.6533 91.7766 87.3333 91.4033 88.24C91.4299 88.72 91.4566 89.0267 91.4833 89.16C91.5099 89.2933 91.5766 89.3467 91.6833 89.32H91.8833L92.7633 89.28C92.9499 89.2 92.9899 89.4 92.8833 89.88C92.8033 90.36 92.5766 91.0933 92.2033 92.08C91.8033 92.6933 91.3766 93.2267 90.9233 93.68C90.4966 94.16 90.2166 94.4 90.0833 94.4ZM105.405 91.68C105.272 91.7067 105.099 91.72 104.885 91.72C104.539 91.72 104.259 91.6667 104.045 91.56C103.832 91.4267 103.579 91.2133 103.285 90.92C102.672 90.6267 102.139 90.1333 101.685 89.44C101.232 88.7467 101.032 88.2 101.085 87.8C101.219 86.52 101.579 85.1333 102.165 83.64C102.752 82.12 103.512 80.76 104.445 79.56C105.405 78.3333 106.419 77.48 107.485 77C107.965 76.8133 108.405 76.72 108.805 76.72C109.632 76.72 110.179 76.9867 110.445 77.52C110.632 77.8933 110.725 78.1733 110.725 78.36C110.725 78.68 110.539 78.8933 110.165 79C110.085 79 109.992 79.04 109.885 79.12C109.779 79.2 109.725 79.28 109.725 79.36C109.752 79.3867 109.872 79.4 110.085 79.4C110.539 79.4 111.099 79.3333 111.765 79.2C112.432 79.0667 112.859 78.92 113.045 78.76C113.205 78.68 113.339 78.64 113.445 78.64L114.005 78.72C114.459 78.8533 114.685 79.0133 114.685 79.2C114.685 79.3333 114.725 79.5067 114.805 79.72C114.912 79.9333 115.005 80.04 115.085 80.04C115.219 80.04 115.285 80.1333 115.285 80.32C115.285 80.48 115.192 80.6933 115.005 80.96C114.845 81.2 114.605 81.44 114.285 81.68C114.152 81.76 113.952 81.88 113.685 82.04C113.445 82.2 113.299 82.3333 113.245 82.44C113.219 82.5467 113.232 82.6933 113.285 82.88C113.392 83.0933 113.445 83.36 113.445 83.68C113.445 84.5867 113.005 85.6533 112.125 86.88C111.245 88.08 110.165 89.1467 108.885 90.08C107.632 91.0133 106.472 91.5467 105.405 91.68ZM105.525 88.32C105.685 88.32 106.085 88.16 106.725 87.84C107.072 87.4933 107.352 87.28 107.565 87.2C107.645 87.2 107.712 87.1333 107.765 87C107.845 86.84 107.965 86.6133 108.125 86.32C108.312 86 108.605 85.5867 109.005 85.08C109.432 84.6 109.725 84.2133 109.885 83.92C110.072 83.6267 110.165 83.3333 110.165 83.04C110.165 82.9333 110.139 82.7467 110.085 82.48C110.059 82.4 109.965 82.3333 109.805 82.28C109.672 82.2 109.539 82.1333 109.405 82.08C109.272 82.08 109.139 82.12 109.005 82.2C108.872 82.2533 108.779 82.28 108.725 82.28C108.592 82.28 108.445 82.2133 108.285 82.08L107.645 81.28L106.965 81.96C106.352 82.5733 105.832 83.4 105.405 84.44C105.005 85.48 104.765 86.4267 104.685 87.28C104.659 87.6533 104.712 87.92 104.845 88.08C105.005 88.2133 105.232 88.2933 105.525 88.32ZM131.778 91.04C130.098 90.9867 129.258 90.04 129.258 88.2C129.258 87.6933 129.298 87.2 129.378 86.72C129.431 86.1333 129.458 85.72 129.458 85.48V85.28V84.84C129.378 84.3067 129.204 84.04 128.938 84.04C128.458 84.04 127.564 84.5067 126.258 85.44C124.978 86.3467 123.631 87.44 122.218 88.72C121.791 89.1733 121.431 89.6 121.138 90C120.871 90.3467 120.671 90.56 120.538 90.64C120.404 90.72 120.191 90.76 119.898 90.76C119.524 90.7067 119.098 90.4267 118.618 89.92C118.138 89.4133 117.818 88.96 117.658 88.56C117.658 87.8133 117.791 87.1067 118.058 86.44C118.324 85.7467 118.724 84.88 119.258 83.84C119.498 83.04 119.804 82.24 120.178 81.44C120.578 80.5067 120.858 79.8 121.018 79.32C121.204 78.8133 121.324 78.2933 121.378 77.76C121.378 77.7333 121.364 77.72 121.338 77.72C121.338 77.6133 121.378 77.52 121.458 77.44C121.538 77.36 121.631 77.32 121.738 77.32C121.791 77.24 121.951 77.2 122.218 77.2C122.911 77.2 123.511 77.3867 124.018 77.76C124.524 78.1333 124.778 78.7067 124.778 79.48C124.778 79.88 124.698 80.2667 124.538 80.64C124.404 80.9867 124.138 81.5733 123.738 82.4L123.298 83.28C123.218 83.44 123.098 83.68 122.938 84C122.778 84.2933 122.698 84.48 122.698 84.56C123.364 84.1067 124.151 83.5067 125.058 82.76C126.391 81.6933 127.484 80.8667 128.338 80.28C129.191 79.6933 129.818 79.4 130.218 79.4C130.564 79.4 131.044 79.6 131.658 80C132.298 80.3733 132.671 80.72 132.778 81.04C132.778 81.2267 132.751 81.5067 132.698 81.88C132.671 82.2533 132.644 82.5867 132.618 82.88L132.658 84.12C132.684 84.3333 132.698 84.6533 132.698 85.08C132.698 85.9333 132.644 86.5333 132.538 86.88C132.564 86.9067 132.591 86.9467 132.618 87C132.644 87.0533 132.658 87.0933 132.658 87.12L132.618 87.2C132.644 87.4667 132.791 87.8933 133.058 88.48C133.324 89.0667 133.458 89.3867 133.458 89.44C133.458 89.7333 133.258 90.0667 132.858 90.44C132.484 90.7867 132.124 90.9867 131.778 91.04Z" fill="white"/>
</g>
<defs>
<filter id="filter0_d" x="0" y="0" width="162" height="162" filterUnits="userSpaceOnUse" color-interpolation-filters="sRGB">
<feFlood flood-opacity="0" result="BackgroundImageFix"/>
<feColorMatrix in="SourceAlpha" type="matrix" values="0 0 0 0 0 0 0 0 0 0 0 0 0 0 0 0 0 0 127 0" result="hardAlpha"/>
<feOffset/>
<feGaussianBlur stdDeviation="3"/>
<feComposite in2="hardAlpha" operator="out"/>
<feColorMatrix type="matrix" values="0 0 0 0 1 0 0 0 0 1 0 0 0 0 1 0 0 0 0.25 0"/>
<feBlend mode="normal" in2="BackgroundImageFix" result="effect1_dropShadow"/>
<feBlend mode="normal" in="SourceGraphic" in2="effect1_dropShadow" result="shape"/>
</filter>
<filter id="filter1_d" x="25.063" y="66.7998" width="112.395" height="35.6001" filterUnits="userSpaceOnUse" color-interpolation-filters="sRGB">
<feFlood flood-opacity="0" result="BackgroundImageFix"/>
<feColorMatrix in="SourceAlpha" type="matrix" values="0 0 0 0 0 0 0 0 0 0 0 0 0 0 0 0 0 0 127 0" result="hardAlpha"/>
<feOffset dy="4"/>
<feGaussianBlur stdDeviation="2"/>
<feComposite in2="hardAlpha" operator="out"/>
<feColorMatrix type="matrix" values="0 0 0 0 0 0 0 0 0 0 0 0 0 0 0 0 0 0 0.25 0"/>
<feBlend mode="normal" in2="BackgroundImageFix" result="effect1_dropShadow"/>
<feBlend mode="normal" in="SourceGraphic" in2="effect1_dropShadow" result="shape"/>
</filter>
<radialGradient id="paint0_radial" cx="0" cy="0" r="1" gradientUnits="userSpaceOnUse" gradientTransform="translate(83.9762 83.381) rotate(-140.366) scale(76.5176)">
<stop stop-color="#FFEBA7" stop-opacity="0"/>
<stop offset="1" stop-color="#FEE488"/>
</radialGradient>
</defs>
</svg>
