<svg width="1005" height="224" viewBox="0 0 1005 224" fill="none" xmlns="http://www.w3.org/2000/svg">
<rect width="1005" height="224" rx="10" fill="#96D4EE" fill-opacity="0.4"/>
<path d="M484.419 101.523C484.419 100.859 484.184 100.352 483.716 100C483.247 99.6406 482.403 99.2656 481.184 98.875C479.966 98.4766 479.001 98.0859 478.29 97.7031C476.352 96.6562 475.384 95.2461 475.384 93.4727C475.384 92.5508 475.641 91.7305 476.157 91.0117C476.68 90.2852 477.427 89.7188 478.395 89.3125C479.372 88.9062 480.466 88.7031 481.677 88.7031C482.895 88.7031 483.981 88.9258 484.934 89.3711C485.887 89.8086 486.626 90.4297 487.149 91.2344C487.68 92.0391 487.946 92.9531 487.946 93.9766H484.43C484.43 93.1953 484.184 92.5898 483.692 92.1602C483.2 91.7227 482.509 91.5039 481.618 91.5039C480.759 91.5039 480.091 91.6875 479.614 92.0547C479.137 92.4141 478.899 92.8906 478.899 93.4844C478.899 94.0391 479.177 94.5039 479.731 94.8789C480.294 95.2539 481.118 95.6055 482.204 95.9336C484.204 96.5352 485.661 97.2812 486.575 98.1719C487.489 99.0625 487.946 100.172 487.946 101.5C487.946 102.977 487.387 104.137 486.27 104.98C485.153 105.816 483.649 106.234 481.759 106.234C480.446 106.234 479.251 105.996 478.173 105.52C477.095 105.035 476.27 104.375 475.7 103.539C475.137 102.703 474.856 101.734 474.856 100.633H478.384C478.384 102.516 479.509 103.457 481.759 103.457C482.595 103.457 483.247 103.289 483.716 102.953C484.184 102.609 484.419 102.133 484.419 101.523ZM494.619 94.7031C495.517 93.625 496.646 93.0859 498.005 93.0859C500.755 93.0859 502.15 94.6836 502.189 97.8789V106H498.802V97.9727C498.802 97.2461 498.646 96.7109 498.334 96.3672C498.021 96.0156 497.502 95.8398 496.775 95.8398C495.783 95.8398 495.064 96.2227 494.619 96.9883V106H491.232V88H494.619V94.7031ZM505.416 99.543C505.416 98.2852 505.659 97.1641 506.143 96.1797C506.627 95.1953 507.323 94.4336 508.229 93.8945C509.143 93.3555 510.202 93.0859 511.405 93.0859C513.116 93.0859 514.51 93.6094 515.588 94.6562C516.674 95.7031 517.28 97.125 517.405 98.9219L517.428 99.7891C517.428 101.734 516.885 103.297 515.799 104.477C514.713 105.648 513.256 106.234 511.428 106.234C509.6 106.234 508.139 105.648 507.045 104.477C505.959 103.305 505.416 101.711 505.416 99.6953V99.543ZM508.803 99.7891C508.803 100.992 509.03 101.914 509.483 102.555C509.936 103.188 510.584 103.504 511.428 103.504C512.248 103.504 512.889 103.191 513.35 102.566C513.811 101.934 514.041 100.926 514.041 99.543C514.041 98.3633 513.811 97.4492 513.35 96.8008C512.889 96.1523 512.241 95.8281 511.405 95.8281C510.577 95.8281 509.936 96.1523 509.483 96.8008C509.03 97.4414 508.803 98.4375 508.803 99.7891ZM531.741 101.395L533.405 93.3203H536.675L533.441 106H530.605L528.202 98.0195L525.8 106H522.976L519.741 93.3203H523.011L524.663 101.383L526.984 93.3203H529.433L531.741 101.395ZM467.619 136.605H460.869V141.176H468.791V144H457.353V126.938H468.767V129.785H460.869V133.852H467.619V136.605ZM476.659 135.105L478.791 131.32H482.412L478.803 137.531L482.565 144H478.932L476.67 140.016L474.42 144H470.776L474.537 137.531L470.94 131.32H474.573L476.659 135.105ZM492.589 144C492.433 143.695 492.32 143.316 492.249 142.863C491.429 143.777 490.362 144.234 489.05 144.234C487.808 144.234 486.777 143.875 485.956 143.156C485.144 142.438 484.737 141.531 484.737 140.438C484.737 139.094 485.234 138.062 486.226 137.344C487.226 136.625 488.667 136.262 490.55 136.254H492.109V135.527C492.109 134.941 491.956 134.473 491.652 134.121C491.355 133.77 490.882 133.594 490.234 133.594C489.663 133.594 489.214 133.73 488.886 134.004C488.566 134.277 488.405 134.652 488.405 135.129H485.019C485.019 134.395 485.245 133.715 485.698 133.09C486.152 132.465 486.792 131.977 487.62 131.625C488.448 131.266 489.378 131.086 490.409 131.086C491.972 131.086 493.21 131.48 494.124 132.27C495.046 133.051 495.507 134.152 495.507 135.574V141.07C495.515 142.273 495.683 143.184 496.011 143.801V144H492.589ZM489.788 141.645C490.288 141.645 490.749 141.535 491.171 141.316C491.593 141.09 491.905 140.789 492.109 140.414V138.234H490.843C489.148 138.234 488.245 138.82 488.136 139.992L488.124 140.191C488.124 140.613 488.273 140.961 488.57 141.234C488.866 141.508 489.273 141.645 489.788 141.645ZM502.484 131.32L502.59 132.738C503.488 131.637 504.703 131.086 506.234 131.086C507.867 131.086 508.988 131.73 509.598 133.02C510.488 131.73 511.758 131.086 513.406 131.086C514.781 131.086 515.805 131.488 516.477 132.293C517.148 133.09 517.484 134.293 517.484 135.902V144H514.086V135.914C514.086 135.195 513.945 134.672 513.664 134.344C513.383 134.008 512.887 133.84 512.176 133.84C511.16 133.84 510.457 134.324 510.066 135.293L510.078 144H506.691V135.926C506.691 135.191 506.547 134.66 506.258 134.332C505.969 134.004 505.477 133.84 504.781 133.84C503.82 133.84 503.125 134.238 502.695 135.035V144H499.309V131.32H502.484ZM532.712 137.777C532.712 139.73 532.266 141.297 531.376 142.477C530.493 143.648 529.298 144.234 527.79 144.234C526.509 144.234 525.473 143.789 524.684 142.898V148.875H521.298V131.32H524.438L524.555 132.562C525.376 131.578 526.446 131.086 527.766 131.086C529.329 131.086 530.544 131.664 531.411 132.82C532.278 133.977 532.712 135.57 532.712 137.602V137.777ZM529.325 137.531C529.325 136.352 529.114 135.441 528.692 134.801C528.278 134.16 527.673 133.84 526.876 133.84C525.813 133.84 525.083 134.246 524.684 135.059V140.25C525.098 141.086 525.837 141.504 526.899 141.504C528.516 141.504 529.325 140.18 529.325 137.531ZM539.595 144H536.197V126H539.595V144ZM549.432 144.234C547.573 144.234 546.057 143.664 544.885 142.523C543.721 141.383 543.139 139.863 543.139 137.965V137.637C543.139 136.363 543.385 135.227 543.877 134.227C544.369 133.219 545.065 132.445 545.963 131.906C546.869 131.359 547.901 131.086 549.057 131.086C550.791 131.086 552.155 131.633 553.147 132.727C554.147 133.82 554.647 135.371 554.647 137.379V138.762H546.573C546.682 139.59 547.01 140.254 547.557 140.754C548.112 141.254 548.811 141.504 549.655 141.504C550.959 141.504 551.979 141.031 552.713 140.086L554.377 141.949C553.869 142.668 553.182 143.23 552.315 143.637C551.448 144.035 550.487 144.234 549.432 144.234ZM549.045 133.828C548.373 133.828 547.827 134.055 547.405 134.508C546.991 134.961 546.725 135.609 546.608 136.453H551.319V136.184C551.303 135.434 551.1 134.855 550.709 134.449C550.319 134.035 549.764 133.828 549.045 133.828Z" fill="white"/>
</svg>
