<svg width="16" height="17" viewBox="0 0 16 17" fill="none" xmlns="http://www.w3.org/2000/svg">
<path fill-rule="evenodd" clip-rule="evenodd" d="M0.292894 0.292893C0.683418 -0.0976311 1.31658 -0.0976311 1.70711 0.292893L8 6.58579L14.2929 0.292894C14.6834 -0.0976305 15.3166 -0.0976305 15.7071 0.292894C16.0976 0.683418 16.0976 1.31658 15.7071 1.70711L8.70711 8.70711C8.51957 8.89464 8.26522 9 8 9C7.73478 9 7.48043 8.89464 7.29289 8.70711L0.292894 1.70711C-0.0976307 1.31658 -0.0976307 0.683417 0.292894 0.292893ZM0.292893 8.29289C0.683417 7.90237 1.31658 7.90237 1.70711 8.29289L8 14.5858L14.2929 8.29289C14.6834 7.90237 15.3166 7.90237 15.7071 8.29289C16.0976 8.68342 16.0976 9.31658 15.7071 9.70711L8.70711 16.7071C8.31658 17.0976 7.68342 17.0976 7.29289 16.7071L0.292893 9.70711C-0.0976311 9.31658 -0.0976311 8.68342 0.292893 8.29289Z" fill="#687782"/>
</svg>
